<?xml version="1.0" encoding="UTF-8" standalone="no"?>
<!-- Created with Inkscape (http://www.inkscape.org/) -->

<svg
   xmlns:dc="http://purl.org/dc/elements/1.1/"
   xmlns:cc="http://creativecommons.org/ns#"
   xmlns:rdf="http://www.w3.org/1999/02/22-rdf-syntax-ns#"
   xmlns:svg="http://www.w3.org/2000/svg"
   xmlns="http://www.w3.org/2000/svg"
   xmlns:sodipodi="http://sodipodi.sourceforge.net/DTD/sodipodi-0.dtd"
   xmlns:inkscape="http://www.inkscape.org/namespaces/inkscape"
   id="svg8"
   version="1.1"
   viewBox="0 0 108.24714 72.760445"
   height="275.00009"
   width="409.12305"
   sodipodi:docname="custom1_gauge.svg"
   inkscape:version="0.92.4 (unknown)">
  <sodipodi:namedview
     inkscape:window-maximized="1"
     inkscape:window-y="0"
     inkscape:window-x="1920"
     inkscape:window-height="1172"
     inkscape:window-width="1920"
     showgrid="false"
     inkscape:current-layer="layer1"
     inkscape:document-units="px"
     inkscape:cy="26.486669"
     inkscape:cx="161.06312"
     inkscape:zoom="2"
     inkscape:pageshadow="2"
     inkscape:pageopacity="0.0"
     borderopacity="1.0"
     bordercolor="#666666"
     pagecolor="#ffffff"
     id="base"
     units="px" />
  <defs
     id="defs2" />
  <metadata
     id="metadata5">
    <rdf:RDF>
      <cc:Work
         rdf:about="">
        <dc:format>image/svg+xml</dc:format>
        <dc:type
           rdf:resource="http://purl.org/dc/dcmitype/StillImage" />
        <dc:title></dc:title>
      </cc:Work>
    </rdf:RDF>
  </metadata>
  <g
     id="layer1"
     inkscape:groupmode="layer"
     inkscape:label="Layer 1"
     transform="translate(-64.029166,-58.081208)">
    <g
       id="g82"
       inkscape:label="#base">
      <path
         inkscape:connector-curvature="0"
         style="opacity:1;fill:#8c5282;fill-opacity:1;stroke-width:1.52777767"
         d="m 462,219.51953 a 220,220 0 0 0 -48.25,5.54492 v 79.66797 a 167.5,167.5 0 0 1 34.93359,4.63281 l 23.97266,-89.46875 A 220,220 0 0 0 462,219.51953 Z"
         transform="scale(0.26458333)"
         id="path987" />
      <path
         inkscape:connector-curvature="0"
         style="opacity:1;fill:#a04969;fill-opacity:1;stroke-width:1.52777767"
         d="m 481.28906,220.52344 -24.36914,90.94531 a 167.5,167.5 0 0 1 32.61524,13.42578 l 52.20117,-90.41601 a 220,220 0 0 0 -60.44727,-13.95508 z"
         transform="scale(0.26458333)"
         id="path985" />
      <path
         inkscape:connector-curvature="0"
         style="opacity:1;fill:#795b9b;fill-opacity:1;stroke-width:1.52777767"
         d="m 405.25,227.23438 a 220,220 0 0 0 -51.35742,20.83203 l 16.43164,61.32617 A 167.5,167.5 0 0 1 405.25,304.68945 Z"
         transform="scale(0.26458333)"
         id="path983" />
      <path
         inkscape:connector-curvature="0"
         style="opacity:1;fill:#b44050;fill-opacity:1;stroke-width:1.52777767"
         d="m 549.53516,237.96875 -52.73633,91.34375 a 167.5,167.5 0 0 1 27.95508,21.44141 l 79.09179,-79.0918 a 220,220 0 0 0 -54.31054,-33.69336 z"
         transform="scale(0.26458333)"
         id="path981" />
      <path
         inkscape:connector-curvature="0"
         style="opacity:1;fill:#6564b4;fill-opacity:1;stroke-width:1.52777767"
         d="m 346.33398,252.70117 a 220,220 0 0 0 -40.2207,31.74414 l 23.42383,40.57422 a 167.5,167.5 0 0 1 32.53906,-13.5625 z"
         transform="scale(0.26458333)"
         id="path979" />
      <path
         inkscape:connector-curvature="0"
         style="opacity:1;fill:#c83737;fill-opacity:1;stroke-width:1.52777767"
         d="m 610.24805,277.2832 -79.39649,79.39649 a 167.5,167.5 0 0 1 21.41406,28.00781 l 98.85743,-57.07617 a 220,220 0 0 0 -40.875,-50.32813 z"
         transform="scale(0.26458333)"
         id="path977" />
      <path
         inkscape:connector-curvature="0"
         style="opacity:1;fill:#516dcd;fill-opacity:1;stroke-width:1.52777767"
         d="m 300.05078,290.94727 a 220,220 0 0 0 -27.81445,37.79687 l 21.99414,21.99414 a 167.5,167.5 0 0 1 27.97265,-21.42187 z"
         transform="scale(0.26458333)"
         id="path975" />
      <path
         inkscape:connector-curvature="0"
         style="opacity:1;fill:#3d76e6;fill-opacity:1;stroke-width:1.52777767"
         d="m 267.85156,336.38281 a 220,220 0 0 0 -16.26367,39.56055 l 15.25195,8.80469 a 167.5,167.5 0 0 1 21.41407,-27.96289 z"
         transform="scale(0.26458333)"
         id="path971" />
      <path
         inkscape:connector-curvature="0"
         style="opacity:1;fill:#2a7fff;fill-opacity:1;stroke-width:1.52777767"
         d="M 249.1875,384.37109 A 220,220 0 0 0 242,439.51953 a 220,220 0 0 0 0.75977,17.28906 167.5,167.5 0 0 1 19.70117,-64.77343 z"
         transform="scale(0.26458333)"
         id="path969" />
      <path
         inkscape:connector-curvature="0"
         style="opacity:1;fill:#ffffff;stroke-width:0.63245547"
         d="m 409.5,316.51953 a 155.5,155.5 0 0 0 -2,0.0996 v 16.9707 a 138.5,138.5 0 0 1 2,-0.0703 138.5,138.5 0 0 1 2,0.0996 v -17.0293 a 155.5,155.5 0 0 0 -2,-0.0703 z m 38.27539,4.91992 -4.41016,16.46289 a 138.5,138.5 0 0 1 3.87696,0.98828 l 4.42578,-16.51562 a 155.5,155.5 0 0 0 -3.89258,-0.93555 z M 371.24023,321.5 a 155.5,155.5 0 0 0 -3.87695,0.99023 l 4.3711,16.31446 a 138.5,138.5 0 0 1 3.88671,-0.94922 z m -37.71484,14.92773 a 155.5,155.5 0 0 0 -3.41211,2.0918 l 8.48828,14.70117 a 138.5,138.5 0 0 1 3.47071,-1.99023 z m 151.89258,0.0977 -8.43555,14.61133 a 138.5,138.5 0 0 1 3.41016,2.0918 l 8.49609,-14.7129 a 155.5,155.5 0 0 0 -3.4707,-1.99023 z m 32.60547,24.14258 -12.11524,12.11523 a 138.5,138.5 0 0 1 2.92969,2.72657 L 520.75,363.59766 a 155.5,155.5 0 0 0 -2.72656,-2.92969 z m -216.94532,0.10156 a 155.5,155.5 0 0 0 -2.92968,2.72656 l 12.11523,12.11524 a 138.5,138.5 0 0 1 2.72656,-2.92969 z m -25.08203,31.86133 a 155.5,155.5 0 0 0 -1.99023,3.4707 l 14.61133,8.4375 a 138.5,138.5 0 0 1 2.09179,-3.41211 z"
         transform="scale(0.26458333)"
         id="rect991" />
    </g>
    <circle
       style="display:inline;fill:#ff0000;fill-opacity:1;stroke-width:0.26458335"
       id="needlepoint"
       cx="108.34689"
       cy="124.88853"
       r="0.11575521" />
    <g
       id="needle"
       inkscape:label="#needle"
       style="fill:#e6e6e6">
      <g
         inkscape:label="#ghnhgn"
         id="ghngh"
         transform="translate(-18.993307,-35.284089)"
         style="fill:#e6e6e6">
        <path
           style="opacity:1;fill:#e6e6e6;fill-opacity:1;stroke-width:0.25495422"
           d="m 86.272743,160.94286 -0.0017,-1.45521 36.094777,-1.9603 0.006,5.29053 z"
           id="rect1382"
           inkscape:connector-curvature="0"
           sodipodi:nodetypes="ccccc"
           inkscape:transform-center-y="1.3e-05"
           inkscape:transform-center-x="18.056342" />
      </g>
      <circle
         r="5.9531236"
         style="opacity:1;fill:#e6e6e6;stroke-width:0.04134114"
         cy="124.88853"
         cx="108.34689"
         id="path815" />
    </g>
  </g>
</svg>
