<?xml version="1.0" encoding="UTF-8"?><svg xmlns="http://www.w3.org/2000/svg" xmlns:xlink="http://www.w3.org/1999/xlink" fill-opacity="1" color-rendering="auto" color-interpolation="auto" text-rendering="auto" stroke="black" stroke-linecap="square" width="814" stroke-miterlimit="10" shape-rendering="auto" stroke-opacity="1" fill="black" stroke-dasharray="none" font-weight="normal" stroke-width="1" height="580" font-family="'Dialog'" font-style="normal" stroke-linejoin="miter" font-size="12px" stroke-dashoffset="0" image-rendering="auto">
  <!--Generated by ySVG 2.5-->
  <defs id="genericDefs"/>
  <g>
    <defs id="defs1">
      <clipPath clipPathUnits="userSpaceOnUse" id="clipPath1">
        <path d="M0 0 L814 0 L814 580 L0 580 L0 0 Z"/>
      </clipPath>
      <clipPath clipPathUnits="userSpaceOnUse" id="clipPath2">
        <path d="M275 327 L1089 327 L1089 907 L275 907 L275 327 Z"/>
      </clipPath>
    </defs>
    <g fill="white" text-rendering="geometricPrecision" shape-rendering="geometricPrecision" transform="translate(-275,-327)" stroke="white">
      <rect x="275" width="814" height="580" y="327" clip-path="url(#clipPath2)" stroke="none"/>
    </g>
    <g text-rendering="geometricPrecision" stroke-miterlimit="1.45" shape-rendering="geometricPrecision" transform="matrix(1,0,0,1,-275,-327)" stroke-linecap="butt">
      <rect fill="none" x="290" width="366" height="414" y="477.5" clip-path="url(#clipPath2)"/>
      <text x="389.2534" font-size="18px" y="467.2549" clip-path="url(#clipPath2)" font-family="sans-serif" stroke="none" font-weight="bold" xml:space="preserve">User Application</text>
      <rect fill="none" x="718" width="356" height="371" y="371" clip-path="url(#clipPath2)"/>
      <text x="876.3257" font-size="18px" y="360.7549" clip-path="url(#clipPath2)" font-family="sans-serif" stroke="none" font-weight="bold" xml:space="preserve">EGT</text>
    </g>
    <g fill="silver" text-rendering="geometricPrecision" shape-rendering="geometricPrecision" transform="matrix(1,0,0,1,-275,-327)" stroke="silver">
      <rect x="740" width="135" height="65" y="489" clip-path="url(#clipPath2)" stroke="none"/>
    </g>
    <g text-rendering="geometricPrecision" stroke-miterlimit="1.45" shape-rendering="geometricPrecision" transform="matrix(1,0,0,1,-275,-327)" stroke-linecap="butt">
      <rect fill="none" x="740" width="135" height="65" y="489" clip-path="url(#clipPath2)"/>
      <text x="760.0801" xml:space="preserve" y="525.6543" clip-path="url(#clipPath2)" font-family="sans-serif" stroke="none">egt::Application</text>
    </g>
    <g fill="silver" text-rendering="geometricPrecision" shape-rendering="geometricPrecision" transform="matrix(1,0,0,1,-275,-327)" stroke="silver">
      <rect x="830" width="103" height="49" y="402" clip-path="url(#clipPath2)" stroke="none"/>
    </g>
    <g text-rendering="geometricPrecision" stroke-miterlimit="1.45" shape-rendering="geometricPrecision" transform="matrix(1,0,0,1,-275,-327)" stroke-linecap="butt">
      <rect fill="none" x="830" width="103" height="49" y="402" clip-path="url(#clipPath2)"/>
      <text x="859.3838" xml:space="preserve" y="430.6543" clip-path="url(#clipPath2)" font-family="sans-serif" stroke="none">Display</text>
    </g>
    <g fill="silver" text-rendering="geometricPrecision" shape-rendering="geometricPrecision" transform="matrix(1,0,0,1,-275,-327)" stroke="silver">
      <rect x="938" width="111" height="49" y="497" clip-path="url(#clipPath2)" stroke="none"/>
    </g>
    <g text-rendering="geometricPrecision" stroke-miterlimit="1.45" shape-rendering="geometricPrecision" transform="matrix(1,0,0,1,-275,-327)" stroke-linecap="butt">
      <rect fill="none" x="938" width="111" height="49" y="497" clip-path="url(#clipPath2)"/>
      <text x="954.5" xml:space="preserve" y="525.6543" clip-path="url(#clipPath2)" font-family="sans-serif" stroke="none">TouchScreen</text>
    </g>
    <g fill="red" text-rendering="geometricPrecision" shape-rendering="geometricPrecision" transform="matrix(1,0,0,1,-275,-327)" stroke="red">
      <rect x="837.5" width="117" height="36" y="672" clip-path="url(#clipPath2)" stroke="none"/>
    </g>
    <g text-rendering="geometricPrecision" stroke-miterlimit="1.45" shape-rendering="geometricPrecision" transform="matrix(1,0,0,1,-275,-327)" stroke-linecap="butt">
      <rect fill="none" x="837.5" width="117" height="36" y="672" clip-path="url(#clipPath2)"/>
      <text x="850.4229" xml:space="preserve" y="694.1543" clip-path="url(#clipPath2)" font-family="sans-serif" stroke="none">egt::EventLoop</text>
    </g>
    <g fill="rgb(153,204,255)" text-rendering="geometricPrecision" shape-rendering="geometricPrecision" transform="matrix(1,0,0,1,-275,-327)" stroke="rgb(153,204,255)">
      <rect x="302.5" width="135" height="42" y="500.5" clip-path="url(#clipPath2)" stroke="none"/>
    </g>
    <g text-rendering="geometricPrecision" stroke-miterlimit="1.45" shape-rendering="geometricPrecision" transform="matrix(1,0,0,1,-275,-327)" stroke-linecap="butt">
      <rect fill="none" x="302.5" width="135" height="42" y="500.5" clip-path="url(#clipPath2)"/>
      <text x="321.1709" xml:space="preserve" y="525.6543" clip-path="url(#clipPath2)" font-family="sans-serif" stroke="none">egt::TopWindow</text>
    </g>
    <g fill="rgb(153,204,255)" text-rendering="geometricPrecision" shape-rendering="geometricPrecision" transform="matrix(1,0,0,1,-275,-327)" stroke="rgb(153,204,255)">
      <rect x="314.5" width="111" height="36" y="565.5" clip-path="url(#clipPath2)" stroke="none"/>
    </g>
    <g text-rendering="geometricPrecision" stroke-miterlimit="1.45" shape-rendering="geometricPrecision" transform="matrix(1,0,0,1,-275,-327)" stroke-linecap="butt">
      <rect fill="none" x="314.5" width="111" height="36" y="565.5" clip-path="url(#clipPath2)"/>
      <text x="336.0068" xml:space="preserve" y="587.6543" clip-path="url(#clipPath2)" font-family="sans-serif" stroke="none">egt::Button</text>
    </g>
    <g fill="rgb(153,204,255)" text-rendering="geometricPrecision" shape-rendering="geometricPrecision" transform="matrix(1,0,0,1,-275,-327)" stroke="rgb(153,204,255)">
      <rect x="450" width="196" height="65" y="594.5" clip-path="url(#clipPath2)" stroke="none"/>
    </g>
    <g text-rendering="geometricPrecision" stroke-miterlimit="1.45" shape-rendering="geometricPrecision" transform="matrix(1,0,0,1,-275,-327)" stroke-linecap="butt">
      <rect fill="none" x="450" width="196" height="65" y="594.5" clip-path="url(#clipPath2)"/>
      <text x="459.4561" xml:space="preserve" y="617.1855" clip-path="url(#clipPath2)" font-family="sans-serif" stroke="none">mybutton.on_click([](Event&amp;)</text>
      <text x="459.4561" xml:space="preserve" y="631.1543" clip-path="url(#clipPath2)" font-family="sans-serif" stroke="none">{</text>
      <text x="459.4561" xml:space="preserve" y="645.123" clip-path="url(#clipPath2)" font-family="sans-serif" stroke="none">});</text>
    </g>
    <g fill="rgb(204,153,255)" text-rendering="geometricPrecision" shape-rendering="geometricPrecision" transform="matrix(1,0,0,1,-275,-327)" stroke="rgb(204,153,255)">
      <rect x="379.5" width="161" height="49" y="814.5" clip-path="url(#clipPath2)" stroke="none"/>
    </g>
    <g text-rendering="geometricPrecision" stroke-miterlimit="1.45" shape-rendering="geometricPrecision" transform="matrix(1,0,0,1,-275,-327)" stroke-linecap="butt">
      <rect fill="none" x="379.5" width="161" height="49" y="814.5" clip-path="url(#clipPath2)"/>
      <text x="393.7832" xml:space="preserve" y="843.1543" clip-path="url(#clipPath2)" font-family="sans-serif" stroke="none">egt::Application::run()</text>
    </g>
    <g fill="rgb(204,255,255)" text-rendering="geometricPrecision" shape-rendering="geometricPrecision" transform="matrix(1,0,0,1,-275,-327)" stroke="rgb(204,255,255)">
      <rect x="314.5" width="111" height="36" y="659.5" clip-path="url(#clipPath2)" stroke="none"/>
    </g>
    <g text-rendering="geometricPrecision" stroke-miterlimit="1.45" shape-rendering="geometricPrecision" transform="matrix(1,0,0,1,-275,-327)" stroke-linecap="butt">
      <rect fill="none" x="314.5" width="111" height="36" y="659.5" clip-path="url(#clipPath2)"/>
      <text x="338.7695" xml:space="preserve" y="681.6543" clip-path="url(#clipPath2)" font-family="sans-serif" stroke="none">egt::Timer</text>
    </g>
    <g fill="rgb(204,255,255)" text-rendering="geometricPrecision" shape-rendering="geometricPrecision" transform="matrix(1,0,0,1,-275,-327)" stroke="rgb(204,255,255)">
      <rect x="450" width="196" height="59" y="712" clip-path="url(#clipPath2)" stroke="none"/>
    </g>
    <g text-rendering="geometricPrecision" stroke-miterlimit="1.45" shape-rendering="geometricPrecision" transform="matrix(1,0,0,1,-275,-327)" stroke-linecap="butt">
      <rect fill="none" x="450" width="196" height="59" y="712" clip-path="url(#clipPath2)"/>
      <text x="475.1152" xml:space="preserve" y="731.6855" clip-path="url(#clipPath2)" font-family="sans-serif" stroke="none">mytimer.on_timeout([]()</text>
      <text x="475.1152" xml:space="preserve" y="745.6543" clip-path="url(#clipPath2)" font-family="sans-serif" stroke="none">{</text>
      <text x="475.1152" xml:space="preserve" y="759.623" clip-path="url(#clipPath2)" font-family="sans-serif" stroke="none">});</text>
      <path fill="none" d="M832.8158 489 L857.4997 457.3112" clip-path="url(#clipPath2)"/>
      <path d="M862.4158 451 L851.0971 457.3943 L856.8852 458.1001 L858.9862 463.5394 Z" clip-path="url(#clipPath2)" stroke="none"/>
      <path fill="none" d="M875 521.5 L930 521.5" clip-path="url(#clipPath2)"/>
      <path d="M938 521.5 L926 516.5 L929 521.5 L926 526.5 Z" clip-path="url(#clipPath2)" stroke="none"/>
      <path fill="none" d="M824.5698 554 L882.8261 664.9175" clip-path="url(#clipPath2)"/>
      <path d="M886.546 672 L885.3927 659.0513 L882.3611 664.0322 L876.5396 663.7012 Z" clip-path="url(#clipPath2)" stroke="none"/>
      <path fill="none" d="M979.3234 546 L910.4221 665.0756" clip-path="url(#clipPath2)" stroke="blue"/>
      <path fill="blue" d="M906.4154 671.9999 L916.7532 664.1176 L910.9229 664.2101 L908.0977 659.1093 Z" clip-path="url(#clipPath2)" stroke="none"/>
      <path fill="none" d="M437.5 521.5 L732 521.5" clip-path="url(#clipPath2)"/>
      <path d="M740 521.5 L728 516.5 L731 521.5 L728 526.5 Z" clip-path="url(#clipPath2)" stroke="none"/>
      <path fill="none" d="M370 565.5 L370 550.5" clip-path="url(#clipPath2)"/>
      <path d="M370 542.5 L365 554.5 L370 551.5 L375 554.5 Z" clip-path="url(#clipPath2)" stroke="none"/>
      <path fill="none" d="M837.5 679.4095 L653.8721 646.1665" clip-path="url(#clipPath2)" stroke="blue"/>
      <path fill="blue" d="M646 644.7414 L656.9174 651.7991 L654.8561 646.3447 L658.6987 641.959 Z" clip-path="url(#clipPath2)" stroke="none"/>
      <path fill="none" d="M531.6913 814.5 L835.7587 710.587" clip-path="url(#clipPath2)"/>
      <path d="M843.3289 708 L830.3568 707.1492 L834.8124 710.9104 L833.5905 716.6119 Z" clip-path="url(#clipPath2)" stroke="none"/>
      <path fill="none" d="M425.5 678.8189 L829.5023 688.4197" clip-path="url(#clipPath2)" stroke="rgb(255,102,0)"/>
      <path fill="rgb(255,102,0)" d="M837.5 688.6098 L825.6222 683.3261 L828.5026 688.396 L825.3846 693.3233 Z" clip-path="url(#clipPath2)" stroke="none"/>
      <path fill="none" d="M837.5 698.6573 L653.9138 725.826" clip-path="url(#clipPath2)" stroke="rgb(255,102,0)"/>
      <path fill="rgb(255,102,0)" d="M646 726.9971 L658.6027 730.1865 L654.903 725.6796 L657.1387 720.2943 Z" clip-path="url(#clipPath2)" stroke="none"/>
    </g>
  </g>
</svg>
