<?xml version="1.0" encoding="UTF-8" standalone="no"?>
<!-- Created with Inkscape (http://www.inkscape.org/) -->

<svg
   xmlns:dc="http://purl.org/dc/elements/1.1/"
   xmlns:cc="http://creativecommons.org/ns#"
   xmlns:rdf="http://www.w3.org/1999/02/22-rdf-syntax-ns#"
   xmlns:svg="http://www.w3.org/2000/svg"
   xmlns="http://www.w3.org/2000/svg"
   xmlns:sodipodi="http://sodipodi.sourceforge.net/DTD/sodipodi-0.dtd"
   xmlns:inkscape="http://www.inkscape.org/namespaces/inkscape"
   version="1.1"
   id="svg2"
   xml:space="preserve"
   width="308.71533"
   height="97.2976"
   viewBox="0 0 308.71533 97.2976"
   sodipodi:docname="logo_white.svg"
   inkscape:version="0.92.4 (unknown)"><metadata
     id="metadata8"><rdf:RDF><cc:Work
         rdf:about=""><dc:format>image/svg+xml</dc:format><dc:type
           rdf:resource="http://purl.org/dc/dcmitype/StillImage" /><dc:title></dc:title></cc:Work></rdf:RDF></metadata><defs
     id="defs6"><clipPath
       clipPathUnits="userSpaceOnUse"
       id="clipPath22"><path
         d="M 0,792 H 612 V 0 H 0 Z"
         id="path20"
         inkscape:connector-curvature="0" /></clipPath><clipPath
       clipPathUnits="userSpaceOnUse"
       id="clipPath70"><path
         d="M 0,792 H 612 V 0 H 0 Z"
         id="path68"
         inkscape:connector-curvature="0" /></clipPath><clipPath
       clipPathUnits="userSpaceOnUse"
       id="clipPath106"><path
         d="M 0,792 H 612 V 0 H 0 Z"
         id="path104"
         inkscape:connector-curvature="0" /></clipPath><clipPath
       clipPathUnits="userSpaceOnUse"
       id="clipPath418"><path
         d="M 0,792 H 612 V 0 H 0 Z"
         id="path416"
         inkscape:connector-curvature="0" /></clipPath></defs><sodipodi:namedview
     pagecolor="#ffffff"
     bordercolor="#666666"
     borderopacity="1"
     objecttolerance="10"
     gridtolerance="10"
     guidetolerance="10"
     inkscape:pageopacity="0"
     inkscape:pageshadow="2"
     inkscape:window-width="1920"
     inkscape:window-height="1124"
     id="namedview4"
     showgrid="false"
     fit-margin-top="0"
     fit-margin-left="0"
     fit-margin-right="0"
     fit-margin-bottom="0"
     inkscape:zoom="0.89393939"
     inkscape:cx="87.343586"
     inkscape:cy="-44.238786"
     inkscape:window-x="0"
     inkscape:window-y="24"
     inkscape:window-maximized="1"
     inkscape:current-layer="g10" /><g
     id="g10"
     inkscape:groupmode="layer"
     inkscape:label="190314-MPU-LOGO-EGT-Comp3"
     transform="matrix(1.3333333,0,0,-1.3333333,-129.9276,669.53638)"><g
       id="g36"
       transform="translate(140.6055,502.1523)"><path
         d="m 0,0 -33.427,-19.214 -0.014,-18.573 7.133,-4.001 -0.065,17.274 15.138,-8.796 0.93,0.596 0.01,1.182 -14.978,8.678 25.075,14.407 18.137,-10.764 -0.113,-27.995 6.905,3.914 0.061,28.577 z"
         style="fill:#0b8ed8;fill-opacity:1;fill-rule:nonzero;stroke:none"
         id="path38"
         inkscape:connector-curvature="0" /></g><g
       id="g40"
       transform="translate(140.2412,490.7451)"><path
         d="m 0,0 -6.916,-3.794 14.542,-8.539 -16.001,-7.862 v -1.157 l 0.95,-0.601 16.032,7.889 -0.096,-28.993 -17.98,-10.325 -23.677,13.917 -0.072,-7.937 24.206,-14.164 24.734,14.106 0.119,38.146 z"
         style="fill:#66c430;fill-opacity:1;fill-rule:nonzero;stroke:none"
         id="path42"
         inkscape:connector-curvature="0" /></g><g
       id="g44"
       transform="translate(132.0957,448.6689)"><path
         d="m 0,0 v 18.433 l -0.967,0.653 -1.018,-0.653 V 0.032 L -27.286,14.5 v 21.09 l 24.157,13.7 -6.89,3.94 -24.631,-14.041 v -28.83 l 33.584,-18.696 15.561,8.79 0.036,7.434 z"
         style="fill:#f14624;fill-opacity:1;fill-rule:nonzero;stroke:none"
         id="path46"
         inkscape:connector-curvature="0" /></g><g
       id="g200"
       transform="translate(176.1113,467.8677)"
       style="fill:#ffffff"><path
         d="m 0,0 v 16.715 c 0,0.357 0.178,0.535 0.535,0.535 h 12.291 c 0.356,0 0.534,-0.178 0.534,-0.535 v -3.384 c 0,-0.357 -0.178,-0.535 -0.534,-0.535 H 5.701 c -0.238,0 -0.357,-0.119 -0.357,-0.356 V 8.7 c 0,-0.238 0.119,-0.357 0.357,-0.357 h 5.937 c 0.356,0 0.534,-0.178 0.534,-0.534 V 4.424 C 12.172,4.068 11.994,3.89 11.638,3.89 H 5.701 C 5.463,3.89 5.344,3.771 5.344,3.533 V 1.366 c 0,-1.287 0.643,-1.929 1.929,-1.929 h 5.924 c 0.355,0 0.533,-0.178 0.533,-0.535 v -3.384 c 0,-0.356 -0.178,-0.535 -0.533,-0.535 H 5.018 c -1.386,0 -2.569,0.49 -3.549,1.47 C 0.49,-2.567 0,-1.385 0,0"
         style="fill:#ffffff;fill-opacity:1;fill-rule:nonzero;stroke:none"
         id="path202"
         inkscape:connector-curvature="0" /></g><g
       id="g204"
       transform="translate(205.3008,471.8462)"
       style="fill:#ffffff"><path
         d="m 0,0 v 12.737 c 0,0.356 0.178,0.534 0.535,0.534 h 4.289 c 0.346,0 0.519,-0.178 0.519,-0.534 V -8.461 c 0,-0.356 -0.173,-0.534 -0.519,-0.534 h -6.145 c -0.356,0 -0.594,0.178 -0.713,0.534 L -6.369,4.365 V -8.461 c 0,-0.356 -0.173,-0.534 -0.519,-0.534 h -4.29 c -0.356,0 -0.534,0.178 -0.534,0.534 v 21.198 c 0,0.356 0.178,0.534 0.534,0.534 h 6.175 c 0.357,0 0.594,-0.178 0.712,-0.534 z"
         style="fill:#ffffff;fill-opacity:1;fill-rule:nonzero;stroke:none"
         id="path206"
         inkscape:connector-curvature="0" /></g><g
       id="g208"
       transform="translate(228.1807,473.9844)"
       style="fill:#ffffff"><path
         d="m 0,0 c 0.356,-0.564 0.535,-1.203 0.535,-1.915 v -4.202 c 0,-1.385 -0.49,-2.567 -1.469,-3.547 -0.98,-0.98 -2.163,-1.469 -3.548,-1.469 h -8.55 c -0.357,0 -0.535,0.178 -0.535,0.534 v 3.385 c 0,0.356 0.178,0.534 0.535,0.534 h 7.035 c 0.792,0 1.188,0.395 1.188,1.187 v 1.856 c 0,0.732 -0.321,1.178 -0.965,1.336 l -5.091,1.232 c -0.703,0.129 -1.321,0.46 -1.856,0.995 L -12.795,0 c -0.178,0.188 -0.331,0.386 -0.46,0.594 -0.356,0.564 -0.535,1.202 -0.535,1.915 v 3.606 c 0,1.386 0.491,2.569 1.47,3.548 0.98,0.98 2.162,1.47 3.548,1.47 h 8.105 c 0.355,0 0.534,-0.178 0.534,-0.534 V 7.214 c 0,-0.357 -0.179,-0.535 -0.534,-0.535 h -6.591 c -0.792,0 -1.188,-0.395 -1.188,-1.187 V 4.23 c 0,-0.732 0.321,-1.178 0.965,-1.335 L -2.389,1.663 C -1.686,1.534 -1.068,1.202 -0.533,0.668 -0.515,0.648 -0.489,0.624 -0.459,0.594 -0.282,0.406 -0.128,0.208 0,0"
         style="fill:#ffffff;fill-opacity:1;fill-rule:nonzero;stroke:none"
         id="path210"
         inkscape:connector-curvature="0" /></g><g
       id="g212"
       transform="translate(232.4624,467.8677)"
       style="fill:#ffffff"><path
         d="m 0,0 v 16.715 c 0,0.357 0.178,0.535 0.534,0.535 h 12.292 c 0.356,0 0.534,-0.178 0.534,-0.535 v -3.384 c 0,-0.357 -0.178,-0.535 -0.534,-0.535 H 5.7 c -0.238,0 -0.357,-0.119 -0.357,-0.356 V 8.7 C 5.343,8.462 5.462,8.343 5.7,8.343 h 5.938 c 0.356,0 0.534,-0.178 0.534,-0.534 V 4.424 C 12.172,4.068 11.994,3.89 11.638,3.89 H 5.7 C 5.462,3.89 5.343,3.771 5.343,3.533 V 1.366 c 0,-1.287 0.644,-1.929 1.93,-1.929 h 5.924 c 0.355,0 0.533,-0.178 0.533,-0.535 v -3.384 c 0,-0.356 -0.178,-0.535 -0.533,-0.535 h -8.18 c -1.386,0 -2.567,0.49 -3.547,1.47 C 0.49,-2.567 0,-1.385 0,0"
         style="fill:#ffffff;fill-opacity:1;fill-rule:nonzero;stroke:none"
         id="path214"
         inkscape:connector-curvature="0" /></g><g
       id="g216"
       transform="translate(259.4546,462.8511)"
       style="fill:#ffffff"><path
         d="M 0,0 C -0.356,0 -0.574,0.178 -0.653,0.534 L -4.171,15.467 V 0.534 C -4.171,0.178 -4.345,0 -4.691,0 H -8.98 c -0.357,0 -0.535,0.178 -0.535,0.534 v 21.198 c 0,0.356 0.178,0.534 0.535,0.534 h 6.664 c 0.357,0 0.574,-0.178 0.653,-0.534 L 1.885,6.694 5.433,21.732 c 0.079,0.356 0.296,0.534 0.653,0.534 h 6.665 c 0.357,0 0.535,-0.178 0.535,-0.534 V 0.534 C 13.286,0.178 13.108,0 12.751,0 H 8.461 C 8.115,0 7.941,0.178 7.941,0.534 V 15.467 L 4.423,0.534 C 4.344,0.178 4.126,0 3.771,0 Z"
         style="fill:#ffffff;fill-opacity:1;fill-rule:nonzero;stroke:none"
         id="path218"
         inkscape:connector-curvature="0" /></g><g
       id="g220"
       transform="translate(281.8311,471.4009)"
       style="fill:#ffffff"><path
         d="m 0,0 v -3.74 c 0,-0.238 0.119,-0.356 0.356,-0.356 h 2.539 c 0.94,0 1.41,0.395 1.41,1.186 v 2.079 c 0,0.791 -0.396,1.187 -1.188,1.187 H 0.356 C 0.119,0.356 0,0.238 0,0 M 0,8.907 V 5.167 C 0,4.929 0.119,4.81 0.356,4.81 h 2.39 c 0.693,0 1.04,0.347 1.04,1.039 v 2.375 c 0,0.693 -0.347,1.039 -1.04,1.039 H 0.356 C 0.119,9.263 0,9.144 0,8.907 m 4.112,4.809 c 1.386,0 2.568,-0.489 3.548,-1.469 0.979,-0.98 1.469,-2.163 1.469,-3.548 V 7.006 C 9.129,5.621 8.639,4.439 7.66,3.459 7.56,3.36 7.461,3.271 7.363,3.192 V 3.177 C 7.649,2.989 7.921,2.771 8.179,2.524 9.159,1.554 9.648,0.361 9.648,-1.054 V -3.533 C 9.648,-4.918 9.159,-6.101 8.179,-7.08 7.2,-8.06 6.017,-8.55 4.632,-8.55 h -9.441 c -0.357,0 -0.535,0.178 -0.535,0.534 v 21.198 c 0,0.357 0.178,0.534 0.535,0.534 z"
         style="fill:#ffffff;fill-opacity:1;fill-rule:nonzero;stroke:none"
         id="path222"
         inkscape:connector-curvature="0" /></g><g
       id="g224"
       transform="translate(296.6963,464.3208)"
       style="fill:#ffffff"><path
         d="m 0,0 c -0.98,0.979 -1.47,2.162 -1.47,3.547 v 16.715 c 0,0.357 0.154,0.534 0.461,0.534 h 4.348 c 0.357,0 0.535,-0.177 0.535,-0.534 V 3.517 c 0,-0.355 0.178,-0.533 0.534,-0.533 h 9.47 c 0.356,0 0.535,-0.178 0.535,-0.535 v -3.385 c 0,-0.356 -0.179,-0.534 -0.535,-0.534 H 3.547 C 2.162,-1.47 0.98,-0.98 0,0"
         style="fill:#ffffff;fill-opacity:1;fill-rule:nonzero;stroke:none"
         id="path226"
         inkscape:connector-curvature="0" /></g><g
       id="g228"
       transform="translate(314.3359,467.8677)"
       style="fill:#ffffff"><path
         d="m 0,0 v 16.715 c 0,0.357 0.179,0.535 0.535,0.535 h 12.291 c 0.357,0 0.534,-0.178 0.534,-0.535 v -3.384 c 0,-0.357 -0.177,-0.535 -0.534,-0.535 H 5.7 c -0.237,0 -0.356,-0.119 -0.356,-0.356 V 8.7 C 5.344,8.462 5.463,8.343 5.7,8.343 h 5.939 c 0.356,0 0.534,-0.178 0.534,-0.534 V 4.424 C 12.173,4.068 11.995,3.89 11.639,3.89 H 5.7 C 5.463,3.89 5.344,3.771 5.344,3.533 V 1.366 c 0,-1.287 0.643,-1.929 1.929,-1.929 h 5.924 c 0.356,0 0.533,-0.178 0.533,-0.535 v -3.384 c 0,-0.356 -0.177,-0.535 -0.533,-0.535 H 5.018 c -1.386,0 -2.568,0.49 -3.548,1.47 C 0.49,-2.567 0,-1.385 0,0"
         style="fill:#ffffff;fill-opacity:1;fill-rule:nonzero;stroke:none"
         id="path230"
         inkscape:connector-curvature="0" /></g><g
       id="g232"
       transform="translate(178.334,444.6191)"
       style="fill:#ffffff"><path
         d="m 0,0 c -0.804,0 -1.49,0.284 -2.059,0.853 -0.568,0.569 -0.853,1.255 -0.853,2.059 v 7.1 c 0,0.803 0.285,1.49 0.853,2.059 0.569,0.569 1.255,0.853 2.059,0.853 h 4.833 c 0.208,0 0.311,-0.104 0.311,-0.311 v -1.964 c 0,-0.207 -0.103,-0.31 -0.311,-0.31 H 0.396 c -0.137,0 -0.206,-0.068 -0.206,-0.207 v -7.34 c 0,-0.139 0.069,-0.207 0.206,-0.207 h 1.818 c 0.173,0 0.259,0.068 0.259,0.207 v 4.135 c 0,0.207 0.103,0.31 0.31,0.31 h 2.481 c 0.207,0 0.311,-0.103 0.311,-0.31 V 0.311 C 5.575,0.104 5.471,0 5.264,0 Z"
         style="fill:#ffffff;fill-opacity:1;fill-rule:nonzero;stroke:none"
         id="path234"
         inkscape:connector-curvature="0" /></g><g
       id="g236"
       transform="translate(189.1851,454.751)"
       style="fill:#ffffff"><path
         d="m 0,0 v -2.171 c 0,-0.138 0.068,-0.207 0.207,-0.207 h 1.301 c 0.401,0 0.602,0.201 0.602,0.604 v 1.378 c 0,0.402 -0.201,0.603 -0.602,0.603 H 0.207 C 0.068,0.207 0,0.139 0,0 m 4.532,-3.661 c 0.483,-0.54 0.724,-1.181 0.724,-1.922 v -4.238 c 0,-0.207 -0.104,-0.311 -0.311,-0.311 H 2.421 c -0.207,0 -0.311,0.104 -0.311,0.311 v 4.17 c 0,0.459 -0.229,0.689 -0.688,0.689 H 0.172 C 0.058,-4.962 0,-5.031 0,-5.169 v -4.652 c 0,-0.207 -0.104,-0.311 -0.311,-0.311 h -2.481 c -0.206,0 -0.31,0.104 -0.31,0.311 V 2.481 c 0,0.207 0.104,0.311 0.31,0.311 H 2.3 C 3.104,2.792 3.791,2.508 4.359,1.939 4.928,1.37 5.213,0.684 5.213,-0.12 v -1.654 c 0,-0.718 -0.228,-1.344 -0.681,-1.878 z"
         style="fill:#ffffff;fill-opacity:1;fill-rule:nonzero;stroke:none"
         id="path238"
         inkscape:connector-curvature="0" /></g><g
       id="g240"
       transform="translate(201.1821,454.7686)"
       style="fill:#ffffff"><path
         d="m 0,0 -0.775,-4.722 h 1.55 z m -1.163,-7.091 -0.44,-2.748 c -0.035,-0.207 -0.155,-0.31 -0.362,-0.31 h -2.593 c -0.172,0 -0.258,0.071 -0.258,0.215 0,0.029 0.003,0.06 0.008,0.095 l 2.361,12.303 c 0.04,0.207 0.164,0.31 0.37,0.31 h 4.153 c 0.207,0 0.33,-0.103 0.37,-0.31 L 4.808,-9.839 c 0.005,-0.035 0.008,-0.066 0.008,-0.095 0,-0.144 -0.087,-0.215 -0.258,-0.215 H 1.964 c -0.206,0 -0.327,0.103 -0.361,0.31 l -0.44,2.748 z"
         style="fill:#ffffff;fill-opacity:1;fill-rule:nonzero;stroke:none"
         id="path242"
         inkscape:connector-curvature="0" /></g><g
       id="g244"
       transform="translate(211.0249,454.8809)"
       style="fill:#ffffff"><path
         d="m 0,0 v -3.248 c 0,-0.139 0.068,-0.207 0.207,-0.207 h 1.387 c 0.402,0 0.603,0.201 0.603,0.602 v 2.457 c 0,0.402 -0.201,0.602 -0.603,0.602 H 0.207 C 0.068,0.206 0,0.138 0,0 m 5.299,-3.042 c 0,-0.804 -0.284,-1.49 -0.854,-2.059 C 3.877,-5.67 3.19,-5.954 2.387,-5.954 H 0.207 C 0.068,-5.954 0,-6.022 0,-6.16 v -3.791 c 0,-0.207 -0.104,-0.311 -0.311,-0.311 h -2.481 c -0.206,0 -0.31,0.104 -0.31,0.311 V 2.352 c 0,0.207 0.104,0.31 0.31,0.31 h 5.179 c 0.803,0 1.49,-0.284 2.058,-0.852 0.57,-0.57 0.854,-1.256 0.854,-2.06 z"
         style="fill:#ffffff;fill-opacity:1;fill-rule:nonzero;stroke:none"
         id="path246"
         inkscape:connector-curvature="0" /></g><g
       id="g248"
       transform="translate(221.8071,449.7891)"
       style="fill:#ffffff"><path
         d="m 0,0 c -0.139,0 -0.207,-0.069 -0.207,-0.207 v -4.652 c 0,-0.207 -0.101,-0.311 -0.302,-0.311 h -2.49 c -0.206,0 -0.31,0.104 -0.31,0.311 V 7.443 c 0,0.207 0.104,0.311 0.31,0.311 h 2.49 c 0.201,0 0.302,-0.104 0.302,-0.311 V 2.791 C -0.207,2.653 -0.139,2.584 0,2.584 h 2.757 c 0.138,0 0.207,0.069 0.207,0.207 v 4.652 c 0,0.207 0.099,0.311 0.301,0.311 h 2.49 c 0.207,0 0.31,-0.104 0.31,-0.311 V -4.859 c 0,-0.207 -0.103,-0.311 -0.31,-0.311 h -2.49 c -0.202,0 -0.301,0.104 -0.301,0.311 v 4.652 C 2.964,-0.069 2.895,0 2.757,0 Z"
         style="fill:#ffffff;fill-opacity:1;fill-rule:nonzero;stroke:none"
         id="path250"
         inkscape:connector-curvature="0" /></g><g
       id="g252"
       transform="translate(233.1479,444.9297)"
       style="fill:#ffffff"><path
         d="m 0,0 c 0,-0.207 -0.101,-0.311 -0.302,-0.311 h -2.49 c -0.206,0 -0.31,0.104 -0.31,0.311 v 12.303 c 0,0.207 0.104,0.31 0.31,0.31 h 2.49 C -0.101,12.613 0,12.51 0,12.303 Z"
         style="fill:#ffffff;fill-opacity:1;fill-rule:nonzero;stroke:none"
         id="path254"
         inkscape:connector-curvature="0" /></g><g
       id="g256"
       transform="translate(238.4243,447.4111)"
       style="fill:#ffffff"><path
         d="m 0,0 c 0.006,-0.139 0.077,-0.207 0.215,-0.207 h 4.558 c 0.206,0 0.31,-0.104 0.31,-0.311 v -1.963 c 0,-0.207 -0.104,-0.311 -0.31,-0.311 h -4.962 c -0.805,0 -1.492,0.284 -2.06,0.853 -0.568,0.569 -0.853,1.255 -0.853,2.059 v 7.1 c 0,0.803 0.285,1.49 0.853,2.059 0.568,0.569 1.255,0.853 2.06,0.853 h 4.962 c 0.206,0 0.31,-0.104 0.31,-0.311 V 7.857 c 0,-0.207 -0.104,-0.31 -0.31,-0.31 H 0.215 C 0.077,7.547 0.006,7.479 0,7.34 Z"
         style="fill:#ffffff;fill-opacity:1;fill-rule:nonzero;stroke:none"
         id="path258"
         inkscape:connector-curvature="0" /></g><g
       id="g260"
       transform="translate(253.687,451.0811)"
       style="fill:#ffffff"><path
         d="M 0,0 C 0.207,-0.327 0.311,-0.698 0.311,-1.111 V -3.55 c 0,-0.804 -0.286,-1.49 -0.854,-2.059 -0.568,-0.569 -1.255,-0.853 -2.06,-0.853 h -4.961 c -0.207,0 -0.311,0.104 -0.311,0.311 v 1.964 c 0,0.207 0.104,0.31 0.311,0.31 h 4.084 c 0.459,0 0.688,0.23 0.688,0.689 v 1.077 c 0,0.425 -0.187,0.683 -0.56,0.775 l -2.955,0.716 c -0.408,0.074 -0.766,0.266 -1.077,0.577 C -7.396,-0.031 -7.41,-0.018 -7.427,0 -7.53,0.109 -7.619,0.224 -7.694,0.345 -7.9,0.672 -8.004,1.043 -8.004,1.456 V 3.55 c 0,0.804 0.284,1.49 0.853,2.059 0.568,0.569 1.255,0.853 2.059,0.853 h 4.704 c 0.207,0 0.311,-0.104 0.311,-0.311 V 4.187 c 0,-0.207 -0.104,-0.31 -0.311,-0.31 h -3.825 c -0.46,0 -0.689,-0.23 -0.689,-0.689 V 2.455 c 0,-0.425 0.186,-0.684 0.559,-0.775 L -1.388,0.965 C -0.979,0.891 -0.62,0.698 -0.311,0.388 -0.299,0.376 -0.284,0.362 -0.268,0.345 -0.164,0.235 -0.075,0.12 0,0"
         style="fill:#ffffff;fill-opacity:1;fill-rule:nonzero;stroke:none"
         id="path262"
         inkscape:connector-curvature="0" /></g><g
       id="g264"
       transform="translate(263.6626,454.958)"
       style="fill:#ffffff"><path
         d="m 0,0 h -2.223 c -0.207,0 -0.31,0.101 -0.31,0.302 v 1.972 c 0,0.207 0.103,0.311 0.31,0.311 h 7.944 c 0.207,0 0.31,-0.104 0.31,-0.311 V 0.302 C 6.031,0.101 5.928,0 5.721,0 H 3.515 C 3.377,0 3.309,-0.068 3.309,-0.207 v -9.821 c 0,-0.207 -0.101,-0.311 -0.302,-0.311 h -2.49 c -0.207,0 -0.31,0.104 -0.31,0.311 v 9.821 C 0.207,-0.068 0.138,0 0,0"
         style="fill:#ffffff;fill-opacity:1;fill-rule:nonzero;stroke:none"
         id="path266"
         inkscape:connector-curvature="0" /></g><g
       id="g268"
       transform="translate(274.6685,447.9795)"
       style="fill:#ffffff"><path
         d="m 0,0 c 0,-0.518 0.259,-0.775 0.775,-0.775 h 0.742 c 0.516,0 0.775,0.257 0.775,0.775 v 6.203 c 0,0.517 -0.259,0.776 -0.775,0.776 H 0.775 C 0.259,6.979 0,6.72 0,6.203 Z m 5.394,-0.448 c 0,-0.804 -0.285,-1.49 -0.854,-2.06 C 3.972,-3.076 3.285,-3.36 2.481,-3.36 h -2.67 c -0.805,0 -1.492,0.284 -2.06,0.852 -0.568,0.57 -0.853,1.256 -0.853,2.06 v 7.099 c 0,0.804 0.285,1.491 0.853,2.06 0.568,0.568 1.255,0.852 2.06,0.852 h 2.67 C 3.285,9.563 3.972,9.279 4.54,8.711 5.109,8.142 5.394,7.455 5.394,6.651 Z"
         style="fill:#ffffff;fill-opacity:1;fill-rule:nonzero;stroke:none"
         id="path270"
         inkscape:connector-curvature="0" /></g><g
       id="g272"
       transform="translate(285.3384,447.9795)"
       style="fill:#ffffff"><path
         d="m 0,0 c 0,-0.518 0.259,-0.775 0.775,-0.775 h 0.742 c 0.516,0 0.775,0.257 0.775,0.775 v 6.203 c 0,0.517 -0.259,0.776 -0.775,0.776 H 0.775 C 0.259,6.979 0,6.72 0,6.203 Z m 5.394,-0.448 c 0,-0.804 -0.285,-1.49 -0.854,-2.06 C 3.972,-3.076 3.285,-3.36 2.481,-3.36 h -2.67 c -0.805,0 -1.492,0.284 -2.06,0.852 -0.568,0.57 -0.853,1.256 -0.853,2.06 v 7.099 c 0,0.804 0.285,1.491 0.853,2.06 0.568,0.568 1.255,0.852 2.06,0.852 h 2.67 C 3.285,9.563 3.972,9.279 4.54,8.711 5.109,8.142 5.394,7.455 5.394,6.651 Z"
         style="fill:#ffffff;fill-opacity:1;fill-rule:nonzero;stroke:none"
         id="path274"
         inkscape:connector-curvature="0" /></g><g
       id="g276"
       transform="translate(293.7593,445.4717)"
       style="fill:#ffffff"><path
         d="m 0,0 c -0.568,0.569 -0.853,1.256 -0.853,2.06 v 9.701 c 0,0.207 0.089,0.31 0.267,0.31 h 2.524 c 0.208,0 0.311,-0.103 0.311,-0.31 V 2.042 c 0,-0.206 0.104,-0.31 0.31,-0.31 h 5.497 c 0.207,0 0.31,-0.103 0.31,-0.31 v -1.964 c 0,-0.207 -0.103,-0.311 -0.31,-0.311 H 2.06 C 1.255,-0.853 0.568,-0.568 0,0"
         style="fill:#ffffff;fill-opacity:1;fill-rule:nonzero;stroke:none"
         id="path278"
         inkscape:connector-curvature="0" /></g><g
       id="g280"
       transform="translate(304.3081,444.6191)"
       style="fill:#ffffff"><path
         d="m 0,0 c -0.206,0 -0.31,0.104 -0.31,0.311 v 12.302 c 0,0.207 0.104,0.311 0.31,0.311 h 2.49 c 0.201,0 0.302,-0.104 0.302,-0.311 V 7.961 c 0,-0.138 0.068,-0.207 0.207,-0.207 h 0.87 c 0.206,0 0.364,0.143 0.473,0.432 l 1.801,4.427 c 0.08,0.207 0.224,0.311 0.431,0.311 h 2.378 c 0.149,0 0.223,-0.055 0.223,-0.164 0,-0.04 -0.01,-0.089 -0.034,-0.147 L 7.177,7.771 C 7.372,7.65 7.559,7.501 7.737,7.323 8.289,6.772 8.564,6.105 8.564,5.324 V 0.311 C 8.564,0.104 8.46,0 8.253,0 H 5.772 C 5.566,0 5.462,0.104 5.462,0.311 V 4.395 C 5.462,4.911 5.204,5.17 4.687,5.17 H 2.999 C 2.86,5.17 2.792,5.101 2.792,4.963 V 0.311 C 2.792,0.104 2.691,0 2.49,0 Z"
         style="fill:#ffffff;fill-opacity:1;fill-rule:nonzero;stroke:none"
         id="path282"
         inkscape:connector-curvature="0" /></g><g
       id="g284"
       transform="translate(318.5449,444.9297)"
       style="fill:#ffffff"><path
         d="m 0,0 c 0,-0.207 -0.101,-0.311 -0.302,-0.311 h -2.49 c -0.206,0 -0.31,0.104 -0.31,0.311 v 12.303 c 0,0.207 0.104,0.31 0.31,0.31 h 2.49 C -0.101,12.613 0,12.51 0,12.303 Z"
         style="fill:#ffffff;fill-opacity:1;fill-rule:nonzero;stroke:none"
         id="path286"
         inkscape:connector-curvature="0" /></g><g
       id="g288"
       transform="translate(322.9512,454.958)"
       style="fill:#ffffff"><path
         d="m 0,0 h -2.223 c -0.207,0 -0.31,0.101 -0.31,0.302 v 1.972 c 0,0.207 0.103,0.311 0.31,0.311 h 7.944 c 0.207,0 0.31,-0.104 0.31,-0.311 V 0.302 C 6.031,0.101 5.928,0 5.721,0 H 3.515 C 3.377,0 3.309,-0.068 3.309,-0.207 v -9.821 c 0,-0.207 -0.101,-0.311 -0.302,-0.311 h -2.49 c -0.207,0 -0.31,0.104 -0.31,0.311 v 9.821 C 0.207,-0.068 0.138,0 0,0"
         style="fill:#ffffff;fill-opacity:1;fill-rule:nonzero;stroke:none"
         id="path290"
         inkscape:connector-curvature="0" /></g></g></svg>