<?xml version="1.0" encoding="UTF-8" standalone="no"?>
<svg
   xmlns:dc="http://purl.org/dc/elements/1.1/"
   xmlns:cc="http://creativecommons.org/ns#"
   xmlns:rdf="http://www.w3.org/1999/02/22-rdf-syntax-ns#"
   xmlns:svg="http://www.w3.org/2000/svg"
   xmlns="http://www.w3.org/2000/svg"
   version="1.0"
   id="svg2832"
   height="399.99994"
   width="400">
  <defs
     id="defs2834" />
  <metadata
     id="metadata2837">
    <rdf:RDF>
      <cc:Work
         rdf:about="">
        <dc:format>image/svg+xml</dc:format>
        <dc:type
           rdf:resource="http://purl.org/dc/dcmitype/StillImage" />
        <dc:title></dc:title>
      </cc:Work>
    </rdf:RDF>
  </metadata>
  <g
     transform="translate(-152.13816,-59.569834)"
     id="layer1">
    <path
       id="path16906"
       d="m 549.77757,259.5698 c 0,109.09694 -88.54246,197.63939 -197.63941,197.63939 -109.09696,0 -197.63942,-88.54245 -197.63942,-197.63939 0,-109.09693 88.54246,-197.639376 197.63942,-197.639376 109.09695,0 197.63941,88.542446 197.63941,197.639376 z"
       style="fill:#060303;fill-opacity:1;fill-rule:evenodd;stroke:#4d4d4d;stroke-width:4.72117901;stroke-linecap:butt;stroke-linejoin:round;stroke-miterlimit:4;stroke-dashoffset:0;stroke-opacity:1" />
    <path
       d="m 410.57435,437.82983 -7.66476,-21.99393 c -39.08938,11.42904 -96.77344,21.26121 -173.80958,-50.61917 l -15.49068,12.20405 c 77.37114,86.08327 150.48036,68.63983 196.96502,60.40905 z"
       style="fill:#ffffff;fill-rule:evenodd;stroke:#008000;stroke-width:2.66666651;stroke-linecap:butt;stroke-linejoin:miter;stroke-opacity:1"
       id="path45998" />
    <g
       transform="matrix(1.1340794,0,0,1.1340794,99.281593,-346.2238)"
       id="g4778">
      <g
         id="g3665"
         transform="matrix(0.3810638,0,0,0.3707242,107.94036,297.30426)">
        <path
           id="path3581"
           d="m 391.82355,317.43801 c -79.15319,-22.71584 -134.23389,-15.07942 -183.41153,0 l -24.15905,-78.39364 c 86.35836,-26.79044 163.25227,-21.74587 235.18092,0 l -27.61034,78.39364 z"
           style="fill:#ffffff;fill-rule:evenodd;stroke:#000000;stroke-width:1px;stroke-linecap:butt;stroke-linejoin:miter;stroke-opacity:1" />
        <path
           id="path3554"
           d="m 211.05226,316.72077 7.88867,28.10338"
           style="fill:#ffffff;fill-rule:evenodd;stroke:#ffffff;stroke-width:6;stroke-linecap:butt;stroke-linejoin:miter;stroke-opacity:1" />
        <path
           id="path3560"
           d="m 300.43792,303.47405 -0.49304,35.99205"
           style="fill:#ffffff;fill-rule:evenodd;stroke:#ffffff;stroke-width:6;stroke-linecap:butt;stroke-linejoin:miter;stroke-opacity:1" />
        <path
           id="path3562"
           d="m 389.33054,316.72077 -7.88867,28.10338"
           style="fill:#ffffff;fill-rule:evenodd;stroke:#ffffff;stroke-width:6;stroke-linecap:butt;stroke-linejoin:miter;stroke-opacity:1" />
        <path
           id="path3556"
           d="m 243.00306,309.26463 5.78927,28.60971"
           style="fill:#ffffff;fill-rule:evenodd;stroke:#ffffff;stroke-width:6;stroke-linecap:butt;stroke-linejoin:miter;stroke-opacity:1" />
        <path
           id="path3558"
           d="m 272.85446,304.94828 3.0283,29.03206"
           style="fill:#ffffff;fill-rule:evenodd;stroke:#ffffff;stroke-width:6;stroke-linecap:butt;stroke-linejoin:miter;stroke-opacity:1" />
        <path
           id="path3564"
           d="m 357.37973,309.72399 -5.78927,28.60971"
           style="fill:#ffffff;fill-rule:evenodd;stroke:#ffffff;stroke-width:6;stroke-linecap:butt;stroke-linejoin:miter;stroke-opacity:1" />
        <path
           id="path3566"
           d="m 327.52834,305.06293 -3.0283,29.03206"
           style="fill:#ffffff;fill-rule:evenodd;stroke:#ffffff;stroke-width:6;stroke-linecap:butt;stroke-linejoin:miter;stroke-opacity:1" />
      </g>
      <flowRoot
         xml:space="preserve"
         id="flowRoot3935"
         style="font-style:normal;font-variant:normal;font-weight:normal;font-stretch:normal;font-size:14px;line-height:100%;font-family:'Arial Rounded MT Bold';-inkscape-font-specification:'Arial Rounded MT Bold,';text-align:start;writing-mode:lr-tb;text-anchor:start;display:inline;overflow:visible;visibility:visible;fill:#ffffff;fill-opacity:1;fill-rule:nonzero;stroke:none;stroke-width:1px;stroke-linecap:butt;stroke-linejoin:miter;stroke-miterlimit:4;stroke-dasharray:none;stroke-dashoffset:0;stroke-opacity:1;marker:none;marker-start:none;marker-mid:none;marker-end:none;enable-background:accumulate"
         transform="translate(-60.806193,320.4328)"><flowRegion
           id="flowRegion3937"><rect
             id="rect3939"
             width="14.050011"
             height="14.380599"
             x="278.6861"
             y="105.39145"
             style="font-style:normal;font-variant:normal;font-weight:normal;font-stretch:normal;font-size:14px;line-height:100%;font-family:'Arial Rounded MT Bold';-inkscape-font-specification:'Arial Rounded MT Bold,';text-align:start;writing-mode:lr-tb;text-anchor:start;fill:#ffffff;fill-opacity:1" /></flowRegion><flowPara
           id="flowPara3943">0</flowPara></flowRoot>      <flowRoot
         xml:space="preserve"
         id="flowRoot3953"
         style="font-style:normal;font-variant:normal;font-weight:normal;font-stretch:normal;font-size:18px;line-height:100%;font-family:'Arial Black';-inkscape-font-specification:'Arial Black';text-align:start;writing-mode:lr-tb;text-anchor:start;display:inline;overflow:visible;visibility:visible;fill:#ffffff;fill-opacity:1;fill-rule:nonzero;stroke:none;stroke-width:1px;stroke-linecap:butt;stroke-linejoin:miter;stroke-miterlimit:4;stroke-dasharray:none;stroke-dashoffset:0;stroke-opacity:1;marker:none;marker-start:none;marker-mid:none;marker-end:none;enable-background:accumulate"
         transform="translate(-49.458257,316.08213)"><flowRegion
           id="flowRegion3955"><rect
             id="rect3957"
             width="14.050011"
             height="14.380599"
             x="278.6861"
             y="105.39145"
             style="font-style:normal;font-variant:normal;font-weight:normal;font-stretch:normal;font-size:18px;line-height:100%;font-family:'Arial Black';-inkscape-font-specification:'Arial Black';text-align:start;writing-mode:lr-tb;text-anchor:start;fill:#ffffff;fill-opacity:1" /></flowRegion><flowPara
           id="flowPara3961">-</flowPara></flowRoot>      <flowRoot
         xml:space="preserve"
         id="flowRoot3979"
         style="font-style:normal;font-variant:normal;font-weight:normal;font-stretch:normal;font-size:12px;line-height:100%;font-family:'Arial Black';-inkscape-font-specification:'Arial Black';text-align:start;writing-mode:lr-tb;text-anchor:start;display:inline;overflow:visible;visibility:visible;fill:#ffffff;fill-opacity:1;fill-rule:nonzero;stroke:none;stroke-width:1px;stroke-linecap:butt;stroke-linejoin:miter;stroke-miterlimit:4;stroke-dasharray:none;stroke-dashoffset:0;stroke-opacity:1;marker:none;marker-start:none;marker-mid:none;marker-end:none;enable-background:accumulate"
         transform="translate(-70.779095,319.69023)"><flowRegion
           id="flowRegion3981"><rect
             id="rect3983"
             width="14.050011"
             height="14.380599"
             x="278.6861"
             y="105.39145"
             style="font-style:normal;font-variant:normal;font-weight:normal;font-stretch:normal;font-size:12px;line-height:100%;font-family:'Arial Black';-inkscape-font-specification:'Arial Black';text-align:start;writing-mode:lr-tb;text-anchor:start;fill:#ffffff;fill-opacity:1" /></flowRegion><flowPara
           id="flowPara3987">+</flowPara></flowRoot>      <flowRoot
         xml:space="preserve"
         id="flowRoot4015"
         style="font-style:normal;font-variant:normal;font-weight:bold;font-stretch:normal;font-size:14px;line-height:100%;font-family:'Trebuchet MS';-inkscape-font-specification:'Trebuchet MS Bold';text-align:start;writing-mode:lr-tb;text-anchor:start;display:inline;overflow:visible;visibility:visible;fill:#ffffff;fill-opacity:1;fill-rule:nonzero;stroke:none;stroke-width:1px;stroke-linecap:butt;stroke-linejoin:miter;stroke-miterlimit:4;stroke-dasharray:none;stroke-dashoffset:0;stroke-opacity:1;marker:none;marker-start:none;marker-mid:none;marker-end:none;enable-background:accumulate"
         transform="matrix(0.9739772,-0.2266459,0.2266459,0.9739772,-111.35166,388.98883)"><flowRegion
           id="flowRegion4017"><rect
             id="rect4019"
             width="25.785902"
             height="16.860012"
             x="278.6861"
             y="105.39145"
             style="font-style:normal;font-variant:normal;font-weight:bold;font-stretch:normal;font-size:14px;line-height:100%;font-family:'Trebuchet MS';-inkscape-font-specification:'Trebuchet MS Bold';text-align:start;writing-mode:lr-tb;text-anchor:start;fill:#ffffff;fill-opacity:1" /></flowRegion><flowPara
           id="flowPara4023">30</flowPara></flowRoot>      <flowRoot
         xml:space="preserve"
         id="flowRoot4025"
         style="font-style:normal;font-variant:normal;font-weight:bold;font-stretch:normal;font-size:14px;line-height:100%;font-family:'Trebuchet MS';-inkscape-font-specification:'Trebuchet MS Bold';text-align:start;writing-mode:lr-tb;text-anchor:start;display:inline;overflow:visible;visibility:visible;fill:#ffffff;fill-opacity:1;fill-rule:nonzero;stroke:none;stroke-width:1px;stroke-linecap:butt;stroke-linejoin:miter;stroke-miterlimit:4;stroke-dasharray:none;stroke-dashoffset:0;stroke-opacity:1;marker:none;marker-start:none;marker-mid:none;marker-end:none;enable-background:accumulate"
         transform="matrix(0.9423802,0.3345439,-0.3345439,0.9423802,18.073139,230.73693)"><flowRegion
           id="flowRegion4027"><rect
             id="rect4029"
             width="25.785902"
             height="16.860012"
             x="278.6861"
             y="105.39145"
             style="font-style:normal;font-variant:normal;font-weight:bold;font-stretch:normal;font-size:14px;line-height:100%;font-family:'Trebuchet MS';-inkscape-font-specification:'Trebuchet MS Bold';text-align:start;writing-mode:lr-tb;text-anchor:start;fill:#ffffff;fill-opacity:1" /></flowRegion><flowPara
           id="flowPara4031">30</flowPara></flowRoot>    </g>
    <path
       id="path61530"
       d="m 407.77737,425.1007 c 90.52384,-30.64061 139.12469,-128.97693 108.48406,-219.50073 -4.73226,-13.9809 -10.18464,-25.33542 -18.13694,-37.77008"
       style="fill:#000000;fill-opacity:0;fill-rule:evenodd;stroke:#008000;stroke-width:21.69742012;stroke-linecap:butt;stroke-linejoin:round;stroke-miterlimit:4;stroke-dashoffset:0;stroke-opacity:1" />
    <path
       id="path63472"
       d="M 405.57233,418.60243 C 492.868,389.0545 539.73569,294.22496 510.18774,206.92934 500.69957,178.89775 486.47733,157.12246 464.62359,137.16727"
       style="fill:none;fill-opacity:1;fill-rule:evenodd;stroke:#ffffff;stroke-width:9.33789921;stroke-linecap:butt;stroke-linejoin:round;stroke-miterlimit:4;stroke-dashoffset:0;stroke-opacity:1" />
    <path
       id="path53776"
       d="M 212.88454,358.985 C 165.54087,291.48361 171.3785,203.07149 227.18637,142.38092"
       style="fill:none;fill-opacity:1;fill-rule:evenodd;stroke:#f0bd3d;stroke-width:21.69803047;stroke-linecap:butt;stroke-linejoin:round;stroke-miterlimit:4;stroke-dashoffset:0;stroke-opacity:1" />
    <path
       id="path10788"
       d="M 408.82452,117.58634 419.12613,91.193169"
       style="fill:none;fill-rule:evenodd;stroke:#ffffff;stroke-width:2.76663256;stroke-linecap:butt;stroke-linejoin:miter;stroke-miterlimit:4;stroke-dasharray:none;stroke-opacity:1" />
    <path
       id="path10794"
       d="m 439.70084,101.47005 -10.22643,18.34738"
       style="fill:none;fill-rule:evenodd;stroke:#ffffff;stroke-width:1.38331628px;stroke-linecap:butt;stroke-linejoin:miter;stroke-opacity:1" />
    <path
       id="path15699"
       d="M 442.50975,135.9078 458.0784,112.2363"
       style="fill:none;fill-rule:evenodd;stroke:#ffffff;stroke-width:2.76663256;stroke-linecap:butt;stroke-linejoin:miter;stroke-miterlimit:4;stroke-dasharray:none;stroke-opacity:1" />
    <path
       id="path15701"
       d="m 475.05729,167.22184 21.88348,-17.99548"
       style="fill:none;fill-rule:evenodd;stroke:#ffffff;stroke-width:2.76663256;stroke-linecap:butt;stroke-linejoin:miter;stroke-miterlimit:4;stroke-dasharray:none;stroke-opacity:1" />
    <path
       id="text16684"
       d="m 406.12206,133.15691 0,-6.77767 -4.12002,6.77767 4.12002,0 z m 4.96577,2.35745 -2.83931,0 0,5.47265 -2.12646,0 0,-5.47265 -6.56062,0 0,-2.35745 6.56062,-10.69272 2.12646,0 0,10.69272 2.83931,0 0,2.35745 z m 15.21143,-3.78876 c -1e-5,2.75036 -0.50344,5.0049 -1.51027,6.76364 -1.1599,2.03938 -2.83931,3.05906 -5.03826,3.05906 -2.19896,0 -3.8824,-1.01968 -5.05034,-3.05906 -1.0149,-1.75874 -1.52235,-4.01328 -1.52235,-6.76364 0,-2.75035 0.50745,-5.00489 1.52235,-6.76363 1.16794,-2.03936 2.85138,-3.05906 5.05034,-3.05907 2.19895,1e-5 3.87836,1.01971 5.03826,3.05907 1.00683,1.75874 1.51026,4.01328 1.51027,6.76363 l 0,0 z m -2.12646,0 c -10e-6,-1.98323 -0.3665,-3.68116 -1.09947,-5.09378 -0.82965,-1.59033 -1.93718,-2.38549 -3.3226,-2.38551 -1.39349,2e-5 -2.50504,0.79518 -3.33467,2.38551 -0.74104,1.41262 -1.11157,3.11055 -1.11157,5.09378 0,1.98326 0.37053,3.68118 1.11157,5.09378 0.82963,1.59034 1.94118,2.38551 3.33467,2.3855 1.38542,1e-5 2.49295,-0.79516 3.3226,-2.3855 0.73297,-1.4126 1.09946,-3.11052 1.09947,-5.09378 l 0,0 z"
       style="font-style:normal;font-variant:normal;font-weight:normal;font-stretch:normal;font-size:20px;line-height:125%;font-family:Shruti;-inkscape-font-specification:Shruti;text-align:start;writing-mode:lr-tb;text-anchor:start;fill:#ffffff;fill-opacity:1;stroke:#ffffff;stroke-width:1.38331616px;stroke-linecap:butt;stroke-linejoin:miter;stroke-opacity:1" />
    <path
       id="text16688"
       d="m 465.97484,183.89976 c -2e-5,1.65469 -0.45945,3.06744 -1.37833,4.23828 -0.9189,1.17086 -1.98963,1.75627 -3.21221,1.75628 -1.90009,-1e-5 -3.31734,-1.15634 -4.25181,-3.46901 -0.71642,-1.7611 -1.07463,-3.90926 -1.07462,-6.4445 -10e-6,-2.80615 0.52952,-5.17202 1.58858,-7.09766 1.22258,-2.2062 2.92408,-3.30932 5.1045,-3.30933 0.57624,10e-6 1.24983,0.17904 2.02077,0.53704 l 0,2.43846 c -0.71644,-0.35801 -1.39781,-0.53702 -2.04413,-0.53703 -1.47179,1e-5 -2.63597,0.89508 -3.49255,2.6852 -0.71643,1.49986 -1.07464,3.21258 -1.07463,5.13818 0.97339,-1.28695 2.10252,-1.93043 3.38742,-1.93045 1.23815,2e-5 2.28163,0.55641 3.13045,1.66919 0.86435,1.14182 1.29654,2.58361 1.29656,4.32535 l 0,0 z m -1.98574,-0.029 c 0,-1.08375 -0.22194,-1.94495 -0.6658,-2.5836 -0.44388,-0.63863 -1.04738,-0.95797 -1.81052,-0.95797 -0.6697,0 -1.30824,0.24676 -1.91564,0.74026 -0.55289,0.43544 -0.97341,0.97248 -1.26153,1.61111 0.039,1.20957 0.3037,2.26914 0.79429,3.17871 0.58404,1.06441 1.34718,1.59661 2.28944,1.59661 0.68527,0 1.28488,-0.34352 1.79883,-1.03054 0.51395,-0.68703 0.77093,-1.53854 0.77093,-2.55458 l 0,0 z m 16.89039,-4.13667 c -10e-6,2.84487 -0.48671,5.17689 -1.46009,6.99606 -1.12136,2.10946 -2.74499,3.16418 -4.87088,3.16419 -2.12591,-1e-5 -3.75342,-1.05473 -4.88256,-3.16419 -0.98119,-1.81917 -1.47178,-4.15119 -1.47178,-6.99606 0,-2.84486 0.49059,-5.17688 1.47178,-6.99605 1.12914,-2.10944 2.75665,-3.16418 4.88256,-3.1642 2.12589,2e-5 3.74952,1.05476 4.87088,3.1642 0.97338,1.81917 1.46008,4.15119 1.46009,6.99605 l 0,0 z m -2.05581,0 c -1e-5,-2.05139 -0.35432,-3.80766 -1.06295,-5.26881 -0.80209,-1.64497 -1.87283,-2.46748 -3.21221,-2.46749 -1.34719,1e-5 -2.42181,0.82252 -3.22389,2.46749 -0.71642,1.46115 -1.07463,3.21742 -1.07463,5.26881 0,2.05141 0.35821,3.80768 1.07463,5.26882 0.80208,1.64499 1.8767,2.46749 3.22389,2.46749 1.33938,0 2.41012,-0.8225 3.21221,-2.46749 0.70863,-1.46114 1.06294,-3.21741 1.06295,-5.26882 l 0,0 z"
       style="font-style:normal;font-variant:normal;font-weight:normal;font-stretch:normal;font-size:20px;line-height:125%;font-family:Shruti;-inkscape-font-specification:Shruti;text-align:start;writing-mode:lr-tb;text-anchor:start;fill:#ffffff;fill-opacity:1;stroke:#ffffff;stroke-width:1.38331628px;stroke-linecap:butt;stroke-linejoin:miter;stroke-opacity:1" />
    <path
       id="text16694"
       d="m 262.55028,138.56448 0,19.68021 -2.03552,0 0,-16.05726 -1.30774,1.69966 -1.19402,-1.69966 2.7633,-3.62295 1.77398,0 z m 7.59624,4.30878 c -2e-5,0.60633 0.28807,1.2673 0.86423,1.98293 0.4397,0.55663 0.92489,1.01384 1.45557,1.37166 0.53067,-0.35782 1.01585,-0.81503 1.45556,-1.37166 0.57616,-0.71563 0.86424,-1.3766 0.86425,-1.98293 -1e-5,-0.84483 -0.23882,-1.50084 -0.71641,-1.96801 -0.42455,-0.40751 -0.95902,-0.61127 -1.6034,-0.61128 -0.6444,1e-5 -1.17886,0.20377 -1.6034,0.61128 -0.47761,0.46717 -0.71642,1.12318 -0.7164,1.96801 l 0,0 z m -0.5231,10.39174 c -1e-5,0.74546 0.22363,1.4462 0.67092,2.1022 0.53825,0.79517 1.26225,1.19275 2.17198,1.19274 0.91731,10e-6 1.64129,-0.38267 2.17198,-1.14801 0.44727,-0.63612 0.67091,-1.35176 0.67092,-2.14693 -10e-6,-1.57043 -0.94764,-3.04147 -2.8429,-4.41313 -1.89528,1.37166 -2.84291,2.8427 -2.8429,4.41313 l 0,0 z m -1.39872,-10.39174 c 0,-1.64 0.41317,-2.8874 1.23952,-3.74222 0.75052,-0.77526 1.75122,-1.1629 3.0021,-1.16292 1.25086,2e-5 2.25157,0.38766 3.00211,1.16292 0.82632,0.85482 1.23949,2.10222 1.2395,3.74222 -10e-6,1.71955 -0.81498,3.27011 -2.4449,4.65169 0.97796,0.86474 1.66024,1.60523 2.04689,2.22147 0.62922,0.99396 0.94383,2.16682 0.94385,3.51858 -2e-5,1.43129 -0.38665,2.67372 -1.1599,3.72732 -0.89458,1.23249 -2.10376,1.84873 -3.62755,1.84873 -1.53139,0 -2.74057,-0.60134 -3.62754,-1.80402 -0.7657,-1.04364 -1.14854,-2.30099 -1.14854,-3.77203 0,-1.3617 0.31083,-2.53954 0.93247,-3.53348 0.38664,-0.60631 1.06894,-1.34183 2.04689,-2.20657 -1.62993,-1.38158 -2.4449,-2.93214 -2.4449,-4.65169 l 0,0 z m 24.05096,5.53133 c -1e-5,2.92221 -0.47383,5.31763 -1.42145,7.18626 -1.09168,2.1668 -2.67233,3.2502 -4.74196,3.2502 -2.06964,0 -3.65408,-1.0834 -4.75333,-3.2502 -0.95522,-1.86863 -1.43283,-4.26405 -1.43283,-7.18626 0,-2.9222 0.47761,-5.31762 1.43283,-7.18625 1.09925,-2.16679 2.68369,-3.2502 4.75333,-3.25022 2.06963,2e-5 3.65028,1.08343 4.74196,3.25022 0.94762,1.86863 1.42144,4.26405 1.42145,7.18625 l 0,0 z m -2.0014,0 c -1e-5,-2.10716 -0.34495,-3.91117 -1.03482,-5.41205 -0.78086,-1.68969 -1.82325,-2.53456 -3.12719,-2.53457 -1.31153,1e-5 -2.35772,0.84488 -3.13856,2.53457 -0.69746,1.50088 -1.0462,3.30489 -1.0462,5.41205 0,2.10718 0.34874,3.9112 1.0462,5.41206 0.78084,1.68971 1.82703,2.53457 3.13856,2.53457 1.30394,0 2.34633,-0.84486 3.12719,-2.53457 0.68987,-1.50086 1.03481,-3.30488 1.03482,-5.41206 l 0,0 z"
       style="font-style:normal;font-variant:normal;font-weight:normal;font-stretch:normal;font-size:20px;line-height:100%;font-family:Shruti;-inkscape-font-specification:Shruti;text-align:start;writing-mode:lr-tb;text-anchor:start;fill:#ffffff;fill-opacity:1;stroke:#ffffff;stroke-width:1.38331616px;stroke-linecap:butt;stroke-linejoin:miter;stroke-opacity:1" />
    <path
       id="text16700"
       d="m 481.34745,252.71407 c 0,0.59028 0.29592,1.23376 0.88774,1.93045 0.45165,0.54189 0.95003,0.987 1.49514,1.33535 0.54509,-0.34835 1.04347,-0.79346 1.49514,-1.33535 0.59182,-0.69669 0.88772,-1.34017 0.88774,-1.93045 -2e-5,-0.82248 -0.24531,-1.46112 -0.7359,-1.91593 -0.43609,-0.39671 -0.98508,-0.59509 -1.64698,-0.5951 -0.66192,1e-5 -1.21091,0.19839 -1.64699,0.5951 -0.49059,0.45481 -0.73589,1.09345 -0.73589,1.91593 l 0,0 z m -0.53732,10.11671 c 0,0.72573 0.22973,1.40791 0.68918,2.04656 0.55287,0.77411 1.29656,1.16117 2.23102,1.16117 0.94225,0 1.68591,-0.37254 2.23103,-1.11762 0.45943,-0.6193 0.68915,-1.316 0.68916,-2.09011 -10e-6,-1.52888 -0.9734,-2.96099 -2.92019,-4.29634 -1.9468,1.33535 -2.9202,2.76746 -2.9202,4.29634 l 0,0 z m -1.43673,-10.11671 c 0,-1.59659 0.4244,-2.81098 1.27321,-3.64318 0.77092,-0.75474 1.79883,-1.13211 3.08372,-1.13214 1.28487,3e-5 2.31278,0.3774 3.08373,1.13214 0.84878,0.8322 1.27318,2.04659 1.27319,3.64318 -10e-6,1.67404 -0.83713,3.18356 -2.51136,4.52857 1.00454,0.84185 1.70538,1.56275 2.10253,2.16268 0.64633,0.96764 0.9695,2.10946 0.96951,3.42546 -10e-6,1.39341 -0.39715,2.60296 -1.19143,3.62865 -0.9189,1.19988 -2.16095,1.79982 -3.72617,1.79982 -1.57302,0 -2.81507,-0.58542 -3.72616,-1.75627 -0.78652,-1.01602 -1.17976,-2.24009 -1.17976,-3.6722 0,-1.32567 0.31927,-2.47232 0.95782,-3.43998 0.39714,-0.59025 1.09799,-1.30631 2.10254,-2.14816 -1.67425,-1.34501 -2.51137,-2.85453 -2.51137,-4.52857 l 0,0 z m 24.70482,5.38493 c -10e-6,2.84488 -0.48671,5.1769 -1.46009,6.99605 -1.12137,2.10946 -2.74499,3.1642 -4.87088,3.1642 -2.12591,0 -3.75342,-1.05474 -4.88256,-3.1642 -0.98118,-1.81915 -1.47178,-4.15117 -1.47178,-6.99605 0,-2.84485 0.4906,-5.17687 1.47178,-6.99605 1.12914,-2.10945 2.75665,-3.16417 4.88256,-3.1642 2.12589,3e-5 3.74951,1.05475 4.87088,3.1642 0.97338,1.81918 1.46008,4.1512 1.46009,6.99605 l 0,0 z m -2.05581,0 c -2e-5,-2.05139 -0.35433,-3.80766 -1.06295,-5.26881 -0.80209,-1.64498 -1.87282,-2.46746 -3.21221,-2.46749 -1.3472,3e-5 -2.42182,0.82251 -3.22389,2.46749 -0.71643,1.46115 -1.07464,3.21742 -1.07464,5.26881 0,2.05142 0.35821,3.80768 1.07464,5.26881 0.80207,1.64501 1.87669,2.4675 3.22389,2.4675 1.33939,0 2.41012,-0.82249 3.21221,-2.4675 0.70862,-1.46113 1.06293,-3.21739 1.06295,-5.26881 l 0,0 z"
       style="font-style:normal;font-variant:normal;font-weight:normal;font-stretch:normal;font-size:20px;line-height:125%;font-family:Shruti;-inkscape-font-specification:Shruti;text-align:start;writing-mode:lr-tb;text-anchor:start;fill:#ffffff;fill-opacity:1;stroke:#ffffff;stroke-width:1.38331628px;stroke-linecap:butt;stroke-linejoin:miter;stroke-opacity:1" />
    <path
       id="text16706"
       d="m 440.61039,342.76734 0,19.89134 -2.01392,0 0,-16.22952 -1.29385,1.71789 -1.18134,-1.71789 2.73396,-3.66182 1.75515,0 z m 16.17879,9.94567 c -10e-6,2.95357 -0.4688,5.37469 -1.40636,7.26335 -1.08009,2.19006 -2.64397,3.28509 -4.69163,3.28509 -2.04767,0 -3.61529,-1.09503 -4.70287,-3.28509 -0.94508,-1.88866 -1.41762,-4.30978 -1.41762,-7.26335 0,-2.95355 0.47254,-5.37466 1.41762,-7.26335 1.08758,-2.19004 2.6552,-3.28506 4.70287,-3.2851 2.04766,4e-5 3.61154,1.09506 4.69163,3.2851 0.93756,1.88869 1.40635,4.3098 1.40636,7.26335 l 0,0 z m -1.98016,0 c -10e-6,-2.12977 -0.34128,-3.95314 -1.02383,-5.47012 -0.77257,-1.70782 -1.8039,-2.56175 -3.094,-2.56177 -1.29761,2e-5 -2.33268,0.85395 -3.10524,2.56177 -0.69006,1.51698 -1.03509,3.34035 -1.03509,5.47012 0,2.12978 0.34503,3.95315 1.03509,5.47011 0.77256,1.70786 1.80763,2.56177 3.10524,2.56177 1.2901,0 2.32143,-0.85391 3.094,-2.56177 0.68255,-1.51696 1.02382,-3.34033 1.02383,-5.47011 l 0,0 z m 15.70626,0 c -1e-5,2.95357 -0.4688,5.37469 -1.40636,7.26335 -1.0801,2.19006 -2.64397,3.28509 -4.69163,3.28509 -2.04766,0 -3.61529,-1.09503 -4.70288,-3.28509 -0.94507,-1.88866 -1.41761,-4.30978 -1.41761,-7.26335 0,-2.95355 0.47254,-5.37466 1.41761,-7.26335 1.08759,-2.19004 2.65522,-3.28506 4.70288,-3.2851 2.04766,4e-5 3.61153,1.09506 4.69163,3.2851 0.93756,1.88869 1.40635,4.3098 1.40636,7.26335 l 0,0 z m -1.98016,0 c -1e-5,-2.12977 -0.34128,-3.95314 -1.02383,-5.47012 -0.77257,-1.70782 -1.8039,-2.56175 -3.094,-2.56177 -1.2976,2e-5 -2.33269,0.85395 -3.10525,2.56177 -0.69005,1.51698 -1.03508,3.34035 -1.03508,5.47012 0,2.12978 0.34503,3.95315 1.03508,5.47011 0.77256,1.70786 1.80765,2.56177 3.10525,2.56177 1.2901,0 2.32143,-0.85391 3.094,-2.56177 0.68255,-1.51696 1.02382,-3.34033 1.02383,-5.47011 l 0,0 z"
       style="font-style:normal;font-variant:normal;font-weight:normal;font-stretch:normal;font-size:20px;line-height:125%;font-family:Shruti;-inkscape-font-specification:Shruti;text-align:start;writing-mode:lr-tb;text-anchor:start;fill:#ffffff;fill-opacity:1;stroke:#ffffff;stroke-width:1.38331628px;stroke-linecap:butt;stroke-linejoin:miter;stroke-opacity:1" />
    <path
       id="text16714"
       d="m 203.06548,220.9899 0,20.19688 -1.98345,0 0,-16.47883 -1.27427,1.74428 -1.16348,-1.74428 2.6926,-3.71805 1.7286,0 z m 14.82596,14.48973 c -10e-6,1.74429 -0.43585,3.23355 -1.30753,4.46781 -0.87168,1.23425 -1.88742,1.85138 -3.04718,1.85138 -1.80247,0 -3.14692,-1.21896 -4.03337,-3.65687 -0.67962,-1.85647 -1.01943,-4.12097 -1.01943,-6.79351 0,-2.95811 0.50233,-5.45211 1.50698,-7.48203 1.15977,-2.32568 2.77385,-3.48851 4.84225,-3.48855 0.54665,4e-5 1.18564,0.18874 1.91697,0.56613 l 0,2.57051 c -0.67963,-0.37739 -1.326,-0.5661 -1.93913,-0.56611 -1.39616,1e-5 -2.50054,0.94355 -3.31312,2.83062 -0.67962,1.58108 -1.01943,3.38655 -1.01943,5.41644 0.92339,-1.35665 1.99453,-2.03498 3.21341,-2.035 1.17454,2e-5 2.16442,0.58655 2.96962,1.75959 0.81996,1.20365 1.22995,2.72352 1.22996,4.55959 l 0,0 z m -1.88372,-0.0305 c -1e-5,-1.14244 -0.21053,-2.05029 -0.6316,-2.72352 -0.42107,-0.67322 -0.99358,-1.00983 -1.7175,-1.00984 -0.6353,1e-5 -1.24105,0.26011 -1.81723,0.78033 -0.5245,0.45903 -0.9234,1.02515 -1.19672,1.69837 0.037,1.27507 0.28809,2.39202 0.75348,3.35085 0.55404,1.12205 1.27798,1.68307 2.17182,1.68307 0.65006,0 1.21886,-0.36211 1.70643,-1.08634 0.48754,-0.72422 0.73131,-1.62187 0.73132,-2.69292 l 0,0 z m 16.02268,-4.36069 c -2e-5,2.99894 -0.46171,5.45725 -1.38509,7.37492 -1.06375,2.2237 -2.60397,3.33556 -4.62064,3.33556 -2.01669,0 -3.5606,-1.11186 -4.63174,-3.33556 -0.93077,-1.91767 -1.39615,-4.37598 -1.39615,-7.37492 0,-2.99891 0.46538,-5.45722 1.39615,-7.37493 1.07114,-2.22368 2.61505,-3.33552 4.63174,-3.33555 2.01667,3e-5 3.55689,1.11187 4.62064,3.33555 0.92338,1.91771 1.38507,4.37602 1.38509,7.37493 l 0,0 z m -1.95021,0 c 0,-2.16248 -0.33612,-4.01387 -1.00834,-5.55414 -0.76088,-1.73406 -1.77661,-2.60111 -3.04718,-2.60113 -1.27798,2e-5 -2.29741,0.86707 -3.05828,2.60113 -0.67962,1.54027 -1.01942,3.39166 -1.01941,5.55414 -1e-5,2.1625 0.33979,4.01388 1.01941,5.55414 0.76087,1.73408 1.7803,2.60112 3.05828,2.60112 1.27057,0 2.2863,-0.86704 3.04718,-2.60112 0.67222,-1.54026 1.00834,-3.39164 1.00834,-5.55414 l 0,0 z"
       style="font-style:normal;font-variant:normal;font-weight:normal;font-stretch:normal;font-size:20px;line-height:125%;font-family:Shruti;-inkscape-font-specification:Shruti;text-align:start;writing-mode:lr-tb;text-anchor:start;fill:#ffffff;fill-opacity:1;stroke:#ffffff;stroke-width:1.38331616px;stroke-linecap:butt;stroke-linejoin:miter;stroke-opacity:1" />
    <path
       id="text16724"
       d="m 235.7378,313.08759 0,24.45815 -1.63787,0 0,-19.95563 -1.05227,2.1123 -0.96077,-2.1123 2.22349,-4.50252 1.42742,0 z m 8.63773,14.11902 0,-8.94946 -3.1202,8.94946 3.1202,0 z m 3.76071,3.11285 -2.15029,0 0,7.22628 -1.61042,0 0,-7.22628 -4.96852,0 0,-3.11285 4.96852,-14.11902 1.61042,0 0,14.11902 2.15029,0 0,3.11285 z m 11.52003,-5.00281 c -1e-5,3.63168 -0.38127,6.60866 -1.14377,8.93093 -0.87842,2.69289 -2.15029,4.03931 -3.8156,4.03931 -1.66534,0 -2.94026,-1.34642 -3.82476,-4.03931 -0.76862,-2.32227 -1.15292,-5.29925 -1.15292,-8.93093 0,-3.63164 0.3843,-6.60861 1.15292,-8.93092 0.8845,-2.69285 2.15942,-4.03927 3.82476,-4.03929 1.66531,2e-5 2.93718,1.34644 3.8156,4.03929 0.7625,2.32231 1.14376,5.29928 1.14377,8.93092 l 0,0 z m -1.61042,0 c -10e-6,-2.61873 -0.27757,-4.86073 -0.83267,-6.72598 -0.62832,-2.09992 -1.46708,-3.14988 -2.51628,-3.1499 -1.05533,2e-5 -1.89714,1.04998 -2.52544,3.1499 -0.56122,1.86525 -0.84182,4.10725 -0.84182,6.72598 0,2.61878 0.2806,4.86077 0.84182,6.72601 0.6283,2.09994 1.47011,3.1499 2.52544,3.1499 1.0492,0 1.88796,-1.04996 2.51628,-3.1499 0.5551,-1.86524 0.83266,-4.10723 0.83267,-6.72601 l 0,0 z"
       style="font-style:normal;font-variant:normal;font-weight:normal;font-stretch:normal;font-size:20px;line-height:100%;font-family:Shruti;-inkscape-font-specification:Shruti;text-align:start;writing-mode:lr-tb;text-anchor:start;fill:#ffffff;fill-opacity:1;stroke:#ffffff;stroke-width:0.99999988;stroke-linecap:butt;stroke-linejoin:miter;stroke-opacity:1" />
    <path
       id="text16736"
       d="m 326.86542,391.31145 -1.29127,0 0,-10.6294 -1.071,1.23819 -0.63805,-0.81911 1.785,-2.1335 1.21532,0 0,12.34382 z m 9.50987,-9.51503 c 0,1.11755 -0.40004,2.13352 -1.20012,3.04786 -0.74439,0.72387 -1.48878,1.45091 -2.23315,2.18112 -0.80009,0.88262 -1.20013,1.84777 -1.20013,2.89547 l 4.54985,0 0,1.39058 -5.76517,0 c -0.0152,-0.27939 -0.0227,-0.5302 -0.0227,-0.75244 0,-1.61917 0.40257,-2.99071 1.20772,-4.1146 0.18737,-0.26669 0.93428,-1.03501 2.24075,-2.30495 0.80008,-0.78735 1.20012,-1.56837 1.20013,-2.34304 -10e-6,-1.35247 -0.56969,-2.02872 -1.70905,-2.02874 -0.95707,2e-5 -1.72677,0.50164 -2.3091,1.50489 l -0.74438,-0.92388 c 0.39497,-0.73655 0.92921,-1.27946 1.6027,-1.6287 0.476,-0.24127 0.95959,-0.36191 1.45078,-0.36193 0.84059,2e-5 1.53434,0.30161 2.08124,0.90482 0.56714,0.62864 0.85071,1.47316 0.85071,2.53354 l 0,0 z m 10.5353,3.20977 c -1e-5,1.83507 -0.33675,3.36853 -1.01024,4.60037 -0.75958,1.39057 -1.81539,2.08588 -3.16742,2.08588 -1.35205,0 -2.41039,-0.69531 -3.17503,-2.08588 -0.67855,-1.23819 -1.01782,-2.77165 -1.01782,-4.60037 0,-1.82869 0.33927,-3.35581 1.01782,-4.58131 0.76464,-1.37786 1.82298,-2.0668 3.17503,-2.06682 1.35203,2e-5 2.40784,0.68896 3.16742,2.06682 0.67349,1.2255 1.01023,2.75262 1.01024,4.58131 l 0,0 z m -1.23051,0 c -2e-5,-1.35882 -0.24815,-2.54939 -0.74439,-3.5717 -0.55702,-1.14294 -1.29128,-1.7144 -2.20276,-1.71442 -0.9115,2e-5 -1.64828,0.57148 -2.21036,1.71442 -0.50132,1.02231 -0.75199,2.21288 -0.75199,3.5717 0,1.35884 0.25067,2.55577 0.75199,3.59077 0.56208,1.15564 1.29886,1.73347 2.21036,1.73347 0.91148,0 1.64574,-0.57783 2.20276,-1.73347 0.49624,-1.02866 0.74437,-2.22558 0.74439,-3.59077 l 0,0 z"
       style="font-style:normal;font-variant:normal;font-weight:normal;font-stretch:normal;font-size:13.06467628px;line-height:100%;font-family:Raavi;text-align:start;writing-mode:lr-tb;text-anchor:start;fill:#ffffff;fill-opacity:1;stroke:#ffffff;stroke-width:1.38331628px;stroke-linecap:butt;stroke-linejoin:miter;stroke-opacity:1" />
    <path
       id="text16746"
       d="m 402.87717,391.85239 0,-11.21569 1.61773,0 1.92244,7.94127 c 0.17729,0.73956 0.30656,1.29295 0.38782,1.66016 0.0924,-0.40801 0.23638,-1.00731 0.43214,-1.79787 l 1.94461,-7.80356 1.44599,0 0,11.21569 -1.03601,0 0,-9.38721 -2.36013,9.38721 -0.96953,0 -2.34905,-9.54787 0,9.54787 -1.03601,0 z m 9.65102,0 0,-1.56835 1.13573,0 0,1.56835 -1.13573,0 z m 2.99171,0 0,-11.21569 3.06372,0 c 0.53925,2e-5 0.95106,0.0357 1.23547,0.10717 0.39889,0.0918 0.73314,0.26651 1.00278,0.52406 0.26961,0.25759 0.48661,0.61843 0.65097,1.08256 0.16435,0.46414 0.24653,0.97417 0.24653,1.5301 0,0.95378 -0.21977,1.76092 -0.65928,2.4214 -0.43953,0.66051 -1.23363,0.99075 -2.38228,0.99075 l -2.08312,0 0,4.55972 -1.07479,0 z m 1.07479,-5.88326 2.09974,0 c 0.69436,2e-5 1.18744,-0.17851 1.47923,-0.53553 0.29177,-0.35703 0.43767,-0.8594 0.43767,-1.50716 0,-0.46922 -0.0859,-0.87088 -0.25761,-1.20496 -0.17175,-0.33406 -0.39798,-0.55466 -0.67867,-0.66178 -0.18099,-0.0663 -0.51525,-0.0995 -1.00278,-0.0995 l -2.07758,0 0,4.00888 z m 6.65932,5.88326 0,-1.56835 1.13574,0 0,1.56835 -1.13574,0 z m 3.02495,0 0,-11.21569 1.07479,0 0,4.60562 4.22164,0 0,-4.60562 1.07479,0 0,11.21569 -1.07479,0 0,-5.28652 -4.22164,0 0,5.28652 -1.07479,0 z m 8.32137,0 0,-1.56835 1.13575,0 0,1.56835 -1.13575,0 z"
       style="font-style:normal;font-variant:normal;font-weight:normal;font-stretch:normal;font-size:10px;line-height:100%;font-family:Arial;-inkscape-font-specification:Arial;text-align:start;writing-mode:lr-tb;text-anchor:start;fill:#ffffff;fill-opacity:1;stroke:#ffffff;stroke-width:1.3833164px;stroke-linecap:butt;stroke-linejoin:miter;stroke-opacity:1" />
    <path
       id="text16756"
       d="m 319.54156,230.77045 -2.032,0 -1.18533,-5.05159 -3.72532,0 -1.18533,5.05159 -2.03199,0 4.23331,-16.48913 1.69333,0 4.23333,16.48913 z m -3.64066,-6.86252 -1.35466,-5.81409 -0.16933,0 -1.35467,5.81409 2.87866,0 z m 10.32931,6.86252 -1.94734,0 0,-16.29851 1.94734,0 0,16.29851 z m 14.73195,0 -2.03199,0 -3.04799,-7.05315 -2.20134,0 0,7.05315 -1.94732,0 0,-16.29851 4.23332,0 c 1.35465,3e-5 2.45533,0.36538 3.30199,1.09611 0.84666,0.73074 1.26999,1.92216 1.26999,3.57422 0,1.27085 -0.28222,2.25576 -0.84666,2.95471 -0.56444,0.69896 -1.21356,1.14375 -1.94732,1.33438 l 3.21732,7.33909 z m -2.37066,-11.62818 c -10e-6,-0.88956 -0.2399,-1.58853 -0.71966,-2.09688 -0.47979,-0.50831 -1.2559,-0.76249 -2.32834,-0.7625 l -1.86266,0 0,5.62346 2.37067,0 c 0.67733,1e-5 1.26998,-0.2065 1.77799,-0.61953 0.50799,-0.41302 0.76199,-1.12786 0.762,-2.14455 l 0,0 z m 12.8693,7.05315 c -1e-5,1.46148 -0.40923,2.62111 -1.22767,3.47894 -0.81844,0.8578 -1.93322,1.28672 -3.34432,1.28672 -1.41112,0 -2.51178,-0.44479 -3.30199,-1.33439 -0.79023,-0.88958 -1.18533,-2.00156 -1.18533,-3.33594 l 0,-0.6672 1.94733,0 0,0.57187 c -10e-6,0.95315 0.254,1.68387 0.76199,2.19221 0.50799,0.50834 1.10066,0.7625 1.778,0.7625 0.9031,0 1.56632,-0.27005 1.98966,-0.81016 0.42332,-0.5401 0.63499,-1.1914 0.63499,-1.95392 0,-0.6354 -0.25399,-1.22317 -0.76199,-1.76328 -0.508,-0.5401 -1.24178,-1.03255 -2.20133,-1.47736 -1.35467,-0.57185 -2.32833,-1.20727 -2.92098,-1.90625 -0.59267,-0.69896 -0.889,-1.52499 -0.889,-2.47813 0,-1.33437 0.40922,-2.41458 1.22765,-3.24064 0.81844,-0.82604 1.79211,-1.23905 2.921,-1.23907 1.46755,2e-5 2.52588,0.49247 3.175,1.47734 0.64909,0.98492 0.97365,2.04926 0.97366,3.193 l -1.94734,0 c 0.0564,-0.69895 -0.11285,-1.33437 -0.50799,-1.90627 -0.39512,-0.57186 -0.95956,-0.8578 -1.69333,-0.85781 -0.67734,1e-5 -1.21356,0.20652 -1.60866,0.61953 -0.39511,0.41303 -0.59267,0.96903 -0.59267,1.66797 0,0.5719 0.15522,1.06435 0.46567,1.47735 0.31044,0.41303 1.11477,0.90548 2.41299,1.47735 1.24177,0.57189 2.20132,1.25497 2.87866,2.04923 0.67732,0.79429 1.01599,1.69975 1.016,2.71641 l 0,0 z m 11.00664,-6.7672 c -1e-5,1.52501 -0.39512,2.7323 -1.18534,3.62189 -0.79022,0.88959 -1.89088,1.33438 -3.30199,1.33438 l -2.45533,0 0,6.38596 -1.94732,0 0,-16.29851 4.40265,0 c 1.41111,3e-5 2.51177,0.44482 3.30199,1.33438 0.79022,0.88961 1.18533,2.0969 1.18534,3.6219 l 0,0 z m -1.94734,0 c 0,-1.20729 -0.25401,-2.03334 -0.76199,-2.47814 -0.508,-0.44478 -1.27001,-0.66718 -2.28599,-0.66719 l -1.94734,0 0,6.29065 1.94734,0 c 1.01598,2e-5 1.77799,-0.22239 2.28599,-0.66719 0.50798,-0.44478 0.76199,-1.27082 0.76199,-2.47813 l 0,0 z m 12.6153,11.34223 -8.63598,0 0,-16.29851 8.21265,0 0,1.81095 -6.26531,0 0,5.05159 5.75731,0 0,1.81093 -5.75731,0 0,5.81409 6.68864,0 0,1.81095 z m 10.83731,0 -8.63599,0 0,-16.29851 8.21266,0 0,1.81095 -6.26532,0 0,5.05159 5.75731,0 0,1.81093 -5.75731,0 0,5.81409 6.68865,0 0,1.81095 z m 10.92197,-8.1016 c -10e-6,2.92294 -0.55034,5.00393 -1.651,6.24299 -1.10067,1.23908 -2.58233,1.85861 -4.44499,1.85861 l -2.87866,0 0,-16.29851 2.87866,0 c 2.08844,3e-5 3.62654,0.63545 4.61433,1.90627 0.98776,1.27085 1.48165,3.36772 1.48166,6.29064 l 0,0 z m -2.03199,0 c -2e-5,-2.35103 -0.33867,-4.00313 -1.016,-4.95627 -0.67734,-0.95311 -1.69334,-1.42968 -3.048,-1.42969 l -0.93132,0 0,12.67661 0.93132,0 c 1.35466,0 2.37066,-0.46068 3.048,-1.38203 0.67733,-0.92135 1.01598,-2.55756 1.016,-4.90862 l 0,0 z"
       style="font-style:normal;font-variant:normal;font-weight:normal;font-stretch:normal;font-size:17.24776077px;line-height:125%;font-family:SimHei;-inkscape-font-specification:SimHei;text-align:start;writing-mode:lr-tb;text-anchor:start;fill:#ffffff;fill-opacity:1;stroke:#ffffff;stroke-width:1.38331628px;stroke-linecap:butt;stroke-linejoin:miter;stroke-opacity:1" />
    <path
       id="text16762"
       d="m 321.15363,292.83695 -2.35624,0 0,10.07961 -1.35484,0 0,-10.07961 -2.35625,0 0,-1.25995 6.06733,0 0,1.25995 z m 7.89341,10.07961 -1.41374,0 -2.12062,-4.90718 -1.53156,0 0,4.90718 -1.35484,0 0,-11.33956 2.9453,0 c 0.94249,2e-5 1.70827,0.25421 2.29734,0.7626 0.58905,0.50841 0.88358,1.33733 0.88358,2.48675 0,0.88419 -0.19635,1.56942 -0.58906,2.05571 -0.3927,0.4863 -0.84432,0.79576 -1.35483,0.92839 l 2.23843,5.10611 z m -1.64937,-8.09021 c -1e-5,-0.61891 -0.16691,-1.10521 -0.5007,-1.4589 -0.33381,-0.35365 -0.87379,-0.53049 -1.61992,-0.5305 l -1.29593,0 0,3.91249 1.64937,0 c 0.47124,0 0.88358,-0.14368 1.23702,-0.43104 0.35344,-0.28735 0.53015,-0.7847 0.53016,-1.49205 l 0,0 z m 8.89481,4.77455 c 0,1.06101 -0.24544,1.90098 -0.73632,2.5199 -0.49089,0.61893 -1.26649,0.92839 -2.3268,0.92839 -1.06031,0 -1.83591,-0.30946 -2.32678,-0.92839 -0.49089,-0.61892 -0.73633,-1.45889 -0.73633,-2.5199 l 0,-8.0239 1.35484,0 0,8.0239 c 0,0.75155 0.15709,1.30417 0.47125,1.65784 0.31417,0.35367 0.7265,0.5305 1.23702,0.5305 0.51052,0 0.92286,-0.17683 1.23703,-0.5305 0.31416,-0.35367 0.47124,-0.90629 0.47125,-1.65784 l 0,-8.0239 1.35484,0 0,8.0239 z m 7.59888,3.31566 -6.00842,0 0,-11.33956 5.71388,0 0,1.25995 -4.35904,0 0,3.51461 4.00561,0 0,1.25994 -4.00561,0 0,4.04512 4.65358,0 0,1.25994 z m 15.07994,-3.18303 c -10e-6,1.0168 -0.28472,1.82362 -0.85414,2.42043 -0.56943,0.59683 -1.34503,0.89523 -2.32678,0.89523 -0.98177,0 -1.74755,-0.30946 -2.29734,-0.92839 -0.54979,-0.61892 -0.82469,-1.39257 -0.82469,-2.32095 l 0,-0.4642 1.35485,0 0,0.39788 c 0,0.66313 0.17671,1.17154 0.53015,1.52521 0.35343,0.35367 0.76578,0.5305 1.23703,0.5305 0.62832,0 1.08975,-0.18788 1.38429,-0.56366 0.29452,-0.37577 0.44179,-0.82892 0.44179,-1.35943 0,-0.44207 -0.17673,-0.85101 -0.53015,-1.22678 -0.35345,-0.37578 -0.86397,-0.71839 -1.53156,-1.02787 -0.94249,-0.39786 -1.61992,-0.83995 -2.03226,-1.32626 -0.41235,-0.48629 -0.61851,-1.061 -0.61851,-1.72415 0,-0.92837 0.28471,-1.67992 0.85414,-2.25465 0.56942,-0.5747 1.24684,-0.86205 2.03226,-0.86206 1.02102,10e-6 1.75735,0.34262 2.20897,1.02785 0.45161,0.68524 0.67742,1.42574 0.67742,2.22149 l -1.35484,0 c 0.0392,-0.48628 -0.0785,-0.92837 -0.35343,-1.32627 -0.27491,-0.39786 -0.66762,-0.59681 -1.17812,-0.59681 -0.47125,0 -0.84433,0.14369 -1.11922,0.43104 -0.2749,0.28737 -0.41234,0.67418 -0.41234,1.16048 0,0.39788 0.10795,0.7405 0.32398,1.02785 0.21598,0.28737 0.7756,0.62999 1.67883,1.02785 0.86394,0.3979 1.53154,0.87313 2.0028,1.42575 0.47124,0.5526 0.70686,1.18259 0.70687,1.88992 l 0,0 z m 7.65779,-4.70824 c -1e-5,1.06101 -0.27491,1.90098 -0.82469,2.51991 -0.5498,0.61892 -1.31557,0.92838 -2.29734,0.92838 l -1.70827,0 0,4.44298 -1.35484,0 0,-11.33956 3.06311,0 c 0.98177,2e-5 1.74754,0.30948 2.29734,0.92839 0.54978,0.61892 0.82468,1.45889 0.82469,2.5199 l 0,0 z m -1.35485,0 c 0,-0.83996 -0.17672,-1.41468 -0.53015,-1.72414 -0.35344,-0.30946 -0.88359,-0.46419 -1.59046,-0.4642 l -1.35484,0 0,4.37667 1.35484,0 c 0.70687,2e-5 1.23702,-0.15472 1.59046,-0.46418 0.35343,-0.30947 0.53015,-0.88418 0.53015,-1.72415 l 0,0 z m 8.77701,7.89127 -6.00842,0 0,-11.33956 5.71388,0 0,1.25995 -4.35905,0 0,3.51461 4.00562,0 0,1.25994 -4.00562,0 0,4.04512 4.65359,0 0,1.25994 z m 7.53997,0 -6.00842,0 0,-11.33956 5.71388,0 0,1.25995 -4.35904,0 0,3.51461 4.00561,0 0,1.25994 -4.00561,0 0,4.04512 4.65358,0 0,1.25994 z m 7.59887,-5.63662 c 0,2.03361 -0.38289,3.48145 -1.14866,4.34352 -0.76579,0.86207 -1.79664,1.2931 -3.09257,1.2931 l -2.00281,0 0,-11.33956 2.00281,0 c 1.45301,2e-5 2.52314,0.44211 3.21038,1.32627 0.68723,0.88418 1.03085,2.34307 1.03085,4.37667 l 0,0 z m -1.41374,0 c 0,-1.63572 -0.23563,-2.78515 -0.70688,-3.44829 -0.47124,-0.66313 -1.17812,-0.99469 -2.12061,-0.9947 l -0.64796,0 0,8.81967 0.64796,0 c 0.94249,0 1.64937,-0.32051 2.12061,-0.96155 0.47125,-0.64102 0.70688,-1.7794 0.70688,-3.41513 l 0,0 z"
       style="font-style:normal;font-variant:normal;font-weight:normal;font-stretch:normal;font-size:12px;line-height:125%;font-family:SimHei;-inkscape-font-specification:SimHei;text-align:start;writing-mode:lr-tb;text-anchor:start;fill:#ffffff;fill-opacity:1;stroke:#ffffff;stroke-width:1.38331628px;stroke-linecap:butt;stroke-linejoin:miter;stroke-opacity:1" />
    <path
       id="text16768"
       d="m 271.07329,226.9298 0,16.89733 -1.73308,0 0,-13.78669 -1.11342,1.45931 -1.01661,-1.45931 2.35271,-3.11064 1.5104,0 z m 9.13978,9.75437 0,-6.18288 -3.30155,6.18288 3.30155,0 z m 3.97929,2.15057 -2.27526,0 0,4.99239 -1.70403,0 0,-4.99239 -5.25731,0 0,-2.15057 5.25731,-9.75437 1.70403,0 0,9.75437 2.27526,0 0,2.15057 z m 12.1896,-3.45628 c -10e-6,2.50902 -0.40343,4.56571 -1.21025,6.1701 -0.92948,1.86041 -2.27527,2.79062 -4.03738,2.79062 -1.76212,0 -3.11113,-0.93021 -4.04706,-2.79062 -0.81329,-1.60439 -1.21993,-3.66108 -1.21993,-6.1701 0,-2.50898 0.40664,-4.56567 1.21993,-6.17008 0.93593,-1.8604 2.28494,-2.7906 4.04706,-2.79063 1.76211,3e-5 3.1079,0.93023 4.03738,2.79063 0.80682,1.60441 1.21024,3.6611 1.21025,6.17008 l 0,0 z m -1.70403,0 c 0,-1.8092 -0.29369,-3.35812 -0.88105,-4.64676 -0.66485,-1.45077 -1.55235,-2.17615 -2.66255,-2.17617 -1.11666,2e-5 -2.00739,0.7254 -2.67222,2.17617 -0.59383,1.28864 -0.89074,2.83756 -0.89074,4.64676 0,1.80922 0.29691,3.35814 0.89074,4.64677 0.66483,1.45078 1.55556,2.17618 2.67222,2.17618 1.1102,0 1.9977,-0.7254 2.66255,-2.17618 0.58736,-1.28863 0.88105,-2.83755 0.88105,-4.64677 l 0,0 z"
       style="font-style:normal;font-variant:normal;font-weight:normal;font-stretch:normal;font-size:17.09997177px;line-height:125%;font-family:Shruti;-inkscape-font-specification:Shruti;text-align:start;writing-mode:lr-tb;text-anchor:start;fill:#ffffff;fill-opacity:1;stroke:#ffffff;stroke-width:1.38331604px;stroke-linecap:butt;stroke-linejoin:miter;stroke-opacity:1" />
    <path
       id="text16778"
       d="m 279.6362,298.53356 0,17.26832 -1.69584,0 0,-14.08938 -1.08951,1.49136 -0.99477,-1.49136 2.30218,-3.17894 1.47794,0 z m 4.63277,17.26832 c -0.0253,-0.40119 -0.0379,-0.78928 -0.0379,-1.16431 -2e-5,-2.41582 0.48632,-4.40428 1.45898,-5.96541 0.36,-0.58433 1.2632,-1.58728 2.70956,-3.00888 0.97266,-0.95934 1.45899,-1.91433 1.459,-2.86497 -10e-6,-1.71809 -0.65372,-2.57715 -1.96112,-2.57716 -1.20004,10e-6 -2.12534,0.70645 -2.77587,2.11928 l -1.06109,-1.46518 c 0.46737,-1.06399 1.1274,-1.84455 1.98006,-2.34169 0.61264,-0.34883 1.23161,-0.52326 1.8569,-0.52328 1.04845,2e-5 1.91373,0.41863 2.59587,1.25588 0.71369,0.88086 1.07054,2.05826 1.07055,3.53215 -1e-5,1.48264 -0.48317,2.78649 -1.44952,3.91154 -0.90319,0.91574 -1.80637,1.8315 -2.70955,2.74722 -0.96635,1.16867 -1.44952,2.55537 -1.44952,4.1601 l 5.50439,0 0,2.18471 -7.19076,0 0,0 z m 20.1322,-8.63417 c -10e-6,2.5641 -0.39476,4.66595 -1.18425,6.30556 -0.90951,1.90125 -2.22639,2.85189 -3.95064,2.85189 -1.72427,0 -3.0443,-0.95064 -3.96013,-2.85189 -0.79581,-1.63961 -1.19372,-3.74146 -1.19372,-6.30556 0,-2.56406 0.39791,-4.66591 1.19372,-6.30554 0.91583,-1.90125 2.23586,-2.85187 3.96013,-2.85189 1.72425,2e-5 3.04113,0.95064 3.95064,2.85189 0.78949,1.63963 1.18424,3.74148 1.18425,6.30554 l 0,0 z m -1.66742,0 c 0,-1.84892 -0.28738,-3.43185 -0.86213,-4.74878 -0.65055,-1.48262 -1.519,-2.22393 -2.60534,-2.22395 -1.09267,2e-5 -1.96428,0.74133 -2.61482,2.22395 -0.58108,1.31693 -0.87161,2.89986 -0.87161,4.74878 0,1.84894 0.29053,3.43187 0.87161,4.7488 0.65054,1.48264 1.52215,2.22395 2.61482,2.22395 1.08634,0 1.95479,-0.74131 2.60534,-2.22395 0.57475,-1.31693 0.86213,-2.89986 0.86213,-4.7488 l 0,0 z"
       style="font-style:normal;font-variant:normal;font-weight:normal;font-stretch:normal;font-size:17.09997177px;line-height:125%;font-family:Shruti;-inkscape-font-specification:Shruti;text-align:start;writing-mode:lr-tb;text-anchor:start;fill:#ffffff;fill-opacity:1;stroke:#ffffff;stroke-width:1.38331616px;stroke-linecap:butt;stroke-linejoin:miter;stroke-opacity:1" />
    <path
       id="text16788"
       d="m 349.23449,334.24086 0,16.15752 -1.58674,0 0,-13.18306 -1.01943,1.39543 -0.93077,-1.39543 2.15407,-2.97446 1.38287,0 z m 12.74724,8.07876 c -2e-5,2.39916 -0.36937,4.36579 -1.10807,5.89995 -0.85101,1.77894 -2.08318,2.66843 -3.69653,2.66843 -1.61334,0 -2.84847,-0.88949 -3.70537,-2.66843 -0.74463,-1.53416 -1.11694,-3.50079 -1.11694,-5.89995 0,-2.39913 0.37231,-4.36578 1.11694,-5.89994 0.8569,-1.77894 2.09203,-2.66843 3.70537,-2.66844 1.61335,1e-5 2.84552,0.8895 3.69653,2.66844 0.7387,1.53416 1.10805,3.50081 1.10807,5.89994 l 0,0 z m -1.56016,0 c -2e-5,-1.72999 -0.26891,-3.21109 -0.80668,-4.44331 -0.6087,-1.38725 -1.42129,-2.08088 -2.43776,-2.0809 -1.02237,2e-5 -1.83791,0.69365 -2.44661,2.0809 -0.54369,1.23222 -0.81554,2.71332 -0.81554,4.44331 0,1.73 0.27185,3.21112 0.81554,4.44332 0.6087,1.38726 1.42424,2.0809 2.44661,2.0809 1.01647,0 1.82906,-0.69364 2.43776,-2.0809 0.53777,-1.2322 0.80666,-2.71332 0.80668,-4.44332 l 0,0 z m 12.37491,0 c -10e-6,2.39916 -0.36937,4.36579 -1.10807,5.89995 -0.851,1.77894 -2.08318,2.66843 -3.69652,2.66843 -1.61335,0 -2.84847,-0.88949 -3.70538,-2.66843 -0.74462,-1.53416 -1.11694,-3.50079 -1.11694,-5.89995 0,-2.39913 0.37232,-4.36578 1.11694,-5.89994 0.85691,-1.77894 2.09203,-2.66843 3.70538,-2.66844 1.61334,1e-5 2.84552,0.8895 3.69652,2.66844 0.7387,1.53416 1.10806,3.50081 1.10807,5.89994 l 0,0 z m -1.56016,0 c -10e-6,-1.72999 -0.2689,-3.21109 -0.80668,-4.44331 -0.6087,-1.38725 -1.42129,-2.08088 -2.43775,-2.0809 -1.02238,2e-5 -1.83792,0.69365 -2.44662,2.0809 -0.54368,1.23222 -0.81554,2.71332 -0.81554,4.44331 0,1.73 0.27186,3.21112 0.81554,4.44332 0.6087,1.38726 1.42424,2.0809 2.44662,2.0809 1.01646,0 1.82905,-0.69364 2.43775,-2.0809 0.53778,-1.2322 0.80667,-2.71332 0.80668,-4.44332 l 0,0 z"
       style="font-style:normal;font-variant:normal;font-weight:normal;font-stretch:normal;font-size:16px;line-height:125%;font-family:Shruti;-inkscape-font-specification:Shruti;text-align:start;writing-mode:lr-tb;text-anchor:start;fill:#ffffff;fill-opacity:1;stroke:#ffffff;stroke-width:1.38331616px;stroke-linecap:butt;stroke-linejoin:miter;stroke-opacity:1" />
    <path
       id="text16798"
       d="m 413.91446,289.70592 c 0,0.5117 0.24953,1.06952 0.74861,1.67348 0.38087,0.46975 0.80114,0.85562 1.26082,1.15758 0.45966,-0.30196 0.87993,-0.68783 1.26081,-1.15758 0.49907,-0.60396 0.7486,-1.16178 0.74861,-1.67348 -1e-5,-0.71299 -0.20686,-1.26663 -0.62056,-1.6609 -0.36774,-0.3439 -0.83069,-0.51586 -1.38886,-0.51587 -0.55818,10e-6 -1.02114,0.17197 -1.38887,0.51587 -0.41371,0.39427 -0.62056,0.94791 -0.62056,1.6609 l 0,0 z m -0.4531,8.77001 c 0,0.62912 0.19372,1.2205 0.58116,1.77412 0.46623,0.67107 1.09336,1.00661 1.88137,1.00661 0.79457,0 1.42169,-0.32296 1.88137,-0.96886 0.38742,-0.53685 0.58115,-1.14081 0.58116,-1.81187 -10e-6,-1.32536 -0.82086,-2.56682 -2.46253,-3.72442 -1.64169,1.1576 -2.46253,2.39906 -2.46253,3.72442 l 0,0 z m -1.21157,-8.77001 c 0,-1.38407 0.35789,-2.4368 1.07367,-3.15821 0.6501,-0.65428 1.51691,-0.98142 2.60043,-0.98144 1.0835,2e-5 1.95031,0.32716 2.60042,0.98144 0.71577,0.72141 1.07366,1.77414 1.07367,3.15821 -1e-5,1.45119 -0.70594,2.75977 -2.11778,3.92573 0.8471,0.72981 1.43811,1.35473 1.77302,1.8748 0.54503,0.83885 0.81755,1.82866 0.81757,2.96948 -2e-5,1.20791 -0.33492,2.25646 -1.00472,3.14562 -0.77488,1.04015 -1.82227,1.56023 -3.14218,1.56023 -1.32649,0 -2.37389,-0.5075 -3.14219,-1.52248 -0.66324,-0.88077 -0.99486,-1.9419 -0.99486,-3.18337 0,-1.1492 0.26923,-2.14322 0.80771,-2.98207 0.3349,-0.51167 0.9259,-1.1324 1.77301,-1.86221 -1.41185,-1.16596 -2.11777,-2.47454 -2.11777,-3.92573 l 0,0 z m 20.83299,4.66811 c -1e-5,2.46618 -0.41043,4.48777 -1.23127,6.06477 -0.94561,1.82865 -2.31478,2.74298 -4.10749,2.74298 -1.79273,0 -3.16517,-0.91433 -4.11735,-2.74298 -0.82741,-1.577 -1.24111,-3.59859 -1.24111,-6.06477 0,-2.46616 0.4137,-4.48774 1.24111,-6.06476 0.95218,-1.82865 2.32462,-2.74298 4.11735,-2.743 1.79271,2e-5 3.16188,0.91435 4.10749,2.743 0.82084,1.57702 1.23126,3.5986 1.23127,6.06476 l 0,0 z m -1.73362,0 c 0,-1.77832 -0.29879,-3.3008 -0.89636,-4.56745 -0.67637,-1.426 -1.5793,-2.139 -2.70878,-2.13902 -1.13605,2e-5 -2.04226,0.71302 -2.71864,2.13902 -0.60414,1.26665 -0.9062,2.78913 -0.9062,4.56745 0,1.77833 0.30206,3.30081 0.9062,4.56744 0.67638,1.42602 1.58259,2.13904 2.71864,2.13902 1.12948,2e-5 2.03241,-0.713 2.70878,-2.13902 0.59757,-1.26663 0.89636,-2.78911 0.89636,-4.56744 l 0,0 z"
       style="font-style:normal;font-variant:normal;font-weight:normal;font-stretch:normal;font-size:17.09997177px;line-height:125%;font-family:Shruti;-inkscape-font-specification:Shruti;text-align:start;writing-mode:lr-tb;text-anchor:start;fill:#ffffff;fill-opacity:1;stroke:#ffffff;stroke-width:1.38331616px;stroke-linecap:butt;stroke-linejoin:miter;stroke-opacity:1" />
    <path
       id="text16808"
       d="m 419.07041,233.25007 c -10e-6,1.42761 -0.38928,2.64652 -1.16784,3.65669 -0.77856,1.01018 -1.68579,1.51528 -2.72166,1.51528 -1.60991,0 -2.81075,-0.99766 -3.6025,-2.99298 -0.60701,-1.51946 -0.91053,-3.37283 -0.91053,-5.56018 0,-2.42109 0.44867,-4.46232 1.346,-6.12372 1.03587,-1.90346 2.47754,-2.8552 4.32497,-2.85522 0.48825,2e-5 1.05897,0.15447 1.71217,0.46334 l 0,2.10385 c -0.60701,-0.30887 -1.18433,-0.46333 -1.73197,-0.46334 -1.24702,1e-5 -2.23342,0.77226 -2.95919,2.31673 -0.60702,1.29405 -0.91052,2.77175 -0.91052,4.43313 0.82475,-1.11035 1.78145,-1.66554 2.87012,-1.66556 1.04908,2e-5 1.9332,0.48006 2.6524,1.44015 0.73236,0.98514 1.09854,2.22908 1.09855,3.73183 l 0,0 z m -1.68248,-0.025 c -10e-6,-0.93505 -0.18805,-1.67806 -0.56413,-2.22908 -0.37609,-0.55101 -0.88743,-0.82651 -1.53402,-0.82651 -0.56744,0 -1.10847,0.21289 -1.62311,0.63867 -0.46847,0.37569 -0.82475,0.83903 -1.06887,1.39004 0.0329,1.04358 0.25731,1.95775 0.67299,2.74252 0.49484,0.91836 1.14145,1.37753 1.93981,1.37753 0.58062,0 1.08866,-0.29638 1.52413,-0.88913 0.43546,-0.59276 0.65319,-1.32743 0.6532,-2.20404 l 0,0 z m 14.31103,-3.56904 c -10e-6,2.45451 -0.41239,4.46652 -1.23712,6.03606 -0.95012,1.81999 -2.32581,2.73 -4.12705,2.73 -1.80125,0 -3.18022,-0.91001 -4.13693,-2.73 -0.83134,-1.56954 -1.24702,-3.58155 -1.24702,-6.03606 0,-2.45448 0.41568,-4.46649 1.24702,-6.03604 0.95671,-1.82 2.33568,-2.72998 4.13693,-2.73 1.80124,2e-5 3.17693,0.91 4.12705,2.73 0.82473,1.56955 1.23711,3.58156 1.23712,6.03604 l 0,0 z m -1.74187,0 c -10e-6,-1.7699 -0.30022,-3.28517 -0.90063,-4.54582 -0.6796,-1.41925 -1.58682,-2.12888 -2.72167,-2.12889 -1.14146,1e-5 -2.05197,0.70964 -2.73156,2.12889 -0.60701,1.26065 -0.91053,2.77592 -0.91053,4.54582 0,1.76991 0.30352,3.28519 0.91053,4.54583 0.67959,1.41927 1.5901,2.1289 2.73156,2.1289 1.13485,0 2.04207,-0.70963 2.72167,-2.1289 0.60041,-1.26064 0.90062,-2.77592 0.90063,-4.54583 l 0,0 z"
       style="font-style:normal;font-variant:normal;font-weight:normal;font-stretch:normal;font-size:17.09997177px;line-height:125%;font-family:Shruti;-inkscape-font-specification:Shruti;text-align:start;writing-mode:lr-tb;text-anchor:start;fill:#ffffff;fill-opacity:1;stroke:#ffffff;stroke-width:1.38331628px;stroke-linecap:butt;stroke-linejoin:miter;stroke-opacity:1" />
    <path
       id="text16818"
       d="m 378.67555,191.06676 0,-5.88063 -3.47125,5.88063 3.47125,0 z m 4.18382,2.04543 -2.39221,0 0,4.74833 -1.79161,0 0,-4.74833 -5.52754,0 0,-2.04543 5.52754,-9.2775 1.79161,0 0,9.2775 2.39221,0 0,2.04543 z m 12.81616,-3.2873 c -10e-6,2.38634 -0.42416,4.34249 -1.27245,5.86844 -0.97726,1.76947 -2.39223,2.65421 -4.24492,2.65421 -1.8527,0 -3.27105,-0.88474 -4.25508,-2.65421 -0.85508,-1.52595 -1.28264,-3.4821 -1.28264,-5.86844 0,-2.38633 0.42756,-4.34247 1.28264,-5.86846 0.98403,-1.76944 2.40238,-2.65418 4.25508,-2.65419 1.85269,10e-6 3.26766,0.88475 4.24492,2.65419 0.84829,1.52599 1.27244,3.48213 1.27245,5.86846 l 0,0 z m -1.79162,0 c -1e-5,-1.72076 -0.30879,-3.19395 -0.92635,-4.4196 -0.699,-1.37984 -1.63214,-2.06978 -2.7994,-2.06978 -1.17405,0 -2.11058,0.68994 -2.80957,2.06978 -0.62435,1.22565 -0.93653,2.69884 -0.93653,4.4196 0,1.72077 0.31218,3.19396 0.93653,4.41959 0.69899,1.37986 1.63552,2.06979 2.80957,2.06979 1.16726,0 2.1004,-0.68993 2.7994,-2.06979 0.61756,-1.22563 0.92634,-2.69882 0.92635,-4.41959 l 0,0 z"
       style="font-style:normal;font-variant:normal;font-weight:normal;font-stretch:normal;font-size:17.09997177px;line-height:125%;font-family:Shruti;-inkscape-font-specification:Shruti;text-align:start;writing-mode:lr-tb;text-anchor:start;fill:#ffffff;fill-opacity:1;stroke:#ffffff;stroke-width:1.38331616px;stroke-linecap:butt;stroke-linejoin:miter;stroke-opacity:1" />
    <path
       id="text16828"
       d="m 341.12145,325.24593 -1.45029,0 -2.56591,-5.95244 -0.89249,1.4706 0,4.48184 -1.28294,0 0,-11.97492 1.28294,0 0,5.18213 3.1795,-5.18213 1.50607,0 -2.95636,4.69192 3.17948,7.283 z m 6.69367,0 -1.39451,0 -3.06793,-8.68357 -0.0558,0 0,8.68357 -1.28296,0 0,-11.97492 1.39452,0 3.06792,8.68358 0.0558,0 0,-8.68358 1.28295,0 0,11.97492 z m 7.36304,-6.02248 c 0,2.19424 -0.2696,3.76989 -0.80881,4.72695 -0.53922,0.95707 -1.29227,1.43559 -2.25912,1.43559 -0.96686,0 -1.7292,-0.47852 -2.28701,-1.43559 -0.5578,-0.95706 -0.8367,-2.53271 -0.8367,-4.72695 0,-2.19422 0.2789,-3.7582 0.8367,-4.69192 0.55781,-0.93372 1.32015,-1.40058 2.28701,-1.40058 0.96685,0 1.7199,0.46686 2.25912,1.40058 0.53921,0.93372 0.80881,2.4977 0.80881,4.69192 l 0,0 z m -1.33874,0 c 0,-1.96079 -0.16734,-3.24466 -0.50201,-3.85157 -0.33469,-0.60692 -0.74375,-0.91037 -1.22718,-0.91039 -0.48343,2e-5 -0.90179,0.30347 -1.25506,0.91039 -0.35329,0.60691 -0.52992,1.89078 -0.52992,3.85157 0,1.96081 0.17663,3.25635 0.52992,3.8866 0.35327,0.63027 0.77163,0.9454 1.25506,0.9454 0.48343,0 0.89249,-0.31513 1.22718,-0.9454 0.33467,-0.63025 0.50201,-1.92579 0.50201,-3.8866 l 0,0 z m 8.25553,-4.6219 -2.23122,0 0,10.64438 -1.28295,0 0,-10.64438 -2.23122,0 0,-1.33054 5.74539,0 0,1.33054 z m 7.25147,7.283 c 0,1.07378 -0.2696,1.92579 -0.80881,2.55606 -0.53921,0.63025 -1.27366,0.94538 -2.20334,0.94538 -0.92967,0 -1.65481,-0.3268 -2.17543,-0.9804 -0.52062,-0.6536 -0.78093,-1.4706 -0.78093,-2.451 l 0,-0.49021 1.28295,0 0,0.42017 c 0,0.70029 0.16734,1.23718 0.50203,1.61067 0.33468,0.37349 0.72514,0.56023 1.17138,0.56023 0.595,0 1.03195,-0.19842 1.31086,-0.59525 0.27889,-0.39682 0.41834,-0.87536 0.41835,-1.43559 -1e-5,-0.46686 -0.16735,-0.8987 -0.50203,-1.29554 -0.33469,-0.39682 -0.81812,-0.75864 -1.4503,-1.08544 -0.89249,-0.42016 -1.53396,-0.88702 -1.92442,-1.40058 -0.39047,-0.51353 -0.5857,-1.12045 -0.5857,-1.82075 0,-0.98039 0.2696,-1.77405 0.80882,-2.38098 0.53921,-0.6069 1.18068,-0.91037 1.92442,-0.91037 0.96687,0 1.66413,0.36182 2.09178,1.08545 0.42765,0.72363 0.64147,1.50563 0.64148,2.34596 l -1.28296,0 c 0.0371,-0.51353 -0.0744,-0.98039 -0.33469,-1.40058 -0.2603,-0.42016 -0.63218,-0.63025 -1.11561,-0.63025 -0.44624,0 -0.79951,0.15174 -1.05982,0.45518 -0.26031,0.30348 -0.39047,0.71197 -0.39047,1.22551 0,0.42017 0.10222,0.78199 0.3068,1.08544 0.20452,0.30347 0.73444,0.66529 1.58974,1.08545 0.81811,0.42019 1.45029,0.92205 1.89654,1.50561 0.44624,0.58359 0.66936,1.24886 0.66936,1.99583 l 0,0 z"
       style="font-style:normal;font-variant:normal;font-weight:normal;font-stretch:normal;font-size:12px;line-height:125%;font-family:SimHei;-inkscape-font-specification:SimHei;text-align:start;writing-mode:lr-tb;text-anchor:start;fill:#ffffff;fill-opacity:1;stroke:#ffffff;stroke-width:1.38331628px;stroke-linecap:butt;stroke-linejoin:miter;stroke-opacity:1" />
    <path
       id="text16862"
       d="m 331.25838,441.28847 -1.60756,0 0,-10.55319 -1.33333,1.22932 -0.79433,-0.81324 2.22222,-2.11821 1.513,0 0,12.25532 z m 11.83926,-9.4468 c -2e-5,1.10953 -0.49804,2.1182 -1.4941,3.026 -0.92672,0.71868 -1.85344,1.4405 -2.78014,2.16548 -0.99607,0.87629 -1.4941,1.83452 -1.4941,2.8747 l 5.66431,0 0,1.38062 -7.17731,0 c -0.0189,-0.27738 -0.0284,-0.5264 -0.0284,-0.74704 -10e-6,-1.60756 0.50118,-2.96927 1.50355,-4.08511 0.23324,-0.26477 1.16311,-1.02757 2.78959,-2.28841 0.99605,-0.78171 1.49409,-1.55712 1.49409,-2.32624 0,-1.34279 -0.70923,-2.01418 -2.12765,-2.01419 -1.1915,1e-5 -2.14974,0.49804 -2.87471,1.49409 l -0.92672,-0.91726 c 0.49173,-0.73127 1.15681,-1.27028 1.99528,-1.61702 0.59259,-0.23954 1.19463,-0.35933 1.80615,-0.35934 1.04648,10e-6 1.91016,0.29946 2.59101,0.89834 0.70605,0.62414 1.05909,1.46259 1.05911,2.51538 l 0,0 z m 13.11582,3.18676 c 0,1.8219 -0.41923,3.34436 -1.25768,4.56737 -0.94563,1.38061 -2.26005,2.07092 -3.94325,2.07092 -1.68323,0 -3.0008,-0.69031 -3.95272,-2.07092 -0.84476,-1.22931 -1.26715,-2.75177 -1.26715,-4.56737 0,-1.8156 0.42239,-3.33175 1.26715,-4.54847 0.95192,-1.368 2.26949,-2.052 3.95272,-2.05201 1.6832,10e-6 2.99762,0.68401 3.94325,2.05201 0.83845,1.21672 1.25768,2.73287 1.25768,4.54847 l 0,0 z m -1.53191,0 c -1e-5,-1.3491 -0.30892,-2.53112 -0.92672,-3.54611 -0.69346,-1.13473 -1.60757,-1.70211 -2.7423,-1.70212 -1.13476,1e-5 -2.05201,0.56739 -2.75177,1.70212 -0.62412,1.01499 -0.93618,2.19701 -0.93618,3.54611 0,1.34909 0.31206,2.53742 0.93618,3.56501 0.69976,1.14736 1.61701,1.72104 2.75177,1.72104 1.13473,0 2.04884,-0.57368 2.7423,-1.72104 0.6178,-1.02128 0.92671,-2.20961 0.92672,-3.56501 l 0,0 z"
       style="font-style:normal;font-variant:normal;font-weight:normal;font-stretch:normal;font-size:14.52482224px;line-height:125%;font-family:Raavi;text-align:start;writing-mode:lr-tb;text-anchor:start;fill:none;fill-opacity:1;stroke:#000000;stroke-width:1.38331628px;stroke-linecap:butt;stroke-linejoin:miter;stroke-opacity:1" />
    <path
       id="text16868"
       d="m 260.30899,412.10375 -1.3298,-0.90327 5.92969,-8.72974 -1.79369,0.26773 -0.20013,-1.11905 3.02844,-0.50357 1.25158,0.85013 -6.88609,10.13777 z m 11.69207,3.97514 c -0.2763,0.40677 -0.66826,0.74258 -1.17587,1.00746 -0.69733,0.36464 -1.44346,0.50943 -2.23837,0.43435 -0.75824,-0.073 -1.47111,-0.33622 -2.13862,-0.78962 -0.99604,-0.67657 -1.72445,-1.56763 -2.18523,-2.6732 l 0.79169,-1.16553 c 0.55799,1.18685 1.28286,2.08312 2.1746,2.68884 0.54756,0.37194 1.18,0.53477 1.8973,0.48854 0.7663,-0.0511 1.3301,-0.34255 1.69141,-0.87448 0.96348,-1.41844 0.74643,-2.60233 -0.65117,-3.55165 l -0.74312,-0.50477 0.78638,-1.15771 0.70401,0.4782 c 0.50584,0.34361 1.04113,0.46714 1.60587,0.3706 0.56473,-0.0965 1.01713,-0.39509 1.35718,-0.89572 0.36485,-0.53712 0.43806,-1.11612 0.21964,-1.73701 -0.19798,-0.56123 -0.57597,-1.03137 -1.13395,-1.41039 -0.82397,-0.55966 -1.6652,-1.04341 -2.52367,-1.45129 l 0.7598,-1.11859 c 0.96112,0.46995 1.66852,0.85899 2.12223,1.16716 2.46142,1.67194 3.05985,3.43876 1.79529,5.30049 -0.63762,0.93868 -1.55997,1.44387 -2.76707,1.5156 0.71354,1.19343 0.59744,2.48634 -0.34833,3.87872 l 0,0 z m 12.68758,5.01714 c -1.02372,1.5071 -2.22595,2.53094 -3.60672,3.07153 -1.55798,0.61073 -3.03317,0.4432 -4.42554,-0.50257 -1.39239,-0.94578 -2.09443,-2.25714 -2.10612,-3.93407 -0.008,-1.49156 0.49798,-2.9883 1.51815,-4.49018 1.02015,-1.5019 2.22146,-2.51875 3.60391,-3.05058 1.5561,-0.59674 3.03034,-0.42223 4.42274,0.52354 1.39236,0.94578 2.09534,2.25015 2.10893,3.9131 0.01,1.4776 -0.4952,2.96733 -1.51535,4.46923 l 0,0 z m -1.26722,-0.86075 c 0.75803,-1.116 1.16666,-2.26736 1.22591,-3.4541 0.0639,-1.32832 -0.37342,-2.31129 -1.31208,-2.94889 -0.93869,-0.63759 -2.01626,-0.68365 -3.23271,-0.13815 -1.08658,0.48891 -2.00888,1.29136 -2.76691,2.40735 -0.75804,1.11599 -1.16761,2.27434 -1.22872,3.47506 -0.0658,1.3423 0.37059,2.33224 1.30928,2.96985 0.93867,0.63759 2.01717,0.67666 3.2355,0.1172 1.0849,-0.49769 2.00814,-1.30713 2.76973,-2.42832 l 0,0 z"
       style="font-style:normal;font-variant:normal;font-weight:normal;font-stretch:normal;font-size:14.52481365px;line-height:125%;font-family:Raavi;text-align:start;writing-mode:lr-tb;text-anchor:start;fill:none;fill-opacity:1;stroke:#000000;stroke-width:1.38331616px;stroke-linecap:butt;stroke-linejoin:miter;stroke-opacity:1" />
    <path
       id="text16880"
       d="m 294.60947,128.20501 0.21405,-7.82435 0.88223,-0.24009 4.70784,6.48492 -0.93897,0.25553 -1.37936,-1.97671 -2.58994,0.70482 -0.0239,2.3586 -0.8719,0.23728 z m 0.89936,-3.43383 2.0998,-0.57143 -1.24573,-1.81177 c -0.38398,-0.55592 -0.68013,-1.01213 -0.88842,-1.36866 0.06,0.48164 0.0863,0.96891 0.079,1.46179 l -0.0447,2.29007 z m 5.50839,1.69004 -2.1695,-7.17569 0.82032,-0.22324 1.91348,6.3289 3.05426,-0.83117 0.25602,0.84679 -3.87458,1.05441 z m 6.46968,-1.76063 -1.91348,-6.32891 -2.04306,0.55599 -0.25602,-0.84679 4.91674,-1.33802 0.25602,0.84679 -2.05337,0.5588 1.91348,6.3289 -0.82031,0.22324 z"
       style="font-style:normal;font-variant:normal;font-weight:normal;font-stretch:normal;font-size:8.03004551px;line-height:125%;font-family:'Arial Narrow';-inkscape-font-specification:'Arial Narrow';text-align:end;writing-mode:lr-tb;text-anchor:end;fill:none;fill-opacity:1;stroke:#ffffff;stroke-width:1.33333325;stroke-linecap:butt;stroke-linejoin:miter;stroke-opacity:1" />
    <path
       id="text16890"
       d="m 297.88285,115.38028 -2.1695,-7.17569 2.85305,-0.77642 c 0.50217,-0.13666 0.89258,-0.21818 1.17124,-0.24457 0.38923,-0.0423 0.73427,-0.0153 1.03519,0.0812 0.3009,0.0965 0.57277,0.27236 0.81561,0.52764 0.24283,0.25531 0.41802,0.56079 0.52557,0.91647 0.18448,0.61022 0.13596,1.18231 -0.14557,1.71627 -0.28154,0.53397 -0.95716,0.9465 -2.02683,1.23759 l -1.93987,0.52792 0.88201,2.91726 -1.00089,0.27238 z m -0.13713,-4.03644 1.95535,-0.53212 c 0.64662,-0.17597 1.07125,-0.41515 1.27392,-0.71751 0.20266,-0.30236 0.24134,-0.66075 0.11604,-1.07518 -0.0908,-0.30021 -0.24846,-0.5354 -0.47298,-0.70563 -0.22456,-0.17021 -0.4779,-0.254 -0.76001,-0.25141 -0.18138,0.003 -0.49906,0.0669 -0.95307,0.19046 l -1.93472,0.52651 0.77545,2.56484 z"
       style="font-style:normal;font-variant:normal;font-weight:normal;font-stretch:normal;font-size:8.03004646px;line-height:125%;font-family:Arial;-inkscape-font-specification:Arial;text-align:end;writing-mode:lr-tb;text-anchor:end;fill:none;fill-opacity:1;stroke:#ffffff;stroke-width:1.33333325;stroke-linecap:butt;stroke-linejoin:miter;stroke-opacity:1" />
    <path
       id="path16896"
       d="M 289.51133,120.10731 278.36252,94.060702"
       style="fill:none;fill-rule:evenodd;stroke:#ffffff;stroke-width:2.76663256;stroke-linecap:butt;stroke-linejoin:miter;stroke-miterlimit:4;stroke-dasharray:none;stroke-opacity:1" />
    <path
       id="path16898"
       d="M 237.09351,158.04976 217.01703,138.05834"
       style="fill:none;fill-rule:evenodd;stroke:#ffffff;stroke-width:2.76663256;stroke-linecap:butt;stroke-linejoin:miter;stroke-miterlimit:4;stroke-dasharray:none;stroke-opacity:1" />
    <path
       id="path16900"
       d="m 202.21833,218.08337 -27.1236,-8.18739"
       style="fill:none;fill-rule:evenodd;stroke:#ffffff;stroke-width:2.76663256;stroke-linecap:butt;stroke-linejoin:miter;stroke-miterlimit:4;stroke-dasharray:none;stroke-opacity:1" />
    <path
       id="path16902"
       d="m 171.71995,297.07372 27.74245,-5.75133"
       style="fill:none;fill-rule:evenodd;stroke:#ffffff;stroke-width:2.76663256;stroke-linecap:butt;stroke-linejoin:miter;stroke-miterlimit:4;stroke-dasharray:none;stroke-opacity:1" />
    <path
       id="path16904"
       d="m 181.75261,336.0524 29.06663,-11.07404"
       style="fill:none;fill-rule:evenodd;stroke:#ffffff;stroke-width:2.76663256;stroke-linecap:butt;stroke-linejoin:miter;stroke-miterlimit:4;stroke-dasharray:none;stroke-opacity:1" />
    <path
       id="path17875"
       d="m 497.58954,206.29426 26.69728,-9.48574"
       style="fill:none;fill-rule:evenodd;stroke:#ffffff;stroke-width:2.76663256;stroke-linecap:butt;stroke-linejoin:miter;stroke-miterlimit:4;stroke-dasharray:none;stroke-opacity:1" />
    <path
       id="path17877"
       d="m 507.03787,257.99562 28.33219,0.102"
       style="fill:#ffffff;fill-rule:evenodd;stroke:#ffffff;stroke-width:2.76663256;stroke-linecap:butt;stroke-linejoin:miter;stroke-miterlimit:4;stroke-dasharray:none;stroke-opacity:1" />
    <path
       id="path17879"
       d="m 498.7567,316.05248 26.57938,9.81119"
       style="fill:none;fill-rule:evenodd;stroke:#ffffff;stroke-width:2.76663256;stroke-linecap:butt;stroke-linejoin:miter;stroke-miterlimit:4;stroke-dasharray:none;stroke-opacity:1" />
    <path
       id="path17881"
       d="m 467.79142,367.09522 20.5346,19.52057"
       style="fill:none;fill-rule:evenodd;stroke:#ffffff;stroke-width:2.76663256;stroke-linecap:butt;stroke-linejoin:miter;stroke-miterlimit:4;stroke-dasharray:none;stroke-opacity:1" />
    <path
       id="path17883"
       d="M 412.95516,437.57048 401.92828,406.8553"
       style="fill:none;fill-rule:evenodd;stroke:#ffffff;stroke-width:2.76663256;stroke-linecap:butt;stroke-linejoin:miter;stroke-miterlimit:4;stroke-dasharray:none;stroke-opacity:1" />
    <path
       id="path18854"
       d="m 512.98742,174.15679 -18.58477,9.78837"
       style="fill:none;fill-rule:evenodd;stroke:#ffffff;stroke-width:1.38331628px;stroke-linecap:butt;stroke-linejoin:miter;stroke-opacity:1" />
    <path
       id="path18856"
       d="m 457.1941,220.01518 -19.76123,7.12031"
       style="fill:none;fill-rule:evenodd;stroke:#ffffff;stroke-width:2.76663256;stroke-linecap:butt;stroke-linejoin:miter;stroke-miterlimit:4;stroke-dasharray:none;stroke-opacity:1" />
    <path
       id="path18858"
       d="m 531.27288,228.19893 -20.51866,4.4933"
       style="fill:none;fill-rule:evenodd;stroke:#ffffff;stroke-width:1.38331628px;stroke-linecap:butt;stroke-linejoin:miter;stroke-opacity:1" />
    <path
       id="path18860"
       d="m 444.22553,261.38779 20.91825,0.13481"
       style="fill:none;fill-rule:evenodd;stroke:#ffffff;stroke-width:2.73376465;stroke-linecap:butt;stroke-linejoin:miter;stroke-miterlimit:4;stroke-dasharray:none;stroke-opacity:1" />
    <path
       id="path18862"
       d="m 532.48238,294.52335 -20.51867,-4.49332"
       style="fill:none;fill-rule:evenodd;stroke:#ffffff;stroke-width:1.38331628px;stroke-linecap:butt;stroke-linejoin:miter;stroke-opacity:1" />
    <path
       id="path18866"
       d="m 462.3773,287.59168 -13.07686,-3.01306"
       style="fill:none;fill-rule:evenodd;stroke:#ffffff;stroke-width:1.38331628;stroke-linecap:butt;stroke-linejoin:miter;stroke-miterlimit:4;stroke-dasharray:none;stroke-opacity:1" />
    <path
       id="path19837"
       d="M 211.32288,183.16752 192.96977,172.95137"
       style="fill:none;fill-rule:evenodd;stroke:#ffffff;stroke-width:1.38331628px;stroke-linecap:butt;stroke-linejoin:miter;stroke-opacity:1" />
    <path
       id="path19839"
       d="m 189.21978,253.22398 -21.00479,0.0649"
       style="fill:none;fill-rule:evenodd;stroke:#ffffff;stroke-width:1.38331628px;stroke-linecap:butt;stroke-linejoin:miter;stroke-opacity:1" />
    <path
       id="path19841"
       d="M 257.70135,130.78775 245.5003,113.68979"
       style="fill:none;fill-rule:evenodd;stroke:#ffffff;stroke-width:1.99999976;stroke-linecap:butt;stroke-linejoin:miter;stroke-opacity:1" />
    <path
       id="path19843"
       d="M 509.54154,357.45324 491.66047,346.43178"
       style="fill:none;fill-rule:evenodd;stroke:#ffffff;stroke-width:1.38331628px;stroke-linecap:butt;stroke-linejoin:miter;stroke-opacity:1" />
    <path
       id="path19845"
       d="M 451.98794,416.76243 439.96361,399.5397"
       style="fill:none;fill-rule:evenodd;stroke:#ffffff;stroke-width:1.38331628px;stroke-linecap:butt;stroke-linejoin:miter;stroke-opacity:1" />
    <path
       id="path19847"
       d="M 331.52393,393.57342 331.37112,411.787"
       style="fill:none;fill-rule:evenodd;stroke:#ffffff;stroke-width:2.71577787;stroke-linecap:butt;stroke-linejoin:miter;stroke-miterlimit:4;stroke-dasharray:none;stroke-opacity:1" />
    <path
       id="path19849"
       d="m 256.0703,360.15953 -9.35696,9.13404"
       style="fill:none;fill-rule:evenodd;stroke:#ffffff;stroke-width:2.76663256;stroke-linecap:butt;stroke-linejoin:miter;stroke-miterlimit:4;stroke-dasharray:none;stroke-opacity:1" />
    <path
       id="path3246"
       d="m 271.53307,388.07038 7.52057,-13.80207"
       style="fill:none;fill-rule:evenodd;stroke:#ffffff;stroke-width:3.2985332;stroke-linecap:butt;stroke-linejoin:miter;stroke-miterlimit:4;stroke-dasharray:none;stroke-opacity:1" />
    <path
       id="path3248"
       d="m 297.99523,402.62168 5.44214,-11.88975"
       style="fill:none;fill-rule:evenodd;stroke:#ffffff;stroke-width:2.76663256;stroke-linecap:butt;stroke-linejoin:miter;stroke-miterlimit:4;stroke-dasharray:none;stroke-opacity:1" />
    <path
       id="path3252"
       d="m 407.97164,163.57405 -10.09181,18.10119"
       style="fill:none;fill-rule:evenodd;stroke:#ffffff;stroke-width:2.76663256;stroke-linecap:butt;stroke-linejoin:miter;stroke-miterlimit:4;stroke-dasharray:none;stroke-opacity:1" />
    <path
       id="path5192"
       d="m 435.75887,186.02556 -15.52756,13.72562"
       style="fill:none;fill-rule:evenodd;stroke:#ffffff;stroke-width:2.76663256;stroke-linecap:butt;stroke-linejoin:miter;stroke-miterlimit:4;stroke-dasharray:none;stroke-opacity:1" />
    <path
       id="path6163"
       d="m 447.69817,202.01908 -11.5335,7.52881"
       style="fill:none;fill-rule:evenodd;stroke:#ffffff;stroke-width:1.38331628px;stroke-linecap:butt;stroke-linejoin:miter;stroke-opacity:1" />
    <path
       id="path7134"
       d="m 422.68967,173.49723 -8.55955,10.79068"
       style="fill:none;fill-rule:evenodd;stroke:#ffffff;stroke-width:1.38331628px;stroke-linecap:butt;stroke-linejoin:miter;stroke-opacity:1" />
    <path
       id="path7136"
       d="m 462.94736,241.32806 -13.6294,1.98595"
       style="fill:none;fill-rule:evenodd;stroke:#ffffff;stroke-width:1.38331628px;stroke-linecap:butt;stroke-linejoin:miter;stroke-opacity:1" />
    <path
       id="path7138"
       d="m 436.82035,301.2142 18.97331,8.80939"
       style="fill:none;fill-rule:evenodd;stroke:#ffffff;stroke-width:2.73376465;stroke-linecap:butt;stroke-linejoin:miter;stroke-miterlimit:4;stroke-dasharray:none;stroke-opacity:1" />
    <path
       id="path7140"
       d="m 407.72468,336.2979 12.41881,16.83346"
       style="fill:none;fill-rule:evenodd;stroke:#ffffff;stroke-width:2.73376465;stroke-linecap:butt;stroke-linejoin:miter;stroke-miterlimit:4;stroke-dasharray:none;stroke-opacity:1" />
    <path
       id="path7142"
       d="m 441.75836,331.89658 -10.55403,-8.28825"
       style="fill:none;fill-rule:evenodd;stroke:#ffffff;stroke-width:1.38331628;stroke-linecap:butt;stroke-linejoin:miter;stroke-miterlimit:4;stroke-dasharray:none;stroke-opacity:1" />
    <path
       id="path7144"
       d="M 289.99879,193.10177 275.63456,177.77613"
       style="fill:none;fill-rule:evenodd;stroke:#ffffff;stroke-width:2.76663256;stroke-linecap:butt;stroke-linejoin:miter;stroke-miterlimit:4;stroke-dasharray:none;stroke-opacity:1" />
    <path
       id="path7146"
       d="m 263.00486,231.9129 -20.09231,-6.12412"
       style="fill:none;fill-rule:evenodd;stroke:#ffffff;stroke-width:2.76663256;stroke-linecap:butt;stroke-linejoin:miter;stroke-miterlimit:4;stroke-dasharray:none;stroke-opacity:1" />
    <path
       id="path7148"
       d="m 260.28647,283.03639 -20.94141,1.63191"
       style="fill:none;fill-rule:evenodd;stroke:#ffffff;stroke-width:2.76663256;stroke-linecap:butt;stroke-linejoin:miter;stroke-miterlimit:4;stroke-dasharray:none;stroke-opacity:1" />
    <path
       id="path7150"
       d="m 279.05506,321.66713 -16.04884,13.55141"
       style="fill:none;fill-rule:evenodd;stroke:#ffffff;stroke-width:2.76663256;stroke-linecap:butt;stroke-linejoin:miter;stroke-miterlimit:4;stroke-dasharray:none;stroke-opacity:1" />
    <path
       id="path7152"
       d="m 312.30668,347.51124 -7.51433,19.61479"
       style="fill:none;fill-rule:evenodd;stroke:#ffffff;stroke-width:2.76663256;stroke-linecap:butt;stroke-linejoin:miter;stroke-miterlimit:4;stroke-dasharray:none;stroke-opacity:1" />
    <path
       id="path7154"
       d="m 360.06518,355.69714 1.86436,20.92201"
       style="fill:none;fill-rule:evenodd;stroke:#ffffff;stroke-width:2.76663256;stroke-linecap:butt;stroke-linejoin:miter;stroke-miterlimit:4;stroke-dasharray:none;stroke-opacity:1" />
    <path
       id="path7156"
       d="m 391.00926,369.60337 -4.17628,-12.75311"
       style="fill:none;fill-rule:evenodd;stroke:#ffffff;stroke-width:1.38331628;stroke-linecap:butt;stroke-linejoin:miter;stroke-miterlimit:4;stroke-dasharray:none;stroke-opacity:1" />
    <path
       id="path7158"
       d="m 333.42834,360.21534 -1.14592,14.87572"
       style="fill:none;fill-rule:evenodd;stroke:#ffffff;stroke-width:2.68608475;stroke-linecap:butt;stroke-linejoin:miter;stroke-miterlimit:4;stroke-dasharray:none;stroke-opacity:1" />
    <path
       id="path7160"
       d="m 281.01126,352.17284 8.78599,-10.14342"
       style="fill:none;fill-rule:evenodd;stroke:#ffffff;stroke-width:1.38331628;stroke-linecap:butt;stroke-linejoin:miter;stroke-miterlimit:4;stroke-dasharray:none;stroke-opacity:1" />
    <path
       id="path7162"
       d="m 249.35354,312.20255 12.25864,-5.45972"
       style="fill:none;fill-rule:evenodd;stroke:#ffffff;stroke-width:1.38331628;stroke-linecap:butt;stroke-linejoin:miter;stroke-miterlimit:4;stroke-dasharray:none;stroke-opacity:1" />
    <path
       id="path7164"
       d="m 251.00984,255.53529 -13.41947,-0.0236"
       style="fill:none;fill-rule:evenodd;stroke:#ffffff;stroke-width:1.38331628;stroke-linecap:butt;stroke-linejoin:miter;stroke-miterlimit:4;stroke-dasharray:none;stroke-opacity:1" />
    <path
       id="path7166"
       d="m 268.4421,206.16298 -11.41114,-7.06177"
       style="fill:none;fill-rule:evenodd;stroke:#ffffff;stroke-width:1.38331628;stroke-linecap:butt;stroke-linejoin:miter;stroke-miterlimit:4;stroke-dasharray:none;stroke-opacity:1" />
    <path
       id="path7168"
       d="m 303.98761,173.78899 -6.3386,-11.82814"
       style="fill:none;fill-rule:evenodd;stroke:#ffffff;stroke-width:1.38331628;stroke-linecap:butt;stroke-linejoin:miter;stroke-miterlimit:4;stroke-dasharray:none;stroke-opacity:1" />
    <path
       id="path7194"
       d="m 342.01605,417.28586 -0.29547,8.45668"
       style="fill:none;fill-rule:evenodd;stroke:#000000;stroke-width:2.66666651;stroke-linecap:butt;stroke-linejoin:miter;stroke-miterlimit:4;stroke-dasharray:none;stroke-opacity:1" />
    <path
       id="path7196"
       d="m 305.36321,423.79544 3.34686,-12.99542"
       style="fill:none;fill-rule:evenodd;stroke:#000000;stroke-width:1.38331628;stroke-linecap:butt;stroke-linejoin:miter;stroke-miterlimit:4;stroke-dasharray:none;stroke-opacity:1" />
    <path
       id="path7200"
       d="m 280.11082,398.26144 -4.32338,7.27402"
       style="fill:none;fill-rule:evenodd;stroke:#000000;stroke-width:2.66666651;stroke-linecap:butt;stroke-linejoin:miter;stroke-miterlimit:4;stroke-dasharray:none;stroke-opacity:1" />
    <path
       id="path7204"
       d="m 245.75355,390.55754 9.39377,-9.58329"
       style="fill:none;fill-rule:evenodd;stroke:#000000;stroke-width:1.38331628;stroke-linecap:butt;stroke-linejoin:miter;stroke-miterlimit:4;stroke-dasharray:none;stroke-opacity:1" />
    <path
       id="path7206"
       d="m 207.89529,341.01745 12.086,-5.83189"
       style="fill:none;fill-rule:evenodd;stroke:#ffffff;stroke-width:1.33333325;stroke-linecap:butt;stroke-linejoin:miter;stroke-miterlimit:4;stroke-dasharray:none;stroke-opacity:1" />
    <path
       id="path7208"
       d="m 362.21275,397.31994 35.32971,-6.48664"
       style="fill:#ffffff;fill-opacity:1;fill-rule:evenodd;stroke:#999999;stroke-width:5.33333302;stroke-linecap:butt;stroke-linejoin:miter;stroke-miterlimit:4;stroke-dasharray:none;stroke-opacity:1" />
    <path
       id="path50849"
       d="M 249.02178,164.94189 219.49071,135.53596"
       style="fill:none;fill-rule:evenodd;stroke:#f20707;stroke-width:4.14994907;stroke-linecap:butt;stroke-linejoin:miter;stroke-miterlimit:4;stroke-dasharray:none;stroke-opacity:1" />
    <path
       id="path3250"
       d="m 365.83607,422.97155 c -2.91749,-45.82005 -1.23253,-18.96256 -1.73449,-26.63859"
       style="fill:none;fill-rule:evenodd;stroke:#b3b3b3;stroke-width:3.99999952;stroke-linecap:butt;stroke-linejoin:miter;stroke-miterlimit:4;stroke-dasharray:none;stroke-opacity:1" />
    <path
       id="path11331"
       d="m 508.77361,416.88513 c 0,14.64316 -11.88433,26.52745 -26.52754,26.52745 -14.64321,0 -26.52754,-11.88429 -26.52754,-26.52745 0,-14.64316 11.88433,-26.52747 26.52754,-26.52747 14.64321,0 26.52754,11.88431 26.52754,26.52747 z"
       style="fill:#000000;fill-opacity:1;fill-rule:evenodd;stroke:#9e8e8e;stroke-width:2.32952714;stroke-linecap:butt;stroke-linejoin:miter;stroke-miterlimit:4;stroke-dashoffset:0;stroke-opacity:1" />
    <path
       id="path4871"
       d="m 212.53937,358.74742 c 2.02827,3.49108 3.75701,6.74255 8.37352,12.30421"
       style="fill:none;fill-rule:evenodd;stroke:#008000;stroke-width:21.99999809;stroke-linecap:butt;stroke-linejoin:miter;stroke-miterlimit:4;stroke-dasharray:none;stroke-opacity:1" />
    <path
       style="fill:none;fill-rule:evenodd;stroke:#ffffff;stroke-width:2.66666651;stroke-linecap:butt;stroke-linejoin:miter;stroke-miterlimit:4;stroke-dasharray:none;stroke-opacity:1"
       d="m 282.7795,393.59126 -4.32338,7.27401"
       id="path4876" />
    <path
       style="fill:none;fill-rule:evenodd;stroke:#ffffff;stroke-width:2.66666651;stroke-linecap:butt;stroke-linejoin:miter;stroke-miterlimit:4;stroke-dasharray:none;stroke-opacity:1"
       d="m 342.01605,410.61416 -0.29547,8.45668"
       id="path4878" />
    <path
       id="path4880"
       d="m 377.35075,416.48056 c 9.32517,-1.46073 16.97423,-3.66432 25.41993,-6.00453"
       style="fill:none;fill-rule:evenodd;stroke:#ffffff;stroke-width:7.99999905;stroke-linecap:butt;stroke-linejoin:miter;stroke-opacity:1" />
    <path
       id="path7198"
       d="m 378.69073,430.86247 -2.33659,-19.41981"
       style="fill:none;fill-rule:evenodd;stroke:#000000;stroke-width:1.99999976;stroke-linecap:butt;stroke-linejoin:miter;stroke-miterlimit:4;stroke-dasharray:none;stroke-opacity:1" />
    <path
       id="flowRoot4915"
       d="m 341.31264,157.75507 0,-6.73437 -2.0625,0 0,-0.90104 4.96354,0 0,0.90104 -2.07291,0 0,6.73437 -0.82813,0 z m 3.76562,0 0,-7.63541 4.52604,0 0,0.90104 -3.69792,0 0,2.33855 3.46355,0 0,0.89582 -3.46355,0 0,2.59896 3.84376,0 0,0.90104 -4.67188,0 z m 5.79167,0 0,-7.63541 1.2448,0 1.48437,5.40625 0.29687,1.1302 c 0.0729,-0.28124 0.18402,-0.68922 0.33333,-1.22396 l 1.5,-5.31249 1.11459,0 0,7.63541 -0.79688,0 0,-6.39062 -1.82291,6.39062 -0.7448,0 -1.81249,-6.5 0,6.5 -0.79688,0 z m 7.3177,0 0,-7.63541 2.35938,0 c 0.55556,0 0.96528,0.0487 1.22917,0.14583 0.36111,0.132 0.64929,0.37674 0.86459,0.73437 0.21526,0.35765 0.3229,0.79689 0.3229,1.31772 0,0.68749 -0.17534,1.24827 -0.52604,1.68228 -0.35069,0.43404 -0.9566,0.65105 -1.8177,0.65105 l -1.60416,0 0,3.10416 -0.82814,0 z m 0.82814,-4.00521 1.61978,0 c 0.51042,10e-6 0.88368,-0.11547 1.11979,-0.34635 0.23611,-0.23089 0.35417,-0.57898 0.35417,-1.04426 0,-0.30208 -0.0581,-0.56076 -0.17448,-0.77606 -0.11626,-0.21526 -0.25694,-0.36284 -0.42188,-0.4427 -0.16493,-0.0799 -0.46266,-0.11974 -0.89322,-0.11974 l -1.60416,0 0,2.72916 z m 5.13541,4.00521 0,-1.0677 0.875,0 0,1.0677 -0.875,0 z m -16.36978,5.4104 c -2e-5,-0.39929 0.14148,-0.73957 0.42446,-1.02082 0.28299,-0.28126 0.6224,-0.42187 1.01824,-0.42188 0.40278,1e-5 0.74479,0.14062 1.02604,0.42188 0.28124,0.28125 0.42187,0.62153 0.42187,1.02082 0,0.39932 -0.14149,0.74046 -0.42448,1.02344 -0.28299,0.28299 -0.62413,0.42448 -1.02343,0.42448 -0.39584,0 -0.73525,-0.14062 -1.01824,-0.42188 -0.28298,-0.28124 -0.42448,-0.62325 -0.42446,-1.02604 l 0,0 z m 0.5677,0 c 0,0.24307 0.0859,0.45054 0.25782,0.6224 0.17186,0.17188 0.37933,0.25782 0.62238,0.25782 0.23959,0 0.44531,-0.0859 0.61719,-0.25782 0.17188,-0.17186 0.25781,-0.37933 0.25781,-0.6224 0,-0.24305 -0.086,-0.4505 -0.25781,-0.6224 -0.17188,-0.17186 -0.3776,-0.2578 -0.61719,-0.2578 -0.24305,0 -0.45052,0.0859 -0.62238,0.2578 -0.17188,0.1719 -0.25782,0.37935 -0.25782,0.6224 l 0,0 z m 8.15624,3.64584 0.83333,0.2552 c -0.18402,0.85764 -0.50608,1.4974 -0.96614,1.91928 -0.46007,0.42187 -1.01996,0.63281 -1.67968,0.63281 -0.57987,0 -1.07552,-0.14149 -1.48699,-0.42448 -0.41145,-0.28298 -0.74825,-0.73698 -1.01041,-1.36198 -0.26215,-0.625 -0.39323,-1.36284 -0.39323,-2.21353 0,-0.84028 0.13107,-1.55122 0.39323,-2.13282 0.26216,-0.5816 0.61719,-1.02082 1.06511,-1.31772 0.44791,-0.29686 0.94791,-0.44529 1.49999,-0.4453 0.60416,1e-5 1.12326,0.18837 1.5573,0.5651 0.43402,0.37675 0.73784,0.9297 0.91145,1.65886 l -0.81249,0.23437 c -0.27779,-1.06249 -0.83508,-1.59375 -1.67188,-1.59375 -0.41667,0 -0.77778,0.1068 -1.08334,0.32031 -0.30555,0.21355 -0.54947,0.54601 -0.73177,0.9974 -0.18229,0.45139 -0.27344,1.02257 -0.27344,1.71355 0,1.04513 0.18403,1.82898 0.5521,2.35155 0.36805,0.52256 0.85762,0.78386 1.46874,0.78386 0.45139,0 0.84115,-0.16059 1.16927,-0.48178 0.32812,-0.32117 0.54774,-0.80816 0.65885,-1.46093 l 0,0 z"
       style="font-style:normal;font-variant:normal;font-weight:normal;font-stretch:normal;font-size:8px;line-height:110.00000238%;font-family:'Arial Narrow';-inkscape-font-specification:'Arial Narrow';text-align:center;writing-mode:lr-tb;text-anchor:middle;display:inline;overflow:visible;visibility:visible;fill:#ffffff;fill-opacity:1;fill-rule:nonzero;stroke:none;stroke-width:1px;stroke-linecap:butt;stroke-linejoin:miter;stroke-miterlimit:4;stroke-dashoffset:0;stroke-opacity:1;marker:none;marker-start:none;marker-mid:none;marker-end:none;enable-background:accumulate" />
    <path
       id="path3244"
       d="m 241.84011,337.36625 -38.12163,27.94117"
       style="fill:none;fill-rule:evenodd;stroke:#ffffff;stroke-width:3.2985332;stroke-linecap:butt;stroke-linejoin:miter;stroke-miterlimit:4;stroke-dasharray:none;stroke-opacity:1" />
    <path
       id="path15703"
       d="m 479.0818,129.82027 -14.54168,15.15735"
       style="fill:none;fill-rule:evenodd;stroke:#ffffff;stroke-width:1.38331628px;stroke-linecap:butt;stroke-linejoin:miter;stroke-opacity:1" />
    <path
       id="path2503"
       d="m 355.75875,259.56981 c 0,1.99856 -1.62202,3.62059 -3.62059,3.62059 -1.99857,0 -3.62059,-1.62203 -3.62059,-3.62059 0,-1.99857 1.62202,-3.62059 3.62059,-3.62059 1.99857,0 3.62059,1.62202 3.62059,3.62059 z"
       style="fill:#4d4d4d;fill-opacity:1;fill-rule:evenodd;stroke:#ffffff;stroke-width:0.66666663;stroke-linecap:butt;stroke-linejoin:miter;stroke-miterlimit:4;stroke-dashoffset:10;stroke-opacity:1" />
    <g
       transform="matrix(0.9646691,0.0423644,-0.0423644,0.9646691,-169.89522,-43.523244)"
       id="g2955">
      <path
         style="font-style:normal;font-variant:normal;font-weight:normal;font-stretch:normal;font-size:56px;line-height:100%;font-family:Arial;-inkscape-font-specification:Arial;text-align:start;writing-mode:lr-tb;text-anchor:start;display:inline;overflow:visible;visibility:visible;fill:#000000;fill-opacity:1;fill-rule:nonzero;stroke:#ffff00;stroke-width:0.33112279;stroke-linecap:butt;stroke-linejoin:miter;stroke-miterlimit:4;stroke-dashoffset:0;stroke-opacity:1;marker:none;marker-start:none;marker-mid:none;marker-end:none;enable-background:accumulate"
         d="m 521.84482,127.02979 c 0,-1.65734 0.16147,-2.99118 0.4844,-4.00154 0.32293,-1.01033 0.80279,-1.7896 1.43961,-2.33781 0.6368,-0.54819 1.43809,-0.82229 2.40387,-0.8223 0.71225,1e-5 1.33699,0.1514 1.87421,0.45417 0.5372,0.3028 0.98085,0.73945 1.33095,1.30995 0.35009,0.57052 0.62473,1.26533 0.82393,2.08443 0.19918,0.81912 0.29878,1.92349 0.29879,3.3131 -10e-6,1.64461 -0.15997,2.97208 -0.47987,3.98242 -0.31992,1.01034 -0.79828,1.79121 -1.43508,2.34259 -0.63682,0.55139 -1.44112,0.82708 -2.41293,0.82709 -1.27965,-1e-5 -2.28466,-0.48446 -3.01503,-1.45337 -0.87523,-1.16652 -1.31285,-3.06609 -1.31285,-5.69873 l 0,0 z m 1.67502,0 c 0,2.30117 0.25502,3.83262 0.76507,4.59436 0.51005,0.76174 1.13931,1.14261 1.88779,1.14261 0.74847,0 1.37773,-0.38246 1.88779,-1.14739 0.51004,-0.76493 0.76507,-2.29479 0.76507,-4.58958 0,-2.30753 -0.25503,-3.84057 -0.76507,-4.59914 -0.51006,-0.75854 -1.14536,-1.13782 -1.9059,-1.13783 -0.74848,10e-6 -1.34605,0.33467 -1.79272,1.00397 -0.56136,0.85418 -0.84203,2.43185 -0.84203,4.733 l 0,0 z"
         id="flowRoot3412" />
      <path
         transform="matrix(0.3118106,0.01789638,-0.01717909,0.3622636,515.08196,-57.976899)"
         style="font-style:normal;font-variant:normal;font-weight:normal;font-stretch:normal;font-size:56px;line-height:100%;font-family:Arial;-inkscape-font-specification:Arial;text-align:start;writing-mode:lr-tb;text-anchor:start;display:inline;overflow:visible;visibility:visible;fill:#000000;fill-opacity:1;fill-rule:nonzero;stroke:#ffff00;stroke-width:0.98387766;stroke-linecap:butt;stroke-linejoin:miter;stroke-miterlimit:4;stroke-dashoffset:0;stroke-opacity:1;marker:none;marker-start:none;marker-mid:none;marker-end:none;enable-background:accumulate"
         d="m 179.28516,512.48447 0,4.73047 -26.4961,0 c -0.0365,-1.18489 0.15495,-2.32421 0.57422,-3.41797 0.67448,-1.80468 1.75455,-3.58202 3.24024,-5.33203 1.48567,-1.74999 3.63215,-3.77342 6.43945,-6.07031 4.35675,-3.5729 7.30076,-6.40297 8.83203,-8.49024 1.53123,-2.08721 2.29685,-4.06051 2.29688,-5.91992 -3e-5,-1.95049 -0.69729,-3.59567 -2.0918,-4.93554 -1.39455,-1.33981 -3.21291,-2.00973 -5.45508,-2.00977 -2.3698,4e-5 -4.26564,0.71097 -5.6875,2.13281 -1.42188,1.42191 -2.14193,3.39066 -2.16016,5.90625 l -5.05859,-0.51953 c 0.34635,-3.7734 1.64974,-6.64905 3.91016,-8.62695 2.2604,-1.97783 5.29556,-2.96676 9.10547,-2.9668 3.84633,4e-5 6.8906,1.06645 9.13281,3.19922 2.24216,2.13285 3.36325,4.77607 3.36328,7.92969 -3e-5,1.60419 -0.32815,3.18101 -0.98438,4.73047 -0.65627,1.5495 -1.74546,3.18101 -3.26757,4.89453 -1.52216,1.71356 -4.05146,4.06512 -7.5879,7.05469 -2.95313,2.47917 -4.84896,4.16081 -5.6875,5.04492 -0.83855,0.88412 -1.53125,1.77279 -2.07812,2.66601 l 19.66016,0 z"
         id="flowRoot3420" />
      <path
         transform="matrix(0.2367872,0.0565312,-0.0459963,0.3529944,571.89612,-54.27742)"
         style="font-style:normal;font-variant:normal;font-weight:normal;font-stretch:normal;font-size:56px;line-height:100%;font-family:Arial;-inkscape-font-specification:Arial;text-align:start;writing-mode:lr-tb;text-anchor:start;display:inline;overflow:visible;visibility:visible;fill:#000000;fill-opacity:1;fill-rule:nonzero;stroke:#ffff00;stroke-width:1.12790823;stroke-linecap:butt;stroke-linejoin:miter;stroke-miterlimit:4;stroke-dashoffset:0;stroke-opacity:1;marker:none;marker-start:none;marker-mid:none;marker-end:none;enable-background:accumulate"
         d="m 169.19531,517.21494 0,-9.59765 -17.39062,0 0,-4.51172 18.29297,-25.97657 4.01953,0 0,25.97657 5.41406,0 0,4.51172 -5.41406,0 0,9.59765 -4.92188,0 z m 0,-14.10937 0,-18.07422 -12.55078,18.07422 12.55078,0 z"
         id="flowRoot3430" />
      <g
         id="g2938">
        <path
           id="path2615"
           d="m 527.34471,135.49199 1.2455,9.17138"
           style="fill:none;fill-rule:evenodd;stroke:#000000;stroke-width:2.64898229;stroke-linecap:butt;stroke-linejoin:miter;stroke-opacity:1" />
        <path
           id="path3392"
           d="m 523.60822,108.44128 1.63306,10.33142"
           style="fill:none;fill-rule:evenodd;stroke:#000000;stroke-width:2.64898229;stroke-linecap:butt;stroke-linejoin:miter;stroke-opacity:1" />
        <path
           id="path3394"
           d="m 541.41287,107.38906 2.68386,36.92483"
           style="fill:none;fill-rule:evenodd;stroke:#000000;stroke-width:2.64898229;stroke-linecap:butt;stroke-linejoin:miter;stroke-opacity:1" />
        <path
           id="path3396"
           d="m 558.28067,107.03071 0.30512,8.92322"
           style="fill:none;fill-rule:evenodd;stroke:#000000;stroke-width:2.64898229;stroke-linecap:butt;stroke-linejoin:miter;stroke-opacity:1" />
        <path
           id="path3398"
           d="m 576.20508,108.3404 -4.86617,36.70105"
           style="fill:none;fill-rule:evenodd;stroke:#000000;stroke-width:2.64898229;stroke-linecap:butt;stroke-linejoin:miter;stroke-opacity:1" />
        <path
           id="path3402"
           d="m 535.96276,143.82364 -0.97737,-8.78354"
           style="fill:none;fill-rule:evenodd;stroke:#000000;stroke-width:1.32449114;stroke-linecap:butt;stroke-linejoin:miter;stroke-opacity:1" />
        <path
           id="path3404"
           d="m 551.30908,142.63259 -0.29294,-8.75135"
           style="fill:none;fill-rule:evenodd;stroke:#000000;stroke-width:1.32449114;stroke-linecap:butt;stroke-linejoin:miter;stroke-opacity:1" />
        <path
           id="path3406"
           d="m 564.71894,143.28262 0.73151,-8.68399"
           style="fill:none;fill-rule:evenodd;stroke:#000000;stroke-width:1.32449114;stroke-linecap:butt;stroke-linejoin:miter;stroke-opacity:1" />
        <path
           id="path3408"
           d="m 578.40353,145.42197 1.45214,-8.41129"
           style="fill:none;fill-rule:evenodd;stroke:#000000;stroke-width:1.32449114;stroke-linecap:butt;stroke-linejoin:miter;stroke-opacity:1" />
        <path
           id="path3410"
           d="m 591.67427,148.29413 2.189,-7.67835"
           style="fill:none;fill-rule:evenodd;stroke:#000000;stroke-width:1.32449114;stroke-linecap:butt;stroke-linejoin:miter;stroke-opacity:1" />
        <path
           id="path3491"
           d="m 558.72954,133.68347 0.007,9.117"
           style="fill:none;fill-rule:evenodd;stroke:#000000;stroke-width:2.64898229;stroke-linecap:butt;stroke-linejoin:miter;stroke-opacity:1" />
        <path
           id="path3493"
           d="m 586.84246,138.43847 -1.73367,8.05951"
           style="fill:none;fill-rule:evenodd;stroke:#000000;stroke-width:2.64898229;stroke-linecap:butt;stroke-linejoin:miter;stroke-opacity:1" />
        <path
           id="path3495"
           d="m 593.30092,112.31049 -2.2693,9.5433"
           style="fill:none;fill-rule:evenodd;stroke:#000000;stroke-width:2.64898229;stroke-linecap:butt;stroke-linejoin:miter;stroke-opacity:1" />
      </g>
    </g>
  </g>
</svg>
