<?xml version="1.0" encoding="UTF-8" standalone="no"?>
<svg
   xmlns:dc="http://purl.org/dc/elements/1.1/"
   xmlns:cc="http://creativecommons.org/ns#"
   xmlns:rdf="http://www.w3.org/1999/02/22-rdf-syntax-ns#"
   xmlns:svg="http://www.w3.org/2000/svg"
   xmlns="http://www.w3.org/2000/svg"
   xmlns:sodipodi="http://sodipodi.sourceforge.net/DTD/sodipodi-0.dtd"
   xmlns:inkscape="http://www.inkscape.org/namespaces/inkscape"
   version="1.0"
   viewBox="0 0 990 765"
   id="svg6359"
   sodipodi:docname="fuel_background.svg"
   inkscape:version="0.92.4 (unknown)">
  <sodipodi:namedview
     pagecolor="#ffffff"
     bordercolor="#666666"
     borderopacity="1"
     objecttolerance="10"
     gridtolerance="10"
     guidetolerance="10"
     inkscape:pageopacity="0"
     inkscape:pageshadow="2"
     inkscape:window-width="1920"
     inkscape:window-height="1124"
     id="namedview43"
     showgrid="false"
     inkscape:zoom="1.2339869"
     inkscape:cx="397.29904"
     inkscape:cy="382.5"
     inkscape:window-x="0"
     inkscape:window-y="24"
     inkscape:window-maximized="1"
     inkscape:current-layer="svg6359" />
  <defs
     id="defs63" />
  <path
     inkscape:connector-curvature="0"
     id="path6946"
     style="fill:#ffffff"
     d="m 516.97,338.16 c -5.0746,0 -9.2145,3.4343 -9.2145,7.6219 v 80.2 l 44.935,0.62568 0.0568,-46.869 h 8.4751 c 1.9473,0 3.5266,1.2894 3.5266,2.9009 v 35.322 c 0,4.7369 5.3825,8.8732 11.49,8.8732 5.7678,0 12.172,-3.7834 12.172,-8.8732 -0.0885,-1.1849 -4.6641,-22.24 -4.6641,-22.24 0,-0.0488 -0.96696,-5.9155 -0.96696,-5.9155 v -26.904 c 0,-2.8812 -1.1663,-5.2581 -3.5265,-7.2237 l -15.016,-12.4 c -1.0325,0 -3.9247,2.389 -3.9247,2.389 0,0.86685 7.4512,6.9962 7.4512,6.9962 l -0.22752,10.466 c 0,3.6992 3.6346,6.7118 8.1338,6.7118 h 2.0477 l -0.73943,19.965 1.0238,6.8824 4.5504,20.192 c 0.17692,3.284 -3.4519,5.2329 -6.3136,5.2329 -2.6406,0 -5.7449,-1.8209 -5.7449,-4.1522 l 0.0568,-35.379 c 0,-4.3097 -4.2495,-7.7925 -9.442,-7.7925 h -9.0439 c 0.63425,-0.0366 0.62567,-23.235 0.62567,-28.155 v -0.8532 c 0,-4.1876 -4.0978,-7.6219 -9.1576,-7.6219 h -26.563 z m 0,5.5173 h 26.563 c 1.4161,0 2.5027,0.94475 2.5027,2.1046 v 18.486 c 0,1.172 -1.0866,2.0477 -2.5027,2.0477 H 516.97 c -1.431,0 -2.5027,-0.87564 -2.5027,-2.0477 v -18.486 c 0,-1.1598 1.0717,-2.1046 2.5027,-2.1046 z m 55.401,14.846 c 0,0 2.2561,0.3898 2.7871,0.51192 1.0916,0.23194 1.7907,1.5907 1.8202,2.7871 0.0295,1.2088 0,4.8348 0,4.8348 -3.3485,-0.61047 -4.6073,-2.0374 -4.6073,-3.3559 v -4.7779 z" />
  <path
     inkscape:connector-curvature="0"
     id="path3220"
     style="fill:none;stroke-width:1.82019997"
     d="M 414.63546,15.330612 A 367.15695,367.15695 0 0 1 732.94219,198.55327 367.15695,367.15695 0 0 1 733.28561,565.82646 367.15695,367.15695 0 0 1 415.32207,749.64407 L 415.18046,382.48716 Z" />
  <rect
     id="rect3996"
     style="fill:#ffffff"
     rx="4.6767998"
     ry="14.616"
     height="18.648001"
     width="77.258003"
     y="373.16998"
     x="696.01996" />
  <rect
     id="rect4000"
     style="fill:#ff0000"
     transform="rotate(-50.091)"
     rx="3.6308"
     ry="7.7842002"
     height="9.9320002"
     width="59.979"
     y="558.92157"
     x="262.439" />
  <rect
     id="rect4016"
     style="fill:#ffffff"
     transform="rotate(-59.844)"
     rx="4.6767998"
     ry="14.616"
     height="18.648001"
     width="77.258003"
     y="541.84344"
     x="158.66063" />
  <rect
     id="rect4018"
     style="fill:#ffffff"
     transform="rotate(59.847)"
     rx="4.6767998"
     ry="14.616"
     height="18.648001"
     width="77.258003"
     y="-176.21901"
     x="820.10809" />
  <rect
     id="rect4024"
     ry="14.616"
     style="fill:#ffffff"
     rx="4.6767998"
     transform="rotate(-30.027)"
     height="18.648001"
     width="77.258003"
     y="529.61548"
     x="448.88824" />
  <rect
     id="rect4026"
     style="fill:#ffffff"
     transform="rotate(30.093)"
     rx="4.6767998"
     ry="14.616"
     height="18.648001"
     width="77.258003"
     y="113.42238"
     x="831.83704" />
  <rect
     id="rect4044"
     ry="7.7841625"
     style="fill:#ff0000;stroke-width:0.99999517"
     rx="3.6307824"
     transform="rotate(-39.905488)"
     height="9.9319525"
     width="59.97871"
     y="554.81537"
     x="362.56833" />
  <rect
     id="rect4046"
     style="fill:#ff0000"
     transform="rotate(-20.162)"
     rx="3.6308"
     ry="7.7842002"
     height="9.9320002"
     width="59.979"
     y="497.20734"
     x="547.37543" />
  <rect
     id="rect4048"
     ry="7.7842002"
     style="fill:#ff0000"
     rx="3.6308"
     transform="rotate(-9.9844)"
     height="9.9320002"
     width="59.979"
     y="443.72946"
     x="632.04846" />
  <rect
     id="rect4050"
     style="fill:#ff0000"
     transform="rotate(20.02)"
     rx="3.6308"
     ry="7.7842002"
     height="9.9320002"
     width="59.979"
     y="212.27615"
     x="810.51801" />
  <rect
     id="rect4052"
     style="fill:#ff0000"
     transform="rotate(10.096)"
     rx="3.6308"
     ry="7.7842002"
     height="9.9320002"
     width="59.979"
     y="298.8345"
     x="765.28345" />
  <rect
     id="rect4054"
     ry="7.7842002"
     style="fill:#ff0000"
     rx="3.6308"
     transform="rotate(40.084)"
     height="9.9320002"
     width="59.979"
     y="20.327539"
     x="853.41376" />
  <rect
     id="rect4056"
     style="fill:#ff0000"
     transform="rotate(50.218)"
     rx="3.6308"
     ry="7.7842002"
     height="9.9320002"
     width="59.979"
     y="-79.300919"
     x="849.06293" />
  <g
     id="text4161"
     style="fill:#ffffff"
     transform="translate(-223.9,518.24)">
    <path
       inkscape:connector-curvature="0"
       id="path4315"
       style="baseline-shift:super;fill:#ffffff"
       d="m 746.75,-430.11 c 0.11887,-1.4957 0.21613,-3.069 0.29179,-4.7198 l 0.24154,-5.0886 c 0.0848,-1.7237 0.13995,-3.1208 0.16535,-4.1913 -0.0595,0.19184 -0.2048,0.36421 -0.43607,0.51712 -0.23128,0.15293 -0.86998,0.502 -1.9161,1.0472 0.0432,-0.72785 0.0794,-1.4172 0.10861,-2.0681 0.0292,-0.65085 0.0438,-1.2016 0.0438,-1.6523 0.37122,-0.2118 0.80202,-0.46644 1.2924,-0.76393 0.49037,-0.29745 0.78041,-0.47658 0.87011,-0.53739 0.0897,-0.0608 0.2718,-0.20005 0.54631,-0.41783 0.49063,0.0168 1.1326,0.0251 1.9258,0.0251 0.78891,2e-5 1.5408,-0.008 2.2557,-0.0251 l -0.14346,2.0126 c -0.0351,0.41177 -0.0735,0.9813 -0.1151,1.7086 l -0.50902,10.133 -0.0373,1.4808 c -0.008,0.31125 -0.0114,0.62655 -0.0113,0.9459 l 0.0138,1.5943 c -0.7657,-0.0168 -1.4876,-0.0251 -2.1658,-0.0251 -0.78515,0 -1.5922,0.008 -2.4211,0.0251 z" />
    <path
       inkscape:connector-curvature="0"
       id="path4317"
       d="m 749.77,-413.77 6.4518,-11.84 6.7336,-12.046 1.9253,-3.6137 c 0.71741,0.0258 1.3043,0.0387 1.7607,0.0387 0.47217,3e-5 1.1401,-0.0129 2.0039,-0.0387 l -2.9915,5.6749 -10.386,18.697 -1.6435,3.1274 c -0.72906,-0.0258 -1.2611,-0.0387 -1.5961,-0.0387 -0.47301,0 -1.2258,0.0129 -2.2582,0.0387 z"
       style="fill:#ffffff" />
    <path
       inkscape:connector-curvature="0"
       id="path4319"
       style="baseline-shift:sub;fill:#ffffff"
       d="m 767.38,-405.6 c 0.11887,-1.4957 0.21614,-3.069 0.29179,-4.7198 l 0.24154,-5.0886 c 0.0848,-1.7237 0.13995,-3.1208 0.16535,-4.1913 -0.0594,0.19184 -0.2048,0.36422 -0.43607,0.51712 -0.23128,0.15294 -0.86998,0.50201 -1.9161,1.0472 0.0432,-0.72785 0.0794,-1.4172 0.10861,-2.0681 0.0292,-0.65085 0.0438,-1.2016 0.0438,-1.6523 0.37122,-0.21181 0.80202,-0.46645 1.2924,-0.76393 0.49037,-0.29745 0.7804,-0.47658 0.87011,-0.53739 0.0897,-0.0608 0.27179,-0.20005 0.5463,-0.41783 0.49064,0.0168 1.1326,0.0251 1.9258,0.0251 0.78891,2e-5 1.5408,-0.008 2.2557,-0.0251 l -0.14347,2.0126 c -0.0351,0.41177 -0.0735,0.98131 -0.11509,1.7086 l -0.50902,10.133 -0.0373,1.4808 c -0.008,0.31125 -0.0113,0.62655 -0.0113,0.9459 l 0.0138,1.5943 c -0.7657,-0.0168 -1.4876,-0.0251 -2.1658,-0.0251 -0.78515,0 -1.5922,0.008 -2.4211,0.0251 z" />
  </g>
  <g
     id="text4161-1"
     style="fill:#ffffff"
     transform="translate(-223.9,518.24)">
    <path
       inkscape:connector-curvature="0"
       id="path4301"
       style="baseline-shift:super;fill:#ffffff"
       d="m 889.23,-138.82 c 0.0965,-1.2136 0.17536,-2.49 0.23675,-3.8294 l 0.19598,-4.1287 c 0.0688,-1.3986 0.11354,-2.5321 0.13415,-3.4007 -0.0482,0.15565 -0.16617,0.29551 -0.35381,0.41957 -0.18765,0.12409 -0.70587,0.40731 -1.5547,0.84967 0.0351,-0.59055 0.0644,-1.1499 0.0881,-1.678 0.0237,-0.52807 0.0355,-0.97494 0.0355,-1.3406 0.30119,-0.17185 0.65073,-0.37846 1.0486,-0.61983 0.39786,-0.24134 0.63319,-0.38667 0.70597,-0.43601 0.0728,-0.0493 0.22053,-0.16231 0.44325,-0.33901 0.39809,0.0136 0.91894,0.0204 1.5626,0.0204 0.64009,2e-5 1.2502,-0.007 1.8302,-0.0204 l -0.1164,1.6329 c -0.0285,0.33409 -0.0596,0.79619 -0.0934,1.3863 l -0.41299,8.2212 -0.0303,1.2015 c -0.006,0.25254 -0.009,0.50836 -0.009,0.76747 l 0.0112,1.2936 c -0.62126,-0.0136 -1.207,-0.0204 -1.7572,-0.0204 -0.63704,0 -1.2918,0.007 -1.9644,0.0204 z" />
    <path
       inkscape:connector-curvature="0"
       id="path4303"
       d="m 891.68,-125.56 5.2348,-9.6065 5.4634,-9.7734 1.5621,-2.932 c 0.58208,0.0209 1.0583,0.0314 1.4286,0.0314 0.3831,2e-5 0.92505,-0.0104 1.6259,-0.0314 l -2.4272,4.6044 -8.4268,15.17 -1.3335,2.5374 c -0.59152,-0.0209 -1.0232,-0.0314 -1.295,-0.0314 -0.38379,0 -0.99454,0.0105 -1.8323,0.0314 z"
       style="fill:#ffffff" />
    <path
       inkscape:connector-curvature="0"
       id="path4305"
       style="baseline-shift:sub;fill:#ffffff"
       d="m 901.73,-118.93 c 0.0206,-0.413 0.0309,-0.69513 0.0309,-0.84639 l 0.0651,-1.5882 c 0.88168,-0.79048 1.6866,-1.5533 2.4149,-2.2886 0.72822,-0.73524 1.4546,-1.5037 2.1791,-2.3054 0.7245,-0.80165 1.2808,-1.4594 1.6688,-1.9732 0.28935,-0.37704 0.48467,-0.6653 0.58595,-0.8648 0.10127,-0.19947 0.16759,-0.36311 0.19894,-0.49093 0.0313,-0.12779 0.047,-0.25307 0.047,-0.37584 -1e-5,-0.32267 -0.0983,-0.58693 -0.29495,-0.79278 -0.19664,-0.20583 -0.47713,-0.37035 -0.84145,-0.49356 -0.36434,-0.12319 -0.79225,-0.18479 -1.2837,-0.1848 -0.45947,1e-5 -0.97287,0.043 -1.5402,0.1289 -0.56733,0.0859 -1.3793,0.24246 -2.4359,0.46955 l 0.19795,-1.287 c 0.0447,-0.27663 0.11267,-0.73917 0.20387,-1.3876 1.7248,-0.31346 3.322,-0.4702 4.7916,-0.47021 0.67473,1e-5 1.3364,0.0666 1.9851,0.19992 0.64864,0.13329 1.228,0.36095 1.7381,0.68296 0.5101,0.32204 0.88616,0.70095 1.1282,1.1367 0.242,0.43581 0.36301,0.88848 0.36302,1.358 -10e-6,0.2657 -0.0278,0.53774 -0.0835,0.81613 -0.0557,0.27841 -0.14579,0.55528 -0.27029,0.8306 -0.16881,0.38846 -0.39657,0.80025 -0.68329,1.2354 -0.28674,0.43515 -0.74172,1.0223 -1.3649,1.7615 -0.62324,0.73919 -1.2876,1.4799 -1.993,2.2222 -0.70544,0.74226 -1.4861,1.4201 -2.3419,2.0334 h 0.70565 l 2.3004,-0.0105 c 0.80144,0 1.3654,-0.008 1.6918,-0.0234 0.32639,-0.0156 0.83069,-0.049 1.5129,-0.10029 -0.0158,0.36697 -0.0391,0.72012 -0.07,1.0595 -0.0309,0.33935 -0.0718,0.85559 -0.12265,1.5488 -1.7037,-0.0136 -3.3983,-0.0204 -5.0836,-0.0204 -2.0632,0 -3.8632,0.007 -5.3999,0.0204 z" />
  </g>
  <g
     id="text4161-1-9"
     style="fill:#ffffff"
     transform="translate(-223.9,518.24)">
    <path
       inkscape:connector-curvature="0"
       id="path4287"
       style="baseline-shift:super;fill:#ffffff"
       d="m 749.09,130.54 c 1.3925,2e-5 2.5913,0.3037 3.5964,0.91104 1.005,0.60738 1.7788,1.5629 2.3214,2.8665 0.54251,1.3036 0.81377,2.8138 0.81378,4.5305 -1e-5,1.3498 -0.16388,2.6976 -0.49159,4.0434 -0.32774,1.3458 -0.78651,2.4588 -1.3763,3.339 -0.58982,0.88024 -1.4006,1.5661 -2.4324,2.0576 -1.0318,0.49145 -2.1348,0.73718 -3.309,0.73718 -1.138,0 -2.1532,-0.21979 -3.0456,-0.65937 -0.8924,-0.43958 -1.6173,-1.0552 -2.1747,-1.8468 -0.55738,-0.79162 -0.94442,-1.6706 -1.1611,-2.6371 -0.21668,-0.96642 -0.32502,-1.9619 -0.32502,-2.9864 0,-1.406 0.16291,-2.7869 0.48875,-4.1427 0.32584,-1.3557 0.80473,-2.4998 1.4367,-3.4322 0.63195,-0.93237 1.4526,-1.6289 2.462,-2.0896 1.0094,-0.46064 2.075,-0.69096 3.1968,-0.69098 z m -0.10213,3.1635 c -0.27721,1e-5 -0.5532,0.0565 -0.82796,0.1694 -0.27478,0.11295 -0.54699,0.3041 -0.81662,0.57346 -0.26964,0.26938 -0.49538,0.58981 -0.6772,0.9613 -0.18184,0.37151 -0.34894,0.8273 -0.50132,1.3674 -0.15239,0.5401 -0.27221,1.186 -0.35947,1.9376 -0.0873,0.75164 -0.13091,1.5257 -0.13091,2.3222 0,1.1385 0.11023,2.0507 0.3307,2.7364 0.22046,0.68572 0.53847,1.2077 0.95401,1.566 0.41553,0.35827 0.88834,0.53739 1.4184,0.53739 0.28908,0 0.57142,-0.0577 0.84701,-0.17305 0.27558,-0.11536 0.56251,-0.33975 0.86079,-0.67315 0.29827,-0.3334 0.57318,-0.84039 0.82473,-1.521 0.25152,-0.68057 0.43605,-1.4337 0.55359,-2.2594 0.11752,-0.82566 0.17628,-1.6554 0.1763,-2.4892 -2e-5,-1.1466 -0.10836,-2.0877 -0.32503,-2.8231 -0.2167,-0.73541 -0.52646,-1.2913 -0.92928,-1.6677 -0.40285,-0.37635 -0.86877,-0.56453 -1.3978,-0.56454 z" />
    <path
       inkscape:connector-curvature="0"
       id="path4289"
       d="m 749.83,165.07 6.4518,-11.84 6.7336,-12.046 1.9253,-3.6137 c 0.71741,0.0258 1.3043,0.0387 1.7607,0.0387 0.47217,3e-5 1.1401,-0.0129 2.0039,-0.0387 l -2.9915,5.6749 -10.386,18.697 -1.6435,3.1274 c -0.72905,-0.0258 -1.2611,-0.0387 -1.5961,-0.0387 -0.47301,0 -1.2258,0.0129 -2.2583,0.0387 z"
       style="fill:#ffffff" />
    <path
       inkscape:connector-curvature="0"
       id="path4291"
       style="baseline-shift:sub;fill:#ffffff"
       d="m 767.44,173.24 c 0.11887,-1.4957 0.21614,-3.069 0.2918,-4.7198 l 0.24154,-5.0886 c 0.0848,-1.7237 0.13994,-3.1208 0.16535,-4.1913 -0.0594,0.19184 -0.20481,0.36422 -0.43607,0.51712 -0.23128,0.15294 -0.86999,0.50201 -1.9161,1.0472 0.0432,-0.72785 0.0794,-1.4172 0.10862,-2.0681 0.0292,-0.65085 0.0438,-1.2016 0.0438,-1.6523 0.37122,-0.21181 0.80202,-0.46645 1.2924,-0.76393 0.49037,-0.29745 0.7804,-0.47658 0.87011,-0.53739 0.0897,-0.0608 0.27179,-0.20005 0.5463,-0.41783 0.49064,0.0168 1.1326,0.0251 1.9258,0.0251 0.78892,2e-5 1.5408,-0.008 2.2557,-0.0251 l -0.14346,2.0126 c -0.0351,0.41177 -0.0735,0.98131 -0.1151,1.7086 l -0.50902,10.133 -0.0373,1.4808 c -0.008,0.31125 -0.0114,0.62655 -0.0113,0.9459 l 0.0138,1.5943 c -0.7657,-0.0168 -1.4876,-0.0251 -2.1658,-0.0251 -0.78515,0 -1.5922,0.008 -2.4211,0.0251 z" />
  </g>
  <g
     id="text4161-1-9-2"
     style="fill:#ffffff"
     transform="translate(-223.9,518.24)">
    <path
       inkscape:connector-curvature="0"
       id="path4294"
       style="baseline-shift:super;fill:#ffffff"
       d="m 849.51,-10.726 c 0.0965,-1.2136 0.17537,-2.49 0.23675,-3.8294 l 0.19598,-4.1287 c 0.0688,-1.3986 0.11355,-2.5321 0.13416,-3.4007 -0.0482,0.15565 -0.16617,0.29551 -0.35381,0.41958 -0.18765,0.12409 -0.70587,0.40731 -1.5547,0.84967 0.0351,-0.59055 0.0644,-1.1499 0.0881,-1.678 0.0237,-0.52807 0.0355,-0.97494 0.0355,-1.3406 0.3012,-0.17185 0.65073,-0.37846 1.0486,-0.61983 0.39787,-0.24134 0.63319,-0.38668 0.70598,-0.43602 0.0728,-0.04931 0.22052,-0.16231 0.44325,-0.33901 0.39808,0.01361 0.91893,0.0204 1.5626,0.02039 0.6401,1.5e-5 1.2502,-0.0068 1.8302,-0.02039 l -0.11641,1.6329 c -0.0285,0.33409 -0.0596,0.7962 -0.0934,1.3863 l -0.413,8.2212 -0.0303,1.2015 c -0.006,0.25254 -0.009,0.50836 -0.009,0.76747 l 0.0112,1.2936 c -0.62126,-0.01359 -1.207,-0.02039 -1.7572,-0.02039 -0.63705,0 -1.2918,0.0068 -1.9644,0.02039 z" />
    <path
       inkscape:connector-curvature="0"
       id="path4296"
       d="m 851.96,2.5351 5.2348,-9.6065 5.4634,-9.7734 1.5621,-2.932 c 0.58208,0.02093 1.0583,0.03139 1.4286,0.03136 0.3831,2.3e-5 0.92506,-0.01043 1.6259,-0.03136 l -2.4272,4.6044 -8.4268,15.17 -1.3335,2.5374 c -0.59153,-0.020909 -1.0232,-0.031364 -1.295,-0.031364 -0.38378,10e-8 -0.99453,0.010455 -1.8323,0.031364 z"
       style="fill:#ffffff" />
    <path
       inkscape:connector-curvature="0"
       id="path4298"
       style="baseline-shift:sub;fill:#ffffff"
       d="m 867.54,9.1657 c 0.13108,-1.5415 0.22052,-2.9583 0.26831,-4.2503 h -1.8486 l -4.032,0.061818 c 0.0149,-0.25384 0.0376,-0.71354 0.0681,-1.3791 0.0305,-0.66553 0.0457,-1.1447 0.0457,-1.4376 l 0.88913,-1.1226 c 0.11575,-0.15432 0.39086,-0.52698 0.82534,-1.118 l 2.2116,-3.0304 c 0.26042,-0.37046 0.47755,-0.66705 0.65139,-0.88979 0.17383,-0.22271 0.45519,-0.66793 0.84408,-1.3357 0.78697,0.012729 1.5156,0.019086 2.186,0.019072 0.62826,1.44e-5 1.3074,-0.00678 2.0374,-0.020387 -0.2087,3.0905 -0.33606,5.6516 -0.38209,7.6832 0.0728,0.00176 0.38778,0.00264 0.94503,0.00263 0.53662,6.8e-6 0.97483,-0.010296 1.3146,-0.030909 -0.0206,0.63046 -0.0309,1.3195 -0.0309,2.067 v 0.56163 c -0.58707,-0.027617 -1.3626,-0.041427 -2.3267,-0.041431 -0.0132,0.19949 -0.0247,0.42462 -0.0345,0.6754 -0.01,0.25078 -0.0197,0.70609 -0.0296,1.3659 -0.01,0.65983 -0.0141,1.1336 -0.0128,1.4212 v 0.79838 c -0.68396,-0.013591 -1.2668,-0.020387 -1.7487,-0.020387 -0.43755,10e-8 -1.0511,0.0068 -1.8407,0.020387 z m 0.67079,-6.7244 c 0.0136,-0.26173 0.0204,-0.42417 0.0204,-0.48731 l 0.19597,-4.787 c -0.77821,1.4793 -1.3543,2.4594 -1.7283,2.9403 l -1.8736,2.334 z" />
  </g>
  <g
     id="text4161-1-9-1"
     style="fill:#ffffff"
     transform="translate(-223.9,518.24)">
    <path
       inkscape:connector-curvature="0"
       id="path4308"
       style="baseline-shift:super;fill:#ffffff"
       d="m 845.66,-267.83 c -0.0605,-1.0237 -0.13241,-1.9584 -0.21571,-2.8042 1.6117,0.51603 3.0129,0.77404 4.2036,0.77404 0.57521,0 1.0908,-0.0893 1.5468,-0.26799 0.45596,-0.17865 0.81349,-0.43185 1.0726,-0.75957 0.2591,-0.32772 0.38866,-0.71299 0.38867,-1.1558 -1e-5,-0.36871 -0.10425,-0.6904 -0.31271,-0.96508 -0.20848,-0.27467 -0.54925,-0.48446 -1.0223,-0.62937 -0.47307,-0.14489 -1.0926,-0.21734 -1.8585,-0.21735 -0.49192,1e-5 -1.0954,0.0311 -1.8105,0.0934 0.0697,-0.9527 0.12933,-1.8427 0.17888,-2.67 0.56162,0.0688 1.0332,0.10326 1.4146,0.10325 0.59231,10e-6 1.142,-0.0544 1.649,-0.1631 0.50703,-0.10872 0.89635,-0.32508 1.168,-0.64909 0.27159,-0.32399 0.4074,-0.67451 0.40741,-1.0516 -10e-6,-0.15124 -0.0226,-0.29757 -0.0677,-0.43897 -0.0452,-0.14138 -0.1083,-0.27072 -0.1894,-0.38801 -0.0811,-0.11727 -0.18305,-0.22074 -0.30581,-0.31041 -0.12276,-0.0896 -0.25911,-0.16308 -0.40905,-0.22031 -0.14995,-0.0572 -0.36883,-0.10586 -0.65665,-0.14599 -0.28784,-0.0401 -0.58936,-0.0602 -0.90459,-0.0602 -0.43668,2e-5 -0.89494,0.029 -1.3748,0.0868 -0.47987,0.0579 -1.1854,0.1699 -2.1166,0.33606 l 0.20781,-1.1463 0.26635,-1.4554 c 0.89263,-0.12406 1.623,-0.20769 2.1913,-0.25089 0.56819,-0.0432 1.1598,-0.0648 1.775,-0.0648 0.73392,2e-5 1.4499,0.0602 2.1478,0.18052 0.69797,0.12037 1.3052,0.33563 1.8217,0.64581 0.51645,0.3102 0.89778,0.71136 1.144,1.2035 0.24617,0.49215 0.36926,1.0274 0.36927,1.6056 -10e-6,0.37574 -0.0543,0.74654 -0.16277,1.1124 -0.10852,0.36588 -0.27052,0.70577 -0.48599,1.0197 -0.2155,0.31392 -0.45773,0.57402 -0.7267,0.78029 -0.26898,0.20629 -0.5293,0.37048 -0.78094,0.49257 -0.25167,0.12211 -0.56098,0.17199 -0.92794,0.14962 0.38055,-0.008 0.71112,0.0373 0.99173,0.13679 0.28058,0.0995 0.55767,0.251 0.83125,0.45443 0.27357,0.20343 0.50572,0.43898 0.69645,0.70663 0.1907,0.26767 0.33428,0.57753 0.43075,0.92958 0.0964,0.35206 0.14467,0.71157 0.14468,1.0785 -1e-5,0.67825 -0.16102,1.3197 -0.48304,1.9242 -0.32203,0.6046 -0.78885,1.106 -1.4004,1.5044 -0.61162,0.39831 -1.299,0.67682 -2.062,0.83553 -0.76309,0.15871 -1.5574,0.23807 -2.383,0.23807 -0.61074,0 -1.2351,-0.0382 -1.873,-0.11443 -0.63791,-0.0763 -1.4771,-0.23062 -2.5174,-0.46298 z" />
    <path
       inkscape:connector-curvature="0"
       id="path4310"
       d="m 852.04,-254.24 5.2347,-9.6065 5.4634,-9.7734 1.5621,-2.932 c 0.58208,0.0209 1.0583,0.0314 1.4286,0.0314 0.3831,2e-5 0.92506,-0.0104 1.6259,-0.0314 l -2.4272,4.6044 -8.4268,15.17 -1.3335,2.5374 c -0.59153,-0.0209 -1.0232,-0.0314 -1.295,-0.0314 -0.38378,0 -0.99454,0.0104 -1.8323,0.0314 z"
       style="fill:#ffffff" />
    <path
       inkscape:connector-curvature="0"
       id="path4312"
       style="baseline-shift:sub;fill:#ffffff"
       d="m 867.63,-247.61 c 0.13109,-1.5415 0.22053,-2.9583 0.26832,-4.2503 h -1.8486 l -4.032,0.0618 c 0.0149,-0.25384 0.0376,-0.71353 0.0681,-1.3791 0.0305,-0.66553 0.0457,-1.1447 0.0457,-1.4376 l 0.88913,-1.1226 c 0.11574,-0.15432 0.39086,-0.52698 0.82534,-1.118 l 2.2116,-3.0304 c 0.26042,-0.37046 0.47756,-0.66706 0.6514,-0.88979 0.17383,-0.22271 0.45519,-0.66793 0.84408,-1.3357 0.78697,0.0127 1.5156,0.0191 2.186,0.0191 0.62825,2e-5 1.3074,-0.007 2.0374,-0.0204 -0.2087,3.0905 -0.33607,5.6516 -0.38209,7.6832 0.0728,0.002 0.38778,0.003 0.94503,0.003 0.53662,1e-5 0.97483,-0.0103 1.3146,-0.0309 -0.0206,0.63047 -0.0309,1.3194 -0.0309,2.067 v 0.56162 c -0.58706,-0.0276 -1.3626,-0.0414 -2.3267,-0.0414 -0.0132,0.19949 -0.0247,0.42462 -0.0345,0.6754 -0.01,0.25078 -0.0197,0.70609 -0.0296,1.3659 -0.01,0.65983 -0.0141,1.1336 -0.0128,1.4212 v 0.79837 c -0.68396,-0.0136 -1.2668,-0.0204 -1.7487,-0.0204 -0.43756,0 -1.0511,0.007 -1.8407,0.0204 z m 0.6708,-6.7244 c 0.0136,-0.26174 0.0204,-0.42417 0.0204,-0.48731 l 0.19598,-4.787 c -0.77821,1.4793 -1.3543,2.4594 -1.7283,2.9403 l -1.8736,2.334 z" />
  </g>
  <path
     inkscape:connector-curvature="0"
     id="path4282"
     style="fill:#ff6600;stroke:#000000;stroke-width:0.00850425"
     d="m 416.58866,382.49938 a 1.3723303,1.3723303 0 0 1 -1.37233,1.37233 1.3723303,1.3723303 0 0 1 -1.37233,-1.37233 1.3723303,1.3723303 0 0 1 1.37233,-1.37233 1.3723303,1.3723303 0 0 1 1.37233,1.37233 z" />
  <metadata
     id="metadata61">
    <rdf:RDF>
      <cc:Work>
        <dc:format>image/svg+xml</dc:format>
        <dc:type
           rdf:resource="http://purl.org/dc/dcmitype/StillImage" />
        <cc:license
           rdf:resource="http://creativecommons.org/publicdomain/zero/1.0/" />
        <dc:publisher>
          <cc:Agent
             rdf:about="http://openclipart.org/">
            <dc:title>Openclipart</dc:title>
          </cc:Agent>
        </dc:publisher>
        <dc:title></dc:title>
        <dc:date>2012-10-29T23:53:16</dc:date>
        <dc:description>Just a fuel Gauge</dc:description>
        <dc:source>https://openclipart.org/detail/172934/fuel-gauge-by-etheraddict-172934</dc:source>
        <dc:creator>
          <cc:Agent>
            <dc:title>etheraddict</dc:title>
          </cc:Agent>
        </dc:creator>
        <dc:subject>
          <rdf:Bag>
            <rdf:li>Fuel</rdf:li>
            <rdf:li>fuel gauge</rdf:li>
          </rdf:Bag>
        </dc:subject>
      </cc:Work>
      <cc:License
         rdf:about="http://creativecommons.org/publicdomain/zero/1.0/">
        <cc:permits
           rdf:resource="http://creativecommons.org/ns#Reproduction" />
        <cc:permits
           rdf:resource="http://creativecommons.org/ns#Distribution" />
        <cc:permits
           rdf:resource="http://creativecommons.org/ns#DerivativeWorks" />
      </cc:License>
    </rdf:RDF>
  </metadata>
</svg>
