<?xml version="1.0" encoding="UTF-8" standalone="no"?>
<svg
   xmlns:dc="http://purl.org/dc/elements/1.1/"
   xmlns:cc="http://creativecommons.org/ns#"
   xmlns:rdf="http://www.w3.org/1999/02/22-rdf-syntax-ns#"
   xmlns:svg="http://www.w3.org/2000/svg"
   xmlns="http://www.w3.org/2000/svg"
   xmlns:xlink="http://www.w3.org/1999/xlink"
   xmlns:sodipodi="http://sodipodi.sourceforge.net/DTD/sodipodi-0.dtd"
   xmlns:inkscape="http://www.inkscape.org/namespaces/inkscape"
   id="svg2"
   viewBox="0 0 912.69254 907.91"
   version="1.1"
   sodipodi:docname="speedometer_background.svg"
   width="912.69257"
   height="907.90997"
   inkscape:version="0.92.3 (2405546, 2018-03-11)">
  <sodipodi:namedview
     pagecolor="#ffffff"
     bordercolor="#666666"
     borderopacity="1"
     objecttolerance="10"
     gridtolerance="10"
     guidetolerance="10"
     inkscape:pageopacity="0"
     inkscape:pageshadow="2"
     inkscape:window-width="1920"
     inkscape:window-height="1052"
     id="namedview328"
     showgrid="false"
     fit-margin-top="0"
     fit-margin-left="0"
     fit-margin-right="0"
     fit-margin-bottom="0"
     inkscape:zoom="0.51886609"
     inkscape:cx="285.48789"
     inkscape:cy="453.95501"
     inkscape:window-x="1920"
     inkscape:window-y="0"
     inkscape:window-maximized="1"
     inkscape:current-layer="svg2" />
  <defs
     id="defs6">
    <linearGradient
       id="linearGradient5296">
      <stop
         id="stop5298"
         offset="0" />
      <stop
         id="stop5306"
         offset=".92" />
      <stop
         id="stop5304"
         stop-color="#4d4d4d"
         offset=".96" />
      <stop
         id="stop5300"
         offset="1" />
    </linearGradient>
    <filter
       id="filter4025"
       style="color-interpolation-filters:sRGB">
      <feGaussianBlur
         id="feGaussianBlur4027"
         stdDeviation="2.4399419" />
    </filter>
    <filter
       id="filter4125"
       height="1.2542"
       width="1.1878"
       y="-0.12707999"
       x="-0.093900003"
       style="color-interpolation-filters:sRGB">
      <feGaussianBlur
         id="feGaussianBlur4127"
         stdDeviation="18.205449" />
    </filter>
    <radialGradient
       id="radialGradient4298"
       gradientUnits="userSpaceOnUse"
       cy="737.28003"
       cx="3219.2"
       gradientTransform="matrix(0.99668,-0.5853,0.036573,0.062279,-17.136,2596.9)"
       r="151.45">
      <stop
         id="stop4031"
         stop-color="#cc2929"
         offset="0" />
      <stop
         id="stop4033"
         stop-color="#ff3433"
         offset="1" />
    </radialGradient>
    <clipPath
       id="clipPath3227"
       clipPathUnits="userSpaceOnUse">
      <path
         id="path3229"
         d="m 2364.5,456.48 a 92.044,92.044 0 0 1 143.26,18.645 l -78.993,47.245 z"
         transform="matrix(4.1841,-0.35869,0.35869,4.1841,-7276.6,-471.07)"
         inkscape:connector-curvature="0"
         style="fill:none;stroke:#000000;stroke-width:0.23813" />
    </clipPath>
    <filter
       id="filter4386"
       style="color-interpolation-filters:sRGB">
      <feGaussianBlur
         id="feGaussianBlur4388"
         stdDeviation="7.087174" />
    </filter>
    <filter
       id="filter4829"
       style="color-interpolation-filters:sRGB">
      <feGaussianBlur
         id="feGaussianBlur4831"
         stdDeviation="6.996816" />
    </filter>
    <filter
       id="filter5024"
       height="1.5707"
       width="1.2629"
       y="-0.28534999"
       x="-0.13146"
       style="color-interpolation-filters:sRGB">
      <feGaussianBlur
         id="feGaussianBlur5026"
         stdDeviation="3.2568975" />
    </filter>
    <filter
       id="filter5061"
       height="1.7148"
       width="1.2406"
       y="-0.35738999"
       x="-0.12029"
       style="color-interpolation-filters:sRGB">
      <feGaussianBlur
         id="feGaussianBlur5063"
         stdDeviation="3.3068835" />
    </filter>
    <filter
       id="filter5077"
       height="1.36"
       width="1.36"
       y="-0.18000001"
       x="-0.18000001"
       style="color-interpolation-filters:sRGB">
      <feGaussianBlur
         id="feGaussianBlur5079"
         stdDeviation="57.355934" />
    </filter>
    <filter
       id="filter5081"
       height="1.36"
       width="1.36"
       y="-0.18000001"
       x="-0.18000001"
       style="color-interpolation-filters:sRGB">
      <feGaussianBlur
         id="feGaussianBlur5083"
         stdDeviation="57.355934" />
    </filter>
    <filter
       id="filter5257"
       height="1.2498"
       width="1.1903"
       y="-0.12489"
       x="-0.095135003"
       style="color-interpolation-filters:sRGB">
      <feGaussianBlur
         id="feGaussianBlur5259"
         stdDeviation="17.89099" />
    </filter>
    <radialGradient
       id="radialGradient5302"
       xlink:href="#linearGradient5296"
       gradientUnits="userSpaceOnUse"
       cy="752.98999"
       cx="635.96997"
       gradientTransform="matrix(1,0,0,0.99997,0,0.025769)"
       r="453.97" />
    <radialGradient
       id="radialGradient5912"
       xlink:href="#linearGradient5296"
       gradientUnits="userSpaceOnUse"
       cy="752.98999"
       cx="635.96997"
       gradientTransform="matrix(1,0,0,0.99997,-179.7982,-295.912)"
       r="453.97" />
  </defs>
  <path
     id="path4746"
     d="m 872.75824,453.99405 c 0,230.05949 -186.49439,416.55388 -416.55388,416.55388 -230.05949,0 -416.553876,-186.49439 -416.553876,-416.55388 0,-230.05949 186.494386,-416.553878 416.553876,-416.553878 230.05949,0 416.55388,186.494388 416.55388,416.553878 z"
     inkscape:connector-curvature="0"
     style="stroke-width:1.08940005" />
  <g
     id="g5089"
     transform="translate(-1095.4752,-300.057)">
    <g
       id="g4703"
       style="filter:url(#filter4829)">
      <g
         id="g4705"
         style="fill:#3380ff">
        <g
           id="g4707">
          <path
             id="path4709"
             d="m 1265.8,735.09 v 6.3721 h -24.048 c 0.2604,-2.4088 1.0417,-4.6916 2.3438,-6.8481 1.302,-2.1566 3.8737,-5.0171 7.7148,-8.5815 3.0924,-2.8808 4.9886,-4.834 5.6885,-5.8594 0.944,-1.416 1.416,-2.8157 1.416,-4.1992 0,-1.5299 -0.411,-2.7059 -1.2329,-3.5278 -0.822,-0.82191 -1.9572,-1.2329 -3.4058,-1.2329 -1.4323,3e-5 -2.5716,0.43135 -3.4179,1.294 -0.8464,0.86265 -1.3347,2.2949 -1.4649,4.2969 l -6.8359,-0.68359 c 0.4069,-3.776 1.6845,-6.486 3.833,-8.1299 2.1484,-1.6438 4.834,-2.4658 8.0566,-2.4658 3.5319,4e-5 6.307,0.95219 8.3252,2.8564 2.0182,1.9043 3.0273,4.2725 3.0274,7.1045 -10e-5,1.6114 -0.289,3.1454 -0.8667,4.602 -0.5779,1.4567 -1.4934,2.9826 -2.7466,4.5776 -0.8301,1.058 -2.3275,2.5798 -4.4922,4.5654 -2.1647,1.9857 -3.536,3.304 -4.1138,3.9551 -0.5778,0.65105 -1.0457,1.2858 -1.4038,1.9043 z"
             inkscape:connector-curvature="0" />
          <path
             id="path4711"
             d="m 1282.1,705.52 c 3.4668,4e-5 6.1768,1.237 8.1299,3.7109 2.3275,2.9297 3.4912,7.7881 3.4912,14.575 0,6.7708 -1.1719,11.637 -3.5156,14.6 -1.9369,2.4414 -4.6387,3.6621 -8.1055,3.6621 -3.4831,-10e-6 -6.2907,-1.3387 -8.4228,-4.0161 -2.1322,-2.6774 -3.1983,-7.4504 -3.1983,-14.319 0,-6.7382 1.1719,-11.589 3.5157,-14.551 1.9368,-2.4414 4.6386,-3.6621 8.1054,-3.6621 z m 0,5.6885 c -0.8301,3e-5 -1.5706,0.26452 -2.2216,0.79346 -0.6511,0.529 -1.1557,1.4771 -1.5137,2.8442 -0.472,1.7741 -0.708,4.7608 -0.708,8.96 0,4.1992 0.2116,7.0842 0.6347,8.6548 0.4232,1.5706 0.9562,2.6164 1.5992,3.1372 0.6429,0.52084 1.3793,0.78125 2.2094,0.78125 0.8301,0 1.5707,-0.26448 2.2217,-0.79346 0.651,-0.52896 1.1556,-1.477 1.5137,-2.8442 0.472,-1.7578 0.708,-4.7363 0.708,-8.9355 0,-4.1992 -0.2116,-7.0841 -0.6348,-8.6548 -0.4232,-1.5706 -0.9562,-2.6204 -1.5991,-3.1494 -0.6429,-0.52894 -1.3794,-0.79343 -2.2095,-0.79346 z"
             inkscape:connector-curvature="0" />
        </g>
        <g
           id="g4713"
           transform="translate(-1527,-99.437)">
          <path
             id="path4715"
             d="m 2857.1,1034.3 c 3.4667,0 6.1767,1.237 8.1298,3.7109 2.3275,2.9297 3.4912,7.7881 3.4913,14.575 -1e-4,6.7708 -1.1719,11.637 -3.5157,14.6 -1.9368,2.4414 -4.6387,3.6621 -8.1054,3.6621 -3.4831,0 -6.2907,-1.3387 -8.4229,-4.0161 -2.1322,-2.6774 -3.1982,-7.4503 -3.1982,-14.319 0,-6.7383 1.1718,-11.589 3.5156,-14.551 1.9368,-2.4414 4.6387,-3.6621 8.1055,-3.6621 z m 0,5.6884 c -0.8301,10e-5 -1.5707,0.2646 -2.2217,0.7935 -0.6511,0.529 -1.1556,1.4771 -1.5137,2.8442 -0.472,1.7742 -0.708,4.7608 -0.708,8.96 0,4.1992 0.2116,7.0842 0.6348,8.6548 0.4231,1.5706 0.9562,2.6164 1.5991,3.1372 0.6429,0.5208 1.3794,0.7813 2.2095,0.7812 0.83,10e-5 1.5706,-0.2644 2.2216,-0.7934 0.6511,-0.529 1.1556,-1.4771 1.5137,-2.8442 0.472,-1.7579 0.708,-4.7364 0.708,-8.9356 0,-4.1992 -0.2116,-7.0841 -0.6347,-8.6548 -0.4232,-1.5706 -0.9563,-2.6204 -1.5992,-3.1494 -0.6429,-0.5289 -1.3794,-0.7934 -2.2094,-0.7935 z"
             inkscape:connector-curvature="0" />
        </g>
        <g
           id="g4717">
          <path
             id="path4719"
             d="m 1736.9,960.08 h -6.8604 v -25.854 c -2.5065,2.3438 -5.4606,4.0772 -8.8623,5.2002 v -6.2256 c 1.7904,-0.58591 3.7354,-1.6967 5.835,-3.3325 2.0996,-1.6357 3.54,-3.5441 4.3213,-5.7251 h 5.5664 z"
             inkscape:connector-curvature="0" />
          <path
             id="path4721"
             d="m 1764.7,960.08 h -6.8603 v -25.854 c -2.5066,2.3438 -5.4607,4.0772 -8.8624,5.2002 v -6.2256 c 1.7904,-0.58591 3.7354,-1.6967 5.835,-3.3325 2.0996,-1.6357 3.54,-3.5441 4.3213,-5.7251 h 5.5664 z"
             inkscape:connector-curvature="0" />
          <path
             id="path4723"
             d="m 1786.6,924.15 c 3.4668,3e-5 6.1767,1.237 8.1299,3.7109 2.3274,2.9297 3.4912,7.7881 3.4912,14.575 0,6.7708 -1.1719,11.637 -3.5156,14.6 -1.9369,2.4414 -4.6387,3.6621 -8.1055,3.6621 -3.4831,0 -6.2907,-1.3387 -8.4228,-4.0161 -2.1322,-2.6774 -3.1983,-7.4504 -3.1983,-14.319 0,-6.7383 1.1719,-11.589 3.5156,-14.551 1.9369,-2.4414 4.6387,-3.6621 8.1055,-3.6621 z m 0,5.6885 c -0.8301,3e-5 -1.5706,0.26452 -2.2217,0.79346 -0.651,0.529 -1.1556,1.4771 -1.5136,2.8442 -0.4721,1.7741 -0.7081,4.7608 -0.7081,8.96 0,4.1992 0.2116,7.0842 0.6348,8.6548 0.4232,1.5706 0.9562,2.6164 1.5991,3.1372 0.6429,0.52084 1.3794,0.78126 2.2095,0.78125 0.8301,10e-6 1.5706,-0.26448 2.2217,-0.79346 0.651,-0.52896 1.1556,-1.477 1.5137,-2.8442 0.4719,-1.7578 0.7079,-4.7363 0.708,-8.9356 -10e-5,-4.1992 -0.2116,-7.0841 -0.6348,-8.6548 -0.4232,-1.5706 -0.9562,-2.6204 -1.5991,-3.1494 -0.6429,-0.52894 -1.3794,-0.79343 -2.2095,-0.79346 z"
             inkscape:connector-curvature="0" />
        </g>
        <g
           id="g4725">
          <path
             id="path4727"
             d="m 1794.1,859.13 h -6.8604 v -25.854 c -2.5065,2.3438 -5.4606,4.0772 -8.8623,5.2002 v -6.2256 c 1.7904,-0.58591 3.7354,-1.6968 5.835,-3.3325 2.0996,-1.6357 3.54,-3.5441 4.3213,-5.7251 h 5.5664 z"
             inkscape:connector-curvature="0" />
          <path
             id="path4729"
             d="m 1816,823.2 c 3.4668,3e-5 6.1767,1.237 8.1299,3.7109 2.3274,2.9297 3.4912,7.7881 3.4912,14.575 0,6.7708 -1.1719,11.637 -3.5156,14.6 -1.9369,2.4414 -4.6387,3.6621 -8.1055,3.6621 -3.4831,0 -6.2907,-1.3387 -8.4229,-4.0161 -2.1321,-2.6774 -3.1982,-7.4504 -3.1982,-14.319 0,-6.7383 1.1719,-11.589 3.5156,-14.551 1.9369,-2.4414 4.6387,-3.6621 8.1055,-3.6621 z m 0,5.6885 c -0.8301,4e-5 -1.5707,0.26452 -2.2217,0.79346 -0.651,0.529 -1.1556,1.4771 -1.5137,2.8442 -0.472,1.7741 -0.708,4.7608 -0.708,8.96 0,4.1992 0.2116,7.0842 0.6348,8.6548 0.4232,1.5706 0.9562,2.6164 1.5991,3.1372 0.6429,0.52084 1.3794,0.78126 2.2095,0.78125 0.8301,1e-5 1.5706,-0.26448 2.2217,-0.79345 0.651,-0.52897 1.1556,-1.477 1.5136,-2.8442 0.472,-1.7578 0.708,-4.7363 0.708,-8.9356 0,-4.1992 -0.2116,-7.0841 -0.6347,-8.6548 -0.4232,-1.5706 -0.9563,-2.6204 -1.5991,-3.1494 -0.643,-0.52894 -1.3794,-0.79342 -2.2095,-0.79346 z"
             inkscape:connector-curvature="0" />
          <path
             id="path4731"
             d="m 1843.9,823.2 c 3.4668,3e-5 6.1768,1.237 8.1299,3.7109 2.3275,2.9297 3.4912,7.7881 3.4912,14.575 0,6.7708 -1.1719,11.637 -3.5156,14.6 -1.9369,2.4414 -4.6387,3.6621 -8.1055,3.6621 -3.4831,0 -6.2907,-1.3387 -8.4228,-4.0161 -2.1322,-2.6774 -3.1983,-7.4504 -3.1983,-14.319 0,-6.7383 1.1719,-11.589 3.5157,-14.551 1.9368,-2.4414 4.6386,-3.6621 8.1054,-3.6621 z m 0,5.6885 c -0.8301,4e-5 -1.5706,0.26452 -2.2217,0.79346 -0.651,0.529 -1.1556,1.4771 -1.5136,2.8442 -0.472,1.7741 -0.708,4.7608 -0.708,8.96 0,4.1992 0.2115,7.0842 0.6347,8.6548 0.4232,1.5706 0.9562,2.6164 1.5991,3.1372 0.6429,0.52084 1.3794,0.78126 2.2095,0.78125 0.8301,1e-5 1.5706,-0.26448 2.2217,-0.79345 0.651,-0.52897 1.1556,-1.477 1.5137,-2.8442 0.472,-1.7578 0.708,-4.7363 0.708,-8.9356 0,-4.1992 -0.2116,-7.0841 -0.6348,-8.6548 -0.4232,-1.5706 -0.9562,-2.6204 -1.5991,-3.1494 -0.6429,-0.52894 -1.3794,-0.79342 -2.2095,-0.79346 z"
             inkscape:connector-curvature="0" />
        </g>
        <g
           id="g4733">
          <path
             id="path4735"
             d="m 1813.8,734.36 6.6406,-0.73242 c 0.1628,1.3509 0.5859,2.3519 1.2695,3.0029 0.6836,0.65105 1.5869,0.97657 2.71,0.97656 1.416,10e-6 2.6204,-0.65103 3.6133,-1.9531 0.9928,-1.3021 1.6276,-4.0039 1.9043,-8.1055 -1.7253,2.002 -3.8819,3.0029 -6.4697,3.0029 -2.8158,10e-6 -5.245,-1.0864 -7.2876,-3.2593 -2.0427,-2.1728 -3.064,-5.0008 -3.064,-8.4839 0,-3.6295 1.0783,-6.5551 3.2349,-8.7768 2.1565,-2.2216 4.9031,-3.3325 8.2397,-3.3325 3.6295,3e-5 6.6081,1.4038 8.9356,4.2114 2.3274,2.8076 3.4911,7.426 3.4912,13.855 -10e-5,6.543 -1.2126,11.263 -3.6377,14.16 -2.4252,2.8971 -5.5827,4.3457 -9.4727,4.3457 -2.7995,0 -5.0618,-0.74463 -6.7871,-2.2339 -1.7253,-1.48927 -2.832,-3.715 -3.3203,-6.6772 z m 15.527,-14.99 c 0,-2.2135 -0.5086,-3.9306 -1.5258,-5.1514 -1.0173,-1.2207 -2.1933,-1.831 -3.5279,-1.8311 -1.2695,3e-5 -2.3234,0.50052 -3.1616,1.5015 -0.8382,1.00098 -1.2573,2.6408 -1.2573,4.9194 0,2.3112 0.4557,4.008 1.3672,5.0903 0.9114,1.0824 2.0507,1.6236 3.4179,1.6235 1.3184,2e-5 2.4292,-0.52082 3.3326,-1.5625 0.9033,-1.0416 1.3549,-2.5716 1.3549,-4.5898 z"
             inkscape:connector-curvature="0" />
          <path
             id="path4737"
             d="m 1853.1,706.7 c 3.4668,3e-5 6.1768,1.237 8.1299,3.7109 2.3274,2.9297 3.4912,7.7881 3.4912,14.575 0,6.7708 -1.1719,11.637 -3.5156,14.6 -1.9369,2.4414 -4.6387,3.6621 -8.1055,3.6621 -3.4831,0 -6.2907,-1.3387 -8.4228,-4.0161 -2.1322,-2.6774 -3.1983,-7.4504 -3.1983,-14.319 0,-6.7383 1.1719,-11.589 3.5156,-14.551 1.9369,-2.4414 4.6387,-3.6621 8.1055,-3.6621 z m 0,5.6885 c -0.8301,3e-5 -1.5706,0.26452 -2.2217,0.79346 -0.651,0.529 -1.1556,1.4771 -1.5136,2.8442 -0.472,1.7741 -0.7081,4.7608 -0.708,8.96 -10e-5,4.1992 0.2115,7.0842 0.6347,8.6548 0.4232,1.5706 0.9562,2.6164 1.5991,3.1372 0.6429,0.52084 1.3794,0.78126 2.2095,0.78125 0.8301,1e-5 1.5706,-0.26448 2.2217,-0.79345 0.651,-0.52897 1.1556,-1.477 1.5137,-2.8442 0.472,-1.7578 0.708,-4.7363 0.708,-8.9356 0,-4.1992 -0.2116,-7.0841 -0.6348,-8.6548 -0.4232,-1.5706 -0.9562,-2.6204 -1.5991,-3.1494 -0.6429,-0.52894 -1.3794,-0.79343 -2.2095,-0.79346 z"
             inkscape:connector-curvature="0" />
        </g>
        <g
           id="g4739">
          <path
             id="path4741"
             d="m 1784.4,608.06 c -1.7741,-0.74867 -3.064,-1.7781 -3.8696,-3.0884 -0.8057,-1.3102 -1.2085,-2.7466 -1.2085,-4.3091 0,-2.6692 0.9318,-4.8746 2.7954,-6.6162 1.8636,-1.7415 4.5125,-2.6123 7.9468,-2.6123 3.4016,3e-5 6.0424,0.8708 7.9223,2.6123 1.8799,1.7416 2.8198,3.947 2.8199,6.6162 -10e-5,1.6602 -0.4314,3.1372 -1.294,4.4312 -0.8626,1.294 -2.0752,2.2827 -3.6377,2.9663 1.9857,0.79755 3.4953,1.9613 4.5288,3.4912 1.0335,1.53 1.5503,3.2959 1.5503,5.2979 0,3.304 -1.0539,5.9896 -3.1616,8.0566 -2.1078,2.067 -4.9113,3.1006 -8.4106,3.1006 -3.2553,0 -5.9652,-0.85449 -8.1299,-2.5635 -2.5554,-2.0182 -3.833,-4.7852 -3.833,-8.3008 0,-1.9368 0.4801,-3.715 1.4404,-5.3345 0.9603,-1.6194 2.4739,-2.8686 4.541,-3.7476 z m 1.416,-6.9092 c 0,1.3672 0.3866,2.4333 1.1597,3.1982 0.7731,0.76499 1.8026,1.1475 3.0884,1.1475 1.302,2e-5 2.3437,-0.38654 3.125,-1.1597 0.7812,-0.77309 1.1718,-1.8432 1.1718,-3.2104 0,-1.2858 -0.3865,-2.3152 -1.1596,-3.0884 -0.7731,-0.77308 -1.7945,-1.1596 -3.064,-1.1597 -1.3184,3e-5 -2.3682,0.39066 -3.1494,1.1719 -0.7813,0.78128 -1.1719,1.8148 -1.1719,3.1006 z m -0.6347,15.332 c 0,1.888 0.4842,3.361 1.4526,4.419 0.9684,1.058 2.1769,1.5869 3.6255,1.5869 1.416,10e-6 2.5879,-0.50862 3.5156,-1.5259 0.9277,-1.0172 1.3916,-2.4862 1.3916,-4.4067 0,-1.6764 -0.472,-3.0233 -1.416,-4.0405 -0.944,-1.0172 -2.1403,-1.5259 -3.5889,-1.5259 -1.6764,2e-5 -2.9256,0.57782 -3.7475,1.7334 -0.822,1.1556 -1.2329,2.4089 -1.2329,3.7598 z"
             inkscape:connector-curvature="0" />
          <path
             id="path4743"
             d="m 1818,591.43 c 3.4668,3e-5 6.1768,1.237 8.1299,3.7109 2.3275,2.9297 3.4912,7.7881 3.4912,14.575 0,6.7708 -1.1719,11.637 -3.5156,14.6 -1.9369,2.4414 -4.6387,3.6621 -8.1055,3.6621 -3.483,0 -6.2907,-1.3387 -8.4228,-4.0161 -2.1322,-2.6774 -3.1983,-7.4503 -3.1983,-14.319 0,-6.7383 1.1719,-11.589 3.5157,-14.551 1.9368,-2.4414 4.6386,-3.6621 8.1054,-3.6621 z m 0,5.6885 c -0.8301,3e-5 -1.5706,0.26452 -2.2216,0.79346 -0.6511,0.529 -1.1557,1.4771 -1.5137,2.8442 -0.472,1.7741 -0.708,4.7608 -0.708,8.96 0,4.1992 0.2116,7.0842 0.6347,8.6548 0.4232,1.5706 0.9562,2.6164 1.5992,3.1372 0.6429,0.52084 1.3793,0.78126 2.2094,0.78125 0.8301,10e-6 1.5707,-0.26448 2.2217,-0.79346 0.651,-0.52896 1.1556,-1.477 1.5137,-2.8442 0.472,-1.7578 0.708,-4.7363 0.708,-8.9356 0,-4.1992 -0.2116,-7.0841 -0.6348,-8.6548 -0.4232,-1.5706 -0.9562,-2.6204 -1.5991,-3.1494 -0.6429,-0.52894 -1.3794,-0.79343 -2.2095,-0.79346 z"
             inkscape:connector-curvature="0" />
        </g>
        <g
           id="g4745">
          <path
             id="path4747"
             d="m 1700.4,505 v -6.3721 h 23.462 v 4.9805 c -1.9369,1.9043 -3.9063,4.6387 -5.9083,8.2031 -2.0019,3.5645 -3.5278,7.3527 -4.5776,11.365 -1.0498,4.0121 -1.5666,7.5968 -1.5503,10.754 h -6.6162 c 0.1139,-4.9479 1.1353,-9.9935 3.064,-15.137 1.9287,-5.1432 4.5044,-9.7412 7.727,-13.794 z"
             inkscape:connector-curvature="0" />
          <path
             id="path4749"
             d="m 1739.8,498 c 3.4668,3e-5 6.1768,1.237 8.1299,3.7109 2.3275,2.9297 3.4912,7.7881 3.4912,14.575 0,6.7708 -1.1719,11.637 -3.5156,14.6 -1.9369,2.4414 -4.6387,3.6621 -8.1055,3.6621 -3.483,0 -6.2906,-1.3387 -8.4228,-4.0161 -2.1322,-2.6774 -3.1982,-7.4504 -3.1982,-14.319 0,-6.7383 1.1718,-11.589 3.5156,-14.551 1.9368,-2.4414 4.6386,-3.6621 8.1054,-3.6621 z m 0,5.6885 c -0.83,3e-5 -1.5706,0.26451 -2.2216,0.79345 -0.6511,0.529 -1.1556,1.4771 -1.5137,2.8442 -0.472,1.7741 -0.708,4.7608 -0.708,8.96 0,4.1992 0.2116,7.0842 0.6348,8.6548 0.4231,1.5706 0.9562,2.6164 1.5991,3.1372 0.6429,0.52084 1.3794,0.78126 2.2094,0.78125 0.8301,10e-6 1.5707,-0.26448 2.2217,-0.79345 0.6511,-0.52897 1.1556,-1.477 1.5137,-2.8442 0.472,-1.7578 0.708,-4.7363 0.708,-8.9356 0,-4.1992 -0.2116,-7.0841 -0.6348,-8.6548 -0.4232,-1.5706 -0.9562,-2.6204 -1.5991,-3.1494 -0.6429,-0.52894 -1.3794,-0.79342 -2.2095,-0.79345 z"
             inkscape:connector-curvature="0" />
        </g>
        <g
           id="g4751">
          <path
             id="path4753"
             d="m 1613.2,449.94 -6.6406,0.73242 c -0.1628,-1.3672 -0.586,-2.3763 -1.2696,-3.0274 -0.6836,-0.65101 -1.5706,-0.97653 -2.6611,-0.97656 -1.4486,3e-5 -2.6734,0.65107 -3.6743,1.9531 -1.001,1.3021 -1.6317,4.0121 -1.8921,8.1299 1.709,-2.0182 3.833,-3.0273 6.3721,-3.0273 2.8645,2e-5 5.3181,1.0905 7.3608,3.2715 2.0426,2.181 3.0639,4.9968 3.064,8.4473 -1e-4,3.6621 -1.0743,6.5999 -3.2227,8.8135 -2.1484,2.2135 -4.9072,3.3203 -8.2764,3.3203 -3.6132,0 -6.5836,-1.4038 -8.9111,-4.2114 -2.3275,-2.8076 -3.4912,-7.4097 -3.4912,-13.806 0,-6.5592 1.2126,-11.287 3.6377,-14.185 2.4251,-2.8971 5.5745,-4.3457 9.4482,-4.3457 2.7181,4e-5 4.9683,0.76094 6.7505,2.2827 1.7822,1.52176 2.9175,3.7313 3.4058,6.6284 z m -15.552,14.966 c 0,2.2298 0.5127,3.951 1.5381,5.1636 1.0254,1.2126 2.1973,1.8188 3.5156,1.8188 1.2696,0 2.3275,-0.49642 3.1739,-1.4893 0.8463,-0.99283 1.2695,-2.6204 1.2695,-4.8828 0,-2.3275 -0.4557,-4.0324 -1.3672,-5.1148 -0.9115,-1.0823 -2.0508,-1.6235 -3.418,-1.6235 -1.3183,10e-6 -2.4332,0.51678 -3.3447,1.5503 -0.9114,1.0335 -1.3672,2.5594 -1.3672,4.5776 z"
             inkscape:connector-curvature="0" />
          <path
             id="path4755"
             d="m 1629.3,441.03 c 3.4668,4e-5 6.1768,1.237 8.1299,3.7109 2.3274,2.9297 3.4912,7.7881 3.4912,14.575 0,6.7708 -1.1719,11.637 -3.5156,14.6 -1.9369,2.4414 -4.6387,3.6621 -8.1055,3.6621 -3.4831,0 -6.2907,-1.3387 -8.4228,-4.0161 -2.1322,-2.6774 -3.1983,-7.4504 -3.1983,-14.319 0,-6.7382 1.1719,-11.589 3.5156,-14.551 1.9369,-2.4414 4.6387,-3.6621 8.1055,-3.6621 z m 0,5.6885 c -0.8301,3e-5 -1.5706,0.26452 -2.2217,0.79346 -0.651,0.529 -1.1556,1.4771 -1.5136,2.8442 -0.4721,1.7741 -0.7081,4.7608 -0.708,8.96 -10e-5,4.1992 0.2115,7.0842 0.6347,8.6548 0.4232,1.5706 0.9562,2.6164 1.5991,3.1372 0.6429,0.52084 1.3794,0.78125 2.2095,0.78125 0.8301,0 1.5706,-0.26448 2.2217,-0.79346 0.651,-0.52896 1.1556,-1.477 1.5137,-2.8442 0.472,-1.7578 0.708,-4.7363 0.708,-8.9355 0,-4.1992 -0.2116,-7.0841 -0.6348,-8.6548 -0.4232,-1.5706 -0.9562,-2.6204 -1.5991,-3.1494 -0.6429,-0.52894 -1.3794,-0.79343 -2.2095,-0.79346 z"
             inkscape:connector-curvature="0" />
        </g>
        <g
           id="g4757">
          <path
             id="path4759"
             d="m 1464.5,467.76 6.836,-0.70801 c 0.1953,1.5462 0.7731,2.771 1.7334,3.6743 0.9602,0.90333 2.067,1.355 3.3203,1.355 1.4323,10e-6 2.6448,-0.58186 3.6377,-1.7456 0.9928,-1.1637 1.4892,-2.9175 1.4892,-5.2612 0,-2.1972 -0.4923,-3.8452 -1.477,-4.9438 -0.9847,-1.0986 -2.2665,-1.6479 -3.8452,-1.648 -1.9694,2e-5 -3.7354,0.87078 -5.2979,2.6123 l -5.5664,-0.80566 3.5156,-18.628 h 18.14 v 6.4209 h -12.94 l -1.0742,6.0791 c 1.53,-0.76495 3.0925,-1.1474 4.6875,-1.1475 3.0436,2e-5 5.6234,1.1068 7.7393,3.3203 2.1158,2.2136 3.1738,5.0863 3.1738,8.6182 0,2.946 -0.8545,5.5746 -2.5635,7.8858 -2.3275,3.1576 -5.5583,4.7363 -9.6924,4.7363 -3.304,0 -5.9977,-0.88704 -8.081,-2.6611 -2.0833,-1.77406 -3.3285,-4.1585 -3.7354,-7.1533 z"
             inkscape:connector-curvature="0" />
          <path
             id="path4761"
             d="m 1503.8,441.03 c 3.4668,4e-5 6.1767,1.237 8.1299,3.7109 2.3274,2.9297 3.4912,7.7881 3.4912,14.575 0,6.7708 -1.1719,11.637 -3.5156,14.6 -1.9369,2.4414 -4.6387,3.6621 -8.1055,3.6621 -3.4831,0 -6.2907,-1.3387 -8.4229,-4.0161 -2.1321,-2.6774 -3.1982,-7.4504 -3.1982,-14.319 0,-6.7382 1.1719,-11.589 3.5156,-14.551 1.9369,-2.4414 4.6387,-3.6621 8.1055,-3.6621 z m 0,5.6885 c -0.8301,3e-5 -1.5707,0.26452 -2.2217,0.79346 -0.651,0.529 -1.1556,1.4771 -1.5137,2.8442 -0.472,1.7741 -0.708,4.7608 -0.708,8.96 0,4.1992 0.2116,7.0842 0.6348,8.6548 0.4232,1.5706 0.9562,2.6164 1.5991,3.1372 0.6429,0.52084 1.3794,0.78125 2.2095,0.78125 0.8301,0 1.5706,-0.26448 2.2217,-0.79346 0.651,-0.52896 1.1556,-1.477 1.5136,-2.8442 0.472,-1.7578 0.708,-4.7363 0.7081,-8.9355 -10e-5,-4.1992 -0.2117,-7.0841 -0.6348,-8.6548 -0.4232,-1.5706 -0.9562,-2.6204 -1.5991,-3.1494 -0.643,-0.52894 -1.3794,-0.79343 -2.2095,-0.79346 z"
             inkscape:connector-curvature="0" />
        </g>
        <g
           id="g4763">
          <path
             id="path4765"
             d="m 1368.4,533.94 v -7.2022 h -14.648 v -6.0059 l 15.527,-22.729 h 5.7617 v 22.705 h 4.4433 v 6.0303 h -4.4433 v 7.2022 z m 0,-13.232 v -12.231 l -8.2276,12.231 z"
             inkscape:connector-curvature="0" />
          <path
             id="path4767"
             d="m 1394.3,498 c 3.4668,3e-5 6.1768,1.237 8.1299,3.7109 2.3275,2.9297 3.4912,7.7881 3.4912,14.575 0,6.7708 -1.1719,11.637 -3.5156,14.6 -1.9369,2.4414 -4.6387,3.6621 -8.1055,3.6621 -3.4831,0 -6.2907,-1.3387 -8.4228,-4.0161 -2.1322,-2.6774 -3.1983,-7.4504 -3.1983,-14.319 0,-6.7383 1.1719,-11.589 3.5157,-14.551 1.9368,-2.4414 4.6386,-3.6621 8.1054,-3.6621 z m 0,5.6885 c -0.8301,3e-5 -1.5706,0.26451 -2.2217,0.79345 -0.651,0.529 -1.1556,1.4771 -1.5136,2.8442 -0.472,1.7741 -0.708,4.7608 -0.708,8.96 0,4.1992 0.2115,7.0842 0.6347,8.6548 0.4232,1.5706 0.9562,2.6164 1.5992,3.1372 0.6428,0.52084 1.3793,0.78126 2.2094,0.78125 0.8301,10e-6 1.5706,-0.26448 2.2217,-0.79345 0.651,-0.52897 1.1556,-1.477 1.5137,-2.8442 0.472,-1.7578 0.708,-4.7363 0.708,-8.9356 0,-4.1992 -0.2116,-7.0841 -0.6348,-8.6548 -0.4232,-1.5706 -0.9562,-2.6204 -1.5991,-3.1494 -0.6429,-0.52894 -1.3794,-0.79342 -2.2095,-0.79345 z"
             inkscape:connector-curvature="0" />
        </g>
        <g
           id="g4769">
          <path
             id="path4771"
             d="m 1277.1,617.88 6.6406,-0.80566 c 0.2116,1.6927 0.7813,2.9867 1.709,3.8818 0.9278,0.89518 2.0508,1.3428 3.3692,1.3428 1.416,0 2.6082,-0.53711 3.5766,-1.6113 0.9684,-1.07419 1.4527,-2.5228 1.4527,-4.3457 0,-1.7252 -0.4639,-3.0924 -1.3916,-4.1016 -0.9278,-1.0091 -2.059,-1.5136 -3.3936,-1.5137 -0.8789,2e-5 -1.9287,0.17092 -3.1494,0.5127 l 0.7568,-5.5908 c 1.8555,0.0489 3.2715,-0.35398 4.2481,-1.2085 0.9765,-0.85447 1.4648,-1.9897 1.4648,-3.4058 0,-1.2044 -0.3581,-2.1647 -1.0742,-2.8809 -0.7162,-0.71612 -1.6683,-1.0742 -2.8564,-1.0742 -1.1719,3e-5 -2.1729,0.40693 -3.003,1.2207 -0.8301,0.81383 -1.3346,2.002 -1.5136,3.5644 l -6.3233,-1.0742 c 0.4395,-2.1647 1.1027,-3.894 1.9898,-5.188 0.887,-1.2939 2.124,-2.3112 3.7109,-3.0518 1.5869,-0.74052 3.3651,-1.1108 5.3345,-1.1108 3.3691,4e-5 6.0709,1.0743 8.1054,3.2227 1.6765,1.7578 2.5147,3.7435 2.5147,5.957 0,3.1413 -1.7172,5.6478 -5.1514,7.5195 2.0508,0.43947 3.6906,1.4242 4.9195,2.9541 1.2288,1.53 1.8432,3.3773 1.8432,5.542 0,3.1413 -1.1475,5.8187 -3.4424,8.0322 -2.2949,2.2135 -5.1513,3.3203 -8.5693,3.3203 -3.2389,-1e-5 -5.9245,-0.93181 -8.0566,-2.7954 -2.1322,-1.8636 -3.3692,-4.3009 -3.711,-7.312 z"
             inkscape:connector-curvature="0" />
          <path
             id="path4773"
             d="m 1316.8,591.44 c 3.4668,4e-5 6.1767,1.237 8.1299,3.7109 2.3274,2.9297 3.4911,7.7881 3.4912,14.575 -10e-5,6.7708 -1.1719,11.637 -3.5157,14.6 -1.9368,2.4414 -4.6386,3.6621 -8.1054,3.6621 -3.4831,-1e-5 -6.2907,-1.3387 -8.4229,-4.0161 -2.1321,-2.6774 -3.1982,-7.4504 -3.1982,-14.319 0,-6.7382 1.1719,-11.589 3.5156,-14.551 1.9368,-2.4414 4.6387,-3.6621 8.1055,-3.6621 z m 0,5.6885 c -0.8301,3e-5 -1.5707,0.26452 -2.2217,0.79346 -0.6511,0.529 -1.1556,1.4771 -1.5137,2.8442 -0.472,1.7741 -0.708,4.7608 -0.708,8.96 0,4.1992 0.2116,7.0842 0.6348,8.6548 0.4231,1.5706 0.9562,2.6164 1.5991,3.1372 0.6429,0.52084 1.3794,0.78125 2.2095,0.78125 0.83,0 1.5706,-0.26448 2.2217,-0.79346 0.651,-0.52896 1.1555,-1.477 1.5136,-2.8442 0.472,-1.7578 0.708,-4.7363 0.708,-8.9355 0,-4.1992 -0.2116,-7.0841 -0.6347,-8.6548 -0.4232,-1.5706 -0.9563,-2.6204 -1.5992,-3.1494 -0.6429,-0.52894 -1.3794,-0.79343 -2.2094,-0.79346 z"
             inkscape:connector-curvature="0" />
        </g>
        <g
           id="g4775">
          <path
             id="path4777"
             d="m 1272.7,859.13 h -6.8603 v -25.854 c -2.5065,2.3438 -5.4606,4.0772 -8.8623,5.2002 v -6.2256 c 1.7903,-0.58591 3.7353,-1.6968 5.8349,-3.3325 2.0996,-1.6357 3.5401,-3.5441 4.3213,-5.7251 h 5.5664 z"
             inkscape:connector-curvature="0" />
          <path
             id="path4779"
             d="m 1294.6,823.2 c 3.4668,3e-5 6.1768,1.237 8.1299,3.7109 2.3275,2.9297 3.4912,7.7881 3.4912,14.575 0,6.7708 -1.1719,11.637 -3.5156,14.6 -1.9369,2.4414 -4.6387,3.6621 -8.1055,3.6621 -3.4831,0 -6.2907,-1.3387 -8.4228,-4.0161 -2.1322,-2.6774 -3.1983,-7.4504 -3.1983,-14.319 0,-6.7383 1.1719,-11.589 3.5157,-14.551 1.9368,-2.4414 4.6386,-3.6621 8.1054,-3.6621 z m 0,5.6885 c -0.8301,4e-5 -1.5706,0.26452 -2.2217,0.79346 -0.651,0.529 -1.1556,1.4771 -1.5136,2.8442 -0.472,1.7741 -0.708,4.7608 -0.708,8.96 0,4.1992 0.2115,7.0842 0.6347,8.6548 0.4232,1.5706 0.9562,2.6164 1.5992,3.1372 0.6428,0.52084 1.3793,0.78126 2.2094,0.78125 0.8301,1e-5 1.5706,-0.26448 2.2217,-0.79345 0.651,-0.52897 1.1556,-1.477 1.5137,-2.8442 0.472,-1.7578 0.708,-4.7363 0.708,-8.9356 0,-4.1992 -0.2116,-7.0841 -0.6348,-8.6548 -0.4232,-1.5706 -0.9562,-2.6204 -1.5991,-3.1494 -0.6429,-0.52894 -1.3794,-0.79342 -2.2095,-0.79346 z"
             inkscape:connector-curvature="0" />
        </g>
      </g>
      <g
         id="g4781"
         transform="rotate(30.118481,1551.0508,754.10556)"
         style="fill:none;stroke:#3380ff">
        <path
           id="path4783"
           d="m 1884.6,683.77 41.464,-8.7921"
           inkscape:connector-curvature="0"
           style="stroke-width:10" />
        <path
           id="path4785"
           d="m 1324.5,1006.4 -28.378,31.485"
           inkscape:connector-curvature="0"
           style="stroke-width:10" />
        <path
           id="path4787"
           d="m 1267.1,960.9 -24.509,17.808"
           inkscape:connector-curvature="0"
           style="stroke-width:6" />
        <path
           id="path4789"
           d="m 1446.8,1077.4 -13.118,40.305"
           inkscape:connector-curvature="0"
           style="stroke-width:10" />
        <path
           id="path4791"
           d="m 1375.7,1059 -15.164,26.228"
           inkscape:connector-curvature="0"
           style="stroke-width:6" />
        <path
           id="path4793"
           d="m 1241.5,892.09 -38.731,17.22"
           inkscape:connector-curvature="0"
           style="stroke-width:10" />
        <path
           id="path4795"
           d="m 1207.6,827.16 -29.634,6.2999"
           inkscape:connector-curvature="0"
           style="stroke-width:6" />
        <path
           id="path4797"
           d="m 1212.2,753.86 -42.386,-0.0217"
           inkscape:connector-curvature="0"
           style="stroke-width:10" />
        <path
           id="path4799"
           d="m 1207.7,680.77 -29.634,-6.2978"
           inkscape:connector-curvature="0"
           style="stroke-width:6" />
        <path
           id="path4801"
           d="M 1241.6,615.66 1202.887,598.4"
           inkscape:connector-curvature="0"
           style="stroke-width:10" />
        <path
           id="path4803"
           d="m 1267.2,547.04 -24.51,-17.807"
           inkscape:connector-curvature="0"
           style="stroke-width:6" />
        <path
           id="path4805"
           d="m 1324.7,501.38 -28.346,-31.514"
           inkscape:connector-curvature="0"
           style="stroke-width:10" />
        <path
           id="path4807"
           d="m 1376,449.11 -15.149,-26.236"
           inkscape:connector-curvature="0"
           style="stroke-width:6" />
        <path
           id="path4809"
           d="m 1447.1,430.79 -13.078,-40.318"
           inkscape:connector-curvature="0"
           style="stroke-width:10" />
        <path
           id="path4811"
           d="m 1515.3,403.9 -3.1679,-30.13"
           inkscape:connector-curvature="0"
           style="stroke-width:6" />
        <path
           id="path4813"
           d="m 1587.7,416.08 4.4521,-42.152"
           inkscape:connector-curvature="0"
           style="stroke-width:10" />
        <path
           id="path4815"
           d="m 1660.8,419.23 9.3608,-28.813"
           inkscape:connector-curvature="0"
           style="stroke-width:6" />
        <path
           id="path4817"
           d="m 1722,459.81 21.212,-36.697"
           inkscape:connector-curvature="0"
           style="stroke-width:10" />
        <path
           id="path4819"
           d="m 1787.6,492.44 20.271,-22.515"
           inkscape:connector-curvature="0"
           style="stroke-width:6" />
        <path
           id="path4821"
           d="m 1827,554.42 34.304,-24.897"
           inkscape:connector-curvature="0"
           style="stroke-width:10" />
        <path
           id="path4823"
           d="m 1873.6,610.89 27.676,-12.324"
           inkscape:connector-curvature="0"
           style="stroke-width:6" />
        <path
           id="path4825"
           d="m 1904,754.09 30.296,-10e-4"
           inkscape:connector-curvature="0"
           style="stroke-width:6" />
        <path
           id="path4827"
           d="m 1884.4,824.84 41.456,8.8338"
           inkscape:connector-curvature="0"
           style="stroke-width:10" />
      </g>
    </g>
    <g
       id="g4639">
      <g
         id="g4600"
         style="fill:#3380ff">
        <g
           id="text3312">
          <path
             id="path4596"
             d="m 1265.8,735.09 v 6.3721 h -24.048 c 0.2604,-2.4088 1.0417,-4.6916 2.3438,-6.8481 1.302,-2.1566 3.8737,-5.0171 7.7148,-8.5815 3.0924,-2.8808 4.9886,-4.834 5.6885,-5.8594 0.944,-1.416 1.416,-2.8157 1.416,-4.1992 0,-1.5299 -0.411,-2.7059 -1.2329,-3.5278 -0.822,-0.82191 -1.9572,-1.2329 -3.4058,-1.2329 -1.4323,3e-5 -2.5716,0.43135 -3.4179,1.294 -0.8464,0.86265 -1.3347,2.2949 -1.4649,4.2969 l -6.8359,-0.68359 c 0.4069,-3.776 1.6845,-6.486 3.833,-8.1299 2.1484,-1.6438 4.834,-2.4658 8.0566,-2.4658 3.5319,4e-5 6.307,0.95219 8.3252,2.8564 2.0182,1.9043 3.0273,4.2725 3.0274,7.1045 -10e-5,1.6114 -0.289,3.1454 -0.8667,4.602 -0.5779,1.4567 -1.4934,2.9826 -2.7466,4.5776 -0.8301,1.058 -2.3275,2.5798 -4.4922,4.5654 -2.1647,1.9857 -3.536,3.304 -4.1138,3.9551 -0.5778,0.65105 -1.0457,1.2858 -1.4038,1.9043 z"
             inkscape:connector-curvature="0" />
          <path
             id="path4598"
             d="m 1282.1,705.52 c 3.4668,4e-5 6.1768,1.237 8.1299,3.7109 2.3275,2.9297 3.4912,7.7881 3.4912,14.575 0,6.7708 -1.1719,11.637 -3.5156,14.6 -1.9369,2.4414 -4.6387,3.6621 -8.1055,3.6621 -3.4831,-10e-6 -6.2907,-1.3387 -8.4228,-4.0161 -2.1322,-2.6774 -3.1983,-7.4504 -3.1983,-14.319 0,-6.7382 1.1719,-11.589 3.5157,-14.551 1.9368,-2.4414 4.6386,-3.6621 8.1054,-3.6621 z m 0,5.6885 c -0.8301,3e-5 -1.5706,0.26452 -2.2216,0.79346 -0.6511,0.529 -1.1557,1.4771 -1.5137,2.8442 -0.472,1.7741 -0.708,4.7608 -0.708,8.96 0,4.1992 0.2116,7.0842 0.6347,8.6548 0.4232,1.5706 0.9562,2.6164 1.5992,3.1372 0.6429,0.52084 1.3793,0.78125 2.2094,0.78125 0.8301,0 1.5707,-0.26448 2.2217,-0.79346 0.651,-0.52896 1.1556,-1.477 1.5137,-2.8442 0.472,-1.7578 0.708,-4.7363 0.708,-8.9355 0,-4.1992 -0.2116,-7.0841 -0.6348,-8.6548 -0.4232,-1.5706 -0.9562,-2.6204 -1.5991,-3.1494 -0.6429,-0.52894 -1.3794,-0.79343 -2.2095,-0.79346 z"
             inkscape:connector-curvature="0" />
        </g>
        <g
           id="g4898"
           transform="translate(-1527,-99.437)">
          <path
             id="path4900"
             d="m 2857.1,1034.3 c 3.4667,0 6.1767,1.237 8.1298,3.7109 2.3275,2.9297 3.4912,7.7881 3.4913,14.575 -1e-4,6.7708 -1.1719,11.637 -3.5157,14.6 -1.9368,2.4414 -4.6387,3.6621 -8.1054,3.6621 -3.4831,0 -6.2907,-1.3387 -8.4229,-4.0161 -2.1322,-2.6774 -3.1982,-7.4503 -3.1982,-14.319 0,-6.7383 1.1718,-11.589 3.5156,-14.551 1.9368,-2.4414 4.6387,-3.6621 8.1055,-3.6621 z m 0,5.6884 c -0.8301,10e-5 -1.5707,0.2646 -2.2217,0.7935 -0.6511,0.529 -1.1556,1.4771 -1.5137,2.8442 -0.472,1.7742 -0.708,4.7608 -0.708,8.96 0,4.1992 0.2116,7.0842 0.6348,8.6548 0.4231,1.5706 0.9562,2.6164 1.5991,3.1372 0.6429,0.5208 1.3794,0.7813 2.2095,0.7812 0.83,10e-5 1.5706,-0.2644 2.2216,-0.7934 0.6511,-0.529 1.1556,-1.4771 1.5137,-2.8442 0.472,-1.7579 0.708,-4.7364 0.708,-8.9356 0,-4.1992 -0.2116,-7.0841 -0.6347,-8.6548 -0.4232,-1.5706 -0.9563,-2.6204 -1.5992,-3.1494 -0.6429,-0.5289 -1.3794,-0.7934 -2.2094,-0.7935 z"
             inkscape:connector-curvature="0" />
        </g>
        <g
           id="text3276">
          <path
             id="path4589"
             d="m 1736.9,960.08 h -6.8604 v -25.854 c -2.5065,2.3438 -5.4606,4.0772 -8.8623,5.2002 v -6.2256 c 1.7904,-0.58591 3.7354,-1.6967 5.835,-3.3325 2.0996,-1.6357 3.54,-3.5441 4.3213,-5.7251 h 5.5664 z"
             inkscape:connector-curvature="0" />
          <path
             id="path4591"
             d="m 1764.7,960.08 h -6.8603 v -25.854 c -2.5066,2.3438 -5.4607,4.0772 -8.8624,5.2002 v -6.2256 c 1.7904,-0.58591 3.7354,-1.6967 5.835,-3.3325 2.0996,-1.6357 3.54,-3.5441 4.3213,-5.7251 h 5.5664 z"
             inkscape:connector-curvature="0" />
          <path
             id="path4593"
             d="m 1786.6,924.15 c 3.4668,3e-5 6.1767,1.237 8.1299,3.7109 2.3274,2.9297 3.4912,7.7881 3.4912,14.575 0,6.7708 -1.1719,11.637 -3.5156,14.6 -1.9369,2.4414 -4.6387,3.6621 -8.1055,3.6621 -3.4831,0 -6.2907,-1.3387 -8.4228,-4.0161 -2.1322,-2.6774 -3.1983,-7.4504 -3.1983,-14.319 0,-6.7383 1.1719,-11.589 3.5156,-14.551 1.9369,-2.4414 4.6387,-3.6621 8.1055,-3.6621 z m 0,5.6885 c -0.8301,3e-5 -1.5706,0.26452 -2.2217,0.79346 -0.651,0.529 -1.1556,1.4771 -1.5136,2.8442 -0.4721,1.7741 -0.7081,4.7608 -0.7081,8.96 0,4.1992 0.2116,7.0842 0.6348,8.6548 0.4232,1.5706 0.9562,2.6164 1.5991,3.1372 0.6429,0.52084 1.3794,0.78126 2.2095,0.78125 0.8301,10e-6 1.5706,-0.26448 2.2217,-0.79346 0.651,-0.52896 1.1556,-1.477 1.5137,-2.8442 0.4719,-1.7578 0.7079,-4.7363 0.708,-8.9356 -10e-5,-4.1992 -0.2116,-7.0841 -0.6348,-8.6548 -0.4232,-1.5706 -0.9562,-2.6204 -1.5991,-3.1494 -0.6429,-0.52894 -1.3794,-0.79343 -2.2095,-0.79346 z"
             inkscape:connector-curvature="0" />
        </g>
        <g
           id="text3280">
          <path
             id="path4582"
             d="m 1794.1,859.13 h -6.8604 v -25.854 c -2.5065,2.3438 -5.4606,4.0772 -8.8623,5.2002 v -6.2256 c 1.7904,-0.58591 3.7354,-1.6968 5.835,-3.3325 2.0996,-1.6357 3.54,-3.5441 4.3213,-5.7251 h 5.5664 z"
             inkscape:connector-curvature="0" />
          <path
             id="path4584"
             d="m 1816,823.2 c 3.4668,3e-5 6.1767,1.237 8.1299,3.7109 2.3274,2.9297 3.4912,7.7881 3.4912,14.575 0,6.7708 -1.1719,11.637 -3.5156,14.6 -1.9369,2.4414 -4.6387,3.6621 -8.1055,3.6621 -3.4831,0 -6.2907,-1.3387 -8.4229,-4.0161 -2.1321,-2.6774 -3.1982,-7.4504 -3.1982,-14.319 0,-6.7383 1.1719,-11.589 3.5156,-14.551 1.9369,-2.4414 4.6387,-3.6621 8.1055,-3.6621 z m 0,5.6885 c -0.8301,4e-5 -1.5707,0.26452 -2.2217,0.79346 -0.651,0.529 -1.1556,1.4771 -1.5137,2.8442 -0.472,1.7741 -0.708,4.7608 -0.708,8.96 0,4.1992 0.2116,7.0842 0.6348,8.6548 0.4232,1.5706 0.9562,2.6164 1.5991,3.1372 0.6429,0.52084 1.3794,0.78126 2.2095,0.78125 0.8301,1e-5 1.5706,-0.26448 2.2217,-0.79345 0.651,-0.52897 1.1556,-1.477 1.5136,-2.8442 0.472,-1.7578 0.708,-4.7363 0.708,-8.9356 0,-4.1992 -0.2116,-7.0841 -0.6347,-8.6548 -0.4232,-1.5706 -0.9563,-2.6204 -1.5991,-3.1494 -0.643,-0.52894 -1.3794,-0.79342 -2.2095,-0.79346 z"
             inkscape:connector-curvature="0" />
          <path
             id="path4586"
             d="m 1843.9,823.2 c 3.4668,3e-5 6.1768,1.237 8.1299,3.7109 2.3275,2.9297 3.4912,7.7881 3.4912,14.575 0,6.7708 -1.1719,11.637 -3.5156,14.6 -1.9369,2.4414 -4.6387,3.6621 -8.1055,3.6621 -3.4831,0 -6.2907,-1.3387 -8.4228,-4.0161 -2.1322,-2.6774 -3.1983,-7.4504 -3.1983,-14.319 0,-6.7383 1.1719,-11.589 3.5157,-14.551 1.9368,-2.4414 4.6386,-3.6621 8.1054,-3.6621 z m 0,5.6885 c -0.8301,4e-5 -1.5706,0.26452 -2.2217,0.79346 -0.651,0.529 -1.1556,1.4771 -1.5136,2.8442 -0.472,1.7741 -0.708,4.7608 -0.708,8.96 0,4.1992 0.2115,7.0842 0.6347,8.6548 0.4232,1.5706 0.9562,2.6164 1.5991,3.1372 0.6429,0.52084 1.3794,0.78126 2.2095,0.78125 0.8301,1e-5 1.5706,-0.26448 2.2217,-0.79345 0.651,-0.52897 1.1556,-1.477 1.5137,-2.8442 0.472,-1.7578 0.708,-4.7363 0.708,-8.9356 0,-4.1992 -0.2116,-7.0841 -0.6348,-8.6548 -0.4232,-1.5706 -0.9562,-2.6204 -1.5991,-3.1494 -0.6429,-0.52894 -1.3794,-0.79342 -2.2095,-0.79346 z"
             inkscape:connector-curvature="0" />
        </g>
        <g
           id="text3284">
          <path
             id="path4577"
             d="m 1813.8,734.36 6.6406,-0.73242 c 0.1628,1.3509 0.5859,2.3519 1.2695,3.0029 0.6836,0.65105 1.5869,0.97657 2.71,0.97656 1.416,10e-6 2.6204,-0.65103 3.6133,-1.9531 0.9928,-1.3021 1.6276,-4.0039 1.9043,-8.1055 -1.7253,2.002 -3.8819,3.0029 -6.4697,3.0029 -2.8158,10e-6 -5.245,-1.0864 -7.2876,-3.2593 -2.0427,-2.1728 -3.064,-5.0008 -3.064,-8.4839 0,-3.6295 1.0783,-6.5551 3.2349,-8.7768 2.1565,-2.2216 4.9031,-3.3325 8.2397,-3.3325 3.6295,3e-5 6.6081,1.4038 8.9356,4.2114 2.3274,2.8076 3.4911,7.426 3.4912,13.855 -10e-5,6.543 -1.2126,11.263 -3.6377,14.16 -2.4252,2.8971 -5.5827,4.3457 -9.4727,4.3457 -2.7995,0 -5.0618,-0.74463 -6.7871,-2.2339 -1.7253,-1.48927 -2.832,-3.715 -3.3203,-6.6772 z m 15.527,-14.99 c 0,-2.2135 -0.5086,-3.9306 -1.5258,-5.1514 -1.0173,-1.2207 -2.1933,-1.831 -3.5279,-1.8311 -1.2695,3e-5 -2.3234,0.50052 -3.1616,1.5015 -0.8382,1.00098 -1.2573,2.6408 -1.2573,4.9194 0,2.3112 0.4557,4.008 1.3672,5.0903 0.9114,1.0824 2.0507,1.6236 3.4179,1.6235 1.3184,2e-5 2.4292,-0.52082 3.3326,-1.5625 0.9033,-1.0416 1.3549,-2.5716 1.3549,-4.5898 z"
             inkscape:connector-curvature="0" />
          <path
             id="path4579"
             d="m 1853.1,706.7 c 3.4668,3e-5 6.1768,1.237 8.1299,3.7109 2.3274,2.9297 3.4912,7.7881 3.4912,14.575 0,6.7708 -1.1719,11.637 -3.5156,14.6 -1.9369,2.4414 -4.6387,3.6621 -8.1055,3.6621 -3.4831,0 -6.2907,-1.3387 -8.4228,-4.0161 -2.1322,-2.6774 -3.1983,-7.4504 -3.1983,-14.319 0,-6.7383 1.1719,-11.589 3.5156,-14.551 1.9369,-2.4414 4.6387,-3.6621 8.1055,-3.6621 z m 0,5.6885 c -0.8301,3e-5 -1.5706,0.26452 -2.2217,0.79346 -0.651,0.529 -1.1556,1.4771 -1.5136,2.8442 -0.472,1.7741 -0.7081,4.7608 -0.708,8.96 -10e-5,4.1992 0.2115,7.0842 0.6347,8.6548 0.4232,1.5706 0.9562,2.6164 1.5991,3.1372 0.6429,0.52084 1.3794,0.78126 2.2095,0.78125 0.8301,1e-5 1.5706,-0.26448 2.2217,-0.79345 0.651,-0.52897 1.1556,-1.477 1.5137,-2.8442 0.472,-1.7578 0.708,-4.7363 0.708,-8.9356 0,-4.1992 -0.2116,-7.0841 -0.6348,-8.6548 -0.4232,-1.5706 -0.9562,-2.6204 -1.5991,-3.1494 -0.6429,-0.52894 -1.3794,-0.79343 -2.2095,-0.79346 z"
             inkscape:connector-curvature="0" />
        </g>
        <g
           id="text3288">
          <path
             id="path4572"
             d="m 1784.4,608.06 c -1.7741,-0.74867 -3.064,-1.7781 -3.8696,-3.0884 -0.8057,-1.3102 -1.2085,-2.7466 -1.2085,-4.3091 0,-2.6692 0.9318,-4.8746 2.7954,-6.6162 1.8636,-1.7415 4.5125,-2.6123 7.9468,-2.6123 3.4016,3e-5 6.0424,0.8708 7.9223,2.6123 1.8799,1.7416 2.8198,3.947 2.8199,6.6162 -10e-5,1.6602 -0.4314,3.1372 -1.294,4.4312 -0.8626,1.294 -2.0752,2.2827 -3.6377,2.9663 1.9857,0.79755 3.4953,1.9613 4.5288,3.4912 1.0335,1.53 1.5503,3.2959 1.5503,5.2979 0,3.304 -1.0539,5.9896 -3.1616,8.0566 -2.1078,2.067 -4.9113,3.1006 -8.4106,3.1006 -3.2553,0 -5.9652,-0.85449 -8.1299,-2.5635 -2.5554,-2.0182 -3.833,-4.7852 -3.833,-8.3008 0,-1.9368 0.4801,-3.715 1.4404,-5.3345 0.9603,-1.6194 2.4739,-2.8686 4.541,-3.7476 z m 1.416,-6.9092 c 0,1.3672 0.3866,2.4333 1.1597,3.1982 0.7731,0.76499 1.8026,1.1475 3.0884,1.1475 1.302,2e-5 2.3437,-0.38654 3.125,-1.1597 0.7812,-0.77309 1.1718,-1.8432 1.1718,-3.2104 0,-1.2858 -0.3865,-2.3152 -1.1596,-3.0884 -0.7731,-0.77308 -1.7945,-1.1596 -3.064,-1.1597 -1.3184,3e-5 -2.3682,0.39066 -3.1494,1.1719 -0.7813,0.78128 -1.1719,1.8148 -1.1719,3.1006 z m -0.6347,15.332 c 0,1.888 0.4842,3.361 1.4526,4.419 0.9684,1.058 2.1769,1.5869 3.6255,1.5869 1.416,10e-6 2.5879,-0.50862 3.5156,-1.5259 0.9277,-1.0172 1.3916,-2.4862 1.3916,-4.4067 0,-1.6764 -0.472,-3.0233 -1.416,-4.0405 -0.944,-1.0172 -2.1403,-1.5259 -3.5889,-1.5259 -1.6764,2e-5 -2.9256,0.57782 -3.7475,1.7334 -0.822,1.1556 -1.2329,2.4089 -1.2329,3.7598 z"
             inkscape:connector-curvature="0" />
          <path
             id="path4574"
             d="m 1818,591.43 c 3.4668,3e-5 6.1768,1.237 8.1299,3.7109 2.3275,2.9297 3.4912,7.7881 3.4912,14.575 0,6.7708 -1.1719,11.637 -3.5156,14.6 -1.9369,2.4414 -4.6387,3.6621 -8.1055,3.6621 -3.483,0 -6.2907,-1.3387 -8.4228,-4.0161 -2.1322,-2.6774 -3.1983,-7.4503 -3.1983,-14.319 0,-6.7383 1.1719,-11.589 3.5157,-14.551 1.9368,-2.4414 4.6386,-3.6621 8.1054,-3.6621 z m 0,5.6885 c -0.8301,3e-5 -1.5706,0.26452 -2.2216,0.79346 -0.6511,0.529 -1.1557,1.4771 -1.5137,2.8442 -0.472,1.7741 -0.708,4.7608 -0.708,8.96 0,4.1992 0.2116,7.0842 0.6347,8.6548 0.4232,1.5706 0.9562,2.6164 1.5992,3.1372 0.6429,0.52084 1.3793,0.78126 2.2094,0.78125 0.8301,10e-6 1.5707,-0.26448 2.2217,-0.79346 0.651,-0.52896 1.1556,-1.477 1.5137,-2.8442 0.472,-1.7578 0.708,-4.7363 0.708,-8.9356 0,-4.1992 -0.2116,-7.0841 -0.6348,-8.6548 -0.4232,-1.5706 -0.9562,-2.6204 -1.5991,-3.1494 -0.6429,-0.52894 -1.3794,-0.79343 -2.2095,-0.79346 z"
             inkscape:connector-curvature="0" />
        </g>
        <g
           id="text3292">
          <path
             id="path4567"
             d="m 1700.4,505 v -6.3721 h 23.462 v 4.9805 c -1.9369,1.9043 -3.9063,4.6387 -5.9083,8.2031 -2.0019,3.5645 -3.5278,7.3527 -4.5776,11.365 -1.0498,4.0121 -1.5666,7.5968 -1.5503,10.754 h -6.6162 c 0.1139,-4.9479 1.1353,-9.9935 3.064,-15.137 1.9287,-5.1432 4.5044,-9.7412 7.727,-13.794 z"
             inkscape:connector-curvature="0" />
          <path
             id="path4569"
             d="m 1739.8,498 c 3.4668,3e-5 6.1768,1.237 8.1299,3.7109 2.3275,2.9297 3.4912,7.7881 3.4912,14.575 0,6.7708 -1.1719,11.637 -3.5156,14.6 -1.9369,2.4414 -4.6387,3.6621 -8.1055,3.6621 -3.483,0 -6.2906,-1.3387 -8.4228,-4.0161 -2.1322,-2.6774 -3.1982,-7.4504 -3.1982,-14.319 0,-6.7383 1.1718,-11.589 3.5156,-14.551 1.9368,-2.4414 4.6386,-3.6621 8.1054,-3.6621 z m 0,5.6885 c -0.83,3e-5 -1.5706,0.26451 -2.2216,0.79345 -0.6511,0.529 -1.1556,1.4771 -1.5137,2.8442 -0.472,1.7741 -0.708,4.7608 -0.708,8.96 0,4.1992 0.2116,7.0842 0.6348,8.6548 0.4231,1.5706 0.9562,2.6164 1.5991,3.1372 0.6429,0.52084 1.3794,0.78126 2.2094,0.78125 0.8301,10e-6 1.5707,-0.26448 2.2217,-0.79345 0.6511,-0.52897 1.1556,-1.477 1.5137,-2.8442 0.472,-1.7578 0.708,-4.7363 0.708,-8.9356 0,-4.1992 -0.2116,-7.0841 -0.6348,-8.6548 -0.4232,-1.5706 -0.9562,-2.6204 -1.5991,-3.1494 -0.6429,-0.52894 -1.3794,-0.79342 -2.2095,-0.79345 z"
             inkscape:connector-curvature="0" />
        </g>
        <g
           id="text3296">
          <path
             id="path4562"
             d="m 1613.2,449.94 -6.6406,0.73242 c -0.1628,-1.3672 -0.586,-2.3763 -1.2696,-3.0274 -0.6836,-0.65101 -1.5706,-0.97653 -2.6611,-0.97656 -1.4486,3e-5 -2.6734,0.65107 -3.6743,1.9531 -1.001,1.3021 -1.6317,4.0121 -1.8921,8.1299 1.709,-2.0182 3.833,-3.0273 6.3721,-3.0273 2.8645,2e-5 5.3181,1.0905 7.3608,3.2715 2.0426,2.181 3.0639,4.9968 3.064,8.4473 -1e-4,3.6621 -1.0743,6.5999 -3.2227,8.8135 -2.1484,2.2135 -4.9072,3.3203 -8.2764,3.3203 -3.6132,0 -6.5836,-1.4038 -8.9111,-4.2114 -2.3275,-2.8076 -3.4912,-7.4097 -3.4912,-13.806 0,-6.5592 1.2126,-11.287 3.6377,-14.185 2.4251,-2.8971 5.5745,-4.3457 9.4482,-4.3457 2.7181,4e-5 4.9683,0.76094 6.7505,2.2827 1.7822,1.52176 2.9175,3.7313 3.4058,6.6284 z m -15.552,14.966 c 0,2.2298 0.5127,3.951 1.5381,5.1636 1.0254,1.2126 2.1973,1.8188 3.5156,1.8188 1.2696,0 2.3275,-0.49642 3.1739,-1.4893 0.8463,-0.99283 1.2695,-2.6204 1.2695,-4.8828 0,-2.3275 -0.4557,-4.0324 -1.3672,-5.1148 -0.9115,-1.0823 -2.0508,-1.6235 -3.418,-1.6235 -1.3183,10e-6 -2.4332,0.51678 -3.3447,1.5503 -0.9114,1.0335 -1.3672,2.5594 -1.3672,4.5776 z"
             inkscape:connector-curvature="0" />
          <path
             id="path4564"
             d="m 1629.3,441.03 c 3.4668,4e-5 6.1768,1.237 8.1299,3.7109 2.3274,2.9297 3.4912,7.7881 3.4912,14.575 0,6.7708 -1.1719,11.637 -3.5156,14.6 -1.9369,2.4414 -4.6387,3.6621 -8.1055,3.6621 -3.4831,0 -6.2907,-1.3387 -8.4228,-4.0161 -2.1322,-2.6774 -3.1983,-7.4504 -3.1983,-14.319 0,-6.7382 1.1719,-11.589 3.5156,-14.551 1.9369,-2.4414 4.6387,-3.6621 8.1055,-3.6621 z m 0,5.6885 c -0.8301,3e-5 -1.5706,0.26452 -2.2217,0.79346 -0.651,0.529 -1.1556,1.4771 -1.5136,2.8442 -0.4721,1.7741 -0.7081,4.7608 -0.708,8.96 -10e-5,4.1992 0.2115,7.0842 0.6347,8.6548 0.4232,1.5706 0.9562,2.6164 1.5991,3.1372 0.6429,0.52084 1.3794,0.78125 2.2095,0.78125 0.8301,0 1.5706,-0.26448 2.2217,-0.79346 0.651,-0.52896 1.1556,-1.477 1.5137,-2.8442 0.472,-1.7578 0.708,-4.7363 0.708,-8.9355 0,-4.1992 -0.2116,-7.0841 -0.6348,-8.6548 -0.4232,-1.5706 -0.9562,-2.6204 -1.5991,-3.1494 -0.6429,-0.52894 -1.3794,-0.79343 -2.2095,-0.79346 z"
             inkscape:connector-curvature="0" />
        </g>
        <g
           id="text3300">
          <path
             id="path4557"
             d="m 1464.5,467.76 6.836,-0.70801 c 0.1953,1.5462 0.7731,2.771 1.7334,3.6743 0.9602,0.90333 2.067,1.355 3.3203,1.355 1.4323,10e-6 2.6448,-0.58186 3.6377,-1.7456 0.9928,-1.1637 1.4892,-2.9175 1.4892,-5.2612 0,-2.1972 -0.4923,-3.8452 -1.477,-4.9438 -0.9847,-1.0986 -2.2665,-1.6479 -3.8452,-1.648 -1.9694,2e-5 -3.7354,0.87078 -5.2979,2.6123 l -5.5664,-0.80566 3.5156,-18.628 h 18.14 v 6.4209 h -12.94 l -1.0742,6.0791 c 1.53,-0.76495 3.0925,-1.1474 4.6875,-1.1475 3.0436,2e-5 5.6234,1.1068 7.7393,3.3203 2.1158,2.2136 3.1738,5.0863 3.1738,8.6182 0,2.946 -0.8545,5.5746 -2.5635,7.8858 -2.3275,3.1576 -5.5583,4.7363 -9.6924,4.7363 -3.304,0 -5.9977,-0.88704 -8.081,-2.6611 -2.0833,-1.77406 -3.3285,-4.1585 -3.7354,-7.1533 z"
             inkscape:connector-curvature="0" />
          <path
             id="path4559"
             d="m 1503.8,441.03 c 3.4668,4e-5 6.1767,1.237 8.1299,3.7109 2.3274,2.9297 3.4912,7.7881 3.4912,14.575 0,6.7708 -1.1719,11.637 -3.5156,14.6 -1.9369,2.4414 -4.6387,3.6621 -8.1055,3.6621 -3.4831,0 -6.2907,-1.3387 -8.4229,-4.0161 -2.1321,-2.6774 -3.1982,-7.4504 -3.1982,-14.319 0,-6.7382 1.1719,-11.589 3.5156,-14.551 1.9369,-2.4414 4.6387,-3.6621 8.1055,-3.6621 z m 0,5.6885 c -0.8301,3e-5 -1.5707,0.26452 -2.2217,0.79346 -0.651,0.529 -1.1556,1.4771 -1.5137,2.8442 -0.472,1.7741 -0.708,4.7608 -0.708,8.96 0,4.1992 0.2116,7.0842 0.6348,8.6548 0.4232,1.5706 0.9562,2.6164 1.5991,3.1372 0.6429,0.52084 1.3794,0.78125 2.2095,0.78125 0.8301,0 1.5706,-0.26448 2.2217,-0.79346 0.651,-0.52896 1.1556,-1.477 1.5136,-2.8442 0.472,-1.7578 0.708,-4.7363 0.7081,-8.9355 -10e-5,-4.1992 -0.2117,-7.0841 -0.6348,-8.6548 -0.4232,-1.5706 -0.9562,-2.6204 -1.5991,-3.1494 -0.643,-0.52894 -1.3794,-0.79343 -2.2095,-0.79346 z"
             inkscape:connector-curvature="0" />
        </g>
        <g
           id="text3304">
          <path
             id="path4552"
             d="m 1368.4,533.94 v -7.2022 h -14.648 v -6.0059 l 15.527,-22.729 h 5.7617 v 22.705 h 4.4433 v 6.0303 h -4.4433 v 7.2022 z m 0,-13.232 v -12.231 l -8.2276,12.231 z"
             inkscape:connector-curvature="0" />
          <path
             id="path4554"
             d="m 1394.3,498 c 3.4668,3e-5 6.1768,1.237 8.1299,3.7109 2.3275,2.9297 3.4912,7.7881 3.4912,14.575 0,6.7708 -1.1719,11.637 -3.5156,14.6 -1.9369,2.4414 -4.6387,3.6621 -8.1055,3.6621 -3.4831,0 -6.2907,-1.3387 -8.4228,-4.0161 -2.1322,-2.6774 -3.1983,-7.4504 -3.1983,-14.319 0,-6.7383 1.1719,-11.589 3.5157,-14.551 1.9368,-2.4414 4.6386,-3.6621 8.1054,-3.6621 z m 0,5.6885 c -0.8301,3e-5 -1.5706,0.26451 -2.2217,0.79345 -0.651,0.529 -1.1556,1.4771 -1.5136,2.8442 -0.472,1.7741 -0.708,4.7608 -0.708,8.96 0,4.1992 0.2115,7.0842 0.6347,8.6548 0.4232,1.5706 0.9562,2.6164 1.5992,3.1372 0.6428,0.52084 1.3793,0.78126 2.2094,0.78125 0.8301,10e-6 1.5706,-0.26448 2.2217,-0.79345 0.651,-0.52897 1.1556,-1.477 1.5137,-2.8442 0.472,-1.7578 0.708,-4.7363 0.708,-8.9356 0,-4.1992 -0.2116,-7.0841 -0.6348,-8.6548 -0.4232,-1.5706 -0.9562,-2.6204 -1.5991,-3.1494 -0.6429,-0.52894 -1.3794,-0.79342 -2.2095,-0.79345 z"
             inkscape:connector-curvature="0" />
        </g>
        <g
           id="text3308">
          <path
             id="path4547"
             d="m 1277.1,617.88 6.6406,-0.80566 c 0.2116,1.6927 0.7813,2.9867 1.709,3.8818 0.9278,0.89518 2.0508,1.3428 3.3692,1.3428 1.416,0 2.6082,-0.53711 3.5766,-1.6113 0.9684,-1.07419 1.4527,-2.5228 1.4527,-4.3457 0,-1.7252 -0.4639,-3.0924 -1.3916,-4.1016 -0.9278,-1.0091 -2.059,-1.5136 -3.3936,-1.5137 -0.8789,2e-5 -1.9287,0.17092 -3.1494,0.5127 l 0.7568,-5.5908 c 1.8555,0.0489 3.2715,-0.35398 4.2481,-1.2085 0.9765,-0.85447 1.4648,-1.9897 1.4648,-3.4058 0,-1.2044 -0.3581,-2.1647 -1.0742,-2.8809 -0.7162,-0.71612 -1.6683,-1.0742 -2.8564,-1.0742 -1.1719,3e-5 -2.1729,0.40693 -3.003,1.2207 -0.8301,0.81383 -1.3346,2.002 -1.5136,3.5644 l -6.3233,-1.0742 c 0.4395,-2.1647 1.1027,-3.894 1.9898,-5.188 0.887,-1.2939 2.124,-2.3112 3.7109,-3.0518 1.5869,-0.74052 3.3651,-1.1108 5.3345,-1.1108 3.3691,4e-5 6.0709,1.0743 8.1054,3.2227 1.6765,1.7578 2.5147,3.7435 2.5147,5.957 0,3.1413 -1.7172,5.6478 -5.1514,7.5195 2.0508,0.43947 3.6906,1.4242 4.9195,2.9541 1.2288,1.53 1.8432,3.3773 1.8432,5.542 0,3.1413 -1.1475,5.8187 -3.4424,8.0322 -2.2949,2.2135 -5.1513,3.3203 -8.5693,3.3203 -3.2389,-1e-5 -5.9245,-0.93181 -8.0566,-2.7954 -2.1322,-1.8636 -3.3692,-4.3009 -3.711,-7.312 z"
             inkscape:connector-curvature="0" />
          <path
             id="path4549"
             d="m 1316.8,591.44 c 3.4668,4e-5 6.1767,1.237 8.1299,3.7109 2.3274,2.9297 3.4911,7.7881 3.4912,14.575 -10e-5,6.7708 -1.1719,11.637 -3.5157,14.6 -1.9368,2.4414 -4.6386,3.6621 -8.1054,3.6621 -3.4831,-1e-5 -6.2907,-1.3387 -8.4229,-4.0161 -2.1321,-2.6774 -3.1982,-7.4504 -3.1982,-14.319 0,-6.7382 1.1719,-11.589 3.5156,-14.551 1.9368,-2.4414 4.6387,-3.6621 8.1055,-3.6621 z m 0,5.6885 c -0.8301,3e-5 -1.5707,0.26452 -2.2217,0.79346 -0.6511,0.529 -1.1556,1.4771 -1.5137,2.8442 -0.472,1.7741 -0.708,4.7608 -0.708,8.96 0,4.1992 0.2116,7.0842 0.6348,8.6548 0.4231,1.5706 0.9562,2.6164 1.5991,3.1372 0.6429,0.52084 1.3794,0.78125 2.2095,0.78125 0.83,0 1.5706,-0.26448 2.2217,-0.79346 0.651,-0.52896 1.1555,-1.477 1.5136,-2.8442 0.472,-1.7578 0.708,-4.7363 0.708,-8.9355 0,-4.1992 -0.2116,-7.0841 -0.6347,-8.6548 -0.4232,-1.5706 -0.9563,-2.6204 -1.5992,-3.1494 -0.6429,-0.52894 -1.3794,-0.79343 -2.2094,-0.79346 z"
             inkscape:connector-curvature="0" />
        </g>
        <g
           id="text3316">
          <path
             id="path4542"
             d="m 1272.7,859.13 h -6.8603 v -25.854 c -2.5065,2.3438 -5.4606,4.0772 -8.8623,5.2002 v -6.2256 c 1.7903,-0.58591 3.7353,-1.6968 5.8349,-3.3325 2.0996,-1.6357 3.5401,-3.5441 4.3213,-5.7251 h 5.5664 z"
             inkscape:connector-curvature="0" />
          <path
             id="path4544"
             d="m 1294.6,823.2 c 3.4668,3e-5 6.1768,1.237 8.1299,3.7109 2.3275,2.9297 3.4912,7.7881 3.4912,14.575 0,6.7708 -1.1719,11.637 -3.5156,14.6 -1.9369,2.4414 -4.6387,3.6621 -8.1055,3.6621 -3.4831,0 -6.2907,-1.3387 -8.4228,-4.0161 -2.1322,-2.6774 -3.1983,-7.4504 -3.1983,-14.319 0,-6.7383 1.1719,-11.589 3.5157,-14.551 1.9368,-2.4414 4.6386,-3.6621 8.1054,-3.6621 z m 0,5.6885 c -0.8301,4e-5 -1.5706,0.26452 -2.2217,0.79346 -0.651,0.529 -1.1556,1.4771 -1.5136,2.8442 -0.472,1.7741 -0.708,4.7608 -0.708,8.96 0,4.1992 0.2115,7.0842 0.6347,8.6548 0.4232,1.5706 0.9562,2.6164 1.5992,3.1372 0.6428,0.52084 1.3793,0.78126 2.2094,0.78125 0.8301,1e-5 1.5706,-0.26448 2.2217,-0.79345 0.651,-0.52897 1.1556,-1.477 1.5137,-2.8442 0.472,-1.7578 0.708,-4.7363 0.708,-8.9356 0,-4.1992 -0.2116,-7.0841 -0.6348,-8.6548 -0.4232,-1.5706 -0.9562,-2.6204 -1.5991,-3.1494 -0.6429,-0.52894 -1.3794,-0.79342 -2.2095,-0.79346 z"
             inkscape:connector-curvature="0" />
        </g>
      </g>
      <g
         id="g4461"
         transform="rotate(30.118481,1551.0508,754.10556)"
         style="fill:none;stroke:#3380ff">
        <path
           id="path4866"
           d="m 1884.6,683.77 41.464,-8.7921"
           inkscape:connector-curvature="0"
           style="stroke-width:10" />
        <path
           id="path4880"
           d="m 1324.5,1006.4 -28.378,31.485"
           inkscape:connector-curvature="0"
           style="stroke-width:10" />
        <path
           id="path4896"
           d="m 1267.1,960.9 -24.509,17.808"
           inkscape:connector-curvature="0"
           style="stroke-width:6" />
        <path
           id="path4375"
           d="m 1446.8,1077.4 -13.118,40.305"
           inkscape:connector-curvature="0"
           style="stroke-width:10" />
        <path
           id="path4377"
           d="m 1375.7,1059 -15.164,26.228"
           inkscape:connector-curvature="0"
           style="stroke-width:6" />
        <path
           id="path4423"
           d="m 1241.5,892.09 -38.731,17.22"
           inkscape:connector-curvature="0"
           style="stroke-width:10" />
        <path
           id="path4425"
           d="m 1207.6,827.16 -29.634,6.2999"
           inkscape:connector-curvature="0"
           style="stroke-width:6" />
        <path
           id="path4427"
           d="m 1212.2,753.86 -42.386,-0.0217"
           inkscape:connector-curvature="0"
           style="stroke-width:10" />
        <path
           id="path4429"
           d="m 1207.7,680.77 -29.634,-6.2978"
           inkscape:connector-curvature="0"
           style="stroke-width:6" />
        <path
           id="path4431"
           d="M 1241.6,615.66 1202.887,598.4"
           inkscape:connector-curvature="0"
           style="stroke-width:10" />
        <path
           id="path4433"
           d="m 1267.2,547.04 -24.51,-17.807"
           inkscape:connector-curvature="0"
           style="stroke-width:6" />
        <path
           id="path4435"
           d="m 1324.7,501.38 -28.346,-31.514"
           inkscape:connector-curvature="0"
           style="stroke-width:10" />
        <path
           id="path4437"
           d="m 1376,449.11 -15.149,-26.236"
           inkscape:connector-curvature="0"
           style="stroke-width:6" />
        <path
           id="path4439"
           d="m 1447.1,430.79 -13.078,-40.318"
           inkscape:connector-curvature="0"
           style="stroke-width:10" />
        <path
           id="path4441"
           d="m 1515.3,403.9 -3.1679,-30.13"
           inkscape:connector-curvature="0"
           style="stroke-width:6" />
        <path
           id="path4443"
           d="m 1587.7,416.08 4.4521,-42.152"
           inkscape:connector-curvature="0"
           style="stroke-width:10" />
        <path
           id="path4445"
           d="m 1660.8,419.23 9.3608,-28.813"
           inkscape:connector-curvature="0"
           style="stroke-width:6" />
        <path
           id="path4447"
           d="m 1722,459.81 21.212,-36.697"
           inkscape:connector-curvature="0"
           style="stroke-width:10" />
        <path
           id="path4449"
           d="m 1787.6,492.44 20.271,-22.515"
           inkscape:connector-curvature="0"
           style="stroke-width:6" />
        <path
           id="path4451"
           d="m 1827,554.42 34.304,-24.897"
           inkscape:connector-curvature="0"
           style="stroke-width:10" />
        <path
           id="path4453"
           d="m 1873.6,610.89 27.676,-12.324"
           inkscape:connector-curvature="0"
           style="stroke-width:6" />
        <path
           id="path4455"
           d="m 1904,754.09 30.296,-10e-4"
           inkscape:connector-curvature="0"
           style="stroke-width:6" />
        <path
           id="path4457"
           d="m 1884.4,824.84 41.456,8.8338"
           inkscape:connector-curvature="0"
           style="stroke-width:10" />
      </g>
    </g>
  </g>
  <g
     id="g5028"
     style="fill:#3380ff"
     transform="translate(-1095.4752,-300.057)">
    <g
       id="g4846"
       style="filter:url(#filter5024)">
      <path
         id="path4848"
         d="m 1521.9,1009.8 h 3.7939 v 2.124 c 1.3575,-1.6504 2.9737,-2.4756 4.8487,-2.4756 0.9961,0 1.8603,0.2051 2.5928,0.6153 0.7324,0.4101 1.3329,1.0303 1.8017,1.8603 0.6836,-0.83 1.4209,-1.4502 2.2119,-1.8603 0.791,-0.4102 1.6357,-0.6153 2.5342,-0.6153 1.1426,0 2.1094,0.232 2.9004,0.6958 0.791,0.4639 1.3818,1.1451 1.7725,2.0435 0.2831,0.6641 0.4247,1.7383 0.4248,3.2226 v 9.9463 h -4.1162 v -8.8916 c -10e-5,-1.5429 -0.1417,-2.539 -0.4249,-2.9883 -0.3808,-0.5859 -0.9668,-0.8788 -1.7578,-0.8789 -0.5762,10e-5 -1.1181,0.1758 -1.6259,0.5274 -0.5079,0.3516 -0.8741,0.8667 -1.0987,1.5454 -0.2246,0.6787 -0.3369,1.7505 -0.3369,3.2153 v 7.4707 h -4.1162 v -8.5254 c 0,-1.5136 -0.073,-2.4902 -0.2197,-2.9296 -0.1465,-0.4395 -0.3736,-0.7666 -0.6812,-0.9815 -0.3076,-0.2148 -0.7251,-0.3222 -1.2524,-0.3223 -0.6348,10e-5 -1.2061,0.171 -1.7139,0.5127 -0.5078,0.3418 -0.8716,0.835 -1.0913,1.4795 -0.2197,0.6446 -0.3296,1.7139 -0.3296,3.208 v 7.5586 H 1521.9 Z"
         inkscape:connector-curvature="0" />
      <path
         id="path4850"
         d="m 1548.8,1009.8 h 3.8379 v 2.2851 c 0.498,-0.7812 1.1718,-1.416 2.0215,-1.9042 0.8496,-0.4883 1.7919,-0.7325 2.8271,-0.7325 1.8066,0 3.3398,0.7081 4.5996,2.1241 1.2598,1.416 1.8897,3.3886 1.8897,5.9179 0,2.5977 -0.6348,4.6167 -1.9043,6.0572 -1.2696,1.4404 -2.8077,2.1606 -4.6143,2.1606 -0.8594,0 -1.6382,-0.1709 -2.3364,-0.5127 -0.6983,-0.3418 -1.4331,-0.9277 -2.2046,-1.7578 v 7.8369 H 1548.8 Z m 4.0723,7.5146 c -10e-5,1.7481 0.3466,3.0396 1.04,3.8746 0.6933,0.8349 1.5381,1.2524 2.5342,1.2524 0.957,0 1.7529,-0.3833 2.3877,-1.1499 0.6347,-0.7666 0.9521,-2.0239 0.9521,-3.772 0,-1.6308 -0.3271,-2.8418 -0.9814,-3.6328 -0.6543,-0.791 -1.4649,-1.1865 -2.4317,-1.1865 -1.0058,0 -1.8408,0.3882 -2.5049,1.1645 -0.664,0.7764 -0.9961,1.9263 -0.996,3.4497 z"
         inkscape:connector-curvature="0" />
      <path
         id="path4852"
         d="m 1571.3,1003.8 v 7.8955 c 1.3281,-1.5527 2.915,-2.3291 4.7607,-2.3291 0.9473,0 1.8018,0.1758 2.5635,0.5274 0.7617,0.3516 1.3354,0.8008 1.7212,1.3476 0.3857,0.5469 0.6494,1.1524 0.791,1.8164 0.1416,0.6641 0.2124,1.6944 0.2124,3.0909 v 9.1259 h -4.1162 v -8.2177 c 0,-1.6309 -0.078,-2.666 -0.2344,-3.1055 -0.1562,-0.4395 -0.4321,-0.7886 -0.8276,-1.0474 -0.3955,-0.2587 -0.8911,-0.3881 -1.4868,-0.3882 -0.6836,10e-5 -1.294,0.1661 -1.8311,0.4981 -0.5371,0.332 -0.9302,0.8325 -1.1792,1.5015 -0.249,0.6689 -0.3735,1.6577 -0.3735,2.9663 v 7.7929 h -4.1162 v -21.475 z"
         inkscape:connector-curvature="0" />
    </g>
    <g
       id="text4833">
      <path
         id="path4840"
         d="m 1521.9,1009.8 h 3.7939 v 2.124 c 1.3575,-1.6504 2.9737,-2.4756 4.8487,-2.4756 0.9961,0 1.8603,0.2051 2.5928,0.6153 0.7324,0.4101 1.3329,1.0303 1.8017,1.8603 0.6836,-0.83 1.4209,-1.4502 2.2119,-1.8603 0.791,-0.4102 1.6357,-0.6153 2.5342,-0.6153 1.1426,0 2.1094,0.232 2.9004,0.6958 0.791,0.4639 1.3818,1.1451 1.7725,2.0435 0.2831,0.6641 0.4247,1.7383 0.4248,3.2226 v 9.9463 h -4.1162 v -8.8916 c -10e-5,-1.5429 -0.1417,-2.539 -0.4249,-2.9883 -0.3808,-0.5859 -0.9668,-0.8788 -1.7578,-0.8789 -0.5762,10e-5 -1.1181,0.1758 -1.6259,0.5274 -0.5079,0.3516 -0.8741,0.8667 -1.0987,1.5454 -0.2246,0.6787 -0.3369,1.7505 -0.3369,3.2153 v 7.4707 h -4.1162 v -8.5254 c 0,-1.5136 -0.073,-2.4902 -0.2197,-2.9296 -0.1465,-0.4395 -0.3736,-0.7666 -0.6812,-0.9815 -0.3076,-0.2148 -0.7251,-0.3222 -1.2524,-0.3223 -0.6348,10e-5 -1.2061,0.171 -1.7139,0.5127 -0.5078,0.3418 -0.8716,0.835 -1.0913,1.4795 -0.2197,0.6446 -0.3296,1.7139 -0.3296,3.208 v 7.5586 H 1521.9 Z"
         inkscape:connector-curvature="0" />
      <path
         id="path4842"
         d="m 1548.8,1009.8 h 3.8379 v 2.2851 c 0.498,-0.7812 1.1718,-1.416 2.0215,-1.9042 0.8496,-0.4883 1.7919,-0.7325 2.8271,-0.7325 1.8066,0 3.3398,0.7081 4.5996,2.1241 1.2598,1.416 1.8897,3.3886 1.8897,5.9179 0,2.5977 -0.6348,4.6167 -1.9043,6.0572 -1.2696,1.4404 -2.8077,2.1606 -4.6143,2.1606 -0.8594,0 -1.6382,-0.1709 -2.3364,-0.5127 -0.6983,-0.3418 -1.4331,-0.9277 -2.2046,-1.7578 v 7.8369 H 1548.8 Z m 4.0723,7.5146 c -10e-5,1.7481 0.3466,3.0396 1.04,3.8746 0.6933,0.8349 1.5381,1.2524 2.5342,1.2524 0.957,0 1.7529,-0.3833 2.3877,-1.1499 0.6347,-0.7666 0.9521,-2.0239 0.9521,-3.772 0,-1.6308 -0.3271,-2.8418 -0.9814,-3.6328 -0.6543,-0.791 -1.4649,-1.1865 -2.4317,-1.1865 -1.0058,0 -1.8408,0.3882 -2.5049,1.1645 -0.664,0.7764 -0.9961,1.9263 -0.996,3.4497 z"
         inkscape:connector-curvature="0" />
      <path
         id="path4844"
         d="m 1571.3,1003.8 v 7.8955 c 1.3281,-1.5527 2.915,-2.3291 4.7607,-2.3291 0.9473,0 1.8018,0.1758 2.5635,0.5274 0.7617,0.3516 1.3354,0.8008 1.7212,1.3476 0.3857,0.5469 0.6494,1.1524 0.791,1.8164 0.1416,0.6641 0.2124,1.6944 0.2124,3.0909 v 9.1259 h -4.1162 v -8.2177 c 0,-1.6309 -0.078,-2.666 -0.2344,-3.1055 -0.1562,-0.4395 -0.4321,-0.7886 -0.8276,-1.0474 -0.3955,-0.2587 -0.8911,-0.3881 -1.4868,-0.3882 -0.6836,10e-5 -1.294,0.1661 -1.8311,0.4981 -0.5371,0.332 -0.9302,0.8325 -1.1792,1.5015 -0.249,0.6689 -0.3735,1.6577 -0.3735,2.9663 v 7.7929 h -4.1162 v -21.475 z"
         inkscape:connector-curvature="0" />
    </g>
  </g>
  <path
     id="path5004"
     d="m 460.0248,466.513 -11.766,-17.578 284.04,-184.1 c 6.2068,-3.1421 11.579,5.5235 6.2033,9.2682 z"
     inkscape:connector-curvature="0"
     style="opacity:0" />
  <path
     style="fill:url(#radialGradient5912)"
     inkscape:connector-curvature="0"
     d="m 456.1718,0 c -250.72,0 -453.97,203.25 -453.97,453.97 0,250.72 203.25,453.94 453.97,453.94 250.72,0 453.97,-203.22 453.97,-453.94 C 910.1418,203.25 706.8918,0 456.1718,0 Z m 0,37.406 c 230.05,0 416.56,186.51 416.56,416.56 0,230.05 -186.51,416.53 -416.56,416.53 -230.05,0 -416.53,-186.48 -416.53,-416.53 0,-230.05 186.48,-416.56 416.53,-416.56 z"
     id="path5606" />
  <metadata
     id="metadata325">
    <rdf:RDF>
      <cc:Work>
        <dc:format>image/svg+xml</dc:format>
        <dc:type
           rdf:resource="http://purl.org/dc/dcmitype/StillImage" />
        <cc:license
           rdf:resource="http://creativecommons.org/publicdomain/zero/1.0/" />
        <dc:publisher>
          <cc:Agent
             rdf:about="http://openclipart.org/">
            <dc:title>Openclipart</dc:title>
          </cc:Agent>
        </dc:publisher>
        <dc:title></dc:title>
        <dc:date>2013-09-08T16:49:44</dc:date>
        <dc:description>A pair of meters - km/h and mph.</dc:description>
        <dc:source>https://openclipart.org/detail/183217/speedometers-by-gustavorezende-183217</dc:source>
        <dc:creator>
          <cc:Agent>
            <dc:title>gustavorezende</dc:title>
          </cc:Agent>
        </dc:creator>
        <dc:subject>
          <rdf:Bag>
            <rdf:li>car</rdf:li>
            <rdf:li>fast</rdf:li>
            <rdf:li>gauge</rdf:li>
            <rdf:li>measurement</rdf:li>
            <rdf:li>pointer</rdf:li>
            <rdf:li>speedometers</rdf:li>
            <rdf:li>tool</rdf:li>
            <rdf:li>vehicle</rdf:li>
            <rdf:li>velocity</rdf:li>
          </rdf:Bag>
        </dc:subject>
      </cc:Work>
      <cc:License
         rdf:about="http://creativecommons.org/publicdomain/zero/1.0/">
        <cc:permits
           rdf:resource="http://creativecommons.org/ns#Reproduction" />
        <cc:permits
           rdf:resource="http://creativecommons.org/ns#Distribution" />
        <cc:permits
           rdf:resource="http://creativecommons.org/ns#DerivativeWorks" />
      </cc:License>
    </rdf:RDF>
  </metadata>
</svg>
