<svg id="Layer_1" data-name="Layer 1" xmlns="http://www.w3.org/2000/svg" width="128" height="128" viewBox="0 0 128 128">
  <title>190429_GR-19-050601_Battery_low_Icon</title>
  <path d="M90.5,94.5v11.7a5.6,5.6,0,0,1-5.7,5.4H44.2a5.6,5.6,0,0,1-5.7-5.4V64.3a.8.8,0,0,1,.1-.4h-.1V22.6a2.6,2.6,0,0,1,2.7-2.5H87.8a2.6,2.6,0,0,1,2.7,2.5V63.9h-.1a.8.8,0,0,1,.1.4V94.5ZM87.8,16.6H75.6V9.5H53.4v7.1H41.2a6.2,6.2,0,0,0-6.4,6v86.2a6.2,6.2,0,0,0,6.4,6H87.8a6.2,6.2,0,0,0,6.4-6V22.6a6.2,6.2,0,0,0-6.4-6Z"/>
</svg>
