<svg id="Layer_1" data-name="Layer 1" xmlns="http://www.w3.org/2000/svg" width="128" height="128" viewBox="0 0 128 128">
  <defs>
    <style>
      .cls-1 {
        fill: #b3332f;
      }

      .cls-2 {
        fill: #d8ab3d;
      }
    </style>
  </defs>
  <title>190429_GR-19-050601_Battery_Charge_Icon</title>
  <g>
    <path d="M89.6,96.1v12.4a5.6,5.6,0,0,1-5.7,5.6H43.6a5.7,5.7,0,0,1-5.7-5.6V64.4c0-.2,0-.3.1-.4h-.1V20.5a2.7,2.7,0,0,1,2.7-2.7H86.9a2.7,2.7,0,0,1,2.7,2.7V64h0V96.1Zm-2.7-82H74.8V6.8H52.7v7.3H40.6a6.4,6.4,0,0,0-6.4,6.4v90.6a6.4,6.4,0,0,0,6.4,6.4H86.9a6.4,6.4,0,0,0,6.4-6.4V20.5a6.4,6.4,0,0,0-6.4-6.4Z"/>
    <path class="cls-1" d="M39.8,90.4v19.1a2.2,2.2,0,0,0,2.2,2.2H85.5a2.2,2.2,0,0,0,2.2-2.2V90.4Z"/>
    <polygon class="cls-2" points="67.3 33 49.6 61.6 67.3 55.7 49.6 85.2 81.2 46.8 60.8 52.2 67.3 33 67.3 33"/>
  </g>
</svg>
