<svg id="Layer_1" data-name="Layer 1" xmlns="http://www.w3.org/2000/svg" width="128" height="128" viewBox="0 0 128 128">
  <defs>
    <style>
      .cls-1 {
        fill: #a6aa44;
      }
    </style>
  </defs>
  <title>190429_GR-19-050601_Battery_Icon</title>
  <g>
    <path d="M89.6,95.9v12.3a5.6,5.6,0,0,1-5.6,5.7H43.6a5.7,5.7,0,0,1-5.7-5.7V64.1a.6.6,0,0,1,.1-.4h-.1V20.2a2.7,2.7,0,0,1,2.7-2.7H86.9a2.7,2.7,0,0,1,2.7,2.7V63.7h0V95.9ZM86.9,13.8h-12V6.4H52.7v7.4H40.6a6.4,6.4,0,0,0-6.4,6.4v90.7a6.4,6.4,0,0,0,6.4,6.4H86.9a6.4,6.4,0,0,0,6.4-6.4V20.2a6.4,6.4,0,0,0-6.4-6.4Z"/>
    <path class="cls-1" d="M87.7,45.4V21.9a2.1,2.1,0,0,0-2.1-2.2H42a2.2,2.2,0,0,0-2.2,2.2V45.4Z"/>
    <polygon class="cls-1" points="39.8 48 39.8 66.5 87.7 66.5 87.7 48 39.8 48 39.8 48"/>
    <polygon class="cls-1" points="87.7 87.6 87.7 69.1 39.8 69.1 39.8 87.6 87.7 87.6 87.7 87.6"/>
    <path class="cls-1" d="M39.8,90.2v19.1a2.2,2.2,0,0,0,2.2,2.2H85.6a2.1,2.1,0,0,0,2.1-2.2V90.2Z"/>
  </g>
</svg>
