<svg id="Layer_1" data-name="Layer 1" xmlns="http://www.w3.org/2000/svg" width="128" height="128" viewBox="0 0 128 128">
  <defs>
    <style>
      .cls-1 {
        fill: #b3332f;
      }

      .cls-2 {
        fill: #cb2026;
      }
    </style>
  </defs>
  <title>190429_GR-19-050601_Battery_low_Icon</title>
  <g>
    <path d="M90.2,96.6v12.5a5.8,5.8,0,0,1-5.8,5.8H43.5a5.8,5.8,0,0,1-5.8-5.8V64.4c0-.2.1-.3.1-.4h-.1V19.9a2.8,2.8,0,0,1,2.8-2.7H87.4a2.8,2.8,0,0,1,2.8,2.7V64h-.1c0,.1.1.2.1.4V96.6ZM87.4,13.4H75.2V5.9H52.7v7.5H40.5A6.5,6.5,0,0,0,34,19.9v91.9a6.5,6.5,0,0,0,6.5,6.5H87.4a6.5,6.5,0,0,0,6.5-6.5V19.9a6.5,6.5,0,0,0-6.5-6.5Z"/>
    <path class="cls-1" d="M39.7,90.8v19.4a2.2,2.2,0,0,0,2.2,2.2H86a2.2,2.2,0,0,0,2.2-2.2V90.8Z"/>
    <path class="cls-2" d="M68.5,33.9c0,.4-.3,3.6-.8,9.7L65.4,67.9c-.1,1.1-.5,1.6-1.3,1.6s-1.3-.5-1.4-1.6L60.2,43.6c-.5-5-.7-8.3-.7-9.7,0-4.6,1.5-7,4.7-7s4.2,2.3,4.2,6.9Zm.2,45.3a4.5,4.5,0,0,1-1.5,3.4A4.9,4.9,0,0,1,63.8,84a4.5,4.5,0,0,1-3.2-1.4,4.1,4.1,0,0,1-1.4-3.2A4.6,4.6,0,0,1,60.6,76a5,5,0,0,1,3.5-1.4A4.5,4.5,0,0,1,67.4,76a4.1,4.1,0,0,1,1.3,3.2Z"/>
  </g>
</svg>
