<svg id="Layer_1" data-name="Layer 1" xmlns="http://www.w3.org/2000/svg" width="128" height="128" viewBox="0 0 128 128">
  <defs>
    <style>
      .cls-1 {
        fill: #214190;
      }

      .cls-2 {
        fill: #fff;
      }
    </style>
  </defs>
  <title>190429_GR-19-050601_Bluetooth</title>
  <g>
    <path class="cls-1" d="M64.5,121.4h0A32.2,32.2,0,0,1,32.3,89.2V39.3A32.3,32.3,0,0,1,64.5,7h0A32.3,32.3,0,0,1,96.7,39.3V89.2a32.2,32.2,0,0,1-32.2,32.2Z"/>
    <path class="cls-2" d="M75.3,43.5l-7.6,8.2V36l7.6,7.5ZM67.7,89V73.3l7.6,7.5L67.7,89ZM88.2,43.3,58.4,17V50.8L45.1,37.4,38.5,44,57.3,62.8,38.5,81.6l6.6,6.6L58.4,74.8v35.4L88.2,80.6,70.3,62.7,88.2,43.3Z"/>
  </g>
</svg>
