<svg id="Layer_1" data-name="Layer 1" xmlns="http://www.w3.org/2000/svg" xmlns:xlink="http://www.w3.org/1999/xlink" width="128" height="128" viewBox="0 0 128 128">
  <defs>
    <style>
      .cls-1 {
        fill: none;
      }

      .cls-2 {
        clip-path: url(#clip-path);
      }

      .cls-3 {
        fill: #d8d7d5;
      }

      .cls-4 {
        fill: #b3332f;
      }
    </style>
    <clipPath id="clip-path">
      <rect class="cls-1" x="10.3" y="10.1" width="108.4" height="108.2"/>
    </clipPath>
  </defs>
  <title>190429_GR-19-050601_Brightness_High</title>
  <g>
    <g class="cls-2">
      <path class="cls-3" d="M33.1,64.2A31.4,31.4,0,0,1,64.8,32.8c17.1,0,31.1,14.2,31.1,31.5a31.4,31.4,0,1,1-62.8-.1Z"/>
      <path class="cls-4" d="M62.1,24.6c0-4.1-.1-8,0-12a2.3,2.3,0,0,1,2.4-2.5,2.2,2.2,0,0,1,2.3,2.2c.1,4.1.1,8.2.1,12.3Z"/>
      <path class="cls-4" d="M62.1,103.8h4.7c0,.4.1.8.1,1.1v10.6c0,1.9-.9,2.9-2.4,2.8s-2.4-.9-2.4-2.7c-.1-3.9,0-7.8,0-11.8Z"/>
    </g>
    <path class="cls-4" d="M38.1,34.5l-3.3,3.3-8.7-8.6a2.3,2.3,0,0,1,3.3-3.3l8.7,8.6Z"/>
    <path class="cls-4" d="M94.2,37.8,91,34.5c2.8-2.8,5.7-5.8,8.7-8.7a2.3,2.3,0,0,1,3.1,3.4c-2.8,2.9-5.7,5.8-8.6,8.6Z"/>
    <path class="cls-4" d="M34.8,90.7c1.1,1.1,2.2,2.1,3.2,3.2l-8.6,8.7a2.3,2.3,0,0,1-3.3-3.3l8.7-8.6Z"/>
    <path class="cls-4" d="M90.9,93.9l3.4-3.1,8.6,8.5a2.3,2.3,0,0,1-3.3,3.3l-8.7-8.7Z"/>
    <path class="cls-4" d="M50.9,27l-4.3,1.8c-1.4-3.1-2.7-6.2-4-9.3a17.6,17.6,0,0,1-.9-2,2.5,2.5,0,0,1,1.3-3,2.4,2.4,0,0,1,3,1.2c1.2,2.6,2.3,5.3,3.5,7.9.5,1.1.9,2.2,1.4,3.4Z"/>
    <path class="cls-4" d="M27.2,77.8l1.9,4.3-8.3,3.6a19.4,19.4,0,0,1-3,1.3,2.2,2.2,0,0,1-3-1.3,2.1,2.1,0,0,1,1-2.9l11.4-5Z"/>
    <path class="cls-4" d="M82.4,99.6l4.9,11.3a2.5,2.5,0,0,1-1.2,3,2.3,2.3,0,0,1-3.2-1.3q-2.4-5.4-4.8-11.1l4.3-1.9Z"/>
    <path class="cls-4" d="M101.8,50.7c-.7-1.5-1.3-2.9-1.9-4.4l8.3-3.6c1-.4,1.9-.9,2.9-1.2a2.4,2.4,0,0,1,3.1,1.1,2.3,2.3,0,0,1-1,3.1l-11.4,5Z"/>
    <path class="cls-4" d="M100.5,81c.5-1.5,1.1-2.8,1.7-4.4l2.2.9,8.8,3.5c1.6.6,2.2,1.9,1.6,3.2s-1.8,1.7-3.3,1.2l-11-4.4Z"/>
    <path class="cls-4" d="M26.8,51.9,15.2,47.2a2.3,2.3,0,0,1-1.1-2.9,2.4,2.4,0,0,1,2.8-1.4l11.7,4.6-1.8,4.4Z"/>
    <path class="cls-4" d="M47.7,100.2l4.4,1.7c-.8,2.2-1.7,4.5-2.6,6.7l-1.8,4.6a2.5,2.5,0,0,1-3.2,1.4,2.4,2.4,0,0,1-1.2-3.1c1.4-3.8,2.9-7.4,4.4-11.3Z"/>
    <g class="cls-2">
      <path class="cls-4" d="M81.3,28.3l-4.4-1.7c.5-1.4,1-2.8,1.6-4.2s1.8-4.7,2.8-7a2.3,2.3,0,0,1,3.1-1.5A2.3,2.3,0,0,1,85.7,17c-1.4,3.7-2.9,7.4-4.4,11.3Z"/>
      <path class="cls-4" d="M24.9,61.9v4.6H13.1c-1.7,0-2.8-1-2.8-2.4A2.4,2.4,0,0,1,13,61.9Z"/>
      <path class="cls-4" d="M104.1,66.6V62.1l.8-.2h11c1.7,0,2.8,1,2.8,2.4s-1.1,2.2-2.7,2.3Z"/>
    </g>
  </g>
</svg>
