<svg id="Layer_1" data-name="Layer 1" xmlns="http://www.w3.org/2000/svg" width="128" height="128" viewBox="0 0 128 128">
  <defs>
    <style>
      .cls-1 {
        fill: #b0aeab;
      }

      .cls-2 {
        fill: #b3332f;
      }
    </style>
  </defs>
  <title>190429_GR-19-050601_Brightness_low</title>
  <g>
    <path class="cls-1" d="M35.7,64.2A28.8,28.8,0,1,1,64.3,93.1,28.8,28.8,0,0,1,35.7,64.2Z"/>
    <path class="cls-2" d="M62.3,27.8c0-3.7-.1-7.4,0-11a2.1,2.1,0,0,1,2.2-2.3,2.1,2.1,0,0,1,2.2,2V27.8Z"/>
    <path class="cls-2" d="M62.3,100.6h4.3c0,.4.1.7.1,1v9.7c0,1.8-.8,2.7-2.2,2.7a2.3,2.3,0,0,1-2.2-2.6c-.1-3.5,0-7.1,0-10.8Z"/>
    <path class="cls-2" d="M28.1,62.1v4.2H17.3c-1.6,0-2.6-.9-2.6-2.2s1-2.1,2.5-2.1Z"/>
    <path class="cls-2" d="M100.9,66.4V62.2h10.8c1.6,0,2.6.9,2.6,2.2a2.2,2.2,0,0,1-2.5,2.1Z"/>
  </g>
</svg>
