<svg id="Layer_1" data-name="Layer 1" xmlns="http://www.w3.org/2000/svg" xmlns:xlink="http://www.w3.org/1999/xlink" width="128" height="128" viewBox="0 0 128 128">
  <defs>
    <style>
      .cls-1 {
        fill: none;
      }

      .cls-2 {
        clip-path: url(#clip-path);
      }

      .cls-3 {
        fill: #b0aeab;
      }

      .cls-4 {
        fill: #565657;
      }

      .cls-5 {
        fill: #5b5e6e;
      }

      .cls-6 {
        fill: #b3332f;
      }

      .cls-7 {
        fill: #8f96ac;
      }

      .cls-8 {
        fill: #d8deec;
      }

      .cls-9 {
        fill: #c8d0e2;
      }
    </style>
    <clipPath id="clip-path">
      <rect class="cls-1" x="16.9" y="4.3" width="95.2" height="119.98"/>
    </clipPath>
  </defs>
  <title>190429_GR-19-050601_calculator_Icon</title>
  <g>
    <g class="cls-2">
      <path class="cls-3" d="M107.9,124.2H21.1a4.1,4.1,0,0,1-4.2-4.1V8.4a4.1,4.1,0,0,1,4.2-4.1h86.8a4.1,4.1,0,0,1,4.2,4.1V120.1a4.1,4.1,0,0,1-4.2,4.1Z"/>
      <path class="cls-4" d="M112.1,45.6H16.9V8.4a4.1,4.1,0,0,1,4.2-4.1h86.8a4.1,4.1,0,0,1,4.2,4.1V45.6Z"/>
    </g>
    <path class="cls-5" d="M35.5,66.3H27.3a2.1,2.1,0,0,1-2.1-2.1V56a2.1,2.1,0,0,1,2.1-2.1h8.2A2.1,2.1,0,0,1,37.6,56v8.2a2.1,2.1,0,0,1-2.1,2.1Z"/>
    <path class="cls-5" d="M35.5,99.4H27.3a2.1,2.1,0,0,1-2.1-2.1V89.1A2.1,2.1,0,0,1,27.3,87h8.2a2.1,2.1,0,0,1,2.1,2.1v8.2a2.1,2.1,0,0,1-2.1,2.1Z"/>
    <path class="cls-5" d="M35.5,82.9H27.3a2.1,2.1,0,0,1-2.1-2.1V72.5a2.1,2.1,0,0,1,2.1-2.1h8.2a2.1,2.1,0,0,1,2.1,2.1v8.3a2.1,2.1,0,0,1-2.1,2.1Z"/>
    <path class="cls-6" d="M35.5,116H27.3a2.1,2.1,0,0,1-2.1-2.1v-8.3a2.1,2.1,0,0,1,2.1-2.1h8.2a2.1,2.1,0,0,1,2.1,2.1v8.3a2.1,2.1,0,0,1-2.1,2.1Z"/>
    <path class="cls-7" d="M52.1,66.3H43.8a2.1,2.1,0,0,1-2.1-2.1V56a2.1,2.1,0,0,1,2.1-2.1h8.3A2.1,2.1,0,0,1,54.2,56v8.2a2.1,2.1,0,0,1-2.1,2.1Z"/>
    <path class="cls-7" d="M52.1,99.4H43.8a2.1,2.1,0,0,1-2.1-2.1V89.1A2.1,2.1,0,0,1,43.8,87h8.3a2.1,2.1,0,0,1,2.1,2.1v8.2a2.1,2.1,0,0,1-2.1,2.1Z"/>
    <path class="cls-7" d="M52.1,82.9H43.8a2.2,2.2,0,0,1-2.1-2.1V72.5a2.2,2.2,0,0,1,2.1-2.1h8.3a2.2,2.2,0,0,1,2.1,2.1v8.3a2.2,2.2,0,0,1-2.1,2.1Z"/>
    <path class="cls-7" d="M52.1,116H43.8a2.2,2.2,0,0,1-2.1-2.1v-8.3a2.2,2.2,0,0,1,2.1-2.1h8.3a2.2,2.2,0,0,1,2.1,2.1v8.3a2.2,2.2,0,0,1-2.1,2.1Z"/>
    <path class="cls-7" d="M68.6,66.3H60.4a2.1,2.1,0,0,1-2.1-2.1V56a2.1,2.1,0,0,1,2.1-2.1h8.2A2.1,2.1,0,0,1,70.7,56v8.2a2.1,2.1,0,0,1-2.1,2.1Z"/>
    <path class="cls-7" d="M68.6,99.4H60.4a2.1,2.1,0,0,1-2.1-2.1V89.1A2.1,2.1,0,0,1,60.4,87h8.2a2.1,2.1,0,0,1,2.1,2.1v8.2a2.1,2.1,0,0,1-2.1,2.1Z"/>
    <path class="cls-7" d="M68.6,82.9H60.4a2.1,2.1,0,0,1-2.1-2.1V72.5a2.1,2.1,0,0,1,2.1-2.1h8.2a2.1,2.1,0,0,1,2.1,2.1v8.3a2.1,2.1,0,0,1-2.1,2.1Z"/>
    <path class="cls-7" d="M68.6,116H60.4a2.1,2.1,0,0,1-2.1-2.1v-8.3a2.1,2.1,0,0,1,2.1-2.1h8.2a2.1,2.1,0,0,1,2.1,2.1v8.3a2.1,2.1,0,0,1-2.1,2.1Z"/>
    <path class="cls-7" d="M85.2,66.3H76.9a2.1,2.1,0,0,1-2.1-2.1V56a2.1,2.1,0,0,1,2.1-2.1h8.3A2.1,2.1,0,0,1,87.3,56v8.2a2.1,2.1,0,0,1-2.1,2.1Z"/>
    <path class="cls-7" d="M85.2,99.4H76.9a2.1,2.1,0,0,1-2.1-2.1V89.1A2.1,2.1,0,0,1,76.9,87h8.3a2.1,2.1,0,0,1,2.1,2.1v8.2a2.1,2.1,0,0,1-2.1,2.1Z"/>
    <path class="cls-7" d="M85.2,82.9H76.9a2.2,2.2,0,0,1-2.1-2.1V72.5a2.2,2.2,0,0,1,2.1-2.1h8.3a2.2,2.2,0,0,1,2.1,2.1v8.3a2.2,2.2,0,0,1-2.1,2.1Z"/>
    <path d="M85.2,116H76.9a2.2,2.2,0,0,1-2.1-2.1v-8.3a2.2,2.2,0,0,1,2.1-2.1h8.3a2.2,2.2,0,0,1,2.1,2.1v8.3a2.2,2.2,0,0,1-2.1,2.1Z"/>
    <path d="M101.7,66.3H93.5a2.1,2.1,0,0,1-2.1-2.1V56a2.1,2.1,0,0,1,2.1-2.1h8.2a2.1,2.1,0,0,1,2.1,2.1v8.2a2.1,2.1,0,0,1-2.1,2.1Z"/>
    <path d="M101.7,82.9H93.5a2.1,2.1,0,0,1-2.1-2.1V72.5a2.1,2.1,0,0,1,2.1-2.1h8.2a2.1,2.1,0,0,1,2.1,2.1v8.3a2.1,2.1,0,0,1-2.1,2.1Z"/>
    <path d="M101.7,116H93.5a2.1,2.1,0,0,1-2.1-2.1V89.1A2.1,2.1,0,0,1,93.5,87h8.2a2.1,2.1,0,0,1,2.1,2.1v24.8a2.1,2.1,0,0,1-2.1,2.1Z"/>
    <path class="cls-8" d="M101.7,33.2H27.3a2.1,2.1,0,0,1-2.1-2.1V14.6a2.1,2.1,0,0,1,2.1-2.1h74.4a2.1,2.1,0,0,1,2.1,2.1V31.1a2.1,2.1,0,0,1-2.1,2.1Z"/>
    <path class="cls-9" d="M35.5,29.1H31.4A2.2,2.2,0,0,1,29.3,27V18.7a2.1,2.1,0,0,1,2.1-2h4.1a2,2,0,0,1,2.1,2V27a2.1,2.1,0,0,1-2.1,2.1Z"/>
    <path class="cls-9" d="M48,29.1H43.8A2.2,2.2,0,0,1,41.7,27V18.7a2.1,2.1,0,0,1,2.1-2H48a2,2,0,0,1,2,2V27a2.1,2.1,0,0,1-2,2.1Z"/>
    <path class="cls-9" d="M60.4,29.1H56.2a2.1,2.1,0,0,1-2-2.1V18.7a2,2,0,0,1,2-2h4.2a2,2,0,0,1,2,2V27a2.1,2.1,0,0,1-2,2.1Z"/>
    <path class="cls-9" d="M72.8,29.1H68.6a2.1,2.1,0,0,1-2-2.1V18.7a2,2,0,0,1,2-2h4.2a2,2,0,0,1,2,2V27a2.1,2.1,0,0,1-2,2.1Z"/>
    <path class="cls-7" d="M85.2,29.1H81A2.1,2.1,0,0,1,79,27V18.7a2,2,0,0,1,2-2h4.2a2.1,2.1,0,0,1,2.1,2V27a2.2,2.2,0,0,1-2.1,2.1Z"/>
    <g class="cls-2">
      <path class="cls-7" d="M97.6,29.1H93.5A2.1,2.1,0,0,1,91.4,27V18.7a2,2,0,0,1,2.1-2h4.1a2.1,2.1,0,0,1,2.1,2V27a2.2,2.2,0,0,1-2.1,2.1Z"/>
      <polygon points="16.9 39.4 112.1 39.4 112.1 45.6 16.9 45.6 16.9 39.4 16.9 39.4"/>
    </g>
  </g>
</svg>
