<svg id="Layer_1" data-name="Layer 1" xmlns="http://www.w3.org/2000/svg" xmlns:xlink="http://www.w3.org/1999/xlink" width="128" height="128" viewBox="0 0 128 128">
  <defs>
    <style>
      .cls-1 {
        fill: none;
      }

      .cls-2 {
        clip-path: url(#clip-path);
      }

      .cls-3 {
        fill: #565657;
      }

      .cls-4 {
        fill: #b3332f;
      }

      .cls-5 {
        fill: #b0aeab;
      }
    </style>
    <clipPath id="clip-path">
      <rect class="cls-1" x="10.8" y="9.7" width="107.5" height="109.06"/>
    </clipPath>
  </defs>
  <title>190429_GR-19-050601_Calendar_Icon</title>
  <g>
    <g class="cls-2">
      <path class="cls-3" d="M91.3,32.7a7.5,7.5,0,0,0,7.5-7.5V17.3a7.6,7.6,0,1,0-15.1,0v7.9a7.5,7.5,0,0,0,7.6,7.5Z"/>
      <path class="cls-4" d="M110.6,111.1H18.4V49.7h92.2v61.4Zm7.5-88.3H102.9v3.8a11.5,11.5,0,1,1-23,0V22.8H49.2v3.8a11.6,11.6,0,1,1-23.1,0V22.8l-15.3-.2v96.2H118.2V22.8Z"/>
      <path class="cls-3" d="M37.5,32.7a7.5,7.5,0,0,0,7.6-7.5V17.3a7.6,7.6,0,0,0-7.6-7.6A7.5,7.5,0,0,0,30,17.3v7.9a7.4,7.4,0,0,0,7.5,7.5Z"/>
    </g>
    <polygon class="cls-5" points="49.2 57.9 61.3 57.9 61.3 68.6 49.2 68.6 49.2 57.9 49.2 57.9"/>
    <polygon class="cls-5" points="68.7 57.9 80.8 57.9 80.8 68.6 68.7 68.6 68.7 57.9 68.7 57.9"/>
    <polygon class="cls-5" points="86.9 57.9 99 57.9 99 68.6 86.9 68.6 86.9 57.9 86.9 57.9"/>
    <polygon class="cls-5" points="49.2 75.7 61.3 75.7 61.3 86.3 49.2 86.3 49.2 75.7 49.2 75.7"/>
    <polygon class="cls-3" points="68.7 75.7 80.8 75.7 80.8 86.3 68.7 86.3 68.7 75.7 68.7 75.7"/>
    <polygon class="cls-5" points="86.9 75.7 99 75.7 99 86.3 86.9 86.3 86.9 75.7 86.9 75.7"/>
    <polygon class="cls-5" points="49.2 93.7 61.3 93.7 61.3 104.4 49.2 104.4 49.2 93.7 49.2 93.7"/>
    <polygon class="cls-5" points="30 75.7 42 75.7 42 86.3 30 86.3 30 75.7 30 75.7"/>
    <polygon class="cls-5" points="30 93.7 42 93.7 42 104.4 30 104.4 30 93.7 30 93.7"/>
    <polygon class="cls-5" points="68.7 93.7 80.8 93.7 80.8 104.4 68.7 104.4 68.7 93.7 68.7 93.7"/>
    <polygon class="cls-5" points="86.9 93.7 99 93.7 99 104.4 86.9 104.4 86.9 93.7 86.9 93.7"/>
  </g>
</svg>
