<svg id="Layer_1" data-name="Layer 1" xmlns="http://www.w3.org/2000/svg" xmlns:xlink="http://www.w3.org/1999/xlink" width="128" height="128" viewBox="0 0 128 128">
  <defs>
    <style>
      .cls-1, .cls-4 {
        fill: none;
      }

      .cls-2 {
        fill: #050406;
      }

      .cls-3 {
        clip-path: url(#clip-path);
      }

      .cls-4 {
        stroke: #b3332f;
        stroke-miterlimit: 10;
        stroke-width: 2.09px;
      }
    </style>
    <clipPath id="clip-path">
      <rect class="cls-1" x="4.8" y="16.3" width="119.4" height="95.91"/>
    </clipPath>
  </defs>
  <title>190429_GR-19-050601_Camera_Icon</title>
  <g>
    <path class="cls-2" d="M107.3,54.8a4.1,4.1,0,0,1-4.1-4.1,4.1,4.1,0,0,1,8.2,0,4.1,4.1,0,0,1-4.1,4.1ZM64.5,99.4A29.3,29.3,0,1,1,93.8,70.1,29.3,29.3,0,0,1,64.5,99.4Zm46.9-64.5H97.3a5.2,5.2,0,0,1-4.6-3.3L89.1,20.7a5.2,5.2,0,0,0-4.7-3.4H44.6a5.2,5.2,0,0,0-4.7,3.4L36.3,31.6a5.2,5.2,0,0,1-4.6,3.3H17.6A11.7,11.7,0,0,0,5.9,46.6V99.4a11.7,11.7,0,0,0,11.7,11.8h93.8a11.7,11.7,0,0,0,11.7-11.8V46.6a11.7,11.7,0,0,0-11.7-11.7ZM64.5,52.5A17.6,17.6,0,1,0,82.1,70.1,17.6,17.6,0,0,0,64.5,52.5Z"/>
    <g class="cls-3">
      <path class="cls-4" d="M107.3,54.8a4.1,4.1,0,0,1-4.1-4.1,4.1,4.1,0,0,1,8.2,0,4.1,4.1,0,0,1-4.1,4.1ZM64.5,99.4A29.3,29.3,0,1,1,93.8,70.1,29.3,29.3,0,0,1,64.5,99.4Zm46.9-64.5H97.3a5.2,5.2,0,0,1-4.6-3.3L89.1,20.7a5.2,5.2,0,0,0-4.7-3.4H44.6a5.2,5.2,0,0,0-4.7,3.4L36.3,31.6a5.2,5.2,0,0,1-4.6,3.3H17.6A11.7,11.7,0,0,0,5.9,46.6V99.4a11.7,11.7,0,0,0,11.7,11.8h93.8a11.7,11.7,0,0,0,11.7-11.8V46.6a11.7,11.7,0,0,0-11.7-11.7ZM64.5,52.5A17.6,17.6,0,1,0,82.1,70.1,17.6,17.6,0,0,0,64.5,52.5Z"/>
    </g>
  </g>
</svg>
