<svg id="Layer_1" data-name="Layer 1" xmlns="http://www.w3.org/2000/svg" xmlns:xlink="http://www.w3.org/1999/xlink" width="128" height="128" viewBox="0 0 128 128">
  <defs>
    <style>
      .cls-1 {
        fill: none;
      }

      .cls-2 {
        clip-path: url(#clip-path);
      }

      .cls-3 {
        fill: #a9dddf;
      }

      .cls-4 {
        fill: #6b848c;
      }

      .cls-5 {
        fill: #fff;
      }
    </style>
    <clipPath id="clip-path">
      <rect class="cls-1" x="5.5" y="27.1" width="118" height="74.37"/>
    </clipPath>
  </defs>
  <title>190429_GR-19-050601_Clouda_Icon</title>
  <g>
    <g class="cls-2">
      <path class="cls-3" d="M102.5,59.4a21,21,0,0,1,0,42h-70a27.1,27.1,0,0,1,0-54.1,26.3,26.3,0,0,1,8,1.2,16.9,16.9,0,0,1-.1-2.3,19.2,19.2,0,0,1,38.3-1,13.7,13.7,0,0,1,22.9,10.2,12.9,12.9,0,0,1-.6,4Z"/>
      <path class="cls-4" d="M73.6,50.7a21,21,0,0,1,5.1-5.5A19.1,19.1,0,0,0,59.5,27.1H56.9c9,1.2,16.7,8.2,16.7,23.5Z"/>
      <path class="cls-4" d="M102.5,59.4H101a12.9,12.9,0,0,0,.6-4A13.7,13.7,0,0,0,87.9,41.6h-1c6,.2,11.8,11.1,7.4,20.8,6.5,0,13.4.3,18.3,8.2a16.8,16.8,0,0,1-3,21.1c-2,1.9-8.1,5.5-14.2,5.5H24.9A26.4,26.4,0,0,1,16,95.8a27.1,27.1,0,0,0,16.5,5.6h70a21,21,0,0,0,0-42Z"/>
    </g>
    <polygon class="cls-5" points="75 60.1 87.6 76.5 81.2 76.5 81.2 90.3 68.8 90.3 68.8 76.5 62.4 76.5 75 60.1 75 60.1"/>
    <polygon class="cls-5" points="53.2 73.9 40.6 90.3 28 73.9 34.5 73.9 34.5 60.1 46.8 60.1 46.8 73.9 53.2 73.9 53.2 73.9"/>
  </g>
</svg>
