<svg id="Layer_1" data-name="Layer 1" xmlns="http://www.w3.org/2000/svg" width="128" height="128" viewBox="0 0 128 128">
  <defs>
    <style>
      .cls-1 {
        fill: #565657;
      }

      .cls-2 {
        fill: #b3332f;
      }
    </style>
  </defs>
  <title>190429_GR-19-050601_Copy_Icon</title>
  <g>
    <path class="cls-1" d="M94.4,54.3H44.6a2,2,0,0,0,0,4H94.4a2,2,0,0,0,0-4Z"/>
    <path class="cls-1" d="M44.6,42.3H64.5a2,2,0,0,0,0-4H44.6a2,2,0,0,0,0,4Z"/>
    <path class="cls-1" d="M94.4,70.2H44.6a2,2,0,0,0,0,4H94.4a2,2,0,0,0,0-4Z"/>
    <path class="cls-1" d="M94.4,86.2H44.6a2,2,0,0,0-2,2,1.9,1.9,0,0,0,2,1.9H94.4a1.9,1.9,0,0,0,2-1.9,2,2,0,0,0-2-2Z"/>
    <path class="cls-1" d="M94.4,102.1H44.6a2,2,0,1,0,0,4H94.4a2,2,0,0,0,0-4Z"/>
    <path class="cls-2" d="M30.6,120V18.4H80.4V46.3h27.9V120Zm-9.9-9.9V8.4H98.4V29.5L83.3,14.4H26.6v95.7ZM84.4,21.2l18,18,3.1,3.1H84.4V21.2Zm18,12.3V4.5H16.7V114.1h9.9V124h85.7V43.5l-9.9-10Z"/>
  </g>
</svg>
