<svg id="Layer_1" data-name="Layer 1" xmlns="http://www.w3.org/2000/svg" xmlns:xlink="http://www.w3.org/1999/xlink" width="128" height="128" viewBox="0 0 128 128">
  <defs>
    <style>
      .cls-1 {
        fill: none;
      }

      .cls-2 {
        fill: #b3332f;
      }

      .cls-3 {
        fill: #8db4b3;
      }

      .cls-4 {
        fill: #fff;
      }

      .cls-5 {
        clip-path: url(#clip-path);
      }
    </style>
    <clipPath id="clip-path">
      <rect class="cls-1" x="9.6" y="10.8" width="109.7" height="106.82"/>
    </clipPath>
  </defs>
  <title>190429_GR-19-050601_Cut_Icon</title>
  <g>
    <path class="cls-2" d="M24.1,82.4a14.9,14.9,0,0,1,11.5-1.5A14.6,14.6,0,0,1,44.8,88a14.5,14.5,0,0,1,2.1,7.6,15.1,15.1,0,0,1-7.6,13.1,14.7,14.7,0,0,1-11.6,1.5,14.8,14.8,0,0,1-9.2-7,15.7,15.7,0,0,1-2-7.6,15.3,15.3,0,0,1,7.6-13.2Zm-8.4,22.4a18.6,18.6,0,0,0,25.5,6.8,19.6,19.6,0,0,0,9.1-12.1,17,17,0,0,0-2.2-13.4,11.4,11.4,0,0,1,1-13.9L47.3,71h-.1l-6.5-4.5L21,80.2a18.6,18.6,0,0,0-5.3,24.6Z"/>
    <path class="cls-2" d="M39.3,19.7a15.4,15.4,0,0,1,7.6,13.2,14.5,14.5,0,0,1-2.1,7.6,15.2,15.2,0,0,1-28.3-7.6A15.1,15.1,0,0,1,27.7,18.2a15.6,15.6,0,0,1,11.6,1.5ZM52.9,62.8a1.3,1.3,0,0,1,.7.9,2.1,2.1,0,0,1,0,1.1l-.2.4a1.9,1.9,0,0,1-2.5.5,2.6,2.6,0,0,1-.7-1.1,1.9,1.9,0,0,1,.3-1.4l.2-.2a1.7,1.7,0,0,1,2.2-.2ZM41.2,16.9A18.7,18.7,0,0,0,21,48.3L49.3,68.1a4.7,4.7,0,1,0,5.3-7.7l-3.7-2.6a11.3,11.3,0,0,1-2.8-15.4,17.2,17.2,0,0,0,2.2-13.5,19.7,19.7,0,0,0-9.1-12Z"/>
    <path class="cls-3" d="M115,25.8a11.5,11.5,0,0,0-6-3.3,11.1,11.1,0,0,0-8.3,1.9L55,56.4l1.6,1.1,6.5,4.6L115,25.8Z"/>
    <path class="cls-4" d="M102.6,91.9l-2.9-2a1.7,1.7,0,0,1-2.4.4l-37.2-26a7.9,7.9,0,0,1-1.5,4.6,7.2,7.2,0,0,1-3.9,3l46,32.2a11.1,11.1,0,0,0,8.3,1.8,10.7,10.7,0,0,0,6-3.2l-12-8.4a1.7,1.7,0,0,1-.4-2.4Z"/>
    <path d="M20,95.6a11.8,11.8,0,0,1,5.8-10.2,12,12,0,0,1,8.9-1.1,11.7,11.7,0,0,1,7.1,5.4,12.1,12.1,0,0,1,1.6,5.9,11.8,11.8,0,0,1-5.9,10.1,11.5,11.5,0,0,1-8.9,1.2A11.6,11.6,0,0,1,20,95.6Zm4.1-13.2a15.3,15.3,0,0,0-7.6,13.2,15.7,15.7,0,0,0,2,7.6,14.8,14.8,0,0,0,9.2,7,14.7,14.7,0,0,0,11.6-1.5,15.1,15.1,0,0,0,7.6-13.1A14.5,14.5,0,0,0,44.8,88a15.1,15.1,0,0,0-20.7-5.6Z"/>
    <g class="cls-5">
      <path d="M37.5,22.8a11.8,11.8,0,0,1,5.9,10.1,12.1,12.1,0,0,1-1.6,5.9,11.7,11.7,0,0,1-16,4.2A11.5,11.5,0,0,1,20,32.9a11.7,11.7,0,0,1,1.5-5.8,11.8,11.8,0,0,1,7.1-5.5,11.5,11.5,0,0,1,8.9,1.2Zm1.8-3.1a15.6,15.6,0,0,0-11.6-1.5A15.2,15.2,0,1,0,44.8,40.5a14.5,14.5,0,0,0,2.1-7.6,15.4,15.4,0,0,0-7.6-13.2Z"/>
      <path d="M109,22.5a11.5,11.5,0,0,1,6,3.3L63.1,62.1l-6.5-4.6L55,56.4l45.7-32a11.1,11.1,0,0,1,8.3-1.9ZM21,80.2,40.7,66.4l6.5,4.5h.1l1.8,1.2a11.4,11.4,0,0,0-1,13.9,17,17,0,0,1,2.2,13.4,19.6,19.6,0,0,1-9.1,12.1A18.7,18.7,0,0,1,21,80.2ZM41.2,16.9a19.7,19.7,0,0,1,9.1,12,17.2,17.2,0,0,1-2.2,13.5,11.3,11.3,0,0,0,2.8,15.4l3.7,2.6a4.7,4.7,0,1,1-5.3,7.7L21,48.3A18.7,18.7,0,0,1,41.2,16.9ZM26.1,11.6A22.2,22.2,0,0,0,12.6,21.9,23.4,23.4,0,0,0,9.6,33a20.5,20.5,0,0,0,.6,4.9A22.1,22.1,0,0,0,19,51.2l18.7,13L19,77.3a22.1,22.1,0,0,0-8.8,13.3,19.7,19.7,0,0,0-.6,4.8,22.8,22.8,0,0,0,3,11.1,22.4,22.4,0,0,0,13.5,10.4A22.7,22.7,0,0,0,43,114.7a23.1,23.1,0,0,0,10.7-14.3,20.8,20.8,0,0,0-2.6-16.2,7.8,7.8,0,0,1,.9-9.9L98.7,107a14.6,14.6,0,0,0,10.9,2.4,14.3,14.3,0,0,0,9.4-6,1.8,1.8,0,0,0-.4-2.5l-13.5-9.5a1.9,1.9,0,0,0-2.5.5,1.7,1.7,0,0,0,.4,2.4l12,8.4a10.7,10.7,0,0,1-6,3.2,11.1,11.1,0,0,1-8.3-1.8l-46-32.2a7.2,7.2,0,0,0,3.9-3,7.9,7.9,0,0,0,1.5-4.6l37.2,26a1.7,1.7,0,0,0,2.4-.4,1.8,1.8,0,0,0-.4-2.5L66.2,64.2l52.4-36.7a1.4,1.4,0,0,0,.7-1.1,1.6,1.6,0,0,0-.3-1.3,14.3,14.3,0,0,0-9.4-6,14.6,14.6,0,0,0-10.9,2.4L52,54.2a7.8,7.8,0,0,1-.9-9.9,20.8,20.8,0,0,0,2.6-16.2A23.1,23.1,0,0,0,43,13.8a22.2,22.2,0,0,0-16.9-2.2Z"/>
    </g>
    <path d="M52.9,62.8a1.7,1.7,0,0,0-2.2.2l-.2.2a1.9,1.9,0,0,0-.3,1.4,2.6,2.6,0,0,0,.7,1.1,1.9,1.9,0,0,0,2.5-.5l.2-.4a2.1,2.1,0,0,0,0-1.1,1.3,1.3,0,0,0-.7-.9Z"/>
  </g>
</svg>
