<?xml version="1.0" encoding="UTF-8" standalone="no"?>
<svg
   xmlns:dc="http://purl.org/dc/elements/1.1/"
   xmlns:cc="http://creativecommons.org/ns#"
   xmlns:rdf="http://www.w3.org/1999/02/22-rdf-syntax-ns#"
   xmlns:svg="http://www.w3.org/2000/svg"
   xmlns="http://www.w3.org/2000/svg"
   xmlns:sodipodi="http://sodipodi.sourceforge.net/DTD/sodipodi-0.dtd"
   xmlns:inkscape="http://www.inkscape.org/namespaces/inkscape"
   viewBox="0 0 97.297599 97.2976"
   height="97.2976"
   width="97.2976"
   xml:space="preserve"
   id="svg2"
   version="1.1"
   sodipodi:docname="logo_icon.svg"
   inkscape:version="0.92.4 (unknown)"><sodipodi:namedview
     pagecolor="#ffffff"
     bordercolor="#666666"
     borderopacity="1"
     objecttolerance="10"
     gridtolerance="10"
     guidetolerance="10"
     inkscape:pageopacity="0"
     inkscape:pageshadow="2"
     inkscape:window-width="1222"
     inkscape:window-height="619"
     id="namedview12"
     showgrid="false"
     inkscape:zoom="2.425548"
     inkscape:cx="44.888922"
     inkscape:cy="48.648795"
     inkscape:window-x="321"
     inkscape:window-y="194"
     inkscape:window-maximized="0"
     inkscape:current-layer="svg2"
     fit-margin-top="0"
     fit-margin-left="-0.2"
     fit-margin-right="0"
     fit-margin-bottom="0"
     showborder="true" /><metadata
     id="metadata8"><rdf:RDF><cc:Work
         rdf:about=""><dc:format>image/svg+xml</dc:format><dc:type
           rdf:resource="http://purl.org/dc/dcmitype/StillImage" /><dc:title></dc:title></cc:Work></rdf:RDF></metadata><defs
     id="defs6" /><g
     transform="matrix(1.3333333,0,0,-1.3333333,-126.58,669.53638)"
     id="g10"><g
       transform="translate(140.6055,502.1523)"
       id="g36"><path
         id="path38"
         style="fill:#0b8ed8;fill-opacity:1;fill-rule:nonzero;stroke:none"
         d="m 0,0 -33.427,-19.214 -0.014,-18.573 7.133,-4.001 -0.065,17.274 15.138,-8.796 0.93,0.596 0.01,1.182 -14.978,8.678 25.075,14.407 18.137,-10.764 -0.113,-27.995 6.905,3.914 0.061,28.577 z"
         inkscape:connector-curvature="0" /></g><g
       transform="translate(140.2412,490.7451)"
       id="g40"><path
         id="path42"
         style="fill:#66c430;fill-opacity:1;fill-rule:nonzero;stroke:none"
         d="m 0,0 -6.916,-3.794 14.542,-8.539 -16.001,-7.862 v -1.157 l 0.95,-0.601 16.032,7.889 -0.096,-28.993 -17.98,-10.325 -23.677,13.917 -0.072,-7.937 24.206,-14.164 24.734,14.106 0.119,38.146 z"
         inkscape:connector-curvature="0" /></g><g
       transform="translate(132.0957,448.6689)"
       id="g44"><path
         id="path46"
         style="fill:#f14624;fill-opacity:1;fill-rule:nonzero;stroke:none"
         d="m 0,0 v 18.433 l -0.967,0.653 -1.018,-0.653 V 0.032 L -27.286,14.5 v 21.09 l 24.157,13.7 -6.89,3.94 -24.631,-14.041 v -28.83 l 33.584,-18.696 15.561,8.79 0.036,7.434 z"
         inkscape:connector-curvature="0" /></g></g></svg>