<svg id="Layer_1" data-name="Layer 1" xmlns="http://www.w3.org/2000/svg" width="128" height="128" viewBox="0 0 128 128">
  <defs>
    <style>
      .cls-1 {
        fill: #4d1c1c;
      }

      .cls-2 {
        fill: #b3332f;
      }

      .cls-3 {
        fill: #e75955;
      }

      .cls-4 {
        fill: #871c1b;
      }
    </style>
  </defs>
  <title>190429_GR-19-050601_Flag</title>
  <g>
    <polygon class="cls-1" points="40.1 66.4 58.9 66.4 58.9 77.7 40.1 77.7 40.1 66.4 40.1 66.4"/>
    <path d="M15.6,8a1.8,1.8,0,0,0-1.9,1.9V119.2a1.9,1.9,0,0,0,1.9,1.9,2,2,0,0,0,1.9-1.9V9.9A1.9,1.9,0,0,0,15.6,8Z"/>
    <polygon class="cls-2" points="17.5 15.5 58.9 15.5 58.9 70.2 17.5 70.2 17.5 15.5 17.5 15.5"/>
    <path class="cls-3" d="M58.9,24.9V70.2H47.6a7.6,7.6,0,0,0,0,15.1h69.8L96.6,55.1l20.8-30.2Z"/>
    <path class="cls-4" d="M40.1,77.7a7.6,7.6,0,0,0,7.5,7.6H58.9V70.2H47.6a7.6,7.6,0,0,0-7.5,7.5Z"/>
  </g>
</svg>
