<svg id="Layer_1" data-name="Layer 1" xmlns="http://www.w3.org/2000/svg" width="128" height="128" viewBox="0 0 128 128">
  <defs>
    <style>
      .cls-1 {
        fill: #efce49;
      }

      .cls-2 {
        fill: #eaba1f;
      }

      .cls-3 {
        fill: #b3332f;
      }
    </style>
  </defs>
  <title>190429_GR-19-050601_Folder_Icon</title>
  <g>
    <path class="cls-1" d="M94.5,105.5H18.2a2.6,2.6,0,0,1-2.5-3.3L33,54.6a2.7,2.7,0,0,1,2.6-1.9h76.3c1.7,0,2.5,1.6,2.5,3.3L97.1,103.6a2.7,2.7,0,0,1-2.6,1.9Z"/>
    <path class="cls-2" d="M101.3,37.3H58.2L49.7,25.4H18.5a2.9,2.9,0,0,0-2.9,2.9v72.9h.3L33,54.6a2.7,2.7,0,0,1,2.6-1.9h68.6V40.3a2.9,2.9,0,0,0-2.9-3Z"/>
    <polygon class="cls-3" points="81.2 99.9 81.2 87 68.3 87 68.3 80.6 81.2 80.6 81.2 67.9 87.3 67.9 87.3 80.6 100.3 80.6 100.3 87 87.3 87 87.3 99.9 81.2 99.9 81.2 99.9"/>
  </g>
</svg>
