<svg id="Layer_1" data-name="Layer 1" xmlns="http://www.w3.org/2000/svg" xmlns:xlink="http://www.w3.org/1999/xlink" width="128" height="128" viewBox="0 0 128 128">
  <defs>
    <style>
      .cls-1 {
        fill: none;
      }

      .cls-2 {
        clip-path: url(#clip-path);
      }

      .cls-3 {
        fill: #efce49;
      }

      .cls-4 {
        fill: #eaba1f;
      }
    </style>
    <clipPath id="clip-path">
      <rect class="cls-1" x="5" y="16" width="119" height="96.41"/>
    </clipPath>
  </defs>
  <title>190429_GR-19-050601_Folder_Icon</title>
  <g class="cls-2">
    <path class="cls-3" d="M100,112.4H8.2a3.2,3.2,0,0,1-3.1-4L26,51.2a3.1,3.1,0,0,1,3.1-2.3h91.8c2.1,0,3.1,2,3.1,4l-20.9,57.2a3,3,0,0,1-3.1,2.3Z"/>
    <path class="cls-4" d="M108.1,30.4H56.3L46,16H8.6A3.6,3.6,0,0,0,5,19.6v87.6h.4L26,51.2a3.1,3.1,0,0,1,3.1-2.3h82.6v-15a3.6,3.6,0,0,0-3.6-3.5Z"/>
  </g>
</svg>
