<svg id="Layer_1" data-name="Layer 1" xmlns="http://www.w3.org/2000/svg" xmlns:xlink="http://www.w3.org/1999/xlink" width="128" height="128" viewBox="0 0 128 128">
  <defs>
    <style>
      .cls-1 {
        fill: none;
      }

      .cls-2 {
        clip-path: url(#clip-path);
      }

      .cls-3 {
        fill: #b3332f;
      }
    </style>
    <clipPath id="clip-path">
      <rect class="cls-1" x="10.4" y="10.1" width="108.3" height="108.28"/>
    </clipPath>
  </defs>
  <title>190429_GR-19-050601_Help_Icon</title>
  <g class="cls-2">
    <path class="cls-3" d="M83,58.8c-1.1,1.5-3.5,3.4-6.5,5.7l-3.3,2.3a9,9,0,0,0-3.3,4.1,8.3,8.3,0,0,0-.5,3.4v.5H56.8V73.7c.2-4.4.3-7,2.1-9.1S68,57.2,68.3,57a7.7,7.7,0,0,0,2.2-2.2c1.3-1.9,1.9-3.3,1.9-4.7a8.7,8.7,0,0,0-1.7-5.4c-1.1-1.6-3.2-2.3-6.2-2.3s-5.1.9-6.3,2.9a11.4,11.4,0,0,0-2,6.3v.5h-13v-.6c.3-7.9,3.1-13.7,8.4-17a22.4,22.4,0,0,1,12.2-3.2c6.3,0,11.7,1.5,15.8,4.5s6.4,7.7,6.4,13.6A15.6,15.6,0,0,1,83,58.8ZM63.6,97.2h-.3a7.6,7.6,0,0,1-7.7-8.1,7.7,7.7,0,0,1,7.9-7.7h.3a7.7,7.7,0,0,1,7.8,8.2,7.6,7.6,0,0,1-8,7.6Zm.2-87.1a54.2,54.2,0,1,0,54.8,53.4A54.2,54.2,0,0,0,63.8,10.1Z"/>
  </g>
</svg>
