<svg id="Layer_1" data-name="Layer 1" xmlns="http://www.w3.org/2000/svg" width="128" height="128" viewBox="0 0 128 128">
  <defs>
    <style>
      .cls-1 {
        fill: #b02a24;
      }

      .cls-2 {
        fill: #e0e1e2;
      }

      .cls-3 {
        fill: #8db4b3;
      }

      .cls-4 {
        fill: #c8d2d2;
      }
    </style>
  </defs>
  <title>190429_GR-19-050601_Home_Icon</title>
  <path class="cls-1" d="M112.2,60.5,63.6,23.1,15.1,60.5a6.3,6.3,0,0,1-8.3-.7h0a6.1,6.1,0,0,1,.8-9L59.4,10.2l4.2-3.8,4.2,3.8,51.9,40.6a6.2,6.2,0,0,1,.7,9h0A6.2,6.2,0,0,1,112.2,60.5Z"/>
  <path class="cls-1" d="M112.2,60.5,63.6,23.1,15.1,60.5a6.3,6.3,0,0,1-8.3-.7h0a6.1,6.1,0,0,1,.8-9L59.4,10.2l4.2-3.8,4.2,3.8,51.9,40.6a6.2,6.2,0,0,1,.7,9h0A6.2,6.2,0,0,1,112.2,60.5Z"/>
  <polygon class="cls-2" points="63.6 23.1 16.7 59.2 16.7 59.4 16.7 120.6 110.5 120.6 110.5 59.4 110.5 59.2 63.6 23.1"/>
  <rect class="cls-3" x="33" y="57.4" width="24.5" height="16.32"/>
  <rect class="cls-3" x="33" y="85.9" width="24.5" height="20.41"/>
  <rect class="cls-3" x="69.7" y="57.4" width="24.5" height="16.32"/>
  <rect class="cls-3" x="69.7" y="85.9" width="24.5" height="34.69"/>
  <rect class="cls-4" x="69.7" y="57.4" width="24.5" height="12.24"/>
  <rect class="cls-4" x="33" y="57.4" width="24.5" height="5.64"/>
  <polygon class="cls-4" points="47.3 94.1 47.3 85.9 43.2 85.9 43.2 94.1 33 94.1 33 98.2 43.2 98.2 43.2 106.3 47.3 106.3 47.3 98.2 57.5 98.2 57.5 94.1 47.3 94.1"/>
</svg>
