<svg id="Layer_1" data-name="Layer 1" xmlns="http://www.w3.org/2000/svg" width="128" height="128" viewBox="0 0 128 128">
  <defs>
    <style>
      .cls-1 {
        fill: #b3332f;
      }

      .cls-2 {
        fill: #d8d7d5;
      }
    </style>
  </defs>
  <title>190429_GR-19-050601_Info_Icon</title>
  <g>
    <path class="cls-1" d="M75.2,44.1a8.7,8.7,0,0,1-11.8,0,7.4,7.4,0,0,1,0-10.9,8.7,8.7,0,0,1,11.8,0,7.4,7.4,0,0,1,0,10.9ZM75.8,94l-6.7,2.5a17.2,17.2,0,0,1-5.8.9c-3.4,0-6-.8-7.9-2.5a8.1,8.1,0,0,1-2.8-6.3,16.9,16.9,0,0,1,.3-3,28.6,28.6,0,0,1,.6-3.5L57,69.8c.3-1.2.6-2.3.8-3.3a15.9,15.9,0,0,0,.3-2.9c0-1.6-.3-2.7-1-3.3s-1.9-.9-3.7-.9a9.5,9.5,0,0,0-2.8.4l-2.4.8.9-3.8,6.6-2.4a18.3,18.3,0,0,1,5.9-1c3.4,0,5.9.8,7.8,2.4a8.3,8.3,0,0,1,2.7,6.3c0,.6-.1,1.5-.2,2.9a20.2,20.2,0,0,1-.7,3.7L67.7,81a27.2,27.2,0,0,0-.7,3.3,13.7,13.7,0,0,0-.4,2.9c0,1.6.4,2.8,1.1,3.3a6,6,0,0,0,3.8.9,10.6,10.6,0,0,0,2.9-.4l2.3-.8L75.8,94ZM64.5,10.1a54.2,54.2,0,1,0,54.1,54.1A54.1,54.1,0,0,0,64.5,10.1Z"/>
    <path class="cls-2" d="M75.7,93.8c-2.8,1.1-5,2-6.7,2.5a16.8,16.8,0,0,1-5.8.9c-3.3,0-6-.8-7.8-2.5a7.7,7.7,0,0,1-2.8-6.2,16.7,16.7,0,0,1,.2-3.1,27.3,27.3,0,0,1,.6-3.4l3.5-12.4c.3-1.1.6-2.3.8-3.3a15.9,15.9,0,0,0,.3-2.9,4.7,4.7,0,0,0-.9-3.3c-.7-.6-1.9-.9-3.8-.9a8.4,8.4,0,0,0-2.7.4l-2.5.8,1-3.8,6.5-2.4a22.1,22.1,0,0,1,5.9-1c3.4,0,6,.8,7.8,2.5A8,8,0,0,1,72,62c0,.5-.1,1.4-.2,2.8a14.3,14.3,0,0,1-.7,3.7L67.6,80.8c-.2,1-.5,2.1-.7,3.4a23,23,0,0,0-.4,2.8c0,1.7.4,2.8,1.1,3.4a6.2,6.2,0,0,0,3.8.9,11,11,0,0,0,2.9-.5,9.8,9.8,0,0,0,2.3-.8l-.9,3.8Z"/>
    <path class="cls-2" d="M75.1,44a8.9,8.9,0,0,1-11.7,0,7.3,7.3,0,0,1,0-11,8.6,8.6,0,0,1,11.7,0,7.5,7.5,0,0,1,0,11Z"/>
  </g>
</svg>
