<svg id="Layer_1" data-name="Layer 1" xmlns="http://www.w3.org/2000/svg" width="128" height="128" viewBox="0 0 128 128">
  <defs>
    <style>
      .cls-1 {
        fill: #565657;
      }

      .cls-2 {
        fill: #b0aeab;
      }

      .cls-3 {
        fill: #b3332f;
      }

      .cls-4 {
        fill: #ce5148;
      }

      .cls-5 {
        fill: #19282f;
      }
    </style>
  </defs>
  <title>190429_GR-19-050601_Lock_icon</title>
  <g>
    <path class="cls-1" d="M50,37.2a15.7,15.7,0,0,1,31.3,0v26H50v-26ZM65.6,8.3A29,29,0,0,0,36.7,37.2V69.8a6.7,6.7,0,0,0,6.6,6.7H87.9a6.6,6.6,0,0,0,6.6-6.7V37.2A28.9,28.9,0,0,0,65.6,8.3Z"/>
    <path class="cls-2" d="M87.9,69.9H43.3V37.2A22.3,22.3,0,0,1,65.6,14.9h0A22.3,22.3,0,0,1,87.9,37.2V69.9ZM65.6,8.3A29,29,0,0,0,36.7,37.2V69.9a6.7,6.7,0,0,0,6.6,6.6H87.9a6.6,6.6,0,0,0,6.6-6.6V37.2A28.9,28.9,0,0,0,65.6,8.3Z"/>
    <path class="cls-3" d="M97.3,53.3H33.9a9.3,9.3,0,0,0-9.3,9.3v49.2a9.3,9.3,0,0,0,9.3,9.3H97.3a9.3,9.3,0,0,0,9.3-9.3V62.6a9.3,9.3,0,0,0-9.3-9.3Z"/>
    <path class="cls-4" d="M106.6,66.3V62.6a9.3,9.3,0,0,0-9.3-9.3H33.9a9.3,9.3,0,0,0-9.3,9.3v3.7Z"/>
    <path class="cls-4" d="M24.6,108.1v3.7a9.3,9.3,0,0,0,9.3,9.3H97.3a9.3,9.3,0,0,0,9.3-9.3v-3.7Z"/>
    <path class="cls-5" d="M72.8,81.7a7.2,7.2,0,0,0-14.4,0,7.4,7.4,0,0,0,3.9,6.5v8.4a3.3,3.3,0,0,0,6.6,0V88.2a7.4,7.4,0,0,0,3.9-6.5Z"/>
  </g>
</svg>
