<?xml version="1.0" encoding="UTF-8"?>
<svg id="Layer_2" xmlns="http://www.w3.org/2000/svg" xmlns:xlink="http://www.w3.org/1999/xlink" viewBox="0 0 234.12 62.19">
  <defs>
    <style>
      .cls-1 {
        fill: url(#linear-gradient-2);
      }

      .cls-2 {
        fill: #fff;
      }

      .cls-3 {
        fill: url(#linear-gradient-4);
      }

      .cls-4 {
        fill: url(#linear-gradient-3);
      }

      .cls-5 {
        fill: url(#linear-gradient-5);
      }

      .cls-6 {
        fill: url(#linear-gradient);
      }
    </style>
    <linearGradient id="linear-gradient" x1="35.58" y1="31.3" x2="73.98" y2="38.07" gradientUnits="userSpaceOnUse">
      <stop offset=".5" stop-color="#72bf44"/>
      <stop offset=".79" stop-color="#60a53a"/>
      <stop offset="1" stop-color="#579835"/>
    </linearGradient>
    <linearGradient id="linear-gradient-2" x1="54.19" y1="29.85" x2="-8.08" y2="38.88" gradientUnits="userSpaceOnUse">
      <stop offset=".51" stop-color="#f15a29"/>
      <stop offset=".6" stop-color="#e65526"/>
      <stop offset="1" stop-color="#bd461e"/>
    </linearGradient>
    <linearGradient id="linear-gradient-3" x1="47.27" y1="63.84" x2="45.98" y2="45.29" gradientUnits="userSpaceOnUse">
      <stop offset=".53" stop-color="#72bf44"/>
      <stop offset="1" stop-color="#579835"/>
    </linearGradient>
    <linearGradient id="linear-gradient-4" x1="27.99" y1="64.77" x2="26.86" y2="41.7" gradientUnits="userSpaceOnUse">
      <stop offset=".53" stop-color="#f15a29"/>
      <stop offset="1" stop-color="#bd461e"/>
    </linearGradient>
    <linearGradient id="linear-gradient-5" x1="36.81" y1="46.87" x2="36.81" y2=".54" gradientUnits="userSpaceOnUse">
      <stop offset=".32" stop-color="#008fd5"/>
      <stop offset="1" stop-color="#005f8f"/>
    </linearGradient>
  </defs>
  <g id="Layer_1-2" data-name="Layer_1">
    <g>
      <polygon class="cls-6" points="73.56 10.57 73.56 51.17 55.17 62.19 55.17 39.77 36.78 50.68 36.78 32.35 73.56 10.57"/>
      <polygon class="cls-1" points="0 10.57 0 51.17 18.39 62.19 18.39 39.77 36.78 50.68 36.78 32.35 0 10.57"/>
      <polygon class="cls-4" points="55.17 62.19 36.78 50.68 55.17 39.77 55.17 62.19"/>
      <polygon class="cls-3" points="18.39 62.19 36.78 50.68 18.39 39.77 18.39 62.19"/>
      <polygon class="cls-5" points="0 10.57 17.46 0 36.86 11.66 56.38 .08 73.62 10.57 36.78 32.35 0 10.57"/>
    </g>
    <g>
      <path class="cls-2" d="M82.39,15.01h4.52l4.62,8.94,4.59-8.94h4.52v15.18h-3.68l-.02-9.72-4.07,8.21h-2.68l-4.09-8.21v9.72h-3.71v-15.18Z"/>
      <path class="cls-2" d="M106.01,15.01h4.16v15.18h-4.16v-15.18Z"/>
      <path class="cls-2" d="M127.06,20.09c-.52-.62-1.13-1.11-1.84-1.47-.71-.36-1.42-.54-2.11-.54-.61,0-1.17.11-1.71.34-.53.22-.99.53-1.39.93-.39.4-.7.87-.91,1.41-.21.54-.32,1.13-.32,1.76s.11,1.22.32,1.76.52,1.01.91,1.42c.39.4.86.72,1.39.94.53.22,1.1.33,1.71.33.67,0,1.35-.16,2.06-.49.71-.33,1.34-.76,1.9-1.31l2.43,2.45c-.58.58-1.23,1.08-1.96,1.5s-1.49.75-2.29.98c-.8.23-1.59.35-2.38.35-1.2,0-2.3-.2-3.32-.6-1.02-.4-1.9-.95-2.65-1.67-.75-.71-1.34-1.55-1.76-2.51-.42-.96-.64-2-.64-3.13s.21-2.14.64-3.08c.42-.95,1.02-1.77,1.8-2.48.77-.71,1.68-1.26,2.72-1.65,1.04-.39,2.16-.58,3.38-.58.79,0,1.58.1,2.36.31.79.21,1.53.51,2.23.9s1.31.85,1.84,1.39l-2.41,2.73Z"/>
      <path class="cls-2" d="M140.7,15.01c2.12,0,3.76.47,4.91,1.4,1.15.93,1.73,2.24,1.73,3.93,0,1.78-.58,3.16-1.73,4.15-1.15.99-2.79,1.48-4.91,1.48h-3v4.22h-4.16v-15.18h7.16ZM140.7,22.84c.86,0,1.53-.2,1.99-.61.46-.4.69-1,.69-1.8s-.23-1.34-.69-1.73c-.46-.39-1.13-.58-1.99-.58h-3v4.72h3ZM139.97,24.51h4.05l3.8,5.67h-4.71l-3.14-5.67Z"/>
      <path class="cls-2" d="M159.87,14.77c1.24,0,2.38.2,3.42.58s1.95.94,2.73,1.65c.78.71,1.39,1.53,1.82,2.48.43.95.65,1.97.65,3.08s-.22,2.17-.65,3.13c-.43.96-1.04,1.8-1.82,2.51-.78.71-1.69,1.27-2.73,1.67-1.04.4-2.18.6-3.42.6s-2.36-.2-3.41-.6c-1.05-.4-1.96-.95-2.74-1.67-.78-.71-1.39-1.55-1.82-2.51s-.65-2-.65-3.13.22-2.14.65-3.1c.43-.95,1.04-1.78,1.82-2.48.78-.7,1.69-1.25,2.74-1.63s2.18-.58,3.41-.58ZM159.91,18.08c-.59,0-1.16.11-1.69.34s-1.01.54-1.41.95c-.4.41-.72.89-.94,1.43-.23.54-.34,1.14-.34,1.79s.11,1.23.34,1.79c.23.56.54,1.04.95,1.45s.88.73,1.41.96c.53.23,1.09.35,1.68.35s1.15-.12,1.67-.35c.52-.23.98-.55,1.38-.96.39-.41.7-.89.92-1.45s.33-1.15.33-1.79-.11-1.25-.33-1.79-.53-1.02-.92-1.43c-.39-.41-.85-.73-1.38-.95-.52-.22-1.08-.34-1.67-.34Z"/>
      <path class="cls-2" d="M184.08,20.09c-.52-.62-1.13-1.11-1.84-1.47-.71-.36-1.42-.54-2.11-.54-.61,0-1.17.11-1.71.34-.53.22-.99.53-1.39.93-.39.4-.7.87-.91,1.41-.21.54-.32,1.13-.32,1.76s.11,1.22.32,1.76.52,1.01.91,1.42c.39.4.86.72,1.39.94.53.22,1.1.33,1.71.33.67,0,1.35-.16,2.06-.49.71-.33,1.34-.76,1.9-1.31l2.43,2.45c-.58.58-1.23,1.08-1.96,1.5s-1.49.75-2.29.98c-.8.23-1.59.35-2.38.35-1.2,0-2.3-.2-3.32-.6-1.02-.4-1.9-.95-2.65-1.67-.75-.71-1.34-1.55-1.76-2.51-.42-.96-.64-2-.64-3.13s.21-2.14.64-3.08c.42-.95,1.02-1.77,1.8-2.48.77-.71,1.68-1.26,2.72-1.65,1.04-.39,2.16-.58,3.38-.58.79,0,1.58.1,2.36.31.79.21,1.53.51,2.23.9s1.31.85,1.84,1.39l-2.41,2.73Z"/>
      <path class="cls-2" d="M190.56,15.01h4.16v6.21h6.43v-6.21h4.16v15.18h-4.16v-5.85h-6.43v5.85h-4.16v-15.18Z"/>
      <path class="cls-2" d="M210.68,15.01h4.16v15.18h-4.16v-15.18Z"/>
      <path class="cls-2" d="M227.21,15.01c2.03,0,3.61.47,4.73,1.4,1.12.93,1.68,2.24,1.68,3.93,0,1.78-.56,3.16-1.68,4.15-1.12.99-2.7,1.48-4.73,1.48h-4.66l1.82-1.73v5.95h-4.16v-15.18h7ZM227.01,22.84c.85,0,1.5-.2,1.97-.61.46-.4.69-1,.69-1.8s-.23-1.34-.69-1.73c-.46-.39-1.12-.58-1.97-.58h-4.46l1.82-1.73v8.18l-1.82-1.73h4.46Z"/>
    </g>
    <g>
      <path class="cls-2" d="M90.21,39.84c-.36-.35-.78-.62-1.27-.82s-.97-.3-1.46-.3c-.45,0-.86.08-1.24.25-.38.17-.71.4-1,.69s-.5.63-.66,1.02c-.16.39-.23.81-.23,1.26s.08.88.24,1.27c.16.39.38.74.67,1.04.28.3.62.53.99.7.38.17.79.25,1.24.25.41,0,.85-.09,1.32-.27.47-.18.91-.42,1.29-.72l1.28,1.58c-.35.25-.75.47-1.2.67-.45.2-.92.36-1.41.47-.49.11-.97.17-1.42.17-.76,0-1.46-.13-2.1-.39-.64-.26-1.2-.62-1.68-1.09s-.86-1.01-1.12-1.64c-.27-.63-.4-1.3-.4-2.02s.14-1.39.41-2.01c.27-.62.66-1.16,1.14-1.63.49-.46,1.06-.82,1.73-1.08s1.38-.38,2.15-.38c.49,0,.98.06,1.46.18.48.12.94.29,1.38.5.44.22.82.48,1.15.78l-1.26,1.53ZM89.44,41.93h1.95v3.85h-1.95v-3.85Z"/>
      <path class="cls-2" d="M100,36.98c1.3,0,2.3.3,3.02.9.71.6,1.07,1.45,1.07,2.54,0,1.15-.36,2.04-1.07,2.68-.72.64-1.72.96-3.02.96h-2.08v2.87h-2.25v-9.95h4.32ZM100,42.24c.62,0,1.1-.14,1.44-.43.35-.29.52-.73.52-1.31s-.17-.99-.52-1.28-.83-.43-1.44-.43h-2.08v3.45h2.08ZM99.73,43.22h2.19l2.42,3.71h-2.54l-2.06-3.71Z"/>
      <path class="cls-2" d="M111.49,36.98h2.3l4.23,9.95h-2.39l-3.07-7.7-3.08,7.7h-2.33l4.33-9.95ZM109.58,43.19h5.87v1.75h-5.87v-1.75Z"/>
      <path class="cls-2" d="M125.63,36.98c1.26,0,2.24.3,2.93.9.7.6,1.04,1.45,1.04,2.54,0,1.15-.35,2.04-1.04,2.68-.7.64-1.67.96-2.93.96h-2.96l.98-.98v3.85h-2.25v-9.95h4.22ZM125.52,42.24c.62,0,1.11-.14,1.45-.43.34-.29.51-.73.51-1.31s-.17-.99-.51-1.28-.82-.43-1.45-.43h-2.84l.98-.98v5.43l-.98-1h2.84Z"/>
      <path class="cls-2" d="M133.38,36.98h2.25v4.18h4.5v-4.18h2.25v9.95h-2.25v-3.96h-4.5v3.96h-2.25v-9.95Z"/>
      <path class="cls-2" d="M146.89,36.98h2.25v9.95h-2.25v-9.95Z"/>
      <path class="cls-2" d="M160.87,40.02c-.33-.41-.73-.73-1.19-.96-.46-.23-.93-.35-1.39-.35-.43,0-.82.08-1.19.24-.36.16-.69.39-.97.67s-.5.63-.65,1.02c-.15.39-.23.81-.23,1.26s.08.86.23,1.25.37.73.65,1.02c.28.29.6.52.97.68.37.17.76.25,1.19.25.46,0,.91-.11,1.36-.32.46-.21.86-.5,1.22-.86l1.32,1.38c-.35.36-.75.67-1.19.94-.44.26-.9.47-1.39.62-.48.15-.97.22-1.45.22-.75,0-1.44-.13-2.07-.39s-1.18-.62-1.65-1.09c-.47-.47-.84-1.02-1.1-1.64-.26-.62-.4-1.3-.4-2.03s.13-1.39.4-2c.27-.62.64-1.16,1.12-1.62.48-.46,1.04-.82,1.68-1.08s1.34-.38,2.1-.38c.48,0,.96.07,1.44.2s.93.32,1.35.56c.42.24.8.54,1.13.89l-1.31,1.53Z"/>
      <path class="cls-2" d="M172.41,39.68c-.35-.22-.71-.4-1.09-.55s-.73-.26-1.08-.34c-.35-.08-.66-.12-.93-.12-.38,0-.68.07-.92.22-.23.15-.35.37-.35.66,0,.28.1.5.29.67.19.18.45.32.76.43.31.11.66.22,1.04.33.38.11.76.24,1.13.38.37.14.72.32,1.04.55s.57.51.75.85c.19.35.28.77.28,1.29,0,.64-.17,1.19-.51,1.63-.34.45-.81.79-1.4,1.02-.59.24-1.25.36-1.98.36-.55,0-1.09-.07-1.62-.2-.53-.13-1.03-.32-1.5-.56-.47-.24-.89-.52-1.27-.84l.9-1.76c.34.3.72.57,1.13.8.41.23.83.4,1.24.53.42.12.8.18,1.15.18.46,0,.83-.09,1.09-.27.26-.18.39-.44.39-.77,0-.28-.09-.51-.28-.68-.19-.17-.44-.31-.75-.43-.31-.12-.66-.23-1.04-.33s-.76-.22-1.14-.36-.72-.31-1.04-.53c-.31-.21-.57-.49-.76-.82-.19-.33-.29-.75-.29-1.26,0-.61.16-1.13.48-1.57s.77-.78,1.35-1.02c.58-.24,1.25-.36,2.02-.36.7,0,1.38.1,2.05.31.66.2,1.24.47,1.73.79l-.87,1.79Z"/>
      <path class="cls-2" d="M189.96,39.68c-.35-.22-.71-.4-1.09-.55s-.73-.26-1.08-.34c-.35-.08-.66-.12-.93-.12-.38,0-.68.07-.92.22-.23.15-.35.37-.35.66,0,.28.1.5.29.67.19.18.45.32.76.43.31.11.66.22,1.04.33.38.11.76.24,1.13.38.37.14.72.32,1.04.55s.57.51.75.85c.19.35.28.77.28,1.29,0,.64-.17,1.19-.51,1.63-.34.45-.81.79-1.4,1.02-.59.24-1.25.36-1.98.36-.55,0-1.09-.07-1.62-.2-.53-.13-1.03-.32-1.5-.56-.47-.24-.89-.52-1.27-.84l.9-1.76c.34.3.72.57,1.13.8.41.23.83.4,1.24.53.42.12.8.18,1.15.18.46,0,.83-.09,1.09-.27.26-.18.39-.44.39-.77,0-.28-.09-.51-.28-.68-.19-.17-.44-.31-.75-.43-.31-.12-.66-.23-1.04-.33s-.76-.22-1.14-.36-.72-.31-1.04-.53c-.31-.21-.57-.49-.76-.82-.19-.33-.29-.75-.29-1.26,0-.61.16-1.13.48-1.57s.77-.78,1.35-1.02c.58-.24,1.25-.36,2.02-.36.7,0,1.38.1,2.05.31.66.2,1.24.47,1.73.79l-.87,1.79Z"/>
      <path class="cls-2" d="M196.87,42.84c0,.73.2,1.31.61,1.73.41.42.94.63,1.61.63s1.16-.21,1.56-.63c.39-.42.59-1,.59-1.73v-5.85h2.25v5.85c0,.86-.18,1.61-.53,2.25-.35.64-.86,1.13-1.52,1.48s-1.44.52-2.35.52-1.7-.17-2.37-.52c-.67-.35-1.18-.84-1.54-1.48-.36-.64-.54-1.39-.54-2.25v-5.85h2.25v5.85Z"/>
      <path class="cls-2" d="M207.82,36.98h2.25v9.95h-2.25v-9.95Z"/>
      <path class="cls-2" d="M213.62,36.98h8.31v1.85h-3.04v8.1h-2.25v-8.1h-3.03v-1.85Z"/>
      <path class="cls-2" d="M225.47,36.98h7.57v1.8h-5.33v2.25h4.79v1.8h-4.79v2.29h5.49v1.8h-7.73v-9.95Z"/>
    </g>
  </g>
</svg>