<svg width="139" height="117" viewBox="0 0 139 117" fill="none" xmlns="http://www.w3.org/2000/svg">
<g clip-path="url(#clip0_0_1)">
<path d="M69.4547 21.9027L33 0.142685L0.0693359 19.8L69.4547 61.2187L138.841 19.8L105.909 0.142685L69.4547 21.9027Z" fill="url(#paint0_linear_0_1)"/>
<path d="M34.692 74.5374L69.4547 95.2893V61.2187L0.0693359 19.8V96.164L34.692 116.832V74.5374Z" fill="url(#paint1_linear_0_1)"/>
<path d="M104.219 74.5374L69.4547 95.2893V61.2187L138.841 19.8V96.164L104.219 116.832V74.5374Z" fill="url(#paint2_linear_0_1)"/>
<path d="M69.4547 95.2893L34.692 116.832V74.5374L69.4547 95.2893Z" fill="url(#paint3_linear_0_1)"/>
<path d="M69.4547 95.2893L104.219 116.832V74.5374L69.4547 95.2893Z" fill="url(#paint4_linear_0_1)"/>
</g>
<defs>
<linearGradient id="paint0_linear_0_1" x1="69.4549" y1="61.2184" x2="69.4549" y2="0.142011" gradientUnits="userSpaceOnUse">
<stop stop-color="#00AAEB"/>
<stop offset="1" stop-color="#006FFF"/>
</linearGradient>
<linearGradient id="paint1_linear_0_1" x1="-7.21922" y1="82.5181" x2="55.9976" y2="46.0198" gradientUnits="userSpaceOnUse">
<stop stop-color="#B41F0B"/>
<stop offset="0.901121" stop-color="#FF480F"/>
<stop offset="1" stop-color="#FF480F"/>
</linearGradient>
<linearGradient id="paint2_linear_0_1" x1="146.129" y1="82.5181" x2="82.9122" y2="46.0198" gradientUnits="userSpaceOnUse">
<stop stop-color="#379646"/>
<stop offset="0.901121" stop-color="#55BC38"/>
<stop offset="1" stop-color="#55BC38"/>
</linearGradient>
<linearGradient id="paint3_linear_0_1" x1="52.0732" y1="74.5375" x2="52.0732" y2="116.832" gradientUnits="userSpaceOnUse">
<stop stop-color="#9E2705"/>
<stop offset="0.900522" stop-color="#C4280B"/>
<stop offset="1" stop-color="#C4280B"/>
</linearGradient>
<linearGradient id="paint4_linear_0_1" x1="86.8366" y1="116.832" x2="86.8366" y2="74.5375" gradientUnits="userSpaceOnUse">
<stop stop-color="#40A041"/>
<stop offset="0.900522" stop-color="#007830"/>
<stop offset="1" stop-color="#007830"/>
</linearGradient>
<clipPath id="clip0_0_1">
<rect width="139" height="117" fill="white"/>
</clipPath>
</defs>
</svg>
