<svg id="Layer_1" data-name="Layer 1" xmlns="http://www.w3.org/2000/svg" xmlns:xlink="http://www.w3.org/1999/xlink" width="128" height="128" viewBox="0 0 128 128">
  <defs>
    <style>
      .cls-1, .cls-3 {
        fill: none;
      }

      .cls-2 {
        clip-path: url(#clip-path);
      }

      .cls-3 {
        stroke: #565657;
        stroke-linecap: round;
        stroke-miterlimit: 10;
        stroke-width: 4.89px;
      }

      .cls-4 {
        fill: #c7cac7;
      }

      .cls-5 {
        fill: #afb6bb;
      }

      .cls-6 {
        fill: #b3332f;
      }
    </style>
    <clipPath id="clip-path">
      <rect class="cls-1" x="13.9" y="6.8" width="101.2" height="114.94"/>
    </clipPath>
  </defs>
  <title>190429_GR-19-050601_Microphone_off</title>
  <g>
    <g class="cls-2">
      <path class="cls-3" d="M93.3,63V75.1a30.1,30.1,0,1,1-60.2,0V63m30.1,42.2v14.1m12.1,0H51.2"/>
    </g>
    <path class="cls-4" d="M63.2,95.2h0A20.2,20.2,0,0,1,43.1,75.1V26.9A20.2,20.2,0,0,1,63.2,6.8h0A20.1,20.1,0,0,1,83.3,26.9V75.1A20.2,20.2,0,0,1,63.2,95.2Z"/>
    <g>
      <path class="cls-5" d="M83.3,75.1V26.9A20.1,20.1,0,0,0,63.2,6.8V95.2A20.2,20.2,0,0,0,83.3,75.1Z"/>
      <path class="cls-6" d="M14.5,104.7h0a2.4,2.4,0,0,1,.2-3.4L111,13a2.6,2.6,0,0,1,3.5.1h0a2.5,2.5,0,0,1-.2,3.5L18,104.9a2.5,2.5,0,0,1-3.5-.2Z"/>
    </g>
  </g>
</svg>
