<?xml version="1.0" encoding="UTF-8" standalone="no"?>
<!-- Created with Inkscape (http://www.inkscape.org/) -->

<svg
   xmlns:dc="http://purl.org/dc/elements/1.1/"
   xmlns:cc="http://creativecommons.org/ns#"
   xmlns:rdf="http://www.w3.org/1999/02/22-rdf-syntax-ns#"
   xmlns:svg="http://www.w3.org/2000/svg"
   xmlns="http://www.w3.org/2000/svg"
   xmlns:sodipodi="http://sodipodi.sourceforge.net/DTD/sodipodi-0.dtd"
   xmlns:inkscape="http://www.inkscape.org/namespaces/inkscape"
   version="1.1"
   id="svg2"
   xml:space="preserve"
   width="371.07999"
   height="85.706665"
   viewBox="0 0 371.07999 85.706665"
   sodipodi:docname="MICH2C.svg"
   inkscape:version="0.92.4 (unknown)"><metadata
     id="metadata8"><rdf:RDF><cc:Work
         rdf:about=""><dc:format>image/svg+xml</dc:format><dc:type
           rdf:resource="http://purl.org/dc/dcmitype/StillImage" /><dc:title></dc:title></cc:Work></rdf:RDF></metadata><defs
     id="defs6" /><sodipodi:namedview
     pagecolor="#ffffff"
     bordercolor="#666666"
     borderopacity="1"
     objecttolerance="10"
     gridtolerance="10"
     guidetolerance="10"
     inkscape:pageopacity="0"
     inkscape:pageshadow="2"
     inkscape:window-width="1406"
     inkscape:window-height="755"
     id="namedview4"
     showgrid="false"
     inkscape:pagecheckerboard="false"
     inkscape:zoom="0.97553092"
     inkscape:cx="185.53999"
     inkscape:cy="42.853333"
     inkscape:window-x="253"
     inkscape:window-y="93"
     inkscape:window-maximized="0"
     inkscape:current-layer="g10" /><g
     id="g10"
     inkscape:groupmode="layer"
     inkscape:label="ink_ext_XXXXXX"
     transform="matrix(1.3333333,0,0,-1.3333333,0,85.706667)"><path
       inkscape:connector-curvature="0"
       id="path14"
       style="fill:#231f20;fill-opacity:1;fill-rule:nonzero;stroke:none;stroke-width:0.1"
       d="m 106.084,20.752 -1.629,20.4199 h -0.068 L 98.0902,24.8672 c -0.5824,-1.5184 -1.8718,-2.7637 -3.6781,-2.7637 -1.8047,0 -3.2344,1.502 -3.6777,2.7637 L 84.577,40.968 h -0.0668 l -1.77,-20.216 -6.0066,0.0039 3.0676,28.7851 c 0.2015,1.5895 1.5051,3.3988 3.2769,3.3988 2.7172,0 3.8051,-1.589 4.3465,-3.1781 l 6.9547,-17.4785 h 0.0672 L 101.4,49.7617 c 0.612,1.5891 1.665,3.1781 4.348,3.1781 1.772,0 3.075,-1.8093 3.275,-3.7699 l 3.04,-28.414 -5.979,-0.0039 v 0" /><path
       inkscape:connector-curvature="0"
       id="path16"
       style="fill:#231f20;fill-opacity:1;fill-rule:nonzero;stroke:none;stroke-width:0.1"
       d="m 115.241,45.0988 h 5.599 V 20.7559 h -5.599 v 24.3429 0" /><path
       inkscape:connector-curvature="0"
       id="path18"
       style="fill:#231f20;fill-opacity:1;fill-rule:nonzero;stroke:none;stroke-width:0.1"
       d="m 247.664,45.0988 h 5.598 V 20.7559 h -5.598 v 24.3429 0" /><path
       inkscape:connector-curvature="0"
       id="path20"
       style="fill:#231f20;fill-opacity:1;fill-rule:nonzero;stroke:none;stroke-width:0.1"
       d="m 123.939,36.5582 c 0,7.1285 2.729,8.809 7.313,8.809 h 5.984 c 7.243,0 8.184,0.4711 8.138,-6.4219 l -13.121,0.0227 c -2.682,0 -3.086,-1.7028 -3.086,-4.7301 v -2.6227 c 0,-3.5293 0.504,-4.875 2.912,-4.875 l 13.501,0.011 c 0,-4.102 -0.054,-6.2649 -5.165,-6.2649 h -9.163 c -4.584,0 -7.313,1.6817 -7.313,8.8106 v 7.2613 0" /><path
       inkscape:connector-curvature="0"
       id="path22"
       style="fill:#231f20;fill-opacity:1;fill-rule:nonzero;stroke:none;stroke-width:0.1"
       d="m 164.937,35.6836 c 0,-1.7477 -0.504,-2.5547 -1.88,-2.5547 h -9.32 v 5.918 h 8.862 c 1.605,0 2.338,-0.4043 2.338,-2.5563 z m 4.951,0.6391 v 1.5468 c 0,4.3711 -1.054,7.2293 -4.973,7.2293 H 148.647 V 20.7559 h 5.09 v 6.3214 h 8.908 c 1.582,0 2.085,-0.8418 2.085,-3.3964 v -2.925 h 5.091 v 4.1347 c 0,4.0008 -1.262,4.9766 -2.775,5.3809 v 0.0664 c 2.339,0.8074 2.842,2.7246 2.842,5.9848 v 0" /><path
       inkscape:connector-curvature="0"
       id="path24"
       style="fill:#231f20;fill-opacity:1;fill-rule:nonzero;stroke:none;stroke-width:0.1"
       d="m 178.185,31.6152 c 0,-3.5293 0.505,-4.875 2.911,-4.875 h 6.511 c 2.407,0 2.911,1.3457 2.911,4.875 v 2.6227 c 0,3.0273 -0.504,4.8758 -3.186,4.8758 h -5.96 c -2.682,0 -3.187,-1.8485 -3.187,-4.8758 z m -5.227,4.943 c 0,7.1285 2.728,8.809 7.313,8.809 h 8.161 c 4.585,0 7.313,-1.6805 7.313,-8.809 v -7.2613 c 0,-7.1289 -2.728,-8.8106 -7.313,-8.8106 h -8.161 c -4.585,0 -7.313,1.6817 -7.313,8.8106 v 7.2613 0" /><path
       inkscape:connector-curvature="0"
       id="path26"
       style="fill:#231f20;fill-opacity:1;fill-rule:nonzero;stroke:none;stroke-width:0.1"
       d="m 223.155,45.0988 h 5.088 v -8.6754 h 10.729 v 8.6754 h 5.089 V 20.7559 h -5.089 v 9.2129 h -10.729 v -9.2129 h -5.088 v 24.3429 0" /><path
       inkscape:connector-curvature="0"
       id="path28"
       style="fill:#231f20;fill-opacity:1;fill-rule:nonzero;stroke:none;stroke-width:0.1"
       d="m 273.084,35.5164 c 0,-1.4465 -0.458,-2.5887 -1.651,-2.5887 h -9.77 v 6.1192 h 9.336 c 1.536,0 2.085,-0.9418 2.085,-2.5895 z m -0.779,9.5824 H 256.574 V 20.7559 h 5.089 v 6.1191 h 11.971 c 3.6,0 4.677,4.1699 4.677,7.7996 v 2.0856 c 0,4.7746 -1.169,8.3386 -6.006,8.3386 v 0" /><path
       inkscape:connector-curvature="0"
       id="path30"
       style="fill:#231f20;fill-opacity:1;fill-rule:nonzero;stroke:none;stroke-width:0.1"
       d="m 198.507,36.5211 c 0,7.1289 2.728,8.8094 7.313,8.8094 h 5.983 c 7.244,0 8.154,0.4718 8.108,-6.4219 l -13.09,0.0227 c -2.683,0 -3.087,-1.7032 -3.087,-4.7297 v -2.6215 c 0,-3.5313 0.505,-4.8762 2.911,-4.8762 l 13.502,0.0109 c 0,-4.1015 -0.053,-6.2656 -5.165,-6.2656 h -9.162 c -4.585,0 -7.313,1.6817 -7.313,8.8106 v 7.2613 0" /><path
       inkscape:connector-curvature="0"
       id="path32"
       style="fill:#ffffff;fill-opacity:1;fill-rule:nonzero;stroke:none;stroke-width:0.1"
       d="M 43.7535,62.6742 C 40.6266,63.5723 37.3113,64.059 33.8738,64.059 15.1875,64.059 0.0386719,49.7777 0.0386719,32.1594 0.0386719,14.5414 15.1875,0.260156 33.8738,0.260156 c 17.1715,0 31.3453,12.062144 33.5328,27.686344 L 43.7535,62.6742" /><path
       inkscape:connector-curvature="0"
       id="path34"
       style="fill:#ed192d;fill-opacity:1;fill-rule:nonzero;stroke:none;stroke-width:0.1"
       d="m 43.0824,22.291 c 0,0 -5.4676,-7.973 -6.0281,-8.7344 -3.3441,-4.54488 -5.8055,0.7024 -5.8055,0.7024 L 13.8512,41.6086 c 0,0 3.2383,4.5449 5.7726,8.1473 2.7883,3.9664 5.3,1.1972 6.1367,-0.1145 6.0223,-9.441 17.3219,-27.3504 17.3219,-27.3504 z m 4.8731,38.8227 c -4.3543,2.0547 -8.3809,3.075 -13.5629,3.1656 C 15.7113,64.6047 0.314844,50.4809 0.00429688,32.7328 -0.0484375,29.6594 0.353516,26.6797 1.15273,23.8496 l 9.65707,13.5387 6.5382,-10.234 c 0,0 1.9645,-2.2273 0.4747,-4.4809 C 17.7301,22.5316 8.95156,10.4063 8.95156,10.4063 15.0141,4.0543 23.5438,0.175781 33.2715,0.00585938 42.7078,-0.159766 51.1324,3.28242 57.3699,9.09531 L 36.8301,41.5164 c 0,0 3.239,4.5465 5.7722,8.1492 2.7899,3.9657 5.3,1.1973 6.1379,-0.1144 6.0227,-9.4418 17.3235,-27.3504 17.3235,-27.3504 l 0.0047,0.1039 c 1.1582,2.6625 1.7519,3.4691 1.8757,7.3043 L 47.9555,61.1137 v 0" /><path
       inkscape:connector-curvature="0"
       id="path36"
       style="fill:#231f20;fill-opacity:1;fill-rule:nonzero;stroke:none;stroke-width:0.1"
       d="m 55.9395,59.5816 c 0.3847,0 0.7285,0.0289 0.7285,0.4911 0,0.3691 -0.3375,0.4406 -0.6551,0.4406 h -0.6188 v -0.9317 z m -0.5454,-1.6878 h -0.455 V 60.9 h 1.1433 c 0.7102,0 1.0625,-0.2637 1.0625,-0.8559 0,-0.5382 -0.3383,-0.773 -0.7789,-0.8277 l 0.8543,-1.3226 h -0.5101 l -0.793,1.3035 h -0.5231 v -1.3035 0 m 0.55,-0.6676 c 1.1793,0 2.1094,0.9238 2.1094,2.1758 0,1.2343 -0.9301,2.1648 -2.1094,2.1648 -1.1914,0 -2.1222,-0.9305 -2.1222,-2.1648 0,-1.252 0.9308,-2.1758 2.1222,-2.1758 v 0 m -2.6468,2.1758 c 0,1.498 1.2144,2.5984 2.6468,2.5984 1.4215,0 2.6336,-1.1004 2.6336,-2.5984 0,-1.5082 -1.2121,-2.6114 -2.6336,-2.6114 -1.4324,0 -2.6468,1.1032 -2.6468,2.6114 v 0" /></g></svg>