<svg id="Layer_1" data-name="Layer 1" xmlns="http://www.w3.org/2000/svg" xmlns:xlink="http://www.w3.org/1999/xlink" width="128" height="128" viewBox="0 0 128 128">
  <defs>
    <style>
      .cls-1 {
        fill: none;
      }

      .cls-2 {
        clip-path: url(#clip-path);
      }

      .cls-3 {
        fill: #d8ab3d;
      }

      .cls-4 {
        fill: #efdcb1;
      }

      .cls-5 {
        fill: #b3332f;
      }

      .cls-6 {
        fill: #d8d7d5;
      }
    </style>
    <clipPath id="clip-path">
      <rect class="cls-1" x="10.4" y="10.1" width="108.3" height="108.28"/>
    </clipPath>
  </defs>
  <title>190429_GR-19-050601_Pencil_Icon</title>
  <g>
    <g class="cls-2">
      <path class="cls-3" d="M24.8,82l18.6,20.6,63.5-63.1S120.8,6.8,87.6,20.9L24.8,82Z"/>
    </g>
    <polygon class="cls-4" points="24.5 82.3 18.3 108.3 43.4 102.6 45.7 92 34.4 94.6 35.2 82 24.5 82.3 24.5 82.3"/>
    <polygon class="cls-5" points="82.4 25.2 101.5 45.5 106.9 39.5 87.6 20.9 82.4 25.2 82.4 25.2"/>
    <polygon class="cls-6" points="77.5 30 96.6 50.3 102 44.2 82.7 25.6 77.5 30 77.5 30"/>
    <polygon class="cls-5" points="26.7 80.8 78 30.7 83.1 36.2 33.5 83.8 26.7 80.8 26.7 80.8"/>
    <polygon class="cls-5" points="45.7 92 91.6 45.5 96.7 51.1 44.3 101.3 45.7 92 45.7 92"/>
    <path d="M101.7,42.6,84.6,25.4,87,22.9l17.2,17.2-2.5,2.5ZM47,92.4,85.8,53.6a1.6,1.6,0,0,0,0-2.4,1.8,1.8,0,0,0-2.5,0L44.5,90l-8.3.9.9-8.3L76,43.8a1.8,1.8,0,0,0-2.5-2.5L34.7,80.2l-5.5.6,48-48.1L94.4,49.9,46.3,98l.7-5.6Zm-21.8,9.5a2,2,0,0,0-2.5,0l-1.3,1.4,4.4-18.7,7.7-.8-1,8.9v.4h.1a.4.4,0,0,0,.1.3v.3l.2.2.3.3h1.1l8.9-1-.8,7.7-18.6,4.4,1.3-1.3a1.8,1.8,0,0,0,0-2.5ZM96.8,47.5,79.6,30.3l2.5-2.5L99.3,45l-2.5,2.5Zm8.6-25.8a12.2,12.2,0,0,1,1.1,15.9l-16.9-17a12.1,12.1,0,0,1,15.8,1.1Zm2.5-2.4a15.6,15.6,0,0,0-22.1,0L23.2,81.8c0,.1,0,.1-.1.1H23l-.2.5h0l-6.2,25.8v.4h0a1.3,1.3,0,0,0,.1.6h0a1,1,0,0,0,.4.5,1,1,0,0,0,.5.4h1.1l25.8-6.1h.3l.3-.2h.2l62.6-62.6a15.7,15.7,0,0,0,0-22Z"/>
  </g>
</svg>
