<svg id="Layer_1" data-name="Layer 1" xmlns="http://www.w3.org/2000/svg" xmlns:xlink="http://www.w3.org/1999/xlink" width="128" height="128" viewBox="0 0 128 128">
  <defs>
    <style>
      .cls-1 {
        fill: none;
      }

      .cls-2 {
        clip-path: url(#clip-path);
      }

      .cls-3 {
        fill: #b3332f;
      }
    </style>
    <clipPath id="clip-path">
      <rect class="cls-1" x="13.3" y="7.3" width="102.4" height="113.88"/>
    </clipPath>
  </defs>
  <title>190429_GR-19-050601_Power_Icon</title>
  <g>
    <g class="cls-2">
      <path class="cls-3" d="M13.5,74.9A51.3,51.3,0,0,1,32.3,30.3a7.6,7.6,0,0,1,12.4,5.8h0A7.5,7.5,0,0,1,41.8,42a36.1,36.1,0,1,0,45.4,0,7.7,7.7,0,0,1-2.9-5.9h0a7.6,7.6,0,0,1,12.3-6A51.2,51.2,0,1,1,13.5,74.9Z"/>
    </g>
    <path d="M64.6,7.3a7.5,7.5,0,0,0-7.5,7.5V49.6a7.5,7.5,0,0,0,15,0V14.8a7.5,7.5,0,0,0-7.5-7.5Z"/>
  </g>
</svg>
