<svg id="Layer_1" data-name="Layer 1" xmlns="http://www.w3.org/2000/svg" xmlns:xlink="http://www.w3.org/1999/xlink" width="128" height="128" viewBox="0 0 128 128">
  <defs>
    <style>
      .cls-1, .cls-4 {
        fill: none;
      }

      .cls-2 {
        fill: #b3332f;
      }

      .cls-3 {
        clip-path: url(#clip-path);
      }

      .cls-4 {
        stroke: #231f20;
        stroke-miterlimit: 10;
        stroke-width: 2.01px;
      }
    </style>
    <clipPath id="clip-path">
      <rect class="cls-1" x="12.3" y="8.2" width="104.4" height="112.01"/>
    </clipPath>
  </defs>
  <title>190429_GR-19-050601_18.Edit_Rotate_left</title>
  <g>
    <path class="cls-2" d="M65.5,119.2a6.7,6.7,0,0,1-4.6-3.6,6.4,6.4,0,0,1,4.8-9.1c2.7-.3,5.3-.9,8-1.2,4.4-.6,7.7,1.8,7.9,6.2s-1.4,5.7-5.8,6.6c-2,.5-4,.6-6,.9l-.4.2Z"/>
    <g class="cls-3">
      <path class="cls-4" d="M65.5,119.2a6.7,6.7,0,0,1-4.6-3.6,6.4,6.4,0,0,1,4.8-9.1c2.7-.3,5.3-.9,8-1.2,4.4-.6,7.7,1.8,7.9,6.2s-1.4,5.7-5.8,6.6c-2,.5-4,.6-6,.9l-.4.2Z"/>
      <path class="cls-2" d="M50.5,32.9l7,9.6.3.6c1.4,2.8.3,3.5-1.9,3.9s-7.4,1-11.1,1.5l-13,1.9-9.9,1.3-5.4.9c-1.9.1-3.8-1.2-3-3.7s1.8-4.6,2.8-6.9c2.5-6,4.9-12,7.5-18,1.7-4.2,3.6-8.3,5.2-12.5.9-2.4,3.5-3.4,5.6-.5l7.7,10.6c.1.3.7.4.9.3a51.5,51.5,0,0,1,11.5-3.7,26.9,26.9,0,0,1,5.7-.7,41,41,0,0,1,6.1-.2,45.3,45.3,0,0,1,12,1.8,47.7,47.7,0,0,1,15.1,7.2A56.6,56.6,0,0,1,99,30.6a45.2,45.2,0,0,1,7.9,9,44,44,0,0,1,5.4,10.3A71.7,71.7,0,0,1,115,60a58.3,58.3,0,0,1,.7,10.2,57.4,57.4,0,0,1-1,8.2c-.6,3-4.3,5.3-7.5,4.7a6.8,6.8,0,0,1-5.1-7.9,40.4,40.4,0,0,0,.7-7.8,36.4,36.4,0,0,0-3-13.8,37.5,37.5,0,0,0-10-13.9,36.2,36.2,0,0,0-14.8-8,33.8,33.8,0,0,0-11.4-1.5,35.6,35.6,0,0,0-12.4,2.5l-.7.2Z"/>
      <path class="cls-4" d="M50.5,32.9l7,9.6.3.6c1.4,2.8.3,3.5-1.9,3.9s-7.4,1-11.1,1.5l-13,1.9-9.9,1.3-5.4.9c-1.9.1-3.8-1.2-3-3.7s1.8-4.6,2.8-6.9c2.5-6,4.9-12,7.5-18,1.7-4.2,3.6-8.3,5.2-12.5.9-2.4,3.5-3.4,5.6-.5l7.7,10.6c.1.3.7.4.9.3a51.5,51.5,0,0,1,11.5-3.7,26.9,26.9,0,0,1,5.7-.7,41,41,0,0,1,6.1-.2,45.3,45.3,0,0,1,12,1.8,47.7,47.7,0,0,1,15.1,7.2A56.6,56.6,0,0,1,99,30.6a45.2,45.2,0,0,1,7.9,9,44,44,0,0,1,5.4,10.3A71.7,71.7,0,0,1,115,60a58.3,58.3,0,0,1,.7,10.2,57.4,57.4,0,0,1-1,8.2c-.6,3-4.3,5.3-7.5,4.7a6.8,6.8,0,0,1-5.1-7.9,40.4,40.4,0,0,0,.7-7.8,36.4,36.4,0,0,0-3-13.8,37.5,37.5,0,0,0-10-13.9,36.2,36.2,0,0,0-14.8-8,33.8,33.8,0,0,0-11.4-1.5,35.6,35.6,0,0,0-12.4,2.5l-.7.2Z"/>
    </g>
    <path class="cls-2" d="M106.1,95.9a6.5,6.5,0,0,1-2.1,4.9c-2,2.2-4.1,4.3-6.2,6.3s-5.1,1.7-7.1.6a6.4,6.4,0,0,1-3.4-5.9c.1-2.5,1.5-4.2,3.3-5.8a29.8,29.8,0,0,0,3.5-3.6,6.6,6.6,0,0,1,9.8-1.5,5.9,5.9,0,0,1,2.2,5Z"/>
    <path class="cls-4" d="M106.1,95.9a6.5,6.5,0,0,1-2.1,4.9c-2,2.2-4.1,4.3-6.2,6.3s-5.1,1.7-7.1.6a6.4,6.4,0,0,1-3.4-5.9c.1-2.5,1.5-4.2,3.3-5.8a29.8,29.8,0,0,0,3.5-3.6,6.6,6.6,0,0,1,9.8-1.5,5.9,5.9,0,0,1,2.2,5Z"/>
    <path class="cls-2" d="M15.5,80.9c-.2-5,4.7-7.8,9-6a6.7,6.7,0,0,1,3.8,4.5,50,50,0,0,0,2.4,6c1.7,3.7.5,7.7-3.5,9.3a6.3,6.3,0,0,1-7.3-2.2,37.7,37.7,0,0,1-4.4-10.3,5.7,5.7,0,0,1,0-1.3Z"/>
    <g class="cls-3">
      <path class="cls-4" d="M15.5,80.9c-.2-5,4.7-7.8,9-6a6.7,6.7,0,0,1,3.8,4.5,50,50,0,0,0,2.4,6c1.7,3.7.5,7.7-3.5,9.3a6.3,6.3,0,0,1-7.3-2.2,37.7,37.7,0,0,1-4.4-10.3,5.7,5.7,0,0,1,0-1.3Z"/>
    </g>
    <path class="cls-2" d="M45.9,115.1c-1.9.2-3.5-.8-5.2-1.7L35.2,110a6.6,6.6,0,0,1-2.5-7.7,6.6,6.6,0,0,1,6.2-4.2A8,8,0,0,1,42,99c2.6,1.4,5.2,2.9,7.7,4.5a6.3,6.3,0,0,1,1.1,9.6,5.6,5.6,0,0,1-4.9,2Z"/>
    <g class="cls-3">
      <path class="cls-4" d="M45.9,115.1c-1.9.2-3.5-.8-5.2-1.7L35.2,110a6.6,6.6,0,0,1-2.5-7.7,6.6,6.6,0,0,1,6.2-4.2A8,8,0,0,1,42,99c2.6,1.4,5.2,2.9,7.7,4.5a6.3,6.3,0,0,1,1.1,9.6,5.6,5.6,0,0,1-4.9,2Z"/>
    </g>
  </g>
</svg>
