<svg id="Layer_1" data-name="Layer 1" xmlns="http://www.w3.org/2000/svg" xmlns:xlink="http://www.w3.org/1999/xlink" width="128" height="128" viewBox="0 0 128 128">
  <defs>
    <style>
      .cls-1, .cls-4 {
        fill: none;
      }

      .cls-2 {
        clip-path: url(#clip-path);
      }

      .cls-3 {
        fill: #b3332f;
      }

      .cls-4 {
        stroke: #231f20;
        stroke-miterlimit: 10;
        stroke-width: 2.01px;
      }
    </style>
    <clipPath id="clip-path">
      <rect class="cls-1" x="12.4" y="8.2" width="104.3" height="112.14"/>
    </clipPath>
  </defs>
  <title>190429_GR-19-050601_18.Rotate_left</title>
  <g class="cls-2">
    <path class="cls-3" d="M13.5,65.1A51.2,51.2,0,0,1,60.6,17.5a53.3,53.3,0,0,1,8,.1v-.2a55.4,55.4,0,0,1,5.7.7,53.5,53.5,0,0,1,11.5,3.8,1,1,0,0,0,.9-.3L94.3,11c2.1-3,4.7-2,5.6.5,1.7,4.2,3.5,8.3,5.3,12.4,2.5,6,5,12,7.4,18.1a58.6,58.6,0,0,1,2.8,6.9c.9,2.5-1,3.8-3,3.6a50.2,50.2,0,0,1-5.4-.8l-9.9-1.3-13-1.9L73,46.9c-2.2-.3-3.3-1-1.9-3.9,0-.1.2-.3.3-.5,2.3-3.2,4.6-6.3,6.9-9.6l-.7-.3h0a38.9,38.9,0,0,0-16.4-2.2A38.2,38.2,0,1,0,101,79a6.3,6.3,0,0,1,7.1-4.5h0a6.4,6.4,0,0,1,5.2,8A51,51,0,0,1,13.5,65.1Z"/>
    <path class="cls-4" d="M13.5,65.1A51.2,51.2,0,0,1,60.6,17.5a53.3,53.3,0,0,1,8,.1v-.2a55.4,55.4,0,0,1,5.7.7,53.5,53.5,0,0,1,11.5,3.8,1,1,0,0,0,.9-.3L94.3,11c2.1-3,4.7-2,5.6.5,1.7,4.2,3.5,8.3,5.3,12.4,2.5,6,5,12,7.4,18.1a58.6,58.6,0,0,1,2.8,6.9c.9,2.5-1,3.8-3,3.6a50.2,50.2,0,0,1-5.4-.8l-9.9-1.3-13-1.9L73,46.9c-2.2-.3-3.3-1-1.9-3.9,0-.1.2-.3.3-.5,2.3-3.2,4.6-6.3,6.9-9.6l-.7-.3h0a38.9,38.9,0,0,0-16.4-2.2A38.2,38.2,0,1,0,101,79a6.3,6.3,0,0,1,7.1-4.5h0a6.4,6.4,0,0,1,5.2,8A51,51,0,0,1,13.5,65.1Z"/>
  </g>
</svg>
