<svg id="Layer_1" data-name="Layer 1" xmlns="http://www.w3.org/2000/svg" xmlns:xlink="http://www.w3.org/1999/xlink" width="128" height="128" viewBox="0 0 128 128">
  <defs>
    <style>
      .cls-1, .cls-4 {
        fill: none;
      }

      .cls-2 {
        clip-path: url(#clip-path);
      }

      .cls-3 {
        fill: #b3332f;
      }

      .cls-4 {
        stroke: #231f20;
        stroke-miterlimit: 10;
        stroke-width: 1.96px;
      }

      .cls-5 {
        fill: #a6aa44;
      }
    </style>
    <clipPath id="clip-path">
      <rect class="cls-1" x="10.8" y="9.7" width="107.5" height="109.1"/>
    </clipPath>
  </defs>
  <title>190429_GR-19-050601_18.Rotate_Flip</title>
  <g>
    <g class="cls-2">
      <path class="cls-3" d="M117,63.1A49.7,49.7,0,0,0,63.5,18.8h.1a25.1,25.1,0,0,0-5.5.7A47.3,47.3,0,0,0,46.9,23c-.2.1-.8,0-.9-.2L38.5,12.4c-2.1-2.8-4.6-1.9-5.5.5C31.5,17,29.6,21,27.9,25L20.7,42.6A55.2,55.2,0,0,0,18,49.3c-.8,2.5,1,3.7,2.9,3.6l5.3-.8,9.6-1.3,12.6-1.9c3.6-.5,7.2-.9,10.8-1.5s3.3-1,1.9-3.8l-.3-.5c-2.2-3.1-4.4-6.2-6.8-9.4l.7-.2h.1a38.2,38.2,0,0,1,17-2.1,37.2,37.2,0,1,1-19,71,6.1,6.1,0,0,0-6.8,1h0a6.1,6.1,0,0,0,1.6,10.2,48,48,0,0,0,20.1,4.3A49.5,49.5,0,0,0,117,63.1Z"/>
      <path class="cls-4" d="M117,63.1A49.7,49.7,0,0,0,63.5,18.8h.1a25.1,25.1,0,0,0-5.5.7A47.3,47.3,0,0,0,46.9,23c-.2.1-.8,0-.9-.2L38.5,12.4c-2.1-2.8-4.6-1.9-5.5.5C31.5,17,29.6,21,27.9,25L20.7,42.6A55.2,55.2,0,0,0,18,49.3c-.8,2.5,1,3.7,2.9,3.6l5.3-.8,9.6-1.3,12.6-1.9c3.6-.5,7.2-.9,10.8-1.5s3.3-1,1.9-3.8l-.3-.5c-2.2-3.1-4.4-6.2-6.8-9.4l.7-.2h.1a38.2,38.2,0,0,1,17-2.1,37.2,37.2,0,1,1-19,71,6.1,6.1,0,0,0-6.8,1h0a6.1,6.1,0,0,0,1.6,10.2,48,48,0,0,0,20.1,4.3A49.5,49.5,0,0,0,117,63.1Z"/>
    </g>
    <path class="cls-5" d="M37,92.8l-13-13L37,66.9,49.9,79.8,37,92.8ZM37,55,12.2,79.8,37,104.7,61.8,79.8,37,55Z"/>
    <g class="cls-2">
      <path class="cls-4" d="M37,92.8l-13-13L37,66.9,49.9,79.8,37,92.8ZM37,55,12.2,79.8,37,104.7,61.8,79.8,37,55Z"/>
    </g>
  </g>
</svg>
