<svg id="Layer_1" data-name="Layer 1" xmlns="http://www.w3.org/2000/svg" xmlns:xlink="http://www.w3.org/1999/xlink" width="128" height="128" viewBox="0 0 128 128">
  <defs>
    <style>
      .cls-1 {
        fill: none;
      }

      .cls-2 {
        fill: #8db4b3;
      }

      .cls-3 {
        fill: #b6e2e8;
      }

      .cls-4 {
        fill: #6b848c;
      }

      .cls-5 {
        fill: #f8f7f7;
      }

      .cls-6 {
        clip-path: url(#clip-path);
      }
    </style>
    <clipPath id="clip-path">
      <rect class="cls-1" x="10.4" y="10.1" width="108.3" height="108.28"/>
    </clipPath>
  </defs>
  <title>190429_GR-19-050601_Save_Icon</title>
  <g>
    <polygon class="cls-2" points="116.9 116.6 102.8 116.6 64.5 107.3 26.2 116.6 12.1 116.6 12.1 11.8 35.7 11.8 64.5 21.2 93.3 11.8 102.9 11.8 116.9 25.8 116.9 116.6 116.9 116.6"/>
    <polygon class="cls-3" points="35.7 11.8 35.7 54.9 93.3 54.9 93.3 11.8 83.9 11.8 74.2 16.5 64.5 11.8 35.7 11.8 35.7 11.8"/>
    <polygon class="cls-4" points="64.5 11.8 83.9 11.8 83.9 45.6 64.5 45.6 64.5 11.8 64.5 11.8"/>
    <polygon class="cls-5" points="102.8 83.2 102.8 116.6 26.2 116.6 26.2 83.2 64.5 78.5 102.8 83.2 102.8 83.2"/>
    <path class="cls-4" d="M102.8,78.8v4.4H26.2V78.8a7.3,7.3,0,0,1,7.2-7.3H95.6a7.3,7.3,0,0,1,7.2,7.3Z"/>
    <g class="cls-6">
      <path d="M95.6,69.8H46.3a1.8,1.8,0,0,0-1.8,1.7,1.8,1.8,0,0,0,1.8,1.8H95.6a5.5,5.5,0,0,1,5.5,5.5v2.6H27.9V78.8a5.5,5.5,0,0,1,5.5-5.5h5.9A1.8,1.8,0,0,0,41,71.5a1.8,1.8,0,0,0-1.7-1.7H33.4a8.9,8.9,0,0,0-8.9,9v30.8a1.7,1.7,0,1,0,3.4,0V84.9h73.2v24.7a1.7,1.7,0,1,0,3.4,0V78.8a8.9,8.9,0,0,0-8.9-9Z"/>
      <path d="M115.1,114.9H13.9V13.6H34V54.9a1.8,1.8,0,0,0,1.7,1.8H93.3A1.8,1.8,0,0,0,95,54.9V13.6h7.2l12.9,12.9v88.4ZM66.2,13.6h16V43.9h-16V13.6Zm-28.7,0H62.8v32a1.7,1.7,0,0,0,1.7,1.8H83.9a1.8,1.8,0,0,0,1.8-1.8v-32h5.8V53.2h-54V13.6Zm80.6,11-13.9-14a2.1,2.1,0,0,0-1.3-.5H12.1a1.7,1.7,0,0,0-1.7,1.7V116.6a1.7,1.7,0,0,0,1.7,1.8H116.9a1.7,1.7,0,0,0,1.7-1.8V25.8a1.5,1.5,0,0,0-.5-1.2Z"/>
    </g>
  </g>
</svg>
