<svg id="Layer_1" data-name="Layer 1" xmlns="http://www.w3.org/2000/svg" xmlns:xlink="http://www.w3.org/1999/xlink" width="128" height="128" viewBox="0 0 128 128">
  <defs>
    <style>
      .cls-1, .cls-4 {
        fill: none;
      }

      .cls-2 {
        fill: #b3332f;
      }

      .cls-3 {
        clip-path: url(#clip-path);
      }

      .cls-4 {
        stroke: #231f20;
        stroke-miterlimit: 10;
        stroke-width: 2.05px;
      }
    </style>
    <clipPath id="clip-path">
      <rect class="cls-1" x="10.4" y="10.1" width="108.3" height="108.28"/>
    </clipPath>
  </defs>
  <title>190429_GR-19-050601_Zoom_Scale_icon</title>
  <g>
    <path class="cls-2" d="M45.8,11.1c2.6,2.9,2.6,4-.3,6.9l-8.6,8.5c4.5,4.6,8.9,9,13.3,13.3,2.5,2.6,2.5,3.3,0,5.8l-4.8,4.8c-1.9,1.9-2.9,1.9-4.9,0L28.4,38.2l-1.7-1.5-8.5,8.5c-2.8,2.9-3.9,3-6.8.4V11.1Z"/>
    <g class="cls-3">
      <path class="cls-4" d="M45.8,11.1c2.6,2.9,2.6,4-.3,6.9l-8.6,8.5c4.5,4.6,8.9,9,13.3,13.3,2.5,2.6,2.5,3.3,0,5.8l-4.8,4.8c-1.9,1.9-2.9,1.9-4.9,0L28.4,38.2l-1.7-1.5-8.5,8.5c-2.8,2.9-3.9,3-6.8.4V11.1Z"/>
    </g>
    <path class="cls-2" d="M117.6,45.6c-2.9,2.6-4,2.5-6.8-.4l-8.6-8.6L88.9,49.9c-2.5,2.6-3.3,2.6-5.7.1s-3.3-3.2-4.9-4.9-1.9-2.9.1-4.8L90.5,28.1l1.6-1.6L83.5,18c-2.9-2.9-2.9-4-.3-6.9h34.4V45.6Z"/>
    <g class="cls-3">
      <path class="cls-4" d="M117.6,45.6c-2.9,2.6-4,2.5-6.8-.4l-8.6-8.6L88.9,49.9c-2.5,2.6-3.3,2.6-5.7.1s-3.3-3.2-4.9-4.9-1.9-2.9.1-4.8L90.5,28.1l1.6-1.6L83.5,18c-2.9-2.9-2.9-4-.3-6.9h34.4V45.6Z"/>
    </g>
    <path class="cls-2" d="M11.4,82.9c2.9-2.6,4-2.5,6.8.3l8.6,8.7c4.5-4.6,8.9-9,13.3-13.3,2.5-2.6,3.3-2.6,5.7-.1l4.9,4.8c1.9,1.9,1.9,2.9-.1,4.9L38.5,100.4c-.5.4-1,1-1.6,1.6l8.6,8.5c2.9,2.9,2.9,4,.3,6.9H11.4V82.9Z"/>
    <g class="cls-3">
      <path class="cls-4" d="M11.4,82.9c2.9-2.6,4-2.5,6.8.3l8.6,8.7c4.5-4.6,8.9-9,13.3-13.3,2.5-2.6,3.3-2.6,5.7-.1l4.9,4.8c1.9,1.9,1.9,2.9-.1,4.9L38.5,100.4c-.5.4-1,1-1.6,1.6l8.6,8.5c2.9,2.9,2.9,4,.3,6.9H11.4V82.9Z"/>
    </g>
    <path class="cls-2" d="M83.2,117.4c-2.6-2.9-2.6-4,.3-6.9l8.6-8.5L78.8,88.6c-2.5-2.5-2.5-3.2,0-5.7l4.8-4.8c1.9-1.9,2.9-1.9,4.9,0l12.1,12.2,1.7,1.5,8.5-8.6c2.8-2.8,3.9-2.9,6.8-.3v34.5Z"/>
    <g class="cls-3">
      <path class="cls-4" d="M83.2,117.4c-2.6-2.9-2.6-4,.3-6.9l8.6-8.5L78.8,88.6c-2.5-2.5-2.5-3.2,0-5.7l4.8-4.8c1.9-1.9,2.9-1.9,4.9,0l12.1,12.2,1.7,1.5,8.5-8.6c2.8-2.8,3.9-2.9,6.8-.3v34.5Z"/>
    </g>
  </g>
</svg>
