<svg id="Layer_1" data-name="Layer 1" xmlns="http://www.w3.org/2000/svg" xmlns:xlink="http://www.w3.org/1999/xlink" width="128" height="128" viewBox="0 0 128 128">
  <defs>
    <style>
      .cls-1, .cls-4 {
        fill: none;
      }

      .cls-2 {
        fill: #b3332f;
      }

      .cls-3 {
        clip-path: url(#clip-path);
      }

      .cls-4 {
        stroke: #000;
        stroke-miterlimit: 10;
        stroke-width: 1.99px;
      }
    </style>
    <clipPath id="clip-path">
      <rect class="cls-1" x="10.4" y="10.1" width="108.3" height="108.28"/>
    </clipPath>
  </defs>
  <title>190429_GR-19-050601_Search_Icon</title>
  <g>
    <path class="cls-2" d="M76.5,76.3a27.5,27.5,0,0,1-20.2,8.4,27.5,27.5,0,0,1-20.2-8.4,27.6,27.6,0,0,1-8.4-20.2,27.7,27.7,0,0,1,8.4-20.3,27.5,27.5,0,0,1,20.2-8.4,27.5,27.5,0,0,1,20.2,8.4,27.7,27.7,0,0,1,8.4,20.3,27.6,27.6,0,0,1-8.4,20.2Zm38.8,27.2L93.4,81.6a44.8,44.8,0,0,0,4.3-43,43.5,43.5,0,0,0-9.5-14.4,46.5,46.5,0,0,0-14.4-9.6,45.6,45.6,0,0,0-17.5-3.5,44.7,44.7,0,0,0-17.4,3.5,44.1,44.1,0,0,0-24,24,43.8,43.8,0,0,0-3.5,17.5,43,43,0,0,0,3.5,17.4,44.1,44.1,0,0,0,24,24A43,43,0,0,0,56.3,101a43.5,43.5,0,0,0,25.5-7.9L103.7,115a7.8,7.8,0,0,0,5.8,2.4,7.6,7.6,0,0,0,5.7-2.4,7.8,7.8,0,0,0,2.4-5.8,7.5,7.5,0,0,0-2.3-5.7Z"/>
    <g class="cls-3">
      <path class="cls-4" d="M76.5,76.3a27.5,27.5,0,0,1-20.2,8.4,27.5,27.5,0,0,1-20.2-8.4,27.6,27.6,0,0,1-8.4-20.2,27.7,27.7,0,0,1,8.4-20.3,27.5,27.5,0,0,1,20.2-8.4,27.5,27.5,0,0,1,20.2,8.4,27.7,27.7,0,0,1,8.4,20.3,27.6,27.6,0,0,1-8.4,20.2Zm38.8,27.2L93.4,81.6a44.8,44.8,0,0,0,4.3-43,43.5,43.5,0,0,0-9.5-14.4,46.5,46.5,0,0,0-14.4-9.6,45.6,45.6,0,0,0-17.5-3.5,44.7,44.7,0,0,0-17.4,3.5,44.1,44.1,0,0,0-24,24,43.8,43.8,0,0,0-3.5,17.5,43,43,0,0,0,3.5,17.4,44.1,44.1,0,0,0,24,24A43,43,0,0,0,56.3,101a43.5,43.5,0,0,0,25.5-7.9L103.7,115a7.8,7.8,0,0,0,5.8,2.4,7.6,7.6,0,0,0,5.7-2.4,7.8,7.8,0,0,0,2.4-5.8,7.5,7.5,0,0,0-2.3-5.7Z"/>
    </g>
    <path d="M110.7,105.6h0a1.2,1.2,0,0,1-1.4,0L91.2,87.5a1,1,0,0,1,0-1.4h0a.9.9,0,0,1,1.3,0l18.2,18.2a.9.9,0,0,1,0,1.3Z"/>
    <path d="M114.4,109.6h0a.9.9,0,0,1-1.3,0l-1.5-1.5a.9.9,0,0,1,0-1.3h0a.9.9,0,0,1,1.3,0l1.5,1.5a.9.9,0,0,1,0,1.3Z"/>
  </g>
</svg>
