<svg id="Layer_1" data-name="Layer 1" xmlns="http://www.w3.org/2000/svg" xmlns:xlink="http://www.w3.org/1999/xlink" width="128" height="128" viewBox="0 0 128 128">
  <defs>
    <style>
      .cls-1 {
        fill: none;
      }

      .cls-2 {
        clip-path: url(#clip-path);
      }

      .cls-3 {
        fill: #b3332f;
      }

      .cls-3, .cls-4 {
        fill-rule: evenodd;
      }

      .cls-4 {
        fill: #b0aeab;
      }
    </style>
    <clipPath id="clip-path">
      <rect class="cls-1" x="10.4" y="10.1" width="108.3" height="108.28"/>
    </clipPath>
  </defs>
  <title>190429_GR-19-050601_Settings_Icon</title>
  <g class="cls-2">
    <g class="cls-2">
      <path class="cls-3" d="M118.3,58.2c-.2-1.5-1.9-2.6-3.5-2.6a12.2,12.2,0,0,1-11.2-7.5,11.9,11.9,0,0,1,3-13.3,3.1,3.1,0,0,0,.4-4.1A54.5,54.5,0,0,0,98.4,22a3.1,3.1,0,0,0-4.1.3,12.6,12.6,0,0,1-13.5,3.1,12,12,0,0,1-7.3-11.8,2.9,2.9,0,0,0-2.7-3.1,55.2,55.2,0,0,0-12.2-.1,3.2,3.2,0,0,0-2.7,3.1,12.1,12.1,0,0,1-7.4,11.6A12.4,12.4,0,0,1,35.1,22a3.1,3.1,0,0,0-4.1-.3,50.6,50.6,0,0,0-8.7,8.6,3.1,3.1,0,0,0,.3,4.2,11.8,11.8,0,0,1,3,13.5c-1.8,4.4-6.5,7.3-11.7,7.3a2.9,2.9,0,0,0-3.2,2.6,51.4,51.4,0,0,0,0,12.4c.2,1.5,2,2.6,3.6,2.6a11.9,11.9,0,0,1,11.1,7.4,12,12,0,0,1-3,13.4,3.1,3.1,0,0,0-.4,4.1,54.4,54.4,0,0,0,8.6,8.7,3,3,0,0,0,4.1-.4,12.6,12.6,0,0,1,13.5-3,12,12,0,0,1,7.3,11.8,3,3,0,0,0,2.7,3.1,43,43,0,0,0,6.2.4,40.3,40.3,0,0,0,6-.4,3.1,3.1,0,0,0,2.7-3.1,12,12,0,0,1,7.4-11.5,12.4,12.4,0,0,1,13.4,3.1,3.1,3.1,0,0,0,4.1.3,55.1,55.1,0,0,0,8.7-8.7,3,3,0,0,0-.3-4.1,11.8,11.8,0,0,1-3-13.5,12,12,0,0,1,11-7.3h.7a3.1,3.1,0,0,0,3.2-2.7,50.6,50.6,0,0,0,0-12.3M64.6,82.4a18.1,18.1,0,1,1,18-18,18.1,18.1,0,0,1-18,18"/>
      <path class="cls-4" d="M64.7,36.6A27.9,27.9,0,1,0,92.6,64.5,27.9,27.9,0,0,0,64.7,36.6m0,45.8A17.9,17.9,0,1,1,82.6,64.5,17.9,17.9,0,0,1,64.7,82.4"/>
    </g>
  </g>
</svg>
