<svg id="Layer_1" data-name="Layer 1" xmlns="http://www.w3.org/2000/svg" width="128" height="128" viewBox="0 0 128 128">
  <defs>
    <style>
      .cls-1 {
        fill: #b3332f;
      }
    </style>
  </defs>
  <title>190429_GR-19-050601_Text_align-left_icon</title>
  <g>
    <path class="cls-1" d="M8.1,54.4H81.7A2.4,2.4,0,0,0,84.1,52V47.1a2.5,2.5,0,0,0-2.4-2.5H8.1a2.5,2.5,0,0,0-2.4,2.5V52a2.4,2.4,0,0,0,2.4,2.4Z"/>
    <path class="cls-1" d="M120.9,74H8.1a2.5,2.5,0,0,0-2.4,2.5v4.9a2.4,2.4,0,0,0,2.4,2.4H120.9a2.4,2.4,0,0,0,2.4-2.4V76.5a2.5,2.5,0,0,0-2.4-2.5Z"/>
    <g>
      <path class="cls-1" d="M81.7,103.5H8.1a2.4,2.4,0,0,0-2.4,2.4v4.9a2.5,2.5,0,0,0,2.4,2.5H81.7a2.5,2.5,0,0,0,2.4-2.5v-4.9a2.4,2.4,0,0,0-2.4-2.4Z"/>
      <path class="cls-1" d="M120.9,15.2H8.1a2.5,2.5,0,0,0-2.4,2.5v4.9A2.4,2.4,0,0,0,8.1,25H120.9a2.4,2.4,0,0,0,2.4-2.4V17.7a2.5,2.5,0,0,0-2.4-2.5Z"/>
    </g>
  </g>
</svg>
