<svg id="Layer_1" data-name="Layer 1" xmlns="http://www.w3.org/2000/svg" width="128" height="128" viewBox="0 0 128 128">
  <defs>
    <style>
      .cls-1 {
        fill: #565657;
      }

      .cls-2 {
        fill: #b0aeab;
      }

      .cls-3 {
        fill: #b3332f;
      }

      .cls-4 {
        fill: #ce5148;
      }

      .cls-5 {
        fill: #19282f;
      }
    </style>
  </defs>
  <title>190429_GR-19-050601_Un-Lock_icon</title>
  <g>
    <path class="cls-1" d="M66.1,6.9A29.7,29.7,0,0,0,36.3,36.7v.6H50v-.6a16.1,16.1,0,0,1,32.2,0V63.5H50V54.7H36.3V70.3a6.7,6.7,0,0,0,6.8,6.8H89a6.8,6.8,0,0,0,6.9-6.8V36.7A29.8,29.8,0,0,0,66.1,6.9Z"/>
    <path class="cls-2" d="M66.1,6.9A29.7,29.7,0,0,0,36.3,36.7v.6h6.8v-.6a23,23,0,0,1,23-23h0a23,23,0,0,1,23,23V70.3h-46V54.7H36.3V70.3a6.8,6.8,0,0,0,6.8,6.9h46a6.9,6.9,0,0,0,6.8-6.9V36.7A29.8,29.8,0,0,0,66.1,6.9Z"/>
    <path class="cls-3" d="M98.7,53.3H33.4a9.6,9.6,0,0,0-9.6,9.5v50.7a9.6,9.6,0,0,0,9.6,9.6H98.7a9.6,9.6,0,0,0,9.6-9.6V62.8a9.6,9.6,0,0,0-9.6-9.5Z"/>
    <path class="cls-4" d="M108.3,66.6V62.8a9.6,9.6,0,0,0-9.6-9.5H33.4a9.6,9.6,0,0,0-9.6,9.5v3.8Z"/>
    <path class="cls-4" d="M23.8,109.7v3.8a9.6,9.6,0,0,0,9.6,9.6H98.7a9.6,9.6,0,0,0,9.6-9.6v-3.8Z"/>
    <path class="cls-5" d="M73.5,82.5a7.4,7.4,0,0,0-7.4-7.4,7.5,7.5,0,0,0-7.5,7.4,7.7,7.7,0,0,0,4.1,6.7v8.6a3.4,3.4,0,0,0,6.8,0V89.2a7.6,7.6,0,0,0,4-6.7Z"/>
  </g>
</svg>
