<svg id="Layer_1" data-name="Layer 1" xmlns="http://www.w3.org/2000/svg" xmlns:xlink="http://www.w3.org/1999/xlink" width="128" height="128" viewBox="0 0 128 128">
  <defs>
    <style>
      .cls-1 {
        fill: none;
      }

      .cls-2 {
        clip-path: url(#clip-path);
      }

      .cls-3 {
        fill: #b3332f;
      }
    </style>
    <clipPath id="clip-path">
      <rect class="cls-1" x="10.5" y="10" width="108.1" height="108.46"/>
    </clipPath>
  </defs>
  <title>190429_GR-19-050601_Volume_mute_Icon</title>
  <g>
    <g class="cls-2">
      <path class="cls-3" d="M64.4,16,51.8,28.5,64.4,41.1V16ZM38.6,45.9H10.5v36H34.4l30,29.9V71.7"/>
    </g>
    <path d="M105.5,65.4a44.1,44.1,0,0,1-3,15.5l9,9c4.2-7.2,6-16.1,6-25.1A54.1,54.1,0,0,0,75.6,12V24.6c17.4,6,29.9,21.6,29.9,40.8Z"/>
    <path d="M64.6,71.7,90.4,97.5a50.2,50.2,0,0,1-13.8,7.2v12.6a51.2,51.2,0,0,0,22.2-10.8l12,12,7.7-7.8-53.9-54L18.5,10l-7.8,7.8L38.8,46"/>
    <path d="M90.7,63.9a26.1,26.1,0,0,0-15-24V53.1l15,15V63.9Z"/>
  </g>
</svg>
