<svg id="Layer_1" data-name="Layer 1" xmlns="http://www.w3.org/2000/svg" xmlns:xlink="http://www.w3.org/1999/xlink" width="128" height="128" viewBox="0 0 128 128">
  <defs>
    <style>
      .cls-1 {
        fill: none;
      }

      .cls-2 {
        fill: #565657;
      }

      .cls-3 {
        clip-path: url(#clip-path);
      }

      .cls-4 {
        fill: #b3332f;
      }
    </style>
    <clipPath id="clip-path">
      <rect class="cls-1" x="13.7" y="6.9" width="101.6" height="114.6"/>
    </clipPath>
  </defs>
  <title>190429_GR-19-050601_waiting on task completion_Icon</title>
  <g>
    <path class="cls-2" d="M61.9,61.6a2.6,2.6,0,1,0,5.2,0,12.7,12.7,0,0,1,3.1-8.3,55.6,55.6,0,0,0,9.7-16.7,2.6,2.6,0,0,0-.4-2.4,2.4,2.4,0,0,0-2.1-1.1H51.6a2.7,2.7,0,0,0-2.2,1.1,2.9,2.9,0,0,0-.3,2.4,55.6,55.6,0,0,0,9.7,16.7,12.7,12.7,0,0,1,3.1,8.3Z"/>
    <g class="cls-3">
      <path class="cls-4" d="M67.1,72.1a2.6,2.6,0,0,0-5.2,0c0,3.7-2.3,7.4-6.3,10.5C46.9,89,40.3,96,36.2,103.3a2.4,2.4,0,0,0,0,2.6,2.6,2.6,0,0,0,2.3,1.3h52a2.6,2.6,0,0,0,2.3-1.3,2.4,2.4,0,0,0,0-2.6C88.7,96,82.1,89,73.4,82.6c-4.1-3.1-6.3-6.8-6.3-10.5Z"/>
      <path d="M30.9,111.1c2-18.3,13.9-32.4,22.8-42.9l.5-.6a5.3,5.3,0,0,0,0-6.7l-.5-.6C44.8,49.8,32.9,35.7,30.9,17.4H98.1c-2,18.3-13.9,32.4-22.8,42.9l-.5.6a5.3,5.3,0,0,0,0,6.7l.5.6c8.9,10.5,20.8,24.6,22.8,42.9Zm79.2,0h-1.6c-1.8-20.2-13.6-35.8-22.9-46.9,9.3-11,21.1-26.6,22.9-46.8h1.6a5.3,5.3,0,0,0,0-10.5H18.9a5.3,5.3,0,0,0,0,10.5h1.6c1.8,20.2,13.6,35.8,22.9,46.8-9.3,11.1-21.1,26.6-22.9,46.9H18.9a5.2,5.2,0,1,0,0,10.4h91.2a5.2,5.2,0,0,0,0-10.4Z"/>
    </g>
  </g>
</svg>
