<svg id="Layer_1" data-name="Layer 1" xmlns="http://www.w3.org/2000/svg" xmlns:xlink="http://www.w3.org/1999/xlink" width="128" height="128" viewBox="0 0 128 128">
  <defs>
    <style>
      .cls-1, .cls-4 {
        fill: none;
      }

      .cls-2 {
        fill: #b3332f;
      }

      .cls-3 {
        clip-path: url(#clip-path);
      }

      .cls-4 {
        stroke: #000;
        stroke-miterlimit: 10;
        stroke-width: 2.06px;
      }
    </style>
    <clipPath id="clip-path">
      <rect class="cls-1" x="6.2" y="14.6" width="116.5" height="99.36"/>
    </clipPath>
  </defs>
  <title>190429_GR-19-050601_18.Notification_ warning_Icon</title>
  <g>
    <path class="cls-2" d="M82.6,59.3v.2a4.6,4.6,0,0,1-1.5,2.6l-10,10.1-.4.2.3.3L81.3,83a4.2,4.2,0,0,1,1.1,1.8,2.9,2.9,0,0,1,.2.9V87a4.6,4.6,0,0,1-3.2,3.5H77.5A4.2,4.2,0,0,1,75,89.2L64.8,79c-.1-.1-.2-.1-.3-.3l-.3.4L54,89.2a5.3,5.3,0,0,1-2,1.3H50.1a4.3,4.3,0,0,1-3.5-3.2,1.4,1.4,0,0,1-.2-.7V85.5a4.9,4.9,0,0,1,1.5-2.7l10-10,.4-.2a2.3,2.3,0,0,0-.5-.5c-3.4-3.4-6.7-6.8-10.1-10.1a5.9,5.9,0,0,1-1.2-2c0-.2-.1-.5-.1-.7V58a4.6,4.6,0,0,1,3.2-3.5h1.9a5.1,5.1,0,0,1,2.6,1.4l10,10.1.3.4h.2l.2-.3L75,55.7a5.1,5.1,0,0,1,2-1.2h2a4.7,4.7,0,0,1,3.6,3.9v1Zm38.1,43L70.5,19a7,7,0,0,0-12,0L8.3,102.3a6.8,6.8,0,0,0-.1,7,7,7,0,0,0,6.1,3.6H114.7a7,7,0,0,0,6.1-3.6,6.8,6.8,0,0,0-.1-7Z"/>
    <g class="cls-3">
      <path class="cls-4" d="M82.6,59.3v.2a4.6,4.6,0,0,1-1.5,2.6l-10,10.1-.4.2.3.3L81.3,83a4.2,4.2,0,0,1,1.1,1.8,2.9,2.9,0,0,1,.2.9V87a4.6,4.6,0,0,1-3.2,3.5H77.5A4.2,4.2,0,0,1,75,89.2L64.8,79c-.1-.1-.2-.1-.3-.3l-.3.4L54,89.2a5.3,5.3,0,0,1-2,1.3H50.1a4.3,4.3,0,0,1-3.5-3.2,1.4,1.4,0,0,1-.2-.7V85.5a4.9,4.9,0,0,1,1.5-2.7l10-10,.4-.2a2.3,2.3,0,0,0-.5-.5c-3.4-3.4-6.7-6.8-10.1-10.1a5.9,5.9,0,0,1-1.2-2c0-.2-.1-.5-.1-.7V58a4.6,4.6,0,0,1,3.2-3.5h1.9a5.1,5.1,0,0,1,2.6,1.4l10,10.1.3.4h.2l.2-.3L75,55.7a5.1,5.1,0,0,1,2-1.2h2a4.7,4.7,0,0,1,3.6,3.9v1Zm38.1,43L70.5,19a7,7,0,0,0-12,0L8.3,102.3a6.8,6.8,0,0,0-.1,7,7,7,0,0,0,6.1,3.6H114.7a7,7,0,0,0,6.1-3.6,6.8,6.8,0,0,0-.1-7Z"/>
    </g>
  </g>
</svg>
