<svg id="Layer_1" data-name="Layer 1" xmlns="http://www.w3.org/2000/svg" xmlns:xlink="http://www.w3.org/1999/xlink" width="128" height="128" viewBox="0 0 128 128">
  <defs>
    <style>
      .cls-1, .cls-4 {
        fill: none;
      }

      .cls-2 {
        fill: #b3332f;
      }

      .cls-3 {
        clip-path: url(#clip-path);
      }

      .cls-4 {
        stroke: #000;
        stroke-miterlimit: 10;
        stroke-width: 2.18px;
      }

      .cls-5 {
        fill: #fff;
      }
    </style>
    <clipPath id="clip-path">
      <rect class="cls-1" x="15.3" y="5.5" width="98.3" height="117.38"/>
    </clipPath>
  </defs>
  <title>190429_GR-19-050601_Web_Cam</title>
  <g>
    <path class="cls-2" d="M34,54.7A30.5,30.5,0,1,1,64.5,85.2,30.6,30.6,0,0,1,34,54.7Zm66.4,61.6L80,107.6v-7.4a48.1,48.1,0,1,0-31,0v7.4l-20.4,8.7a2.8,2.8,0,0,0-1.7,3.2,2.7,2.7,0,0,0,2.8,2.3H99.3a2.7,2.7,0,0,0,2.8-2.3,2.8,2.8,0,0,0-1.7-3.2Z"/>
    <g class="cls-3">
      <path class="cls-4" d="M34,54.7A30.5,30.5,0,1,1,64.5,85.2,30.6,30.6,0,0,1,34,54.7Zm66.4,61.6L80,107.6v-7.4a48.1,48.1,0,1,0-31,0v7.4l-20.4,8.7a2.8,2.8,0,0,0-1.7,3.2,2.7,2.7,0,0,0,2.8,2.3H99.3a2.7,2.7,0,0,0,2.8-2.3,2.8,2.8,0,0,0-1.7-3.2Z"/>
    </g>
    <path class="cls-5" d="M64.6,29.9A24.8,24.8,0,1,0,89.3,54.7,24.8,24.8,0,0,0,64.6,29.9Z"/>
    <path class="cls-4" d="M64.6,29.9A24.8,24.8,0,1,0,89.3,54.7,24.8,24.8,0,0,0,64.6,29.9Z"/>
    <path d="M64.6,72.8A18.2,18.2,0,0,1,46.4,54.7a13.4,13.4,0,0,1,.4-3.5,7.6,7.6,0,0,0,4.7,1.6,8.1,8.1,0,0,0,5-14.4,18.1,18.1,0,1,1,8.1,34.4Z"/>
  </g>
</svg>
