<svg id="Layer_1" data-name="Layer 1" xmlns="http://www.w3.org/2000/svg" width="128" height="128" viewBox="0 0 128 128">
  <defs>
    <style>
      .cls-1 {
        fill: #b3332f;
      }

      .cls-2 {
        fill: #d8d7d5;
      }

      .cls-3 {
        fill: #b0aeab;
      }
    </style>
  </defs>
  <title>190429_GR-19-050601_wifi-signal</title>
  <g>
    <path class="cls-1" d="M114.6,49.4c0-.1-.1-.1-.1-.2a70.7,70.7,0,0,0-100,0,1.2,1.2,0,0,0,0,1.6l7.3,7.3a1.2,1.2,0,0,0,1.6,0,58.2,58.2,0,0,1,82.2,0,1.2,1.2,0,0,0,1.6,0l7.3-7.3a1.1,1.1,0,0,0,.3-.8,1.4,1.4,0,0,0-.2-.6Z"/>
    <path d="M64.5,47.9a51,51,0,0,0-36.3,15,1.2,1.2,0,0,0,0,1.6l7.3,7.3a1.1,1.1,0,0,0,.8.3,1.3,1.3,0,0,0,.8-.3,38.6,38.6,0,0,1,54.8,0,1.3,1.3,0,0,0,.8.3,1.1,1.1,0,0,0,.8-.3l7.3-7.3a1.2,1.2,0,0,0,0-1.6,51,51,0,0,0-36.3-15Z"/>
    <path class="cls-2" d="M64.5,67.2a31.5,31.5,0,0,0-22.6,9.4,1.2,1.2,0,0,0-.4.8,1,1,0,0,0,.4.7l7.3,7.3a.9.9,0,0,0,.7.3,1.1,1.1,0,0,0,.8-.3,19.6,19.6,0,0,1,27.6,0,1.1,1.1,0,0,0,.8.3.9.9,0,0,0,.7-.3l7.3-7.3a.9.9,0,0,0,0-1.5,31.5,31.5,0,0,0-22.6-9.4Z"/>
    <path class="cls-3" d="M64.5,87.7a11,11,0,0,0-7.9,3.2,1.2,1.2,0,0,0,0,1.6l7.1,7.1a1.2,1.2,0,0,0,1.6,0l7.1-7.1a1.2,1.2,0,0,0,0-1.6,11,11,0,0,0-7.9-3.2Z"/>
  </g>
</svg>
