<svg id="Layer_1" data-name="Layer 1" xmlns="http://www.w3.org/2000/svg" xmlns:xlink="http://www.w3.org/1999/xlink" width="128" height="128" viewBox="0 0 128 128">
  <defs>
    <style>
      .cls-1 {
        fill: none;
      }

      .cls-2 {
        clip-path: url(#clip-path);
      }

      .cls-3 {
        fill: #b3332f;
      }

      .cls-4 {
        fill: #a6aa44;
      }
    </style>
    <clipPath id="clip-path">
      <rect class="cls-1" x="10.4" y="10.1" width="108.3" height="108.28"/>
    </clipPath>
  </defs>
  <title>190429_GR-19-050601_Zoom_in_Icon</title>
  <g>
    <g class="cls-2">
      <path class="cls-3" d="M76.8,76.5a28.2,28.2,0,0,1-20.6,8.6,28,28,0,0,1-20.6-8.6A28.2,28.2,0,0,1,27,55.9a28.2,28.2,0,0,1,8.6-20.6,27.9,27.9,0,0,1,20.6-8.5,28.1,28.1,0,0,1,20.6,8.5,28.1,28.1,0,0,1,8.5,20.6,28.1,28.1,0,0,1-8.5,20.6Zm39.4,27.7L93.9,81.9a44.5,44.5,0,0,0,8.1-26,45.3,45.3,0,0,0-3.6-17.8A45.5,45.5,0,0,0,74,13.7a46.2,46.2,0,0,0-50.3,9.8A46,46,0,0,0,14,38.1a45.8,45.8,0,0,0,0,35.6,46.5,46.5,0,0,0,9.7,14.7,47,47,0,0,0,14.7,9.7,45.9,45.9,0,0,0,43.7-4.4l22.4,22.2a7.4,7.4,0,0,0,5.8,2.5,7.8,7.8,0,0,0,5.9-2.5,8.3,8.3,0,0,0,0-11.7Z"/>
    </g>
    <path class="cls-4" d="M74.9,51.7H60.3V37.2a2,2,0,0,0-.6-1.5,2,2,0,0,0-1.4-.6H54.1A2.1,2.1,0,0,0,52,37.2V51.7H37.4a2.1,2.1,0,0,0-1.4.7,2,2,0,0,0-.6,1.4V58a2.2,2.2,0,0,0,.6,1.5,2,2,0,0,0,1.4.6H52V74.7a2,2,0,0,0,.6,1.4,2,2,0,0,0,1.5.6h4.2a2.1,2.1,0,0,0,2-2V60.1H74.9a2,2,0,0,0,1.5-.6A2.2,2.2,0,0,0,77,58V53.8a2,2,0,0,0-.6-1.4,2.1,2.1,0,0,0-1.5-.7Z"/>
  </g>
</svg>
